<?xml version="1.0" encoding="UTF-8" standalone="no"?><svg xmlns="http://www.w3.org/2000/svg" xmlns:xlink="http://www.w3.org/1999/xlink" clip-rule="evenodd" stroke-miterlimit="4.00" viewBox="0 0 1920 1080"><desc>SVG generated by Keynote</desc><defs></defs><g transform="matrix(1.00, 0.00, -0.00, -1.00, 0.0, 1080.0)"><path d="M 0.0 1080.0 L 1920.0 1080.0 L 1920.0 0.0 L 0.0 0.0 Z M 0.0 1080.0 " fill="#FFFFFF"></path><image xlink:href="../../D63917A7-B147-45F2-8899-412B3047908F/assets/1B7A265E870C0A530AD3F923F65E3246.png" width="1343.00" height="29.00" transform="matrix(1.00, 0.00, -0.00, -0.99, 303.2, 880.6)" opacity="0.38"></image><path d="M 0.0 0.0 L 1313.9 0.0 L 1315.9 0.0 " fill="none" stroke="#525252" stroke-width="4.00" transform="matrix(1.00, 0.00, 0.00, -1.00, 309.2, 869.2)"></path><path d="M 1623.1 860.8 L 1639.9 869.2 L 1623.1 877.6 Z M 1623.1 860.8 " fill="#525252"></path><image xlink:href="../../D63917A7-B147-45F2-8899-412B3047908F/assets/7DE9721CDD90EADB124642BCA2C782A5.png" width="304.00" height="175.00" transform="matrix(1.00, 0.00, -0.00, -1.01, 280.0, 957.0)"></image><image xlink:href="../../D63917A7-B147-45F2-8899-412B3047908F/assets/B16CB4A522C84482FCD03EC70DA63204.png" width="105.00" height="105.00" transform="matrix(0.99, 0.00, -0.00, -0.99, 647.0, 921.0)"></image><image xlink:href="../../D63917A7-B147-45F2-8899-412B3047908F/assets/76CA0AAF309BBEB3EDE84726C0DC5B88.png" width="162.00" height="112.00" transform="matrix(1.00, 0.00, -0.00, -1.00, 815.0, 925.0)"></image><g><clipPath id="clip-1132"><path d="M 1105.9 808.0 L 1105.9 900.1 L 1121.9 900.1 L 1121.9 808.0 Z M 1105.9 808.0 "></path></clipPath><g clip-path="url(#clip-1132)"><image xlink:href="../../D63917A7-B147-45F2-8899-412B3047908F/assets/E27BC44AC49F589D342BB0D8D530AF76.png" width="90.00" height="14.00" transform="matrix(0.00, 1.00, 1.00, -0.00, 1106.9, 809.0)" opacity="0.38"></image><path d="M 0.0 0.0 L 78.2 0.0 " fill="none" stroke="#525252" stroke-width="2.00" transform="matrix(0.00, 1.00, 1.00, 0.00, 1113.9, 818.0)"></path></g></g><g><clipPath id="clip-1133"><path d="M 957.6 876.7 L 1270.2 876.7 L 1270.2 1012.6 L 957.6 1012.6 Z M 957.6 876.7 "></path></clipPath><g clip-path="url(#clip-1133)"><text xml:space="preserve" font-family="SourceSansPro-Regular" font-size="38.0" fill="#525252" transform="matrix(1.00, 0.00, -0.00, -1.00, 1023.0, 964.0)">A</text><text xml:space="preserve" font-family="SourceSansPro-Regular" font-size="38.0" fill="#525252" transform="matrix(1.00, 0.00, -0.00, -1.00, 1043.7, 964.0)">p</text><text xml:space="preserve" font-family="SourceSansPro-Regular" font-size="38.0" fill="#525252" transform="matrix(1.00, 0.00, -0.00, -1.00, 1064.8, 964.0)">p</text><text xml:space="preserve" font-family="SourceSansPro-Regular" font-size="38.0" fill="#525252" transform="matrix(1.00, 0.00, -0.00, -1.00, 1085.9, 964.0)">l</text><text xml:space="preserve" font-family="SourceSansPro-Regular" font-size="38.0" fill="#525252" transform="matrix(1.00, 0.00, -0.00, -1.00, 1095.5, 964.0)">i</text><text xml:space="preserve" font-family="SourceSansPro-Regular" font-size="38.0" fill="#525252" transform="matrix(1.00, 0.00, -0.00, -1.00, 1104.9, 964.0)">c</text><text xml:space="preserve" font-family="SourceSansPro-Regular" font-size="38.0" fill="#525252" transform="matrix(1.00, 0.00, -0.00, -1.00, 1121.8, 964.0)">a</text><text xml:space="preserve" font-family="SourceSansPro-Regular" font-size="38.0" fill="#525252" transform="matrix(1.00, 0.00, -0.00, -1.00, 1141.3, 964.0)">t</text><text xml:space="preserve" font-family="SourceSansPro-Regular" font-size="38.0" fill="#525252" transform="matrix(1.00, 0.00, -0.00, -1.00, 1154.1, 964.0)">i</text><text xml:space="preserve" font-family="SourceSansPro-Regular" font-size="38.0" fill="#525252" transform="matrix(1.00, 0.00, -0.00, -1.00, 1163.5, 964.0)">o</text><text xml:space="preserve" font-family="SourceSansPro-Regular" font-size="38.0" fill="#525252" transform="matrix(1.00, 0.00, -0.00, -1.00, 1184.1, 964.0)">n</text><text xml:space="preserve" font-family="SourceSansPro-Regular" font-size="38.0" fill="#525252" transform="matrix(1.00, 0.00, -0.00, -1.00, 1204.9, 964.0)"> </text><text xml:space="preserve" font-family="SourceSansPro-Regular" font-size="38.0" fill="#525252" transform="matrix(1.00, 0.00, -0.00, -1.00, 1061.0, 917.0)">r</text><text xml:space="preserve" font-family="SourceSansPro-Regular" font-size="38.0" fill="#525252" transform="matrix(1.00, 0.00, -0.00, -1.00, 1073.8, 917.0)">e</text><text xml:space="preserve" font-family="SourceSansPro-Regular" font-size="38.0" fill="#525252" transform="matrix(1.00, 0.00, -0.00, -1.00, 1092.8, 917.0)">v</text><text xml:space="preserve" font-family="SourceSansPro-Regular" font-size="38.0" fill="#525252" transform="matrix(1.00, 0.00, -0.00, -1.00, 1110.6, 917.0)">i</text><text xml:space="preserve" font-family="SourceSansPro-Regular" font-size="38.0" fill="#525252" transform="matrix(1.00, 0.00, -0.00, -1.00, 1119.9, 917.0)">e</text><text xml:space="preserve" font-family="SourceSansPro-Regular" font-size="38.0" fill="#525252" transform="matrix(1.00, 0.00, -0.00, -1.00, 1139.0, 917.0)">w</text></g></g><image xlink:href="../../D63917A7-B147-45F2-8899-412B3047908F/assets/B16CB4A522C84482FCD03EC70DA63204.png" width="105.00" height="105.00" transform="matrix(0.99, 0.00, -0.00, -0.99, 1229.0, 921.0)"></image><g><clipPath id="clip-1134"><path d="M 1451.2 808.0 L 1451.2 900.1 L 1467.2 900.1 L 1467.2 808.0 Z M 1451.2 808.0 "></path></clipPath><g clip-path="url(#clip-1134)"><image xlink:href="../../D63917A7-B147-45F2-8899-412B3047908F/assets/E27BC44AC49F589D342BB0D8D530AF76.png" width="90.00" height="14.00" transform="matrix(0.00, 1.00, 1.00, -0.00, 1452.2, 809.0)" opacity="0.38"></image><path d="M 0.0 0.0 L 78.2 0.0 " fill="none" stroke="#525252" stroke-width="2.00" transform="matrix(0.00, 1.00, 1.00, 0.00, 1459.2, 818.0)"></path></g></g><g><clipPath id="clip-1135"><path d="M 1302.9 876.7 L 1615.5 876.7 L 1615.5 1012.6 L 1302.9 1012.6 Z M 1302.9 876.7 "></path></clipPath><g clip-path="url(#clip-1135)"><text xml:space="preserve" font-family="SourceSansPro-Regular" font-size="38.0" fill="#525252" transform="matrix(1.00, 0.00, -0.00, -1.00, 1398.0, 964.0)">R</text><text xml:space="preserve" font-family="SourceSansPro-Regular" font-size="38.0" fill="#525252" transform="matrix(1.00, 0.00, -0.00, -1.00, 1419.7, 964.0)">e</text><text xml:space="preserve" font-family="SourceSansPro-Regular" font-size="38.0" fill="#525252" transform="matrix(1.00, 0.00, -0.00, -1.00, 1438.5, 964.0)">c</text><text xml:space="preserve" font-family="SourceSansPro-Regular" font-size="38.0" fill="#525252" transform="matrix(1.00, 0.00, -0.00, -1.00, 1455.1, 964.0)">e</text><text xml:space="preserve" font-family="SourceSansPro-Regular" font-size="38.0" fill="#525252" transform="matrix(1.00, 0.00, -0.00, -1.00, 1473.9, 964.0)">i</text><text xml:space="preserve" font-family="SourceSansPro-Regular" font-size="38.0" fill="#525252" transform="matrix(1.00, 0.00, -0.00, -1.00, 1483.3, 964.0)">v</text><text xml:space="preserve" font-family="SourceSansPro-Regular" font-size="38.0" fill="#525252" transform="matrix(1.00, 0.00, -0.00, -1.00, 1500.9, 964.0)">e</text><text xml:space="preserve" font-family="SourceSansPro-Regular" font-size="38.0" fill="#525252" transform="matrix(1.00, 0.00, -0.00, -1.00, 1519.7, 964.0)"> </text><text xml:space="preserve" font-family="SourceSansPro-Regular" font-size="38.0" fill="#525252" transform="matrix(1.00, 0.00, -0.00, -1.00, 1527.4, 964.0)"> </text><text xml:space="preserve" font-family="SourceSansPro-Regular" font-size="38.0" fill="#525252" transform="matrix(1.00, 0.00, -0.00, -1.00, 1417.0, 917.0)">l</text><text xml:space="preserve" font-family="SourceSansPro-Regular" font-size="38.0" fill="#525252" transform="matrix(1.00, 0.00, -0.00, -1.00, 1426.7, 917.0)">e</text><text xml:space="preserve" font-family="SourceSansPro-Regular" font-size="38.0" fill="#525252" transform="matrix(1.00, 0.00, -0.00, -1.00, 1445.0, 917.0)">a</text><text xml:space="preserve" font-family="SourceSansPro-Regular" font-size="38.0" fill="#525252" transform="matrix(1.00, 0.00, -0.00, -1.00, 1464.5, 917.0)">d</text><text xml:space="preserve" font-family="SourceSansPro-Regular" font-size="38.0" fill="#525252" transform="matrix(1.00, 0.00, -0.00, -1.00, 1485.6, 917.0)">s</text></g></g><image xlink:href="../../D63917A7-B147-45F2-8899-412B3047908F/assets/F2C7585A9DFE952C8F639FDC076DB6FD.jpeg" width="607.00" height="698.00" transform="matrix(1.00, 0.00, -0.00, -1.00, 606.0, 770.0)"></image><path d="M 0.1 0.0 C 0.1 38.2 0.0 76.4 0.0 114.6 L 0.0 116.6 " fill="none" stroke="#525252" stroke-width="4.00" stroke-linejoin="round" transform="matrix(1.00, 0.00, 0.00, -1.00, 895.7, 825.8)"></path><path d="M 902.7 704.2 C 902.7 700.3 899.6 697.2 895.7 697.2 C 891.9 697.2 888.7 700.3 888.7 704.2 C 888.7 708.0 891.9 711.2 895.7 711.2 C 899.6 711.2 902.7 708.0 902.7 704.2 Z M 902.7 704.2 " fill="#525252"></path><text xml:space="preserve" font-family="SourceSansPro-Regular" font-size="36.0" fill="#525252" transform="matrix(1.00, 0.00, -0.00, -1.00, 834.0, 17.0)">s</text><text xml:space="preserve" font-family="SourceSansPro-Regular" font-size="36.0" fill="#525252" transform="matrix(1.00, 0.00, -0.00, -1.00, 852.7, 17.0)">o</text><text xml:space="preserve" font-family="SourceSansPro-Regular" font-size="36.0" fill="#525252" transform="matrix(1.00, 0.00, -0.00, -1.00, 875.8, 17.0)">p</text><text xml:space="preserve" font-family="SourceSansPro-Regular" font-size="36.0" fill="#525252" transform="matrix(1.00, 0.00, -0.00, -1.00, 899.4, 17.0)">h</text><text xml:space="preserve" font-family="SourceSansPro-Regular" font-size="36.0" fill="#525252" transform="matrix(1.00, 0.00, -0.00, -1.00, 922.6, 17.0)">i</text><text xml:space="preserve" font-family="SourceSansPro-Regular" font-size="36.0" fill="#525252" transform="matrix(1.00, 0.00, -0.00, -1.00, 935.0, 17.0)">a</text><text xml:space="preserve" font-family="SourceSansPro-Regular" font-size="36.0" fill="#525252" transform="matrix(1.00, 0.00, -0.00, -1.00, 957.0, 17.0)">k</text><text xml:space="preserve" font-family="SourceSansPro-Regular" font-size="36.0" fill="#525252" transform="matrix(1.00, 0.00, -0.00, -1.00, 977.8, 17.0)">c</text><text xml:space="preserve" font-family="SourceSansPro-Regular" font-size="36.0" fill="#525252" transform="matrix(1.00, 0.00, -0.00, -1.00, 997.8, 17.0)">.</text><text xml:space="preserve" font-family="SourceSansPro-Regular" font-size="36.0" fill="#525252" transform="matrix(1.00, 0.00, -0.00, -1.00, 1010.1, 17.0)">c</text><text xml:space="preserve" font-family="SourceSansPro-Regular" font-size="36.0" fill="#525252" transform="matrix(1.00, 0.00, -0.00, -1.00, 1029.4, 17.0)">o</text><text xml:space="preserve" font-family="SourceSansPro-Regular" font-size="36.0" fill="#525252" transform="matrix(1.00, 0.00, -0.00, -1.00, 1052.5, 17.0)">m</text><g><clipPath id="clip-1136"><path d="M 1295.4 83.5 L 1384.4 83.5 L 1384.4 172.4 L 1295.4 172.4 Z M 1295.4 83.5 "></path></clipPath><g clip-path="url(#clip-1136)"><image xlink:href="../../D63917A7-B147-45F2-8899-412B3047908F/assets/8939060E90038412266C221ABFCF47C7.jpeg" width="89.00" height="89.00" transform="matrix(1.00, 0.00, -0.00, -1.00, 1295.0, 172.0)"></image></g></g><g><clipPath id="clip-1137"><path d="M 1431.2 97.8 L 1563.1 97.8 L 1563.1 158.2 L 1431.2 158.2 Z M 1431.2 97.8 "></path></clipPath><g clip-path="url(#clip-1137)"><image xlink:href="../../D63917A7-B147-45F2-8899-412B3047908F/assets/B0709A4517F69EE60C461467A5423F25.png" width="132.00" height="60.00" transform="matrix(1.00, 0.00, -0.00, -1.00, 1431.0, 158.0)"></image></g></g><g><clipPath id="clip-1138"><path d="M 1610.0 83.5 L 1698.9 83.5 L 1698.9 172.4 L 1610.0 172.4 Z M 1610.0 83.5 "></path></clipPath><g clip-path="url(#clip-1138)"><image xlink:href="../../D63917A7-B147-45F2-8899-412B3047908F/assets/118142F1D45D396D6F3F2D1E6F52BB92.png" width="89.00" height="89.00" transform="matrix(1.00, 0.00, -0.00, -1.00, 1610.0, 172.0)"></image></g></g><g><clipPath id="clip-1139"><path d="M 1745.8 81.3 L 1834.7 81.3 L 1834.7 174.7 L 1745.8 174.7 Z M 1745.8 81.3 "></path></clipPath><g clip-path="url(#clip-1139)"><image xlink:href="../../D63917A7-B147-45F2-8899-412B3047908F/assets/8262E17DF5D92E8090AF48B2B7189E18.png" width="89.00" height="94.00" transform="matrix(1.00, 0.00, -0.00, -1.00, 1746.0, 175.0)"></image></g></g><text xml:space="preserve" font-family="PermanentMarker" font-size="24.0" fill="#0432FF" transform="matrix(1.00, 0.00, -0.00, -1.00, 1315.0, 250.0)">I</text><text xml:space="preserve" font-family="PermanentMarker" font-size="24.0" fill="#0432FF" transform="matrix(1.00, 0.00, -0.00, -1.00, 1327.4, 250.0)">n</text><text xml:space="preserve" font-family="PermanentMarker" font-size="24.0" fill="#0432FF" transform="matrix(1.00, 0.00, -0.00, -1.00, 1340.9, 250.0)">t</text><text xml:space="preserve" font-family="PermanentMarker" font-size="24.0" fill="#0432FF" transform="matrix(1.00, 0.00, -0.00, -1.00, 1352.4, 250.0)">e</text><text xml:space="preserve" font-family="PermanentMarker" font-size="24.0" fill="#0432FF" transform="matrix(1.00, 0.00, -0.00, -1.00, 1365.0, 250.0)">g</text><text xml:space="preserve" font-family="PermanentMarker" font-size="24.0" fill="#0432FF" transform="matrix(1.00, 0.00, -0.00, -1.00, 1380.6, 250.0)">r</text><text xml:space="preserve" font-family="PermanentMarker" font-size="24.0" fill="#0432FF" transform="matrix(1.00, 0.00, -0.00, -1.00, 1393.6, 250.0)">a</text><text xml:space="preserve" font-family="PermanentMarker" font-size="24.0" fill="#0432FF" transform="matrix(1.00, 0.00, -0.00, -1.00, 1406.4, 250.0)">t</text><text xml:space="preserve" font-family="PermanentMarker" font-size="24.0" fill="#0432FF" transform="matrix(1.00, 0.00, -0.00, -1.00, 1417.9, 250.0)">i</text><text xml:space="preserve" font-family="PermanentMarker" font-size="24.0" fill="#0432FF" transform="matrix(1.00, 0.00, -0.00, -1.00, 1425.1, 250.0)">o</text><text xml:space="preserve" font-family="PermanentMarker" font-size="24.0" fill="#0432FF" transform="matrix(1.00, 0.00, -0.00, -1.00, 1440.2, 250.0)">n</text><text xml:space="preserve" font-family="PermanentMarker" font-size="24.0" fill="#0432FF" transform="matrix(1.00, 0.00, -0.00, -1.00, 1453.8, 250.0)">s</text><text xml:space="preserve" font-family="PermanentMarker" font-size="24.0" fill="#0432FF" transform="matrix(1.00, 0.00, -0.00, -1.00, 1464.9, 250.0)"> </text><text xml:space="preserve" font-family="PermanentMarker" font-size="24.0" fill="#0432FF" transform="matrix(1.00, 0.00, -0.00, -1.00, 1473.8, 250.0)">f</text><text xml:space="preserve" font-family="PermanentMarker" font-size="24.0" fill="#0432FF" transform="matrix(1.00, 0.00, -0.00, -1.00, 1484.7, 250.0)">o</text><text xml:space="preserve" font-family="PermanentMarker" font-size="24.0" fill="#0432FF" transform="matrix(1.00, 0.00, -0.00, -1.00, 1499.8, 250.0)">r</text><text xml:space="preserve" font-family="PermanentMarker" font-size="24.0" fill="#0432FF" transform="matrix(1.00, 0.00, -0.00, -1.00, 1512.8, 250.0)"> </text><text xml:space="preserve" font-family="PermanentMarker" font-size="24.0" fill="#0432FF" transform="matrix(1.00, 0.00, -0.00, -1.00, 1521.7, 250.0)"> </text><text xml:space="preserve" font-family="PermanentMarker" font-size="24.0" fill="#0432FF" transform="matrix(1.00, 0.00, -0.00, -1.00, 1315.0, 214.0)">a</text><text xml:space="preserve" font-family="PermanentMarker" font-size="24.0" fill="#0432FF" transform="matrix(1.00, 0.00, -0.00, -1.00, 1328.2, 214.0)">u</text><text xml:space="preserve" font-family="PermanentMarker" font-size="24.0" fill="#0432FF" transform="matrix(1.00, 0.00, -0.00, -1.00, 1342.3, 214.0)">t</text><text xml:space="preserve" font-family="PermanentMarker" font-size="24.0" fill="#0432FF" transform="matrix(1.00, 0.00, -0.00, -1.00, 1353.1, 214.0)">o</text><text xml:space="preserve" font-family="PermanentMarker" font-size="24.0" fill="#0432FF" transform="matrix(1.00, 0.00, -0.00, -1.00, 1368.1, 214.0)"> </text><text xml:space="preserve" font-family="PermanentMarker" font-size="24.0" fill="#0432FF" transform="matrix(1.00, 0.00, -0.00, -1.00, 1377.0, 214.0)">c</text><text xml:space="preserve" font-family="PermanentMarker" font-size="24.0" fill="#0432FF" transform="matrix(1.00, 0.00, -0.00, -1.00, 1389.3, 214.0)">o</text><text xml:space="preserve" font-family="PermanentMarker" font-size="24.0" fill="#0432FF" transform="matrix(1.00, 0.00, -0.00, -1.00, 1404.4, 214.0)">n</text><text xml:space="preserve" font-family="PermanentMarker" font-size="24.0" fill="#0432FF" transform="matrix(1.00, 0.00, -0.00, -1.00, 1418.0, 214.0)">v</text><text xml:space="preserve" font-family="PermanentMarker" font-size="24.0" fill="#0432FF" transform="matrix(1.00, 0.00, -0.00, -1.00, 1429.7, 214.0)">e</text><text xml:space="preserve" font-family="PermanentMarker" font-size="24.0" fill="#0432FF" transform="matrix(1.00, 0.00, -0.00, -1.00, 1442.0, 214.0)">r</text><text xml:space="preserve" font-family="PermanentMarker" font-size="24.0" fill="#0432FF" transform="matrix(1.00, 0.00, -0.00, -1.00, 1454.9, 214.0)">s</text><text xml:space="preserve" font-family="PermanentMarker" font-size="24.0" fill="#0432FF" transform="matrix(1.00, 0.00, -0.00, -1.00, 1466.1, 214.0)">i</text><text xml:space="preserve" font-family="PermanentMarker" font-size="24.0" fill="#0432FF" transform="matrix(1.00, 0.00, -0.00, -1.00, 1473.3, 214.0)">o</text><text xml:space="preserve" font-family="PermanentMarker" font-size="24.0" fill="#0432FF" transform="matrix(1.00, 0.00, -0.00, -1.00, 1488.4, 214.0)">n</text><text xml:space="preserve" font-family="PermanentMarker" font-size="24.0" fill="#0432FF" transform="matrix(1.00, 0.00, -0.00, -1.00, 1501.9, 214.0)"> </text><text xml:space="preserve" font-family="PermanentMarker" font-size="24.0" fill="#0432FF" transform="matrix(1.00, 0.00, -0.00, -1.00, 1510.8, 214.0)">t</text><text xml:space="preserve" font-family="PermanentMarker" font-size="24.0" fill="#0432FF" transform="matrix(1.00, 0.00, -0.00, -1.00, 1522.3, 214.0)">r</text><text xml:space="preserve" font-family="PermanentMarker" font-size="24.0" fill="#0432FF" transform="matrix(1.00, 0.00, -0.00, -1.00, 1535.3, 214.0)">a</text><text xml:space="preserve" font-family="PermanentMarker" font-size="24.0" fill="#0432FF" transform="matrix(1.00, 0.00, -0.00, -1.00, 1549.3, 214.0)">c</text><text xml:space="preserve" font-family="PermanentMarker" font-size="24.0" fill="#0432FF" transform="matrix(1.00, 0.00, -0.00, -1.00, 1561.6, 214.0)">k</text><text xml:space="preserve" font-family="PermanentMarker" font-size="24.0" fill="#0432FF" transform="matrix(1.00, 0.00, -0.00, -1.00, 1577.1, 214.0)">i</text><text xml:space="preserve" font-family="PermanentMarker" font-size="24.0" fill="#0432FF" transform="matrix(1.00, 0.00, -0.00, -1.00, 1584.8, 214.0)">n</text><text xml:space="preserve" font-family="PermanentMarker" font-size="24.0" fill="#0432FF" transform="matrix(1.00, 0.00, -0.00, -1.00, 1598.3, 214.0)">g</text></g></svg>