<?xml version="1.0" encoding="UTF-8" standalone="no"?><svg xmlns="http://www.w3.org/2000/svg" xmlns:xlink="http://www.w3.org/1999/xlink" clip-rule="evenodd" stroke-miterlimit="4.00" viewBox="0 0 1920 1080"><desc>SVG generated by Keynote</desc><defs></defs><g transform="matrix(1.00, 0.00, -0.00, -1.00, 0.0, 1080.0)"><path d="M 0.0 1080.0 L 1920.0 1080.0 L 1920.0 0.0 L 0.0 0.0 Z M 0.0 1080.0 " fill="#FFFFFF"></path><path d="M 131.1 943.2 L 412.5 943.2 L 412.5 836.2 L 131.1 836.2 Z M 131.1 943.2 " fill="#0432FF"></path><text xml:space="preserve" font-family="SourceSansPro-Semibold" font-weight="bold" font-size="85.0" fill="#FFFFFF" transform="matrix(1.00, 0.00, -0.00, -1.00, 131.0, 859.0)">P</text><text xml:space="preserve" font-family="SourceSansPro-Semibold" font-weight="bold" font-size="85.0" fill="#FFFFFF" transform="matrix(1.00, 0.00, -0.00, -1.00, 181.3, 859.0)">r</text><text xml:space="preserve" font-family="SourceSansPro-Semibold" font-weight="bold" font-size="85.0" fill="#FFFFFF" transform="matrix(1.00, 0.00, -0.00, -1.00, 212.2, 859.0)">o</text><text xml:space="preserve" font-family="SourceSansPro-Semibold" font-weight="bold" font-size="85.0" fill="#FFFFFF" transform="matrix(1.00, 0.00, -0.00, -1.00, 258.8, 859.0)">c</text><text xml:space="preserve" font-family="SourceSansPro-Semibold" font-weight="bold" font-size="85.0" fill="#FFFFFF" transform="matrix(1.00, 0.00, -0.00, -1.00, 296.1, 859.0)">e</text><text xml:space="preserve" font-family="SourceSansPro-Semibold" font-weight="bold" font-size="85.0" fill="#FFFFFF" transform="matrix(1.00, 0.00, -0.00, -1.00, 339.2, 859.0)">s</text><text xml:space="preserve" font-family="SourceSansPro-Semibold" font-weight="bold" font-size="85.0" fill="#FFFFFF" transform="matrix(1.00, 0.00, -0.00, -1.00, 375.8, 859.0)">s</text><text xml:space="preserve" font-family="SourceSansPro-Regular" font-size="36.0" fill="#525252" transform="matrix(1.00, 0.00, -0.00, -1.00, 834.0, 17.0)">s</text><text xml:space="preserve" font-family="SourceSansPro-Regular" font-size="36.0" fill="#525252" transform="matrix(1.00, 0.00, -0.00, -1.00, 852.7, 17.0)">o</text><text xml:space="preserve" font-family="SourceSansPro-Regular" font-size="36.0" fill="#525252" transform="matrix(1.00, 0.00, -0.00, -1.00, 875.8, 17.0)">p</text><text xml:space="preserve" font-family="SourceSansPro-Regular" font-size="36.0" fill="#525252" transform="matrix(1.00, 0.00, -0.00, -1.00, 899.4, 17.0)">h</text><text xml:space="preserve" font-family="SourceSansPro-Regular" font-size="36.0" fill="#525252" transform="matrix(1.00, 0.00, -0.00, -1.00, 922.6, 17.0)">i</text><text xml:space="preserve" font-family="SourceSansPro-Regular" font-size="36.0" fill="#525252" transform="matrix(1.00, 0.00, -0.00, -1.00, 935.0, 17.0)">a</text><text xml:space="preserve" font-family="SourceSansPro-Regular" font-size="36.0" fill="#525252" transform="matrix(1.00, 0.00, -0.00, -1.00, 957.0, 17.0)">k</text><text xml:space="preserve" font-family="SourceSansPro-Regular" font-size="36.0" fill="#525252" transform="matrix(1.00, 0.00, -0.00, -1.00, 977.8, 17.0)">c</text><text xml:space="preserve" font-family="SourceSansPro-Regular" font-size="36.0" fill="#525252" transform="matrix(1.00, 0.00, -0.00, -1.00, 997.8, 17.0)">.</text><text xml:space="preserve" font-family="SourceSansPro-Regular" font-size="36.0" fill="#525252" transform="matrix(1.00, 0.00, -0.00, -1.00, 1010.1, 17.0)">c</text><text xml:space="preserve" font-family="SourceSansPro-Regular" font-size="36.0" fill="#525252" transform="matrix(1.00, 0.00, -0.00, -1.00, 1029.4, 17.0)">o</text><text xml:space="preserve" font-family="SourceSansPro-Regular" font-size="36.0" fill="#525252" transform="matrix(1.00, 0.00, -0.00, -1.00, 1052.5, 17.0)">m</text><g><clipPath id="clip-1069"><path d="M 114.7 692.4 L 644.8 692.4 L 644.8 756.0 L 114.7 756.0 Z M 114.7 692.4 "></path></clipPath><g clip-path="url(#clip-1069)"><path d="M 130.7 756.0 L 168.8 756.0 L 168.8 691.0 L 130.7 691.0 Z M 130.7 756.0 " fill="#0432FF"></path></g></g><text xml:space="preserve" font-family="ZapfDingbatsITC" font-size="45.0" fill="#FFFFFF" transform="matrix(1.00, 0.00, -0.00, -1.00, 131.0, 707.0)">✔</text><text xml:space="preserve" font-family="ZapfDingbatsITC" font-size="45.0" fill="#525252" transform="matrix(1.00, 0.00, -0.00, -1.00, 169.1, 707.0)"> </text><text xml:space="preserve" font-family="PermanentMarker" font-size="45.0" fill="#525252" transform="matrix(1.00, 0.00, -0.00, -1.00, 181.6, 707.0)">S</text><text xml:space="preserve" font-family="PermanentMarker" font-size="45.0" fill="#525252" transform="matrix(1.00, 0.00, -0.00, -1.00, 207.5, 707.0)">t</text><text xml:space="preserve" font-family="PermanentMarker" font-size="45.0" fill="#525252" transform="matrix(1.00, 0.00, -0.00, -1.00, 226.9, 707.0)">a</text><text xml:space="preserve" font-family="PermanentMarker" font-size="45.0" fill="#525252" transform="matrix(1.00, 0.00, -0.00, -1.00, 250.8, 707.0)">t</text><text xml:space="preserve" font-family="PermanentMarker" font-size="45.0" fill="#525252" transform="matrix(1.00, 0.00, -0.00, -1.00, 272.4, 707.0)">e</text><text xml:space="preserve" font-family="PermanentMarker" font-size="45.0" fill="#525252" transform="matrix(1.00, 0.00, -0.00, -1.00, 295.9, 707.0)"> </text><text xml:space="preserve" font-family="PermanentMarker" font-size="45.0" fill="#525252" transform="matrix(1.00, 0.00, -0.00, -1.00, 312.5, 707.0)">o</text><text xml:space="preserve" font-family="PermanentMarker" font-size="45.0" fill="#525252" transform="matrix(1.00, 0.00, -0.00, -1.00, 340.8, 707.0)">f</text><text xml:space="preserve" font-family="PermanentMarker" font-size="45.0" fill="#525252" transform="matrix(1.00, 0.00, -0.00, -1.00, 361.3, 707.0)"> </text><text xml:space="preserve" font-family="PermanentMarker" font-size="45.0" fill="#525252" transform="matrix(1.00, 0.00, -0.00, -1.00, 378.0, 707.0)">t</text><text xml:space="preserve" font-family="PermanentMarker" font-size="45.0" fill="#525252" transform="matrix(1.00, 0.00, -0.00, -1.00, 399.6, 707.0)">h</text><text xml:space="preserve" font-family="PermanentMarker" font-size="45.0" fill="#525252" transform="matrix(1.00, 0.00, -0.00, -1.00, 425.8, 707.0)">e</text><text xml:space="preserve" font-family="PermanentMarker" font-size="45.0" fill="#525252" transform="matrix(1.00, 0.00, -0.00, -1.00, 449.3, 707.0)"> </text><text xml:space="preserve" font-family="PermanentMarker" font-size="45.0" fill="#525252" transform="matrix(1.00, 0.00, -0.00, -1.00, 465.9, 707.0)">m</text><text xml:space="preserve" font-family="PermanentMarker" font-size="45.0" fill="#525252" transform="matrix(1.00, 0.00, -0.00, -1.00, 502.6, 707.0)">a</text><text xml:space="preserve" font-family="PermanentMarker" font-size="45.0" fill="#525252" transform="matrix(1.00, 0.00, -0.00, -1.00, 528.7, 707.0)">r</text><text xml:space="preserve" font-family="PermanentMarker" font-size="45.0" fill="#525252" transform="matrix(1.00, 0.00, -0.00, -1.00, 553.1, 707.0)">k</text><text xml:space="preserve" font-family="PermanentMarker" font-size="45.0" fill="#525252" transform="matrix(1.00, 0.00, -0.00, -1.00, 582.1, 707.0)">e</text><text xml:space="preserve" font-family="PermanentMarker" font-size="45.0" fill="#525252" transform="matrix(1.00, 0.00, -0.00, -1.00, 605.6, 707.0)">t</text><g><clipPath id="clip-1070"><path d="M 114.7 603.9 L 914.9 603.9 L 914.9 667.5 L 114.7 667.5 Z M 114.7 603.9 "></path></clipPath><g clip-path="url(#clip-1070)"><path d="M 130.7 667.5 L 168.8 667.5 L 168.8 602.5 L 130.7 602.5 Z M 130.7 667.5 " fill="#0432FF"></path></g></g><text xml:space="preserve" font-family="ZapfDingbatsITC" font-size="45.0" fill="#FFFFFF" transform="matrix(1.00, 0.00, -0.00, -1.00, 131.0, 618.0)">✔</text><text xml:space="preserve" font-family="ZapfDingbatsITC" font-size="45.0" fill="#525252" transform="matrix(1.00, 0.00, -0.00, -1.00, 169.1, 618.0)"> </text><text xml:space="preserve" font-family="PermanentMarker" font-size="45.0" fill="#525252" transform="matrix(1.00, 0.00, -0.00, -1.00, 181.6, 618.0)">P</text><text xml:space="preserve" font-family="PermanentMarker" font-size="45.0" fill="#525252" transform="matrix(1.00, 0.00, -0.00, -1.00, 210.3, 618.0)">e</text><text xml:space="preserve" font-family="PermanentMarker" font-size="45.0" fill="#525252" transform="matrix(1.00, 0.00, -0.00, -1.00, 233.4, 618.0)">r</text><text xml:space="preserve" font-family="PermanentMarker" font-size="45.0" fill="#525252" transform="matrix(1.00, 0.00, -0.00, -1.00, 257.7, 618.0)">s</text><text xml:space="preserve" font-family="PermanentMarker" font-size="45.0" fill="#525252" transform="matrix(1.00, 0.00, -0.00, -1.00, 277.7, 618.0)">o</text><text xml:space="preserve" font-family="PermanentMarker" font-size="45.0" fill="#525252" transform="matrix(1.00, 0.00, -0.00, -1.00, 306.0, 618.0)">n</text><text xml:space="preserve" font-family="PermanentMarker" font-size="45.0" fill="#525252" transform="matrix(1.00, 0.00, -0.00, -1.00, 331.4, 618.0)">a</text><text xml:space="preserve" font-family="PermanentMarker" font-size="45.0" fill="#525252" transform="matrix(1.00, 0.00, -0.00, -1.00, 356.7, 618.0)">s</text><text xml:space="preserve" font-family="PermanentMarker" font-size="45.0" fill="#525252" transform="matrix(1.00, 0.00, -0.00, -1.00, 377.6, 618.0)">:</text><text xml:space="preserve" font-family="PermanentMarker" font-size="45.0" fill="#525252" transform="matrix(1.00, 0.00, -0.00, -1.00, 388.5, 618.0)"> </text><text xml:space="preserve" font-family="PermanentMarker" font-size="45.0" fill="#525252" transform="matrix(1.00, 0.00, -0.00, -1.00, 405.1, 618.0)">p</text><text xml:space="preserve" font-family="PermanentMarker" font-size="45.0" fill="#525252" transform="matrix(1.00, 0.00, -0.00, -1.00, 427.8, 618.0)">a</text><text xml:space="preserve" font-family="PermanentMarker" font-size="45.0" fill="#525252" transform="matrix(1.00, 0.00, -0.00, -1.00, 454.0, 618.0)">r</text><text xml:space="preserve" font-family="PermanentMarker" font-size="45.0" fill="#525252" transform="matrix(1.00, 0.00, -0.00, -1.00, 478.3, 618.0)">e</text><text xml:space="preserve" font-family="PermanentMarker" font-size="45.0" fill="#525252" transform="matrix(1.00, 0.00, -0.00, -1.00, 501.8, 618.0)">n</text><text xml:space="preserve" font-family="PermanentMarker" font-size="45.0" fill="#525252" transform="matrix(1.00, 0.00, -0.00, -1.00, 527.3, 618.0)">t</text><text xml:space="preserve" font-family="PermanentMarker" font-size="45.0" fill="#525252" transform="matrix(1.00, 0.00, -0.00, -1.00, 548.9, 618.0)">s</text><text xml:space="preserve" font-family="PermanentMarker" font-size="45.0" fill="#525252" transform="matrix(1.00, 0.00, -0.00, -1.00, 569.7, 618.0)"> </text><text xml:space="preserve" font-family="PermanentMarker" font-size="45.0" fill="#525252" transform="matrix(1.00, 0.00, -0.00, -1.00, 586.4, 618.0)">&amp;</text><text xml:space="preserve" font-family="PermanentMarker" font-size="45.0" fill="#525252" transform="matrix(1.00, 0.00, -0.00, -1.00, 613.4, 618.0)"> </text><text xml:space="preserve" font-family="PermanentMarker" font-size="45.0" fill="#525252" transform="matrix(1.00, 0.00, -0.00, -1.00, 630.0, 618.0)">b</text><text xml:space="preserve" font-family="PermanentMarker" font-size="45.0" fill="#525252" transform="matrix(1.00, 0.00, -0.00, -1.00, 655.8, 618.0)">a</text><text xml:space="preserve" font-family="PermanentMarker" font-size="45.0" fill="#525252" transform="matrix(1.00, 0.00, -0.00, -1.00, 681.1, 618.0)">b</text><text xml:space="preserve" font-family="PermanentMarker" font-size="45.0" fill="#525252" transform="matrix(1.00, 0.00, -0.00, -1.00, 705.1, 618.0)">y</text><text xml:space="preserve" font-family="PermanentMarker" font-size="45.0" fill="#525252" transform="matrix(1.00, 0.00, -0.00, -1.00, 723.1, 618.0)">-</text><text xml:space="preserve" font-family="PermanentMarker" font-size="45.0" fill="#525252" transform="matrix(1.00, 0.00, -0.00, -1.00, 750.6, 618.0)">s</text><text xml:space="preserve" font-family="PermanentMarker" font-size="45.0" fill="#525252" transform="matrix(1.00, 0.00, -0.00, -1.00, 771.4, 618.0)">i</text><text xml:space="preserve" font-family="PermanentMarker" font-size="45.0" fill="#525252" transform="matrix(1.00, 0.00, -0.00, -1.00, 785.9, 618.0)">t</text><text xml:space="preserve" font-family="PermanentMarker" font-size="45.0" fill="#525252" transform="matrix(1.00, 0.00, -0.00, -1.00, 807.5, 618.0)">t</text><text xml:space="preserve" font-family="PermanentMarker" font-size="45.0" fill="#525252" transform="matrix(1.00, 0.00, -0.00, -1.00, 829.1, 618.0)">e</text><text xml:space="preserve" font-family="PermanentMarker" font-size="45.0" fill="#525252" transform="matrix(1.00, 0.00, -0.00, -1.00, 852.1, 618.0)">r</text><text xml:space="preserve" font-family="PermanentMarker" font-size="45.0" fill="#525252" transform="matrix(1.00, 0.00, -0.00, -1.00, 876.5, 618.0)">s</text></g></svg>