<?xml version="1.0" encoding="UTF-8" standalone="no"?><svg xmlns="http://www.w3.org/2000/svg" xmlns:xlink="http://www.w3.org/1999/xlink" clip-rule="evenodd" stroke-miterlimit="4.00" viewBox="0 0 1920 1080"><desc>SVG generated by Keynote</desc><defs></defs><g transform="matrix(1.00, 0.00, -0.00, -1.00, 0.0, 1080.0)"><path d="M 0.0 1080.0 L 1920.0 1080.0 L 1920.0 0.0 L 0.0 0.0 Z M 0.0 1080.0 " fill="#FFFFFF"></path><text xml:space="preserve" font-family="SourceSansPro-Regular" font-size="36.0" fill="#525252" transform="matrix(1.00, 0.00, -0.00, -1.00, 834.0, 17.0)">s</text><text xml:space="preserve" font-family="SourceSansPro-Regular" font-size="36.0" fill="#525252" transform="matrix(1.00, 0.00, -0.00, -1.00, 852.7, 17.0)">o</text><text xml:space="preserve" font-family="SourceSansPro-Regular" font-size="36.0" fill="#525252" transform="matrix(1.00, 0.00, -0.00, -1.00, 875.8, 17.0)">p</text><text xml:space="preserve" font-family="SourceSansPro-Regular" font-size="36.0" fill="#525252" transform="matrix(1.00, 0.00, -0.00, -1.00, 899.4, 17.0)">h</text><text xml:space="preserve" font-family="SourceSansPro-Regular" font-size="36.0" fill="#525252" transform="matrix(1.00, 0.00, -0.00, -1.00, 922.6, 17.0)">i</text><text xml:space="preserve" font-family="SourceSansPro-Regular" font-size="36.0" fill="#525252" transform="matrix(1.00, 0.00, -0.00, -1.00, 935.0, 17.0)">a</text><text xml:space="preserve" font-family="SourceSansPro-Regular" font-size="36.0" fill="#525252" transform="matrix(1.00, 0.00, -0.00, -1.00, 957.0, 17.0)">k</text><text xml:space="preserve" font-family="SourceSansPro-Regular" font-size="36.0" fill="#525252" transform="matrix(1.00, 0.00, -0.00, -1.00, 977.8, 17.0)">c</text><text xml:space="preserve" font-family="SourceSansPro-Regular" font-size="36.0" fill="#525252" transform="matrix(1.00, 0.00, -0.00, -1.00, 997.8, 17.0)">.</text><text xml:space="preserve" font-family="SourceSansPro-Regular" font-size="36.0" fill="#525252" transform="matrix(1.00, 0.00, -0.00, -1.00, 1010.1, 17.0)">c</text><text xml:space="preserve" font-family="SourceSansPro-Regular" font-size="36.0" fill="#525252" transform="matrix(1.00, 0.00, -0.00, -1.00, 1029.4, 17.0)">o</text><text xml:space="preserve" font-family="SourceSansPro-Regular" font-size="36.0" fill="#525252" transform="matrix(1.00, 0.00, -0.00, -1.00, 1052.5, 17.0)">m</text><image xlink:href="808DB06A9418C082C171C711E31DB884.png" width="568.00" height="692.00" transform="matrix(1.00, 0.00, -0.00, -1.00, 63.6, 1005.9)" opacity="0.35"></image><image xlink:href="30904ABB5BA110FD52406D6A1E501950.png" width="441.00" height="540.00" transform="matrix(1.26, 0.00, -0.00, -1.26, 70.0, 1003.0)"></image><image xlink:href="E936211164BCA219B97234929346218F.png" width="568.00" height="723.00" transform="matrix(1.00, 0.00, -0.00, -1.00, 409.9, 817.8)" opacity="0.35"></image><g><clipPath id="clip-115"><path d="M 416.0 815.0 L 972.0 815.0 L 972.0 104.0 L 416.0 104.0 Z M 415.9 814.8 "></path></clipPath><g clip-path="url(#clip-115)"><image xlink:href="7A9DFAAA758DD2BAC502DF09638E9F3F.png" width="177.00" height="541.00" transform="matrix(3.14, 0.00, -0.00, -3.13, 416.0, 815.0)"></image></g></g><image xlink:href="0D0F60DDC21CA103A7D3B847A71AEC5E.png" width="820.00" height="515.00" transform="matrix(1.00, 0.00, -0.00, -1.00, 1054.7, 794.3)" opacity="0.35"></image><image xlink:href="0E9BC47983BD27BFB4DEFE5E9A363BAC.jpeg" width="809.00" height="503.00" transform="matrix(1.00, 0.00, -0.00, -1.00, 1061.0, 791.0)"></image><text xml:space="preserve" font-family="PermanentMarker" font-size="24.0" fill="#0432FF" transform="matrix(1.00, 0.00, -0.00, -1.00, 238.0, 1024.0)">m</text><text xml:space="preserve" font-family="PermanentMarker" font-size="24.0" fill="#0432FF" transform="matrix(1.00, 0.00, -0.00, -1.00, 257.6, 1024.0)">a</text><text xml:space="preserve" font-family="PermanentMarker" font-size="24.0" fill="#0432FF" transform="matrix(1.00, 0.00, -0.00, -1.00, 271.5, 1024.0)">n</text><text xml:space="preserve" font-family="PermanentMarker" font-size="24.0" fill="#0432FF" transform="matrix(1.00, 0.00, -0.00, -1.00, 285.1, 1024.0)">y</text><text xml:space="preserve" font-family="PermanentMarker" font-size="24.0" fill="#0432FF" transform="matrix(1.00, 0.00, -0.00, -1.00, 294.7, 1024.0)"> </text><text xml:space="preserve" font-family="PermanentMarker" font-size="24.0" fill="#0432FF" transform="matrix(1.00, 0.00, -0.00, -1.00, 303.6, 1024.0)">G</text><text xml:space="preserve" font-family="PermanentMarker" font-size="24.0" fill="#0432FF" transform="matrix(1.00, 0.00, -0.00, -1.00, 322.5, 1024.0)">e</text><text xml:space="preserve" font-family="PermanentMarker" font-size="24.0" fill="#0432FF" transform="matrix(1.00, 0.00, -0.00, -1.00, 335.0, 1024.0)">n</text><text xml:space="preserve" font-family="PermanentMarker" font-size="24.0" fill="#0432FF" transform="matrix(1.00, 0.00, -0.00, -1.00, 348.6, 1024.0)">e</text><text xml:space="preserve" font-family="PermanentMarker" font-size="24.0" fill="#0432FF" transform="matrix(1.00, 0.00, -0.00, -1.00, 360.9, 1024.0)">r</text><text xml:space="preserve" font-family="PermanentMarker" font-size="24.0" fill="#0432FF" transform="matrix(1.00, 0.00, -0.00, -1.00, 373.9, 1024.0)">a</text><text xml:space="preserve" font-family="PermanentMarker" font-size="24.0" fill="#0432FF" transform="matrix(1.00, 0.00, -0.00, -1.00, 387.8, 1024.0)">l</text><text xml:space="preserve" font-family="PermanentMarker" font-size="24.0" fill="#0432FF" transform="matrix(1.00, 0.00, -0.00, -1.00, 400.6, 1024.0)">i</text><text xml:space="preserve" font-family="PermanentMarker" font-size="24.0" fill="#0432FF" transform="matrix(1.00, 0.00, -0.00, -1.00, 408.3, 1024.0)">s</text><text xml:space="preserve" font-family="PermanentMarker" font-size="24.0" fill="#0432FF" transform="matrix(1.00, 0.00, -0.00, -1.00, 419.4, 1024.0)">t</text><text xml:space="preserve" font-family="PermanentMarker" font-size="24.0" fill="#0432FF" transform="matrix(1.00, 0.00, -0.00, -1.00, 431.0, 1024.0)">s</text><text xml:space="preserve" font-family="PermanentMarker" font-size="24.0" fill="#0432FF" transform="matrix(1.00, 0.00, -0.00, -1.00, 1395.0, 813.0)">o</text><text xml:space="preserve" font-family="PermanentMarker" font-size="24.0" fill="#0432FF" transform="matrix(1.00, 0.00, -0.00, -1.00, 1410.1, 813.0)">n</text><text xml:space="preserve" font-family="PermanentMarker" font-size="24.0" fill="#0432FF" transform="matrix(1.00, 0.00, -0.00, -1.00, 1423.7, 813.0)">e</text><text xml:space="preserve" font-family="PermanentMarker" font-size="24.0" fill="#0432FF" transform="matrix(1.00, 0.00, -0.00, -1.00, 1436.2, 813.0)"> </text><text xml:space="preserve" font-family="PermanentMarker" font-size="24.0" fill="#0432FF" transform="matrix(1.00, 0.00, -0.00, -1.00, 1445.1, 813.0)">s</text><text xml:space="preserve" font-family="PermanentMarker" font-size="24.0" fill="#0432FF" transform="matrix(1.00, 0.00, -0.00, -1.00, 1456.0, 813.0)">p</text><text xml:space="preserve" font-family="PermanentMarker" font-size="24.0" fill="#0432FF" transform="matrix(1.00, 0.00, -0.00, -1.00, 1468.6, 813.0)">e</text><text xml:space="preserve" font-family="PermanentMarker" font-size="24.0" fill="#0432FF" transform="matrix(1.00, 0.00, -0.00, -1.00, 1480.9, 813.0)">c</text><text xml:space="preserve" font-family="PermanentMarker" font-size="24.0" fill="#0432FF" transform="matrix(1.00, 0.00, -0.00, -1.00, 1493.2, 813.0)">i</text><text xml:space="preserve" font-family="PermanentMarker" font-size="24.0" fill="#0432FF" transform="matrix(1.00, 0.00, -0.00, -1.00, 1500.9, 813.0)">a</text><text xml:space="preserve" font-family="PermanentMarker" font-size="24.0" fill="#0432FF" transform="matrix(1.00, 0.00, -0.00, -1.00, 1514.8, 813.0)">l</text><text xml:space="preserve" font-family="PermanentMarker" font-size="24.0" fill="#0432FF" transform="matrix(1.00, 0.00, -0.00, -1.00, 1527.6, 813.0)">i</text><text xml:space="preserve" font-family="PermanentMarker" font-size="24.0" fill="#0432FF" transform="matrix(1.00, 0.00, -0.00, -1.00, 1535.3, 813.0)">s</text><text xml:space="preserve" font-family="PermanentMarker" font-size="24.0" fill="#0432FF" transform="matrix(1.00, 0.00, -0.00, -1.00, 1546.4, 813.0)">t</text></g></svg>