<?xml version="1.0" encoding="UTF-8" standalone="no"?><svg xmlns="http://www.w3.org/2000/svg" xmlns:xlink="http://www.w3.org/1999/xlink" clip-rule="evenodd" stroke-miterlimit="4.00" viewBox="0 0 1920 1080"><desc>SVG generated by Keynote</desc><defs></defs><g transform="matrix(1.00, 0.00, -0.00, -1.00, 0.0, 1080.0)"><path d="M 0.0 1080.0 L 1920.0 1080.0 L 1920.0 0.0 L 0.0 0.0 Z M 0.0 1080.0 " fill="#FFFFFF"></path><image xlink:href="../../D63917A7-B147-45F2-8899-412B3047908F/assets/1B7A265E870C0A530AD3F923F65E3246.png" width="1343.00" height="29.00" transform="matrix(1.00, 0.00, -0.00, -0.99, 329.4, 523.3)" opacity="0.38"></image><path d="M 0.0 0.0 L 1313.9 0.0 L 1315.9 0.0 " fill="none" stroke="#525252" stroke-width="4.00" transform="matrix(1.00, 0.00, 0.00, -1.00, 335.4, 511.9)"></path><path d="M 1649.3 503.5 L 1666.1 511.9 L 1649.3 520.3 Z M 1649.3 503.5 " fill="#525252"></path><g><clipPath id="clip-200"><path d="M 1477.4 450.7 L 1477.4 542.9 L 1493.4 542.9 L 1493.4 450.7 Z M 1477.4 450.7 "></path></clipPath><g clip-path="url(#clip-200)"><image xlink:href="../../D63917A7-B147-45F2-8899-412B3047908F/assets/E27BC44AC49F589D342BB0D8D530AF76.png" width="90.00" height="14.00" transform="matrix(0.00, 1.00, 1.00, -0.00, 1478.4, 451.7)" opacity="0.38"></image><path d="M 0.0 0.0 L 78.2 0.0 " fill="none" stroke="#525252" stroke-width="2.00" transform="matrix(0.00, 1.00, 1.00, 0.00, 1485.4, 460.7)"></path></g></g><g><clipPath id="clip-201"><path d="M 1329.1 519.5 L 1641.7 519.5 L 1641.7 655.4 L 1329.1 655.4 Z M 1329.1 519.5 "></path></clipPath><g clip-path="url(#clip-201)"><text xml:space="preserve" font-family="SourceSansPro-Regular" font-size="38.0" fill="#525252" transform="matrix(1.00, 0.00, -0.00, -1.00, 1425.0, 607.0)">R</text><text xml:space="preserve" font-family="SourceSansPro-Regular" font-size="38.0" fill="#525252" transform="matrix(1.00, 0.00, -0.00, -1.00, 1446.7, 607.0)">e</text><text xml:space="preserve" font-family="SourceSansPro-Regular" font-size="38.0" fill="#525252" transform="matrix(1.00, 0.00, -0.00, -1.00, 1465.5, 607.0)">c</text><text xml:space="preserve" font-family="SourceSansPro-Regular" font-size="38.0" fill="#525252" transform="matrix(1.00, 0.00, -0.00, -1.00, 1482.1, 607.0)">e</text><text xml:space="preserve" font-family="SourceSansPro-Regular" font-size="38.0" fill="#525252" transform="matrix(1.00, 0.00, -0.00, -1.00, 1500.9, 607.0)">i</text><text xml:space="preserve" font-family="SourceSansPro-Regular" font-size="38.0" fill="#525252" transform="matrix(1.00, 0.00, -0.00, -1.00, 1510.3, 607.0)">v</text><text xml:space="preserve" font-family="SourceSansPro-Regular" font-size="38.0" fill="#525252" transform="matrix(1.00, 0.00, -0.00, -1.00, 1527.9, 607.0)">e</text><text xml:space="preserve" font-family="SourceSansPro-Regular" font-size="38.0" fill="#525252" transform="matrix(1.00, 0.00, -0.00, -1.00, 1546.7, 607.0)"> </text><text xml:space="preserve" font-family="SourceSansPro-Regular" font-size="38.0" fill="#525252" transform="matrix(1.00, 0.00, -0.00, -1.00, 1554.4, 607.0)"> </text><text xml:space="preserve" font-family="SourceSansPro-Regular" font-size="38.0" fill="#525252" transform="matrix(1.00, 0.00, -0.00, -1.00, 1443.0, 560.0)">l</text><text xml:space="preserve" font-family="SourceSansPro-Regular" font-size="38.0" fill="#525252" transform="matrix(1.00, 0.00, -0.00, -1.00, 1452.7, 560.0)">e</text><text xml:space="preserve" font-family="SourceSansPro-Regular" font-size="38.0" fill="#525252" transform="matrix(1.00, 0.00, -0.00, -1.00, 1471.0, 560.0)">a</text><text xml:space="preserve" font-family="SourceSansPro-Regular" font-size="38.0" fill="#525252" transform="matrix(1.00, 0.00, -0.00, -1.00, 1490.5, 560.0)">d</text><text xml:space="preserve" font-family="SourceSansPro-Regular" font-size="38.0" fill="#525252" transform="matrix(1.00, 0.00, -0.00, -1.00, 1511.6, 560.0)">s</text></g></g><text xml:space="preserve" font-family="SourceSansPro-Regular" font-size="36.0" fill="#525252" transform="matrix(1.00, 0.00, -0.00, -1.00, 834.0, 17.0)">s</text><text xml:space="preserve" font-family="SourceSansPro-Regular" font-size="36.0" fill="#525252" transform="matrix(1.00, 0.00, -0.00, -1.00, 852.7, 17.0)">o</text><text xml:space="preserve" font-family="SourceSansPro-Regular" font-size="36.0" fill="#525252" transform="matrix(1.00, 0.00, -0.00, -1.00, 875.8, 17.0)">p</text><text xml:space="preserve" font-family="SourceSansPro-Regular" font-size="36.0" fill="#525252" transform="matrix(1.00, 0.00, -0.00, -1.00, 899.4, 17.0)">h</text><text xml:space="preserve" font-family="SourceSansPro-Regular" font-size="36.0" fill="#525252" transform="matrix(1.00, 0.00, -0.00, -1.00, 922.6, 17.0)">i</text><text xml:space="preserve" font-family="SourceSansPro-Regular" font-size="36.0" fill="#525252" transform="matrix(1.00, 0.00, -0.00, -1.00, 935.0, 17.0)">a</text><text xml:space="preserve" font-family="SourceSansPro-Regular" font-size="36.0" fill="#525252" transform="matrix(1.00, 0.00, -0.00, -1.00, 957.0, 17.0)">k</text><text xml:space="preserve" font-family="SourceSansPro-Regular" font-size="36.0" fill="#525252" transform="matrix(1.00, 0.00, -0.00, -1.00, 977.8, 17.0)">c</text><text xml:space="preserve" font-family="SourceSansPro-Regular" font-size="36.0" fill="#525252" transform="matrix(1.00, 0.00, -0.00, -1.00, 997.8, 17.0)">.</text><text xml:space="preserve" font-family="SourceSansPro-Regular" font-size="36.0" fill="#525252" transform="matrix(1.00, 0.00, -0.00, -1.00, 1010.1, 17.0)">c</text><text xml:space="preserve" font-family="SourceSansPro-Regular" font-size="36.0" fill="#525252" transform="matrix(1.00, 0.00, -0.00, -1.00, 1029.4, 17.0)">o</text><text xml:space="preserve" font-family="SourceSansPro-Regular" font-size="36.0" fill="#525252" transform="matrix(1.00, 0.00, -0.00, -1.00, 1052.5, 17.0)">m</text><image xlink:href="../../D63917A7-B147-45F2-8899-412B3047908F/assets/76CA0AAF309BBEB3EDE84726C0DC5B88.png" width="162.00" height="112.00" transform="matrix(1.00, 0.00, -0.00, -1.00, 856.0, 568.0)"></image><g><clipPath id="clip-202"><path d="M 832.0 387.0 L 1330.0 387.0 L 1330.0 159.0 L 832.0 159.0 Z M 832.2 386.9 "></path></clipPath><g clip-path="url(#clip-202)"><image xlink:href="49E124ECED4F7A83FDFF4B5EA1811CC5.jpeg" width="638.00" height="296.00" transform="matrix(1.00, 0.00, -0.00, -1.00, 762.0, 421.0)"></image></g></g><path d="M 0.1 0.0 C 0.1 38.2 0.0 76.4 0.0 114.6 L 0.0 116.6 " fill="none" stroke="#525252" stroke-width="4.00" stroke-linejoin="round" transform="matrix(1.00, 0.00, 0.00, -1.00, 936.5, 488.5)"></path><path d="M 943.5 366.8 C 943.5 363.0 940.4 359.8 936.5 359.8 C 932.7 359.8 929.5 363.0 929.5 366.8 C 929.5 370.7 932.7 373.8 936.5 373.8 C 940.4 373.8 943.5 370.7 943.5 366.8 Z M 943.5 366.8 " fill="#525252"></path><image xlink:href="24B57D2203F6AE65CC551FEF5E51EB6D.png" width="267.00" height="419.00" transform="matrix(1.00, 0.00, -0.00, -1.00, 1382.0, 484.0)"></image><g><clipPath id="clip-203"><path d="M 125.0 706.0 L 797.0 706.0 L 797.0 317.0 L 125.0 317.0 Z M 125.4 706.5 "></path></clipPath><g clip-path="url(#clip-203)"><g><clipPath id="clip-204"><path d="M 125.4 317.4 L 796.9 317.4 L 796.9 706.5 L 125.4 706.5 Z M 125.4 317.4 "></path></clipPath><g clip-path="url(#clip-204)"><image xlink:href="9E4B599DB6ACA791DB55B0C076D0403C.png" width="672.00" height="389.00" transform="matrix(1.00, 0.00, -0.00, -1.00, 125.0, 706.0)"></image></g></g></g></g><g><clipPath id="clip-205"><path d="M 323.0 510.0 L 626.0 510.0 L 626.0 363.0 L 323.0 363.0 Z M 322.9 510.2 "></path></clipPath><g clip-path="url(#clip-205)"><g><clipPath id="clip-206"><path d="M 322.9 362.7 L 626.3 362.7 L 626.3 510.2 L 322.9 510.2 Z M 322.9 362.7 "></path></clipPath><g clip-path="url(#clip-206)"><image xlink:href="../../029D66D8-6E58-4285-9746-80D309817A1C/assets/24B57D2203F6AE65CC551FEF5E51EB6D.png" width="267.00" height="419.00" transform="matrix(0.91, 0.00, -0.00, -0.90, 320.0, 504.0)"></image></g></g></g></g><path d="M 0.8 0.0 C 0.5 80.3 0.3 160.7 0.0 241.0 L 0.0 243.0 " fill="none" stroke="#525252" stroke-width="4.00" stroke-linejoin="round" transform="matrix(1.00, 0.00, 0.00, -1.00, 1485.4, 541.8)"></path><path d="M 1492.4 293.8 C 1492.4 289.9 1489.2 286.8 1485.4 286.8 C 1481.5 286.8 1478.4 290.0 1478.4 293.9 C 1478.4 297.7 1481.6 300.8 1485.4 300.8 C 1489.3 300.8 1492.4 297.7 1492.4 293.8 Z M 1492.4 293.8 " fill="#525252"></path><g><clipPath id="clip-207"><path d="M 302.2 850.8 L 1646.9 850.8 L 1646.9 881.6 L 302.2 881.6 Z M 302.2 850.8 "></path></clipPath><g clip-path="url(#clip-207)"><image xlink:href="../../D63917A7-B147-45F2-8899-412B3047908F/assets/1B7A265E870C0A530AD3F923F65E3246.png" width="1343.00" height="29.00" transform="matrix(1.00, 0.00, -0.00, -0.99, 303.2, 880.6)" opacity="0.38"></image><path d="M 0.0 0.0 L 1313.9 0.0 L 1315.9 0.0 " fill="none" stroke="#525252" stroke-width="4.00" transform="matrix(1.00, 0.00, 0.00, -1.00, 309.2, 869.2)"></path><path d="M 1623.1 860.8 L 1639.9 869.2 L 1623.1 877.6 Z M 1623.1 860.8 " fill="#525252"></path></g></g><g><clipPath id="clip-208"><path d="M 280.1 781.3 L 583.5 781.3 L 583.5 957.1 L 280.1 957.1 Z M 280.1 781.3 "></path></clipPath><g clip-path="url(#clip-208)"><image xlink:href="../../D63917A7-B147-45F2-8899-412B3047908F/assets/7DE9721CDD90EADB124642BCA2C782A5.png" width="304.00" height="175.00" transform="matrix(1.00, 0.00, -0.00, -1.01, 280.0, 957.0)"></image></g></g><g><clipPath id="clip-209"><path d="M 646.9 816.9 L 751.4 816.9 L 751.4 921.5 L 646.9 921.5 Z M 646.9 816.9 "></path></clipPath><g clip-path="url(#clip-209)"><image xlink:href="../../D63917A7-B147-45F2-8899-412B3047908F/assets/B16CB4A522C84482FCD03EC70DA63204.png" width="105.00" height="105.00" transform="matrix(0.99, 0.00, -0.00, -0.99, 647.0, 921.0)"></image></g></g><g><clipPath id="clip-210"><path d="M 814.8 813.1 L 976.8 813.1 L 976.8 925.3 L 814.8 925.3 Z M 814.8 813.1 "></path></clipPath><g clip-path="url(#clip-210)"><image xlink:href="../../D63917A7-B147-45F2-8899-412B3047908F/assets/76CA0AAF309BBEB3EDE84726C0DC5B88.png" width="162.00" height="112.00" transform="matrix(1.00, 0.00, -0.00, -1.00, 815.0, 925.0)"></image></g></g><g><clipPath id="clip-211"><path d="M 1105.9 808.0 L 1105.9 900.1 L 1121.9 900.1 L 1121.9 808.0 Z M 1105.9 808.0 "></path></clipPath><g clip-path="url(#clip-211)"><image xlink:href="../../D63917A7-B147-45F2-8899-412B3047908F/assets/E27BC44AC49F589D342BB0D8D530AF76.png" width="90.00" height="14.00" transform="matrix(0.00, 1.00, 1.00, -0.00, 1106.9, 809.0)" opacity="0.38"></image><path d="M 0.0 0.0 L 78.2 0.0 " fill="none" stroke="#525252" stroke-width="2.00" transform="matrix(0.00, 1.00, 1.00, 0.00, 1113.9, 818.0)"></path></g></g><g><clipPath id="clip-212"><path d="M 957.6 876.7 L 1270.2 876.7 L 1270.2 1012.6 L 957.6 1012.6 Z M 957.6 876.7 "></path></clipPath><g clip-path="url(#clip-212)"><text xml:space="preserve" font-family="SourceSansPro-Regular" font-size="38.0" fill="#525252" transform="matrix(1.00, 0.00, -0.00, -1.00, 1023.0, 964.0)">A</text><text xml:space="preserve" font-family="SourceSansPro-Regular" font-size="38.0" fill="#525252" transform="matrix(1.00, 0.00, -0.00, -1.00, 1043.7, 964.0)">p</text><text xml:space="preserve" font-family="SourceSansPro-Regular" font-size="38.0" fill="#525252" transform="matrix(1.00, 0.00, -0.00, -1.00, 1064.8, 964.0)">p</text><text xml:space="preserve" font-family="SourceSansPro-Regular" font-size="38.0" fill="#525252" transform="matrix(1.00, 0.00, -0.00, -1.00, 1085.9, 964.0)">l</text><text xml:space="preserve" font-family="SourceSansPro-Regular" font-size="38.0" fill="#525252" transform="matrix(1.00, 0.00, -0.00, -1.00, 1095.5, 964.0)">i</text><text xml:space="preserve" font-family="SourceSansPro-Regular" font-size="38.0" fill="#525252" transform="matrix(1.00, 0.00, -0.00, -1.00, 1104.9, 964.0)">c</text><text xml:space="preserve" font-family="SourceSansPro-Regular" font-size="38.0" fill="#525252" transform="matrix(1.00, 0.00, -0.00, -1.00, 1121.8, 964.0)">a</text><text xml:space="preserve" font-family="SourceSansPro-Regular" font-size="38.0" fill="#525252" transform="matrix(1.00, 0.00, -0.00, -1.00, 1141.3, 964.0)">t</text><text xml:space="preserve" font-family="SourceSansPro-Regular" font-size="38.0" fill="#525252" transform="matrix(1.00, 0.00, -0.00, -1.00, 1154.1, 964.0)">i</text><text xml:space="preserve" font-family="SourceSansPro-Regular" font-size="38.0" fill="#525252" transform="matrix(1.00, 0.00, -0.00, -1.00, 1163.5, 964.0)">o</text><text xml:space="preserve" font-family="SourceSansPro-Regular" font-size="38.0" fill="#525252" transform="matrix(1.00, 0.00, -0.00, -1.00, 1184.1, 964.0)">n</text><text xml:space="preserve" font-family="SourceSansPro-Regular" font-size="38.0" fill="#525252" transform="matrix(1.00, 0.00, -0.00, -1.00, 1204.9, 964.0)"> </text><text xml:space="preserve" font-family="SourceSansPro-Regular" font-size="38.0" fill="#525252" transform="matrix(1.00, 0.00, -0.00, -1.00, 1061.0, 917.0)">r</text><text xml:space="preserve" font-family="SourceSansPro-Regular" font-size="38.0" fill="#525252" transform="matrix(1.00, 0.00, -0.00, -1.00, 1073.8, 917.0)">e</text><text xml:space="preserve" font-family="SourceSansPro-Regular" font-size="38.0" fill="#525252" transform="matrix(1.00, 0.00, -0.00, -1.00, 1092.8, 917.0)">v</text><text xml:space="preserve" font-family="SourceSansPro-Regular" font-size="38.0" fill="#525252" transform="matrix(1.00, 0.00, -0.00, -1.00, 1110.6, 917.0)">i</text><text xml:space="preserve" font-family="SourceSansPro-Regular" font-size="38.0" fill="#525252" transform="matrix(1.00, 0.00, -0.00, -1.00, 1119.9, 917.0)">e</text><text xml:space="preserve" font-family="SourceSansPro-Regular" font-size="38.0" fill="#525252" transform="matrix(1.00, 0.00, -0.00, -1.00, 1139.0, 917.0)">w</text></g></g><g><clipPath id="clip-213"><path d="M 1228.6 816.9 L 1333.2 816.9 L 1333.2 921.5 L 1228.6 921.5 Z M 1228.6 816.9 "></path></clipPath><g clip-path="url(#clip-213)"><image xlink:href="../../D63917A7-B147-45F2-8899-412B3047908F/assets/B16CB4A522C84482FCD03EC70DA63204.png" width="105.00" height="105.00" transform="matrix(0.99, 0.00, -0.00, -0.99, 1229.0, 921.0)"></image></g></g><g><clipPath id="clip-214"><path d="M 1451.2 808.0 L 1451.2 900.1 L 1467.2 900.1 L 1467.2 808.0 Z M 1451.2 808.0 "></path></clipPath><g clip-path="url(#clip-214)"><image xlink:href="../../D63917A7-B147-45F2-8899-412B3047908F/assets/E27BC44AC49F589D342BB0D8D530AF76.png" width="90.00" height="14.00" transform="matrix(0.00, 1.00, 1.00, -0.00, 1452.2, 809.0)" opacity="0.38"></image><path d="M 0.0 0.0 L 78.2 0.0 " fill="none" stroke="#525252" stroke-width="2.00" transform="matrix(0.00, 1.00, 1.00, 0.00, 1459.2, 818.0)"></path></g></g><g><clipPath id="clip-215"><path d="M 1302.9 876.7 L 1615.5 876.7 L 1615.5 1012.6 L 1302.9 1012.6 Z M 1302.9 876.7 "></path></clipPath><g clip-path="url(#clip-215)"><text xml:space="preserve" font-family="SourceSansPro-Regular" font-size="38.0" fill="#525252" transform="matrix(1.00, 0.00, -0.00, -1.00, 1398.0, 964.0)">R</text><text xml:space="preserve" font-family="SourceSansPro-Regular" font-size="38.0" fill="#525252" transform="matrix(1.00, 0.00, -0.00, -1.00, 1419.7, 964.0)">e</text><text xml:space="preserve" font-family="SourceSansPro-Regular" font-size="38.0" fill="#525252" transform="matrix(1.00, 0.00, -0.00, -1.00, 1438.5, 964.0)">c</text><text xml:space="preserve" font-family="SourceSansPro-Regular" font-size="38.0" fill="#525252" transform="matrix(1.00, 0.00, -0.00, -1.00, 1455.1, 964.0)">e</text><text xml:space="preserve" font-family="SourceSansPro-Regular" font-size="38.0" fill="#525252" transform="matrix(1.00, 0.00, -0.00, -1.00, 1473.9, 964.0)">i</text><text xml:space="preserve" font-family="SourceSansPro-Regular" font-size="38.0" fill="#525252" transform="matrix(1.00, 0.00, -0.00, -1.00, 1483.3, 964.0)">v</text><text xml:space="preserve" font-family="SourceSansPro-Regular" font-size="38.0" fill="#525252" transform="matrix(1.00, 0.00, -0.00, -1.00, 1500.9, 964.0)">e</text><text xml:space="preserve" font-family="SourceSansPro-Regular" font-size="38.0" fill="#525252" transform="matrix(1.00, 0.00, -0.00, -1.00, 1519.7, 964.0)"> </text><text xml:space="preserve" font-family="SourceSansPro-Regular" font-size="38.0" fill="#525252" transform="matrix(1.00, 0.00, -0.00, -1.00, 1527.4, 964.0)"> </text><text xml:space="preserve" font-family="SourceSansPro-Regular" font-size="38.0" fill="#525252" transform="matrix(1.00, 0.00, -0.00, -1.00, 1417.0, 917.0)">l</text><text xml:space="preserve" font-family="SourceSansPro-Regular" font-size="38.0" fill="#525252" transform="matrix(1.00, 0.00, -0.00, -1.00, 1426.7, 917.0)">e</text><text xml:space="preserve" font-family="SourceSansPro-Regular" font-size="38.0" fill="#525252" transform="matrix(1.00, 0.00, -0.00, -1.00, 1445.0, 917.0)">a</text><text xml:space="preserve" font-family="SourceSansPro-Regular" font-size="38.0" fill="#525252" transform="matrix(1.00, 0.00, -0.00, -1.00, 1464.5, 917.0)">d</text><text xml:space="preserve" font-family="SourceSansPro-Regular" font-size="38.0" fill="#525252" transform="matrix(1.00, 0.00, -0.00, -1.00, 1485.6, 917.0)">s</text></g></g><g opacity="0.72"><g><clipPath id="clip-216"><path d="M 0.0 746.0 L 1920.0 746.0 L 1920.0 1080.0 L 0.0 1080.0 Z M 0.0 746.0 "></path></clipPath><g clip-path="url(#clip-216)"><path d="M -3.0 1078.5 L 1923.0 1078.5 L 1923.0 747.3 L -3.0 747.3 Z M -3.0 1078.5 " fill="#FFFFFF"></path></g></g></g></g></svg>