<?xml version="1.0" encoding="UTF-8" standalone="no"?><svg xmlns="http://www.w3.org/2000/svg" xmlns:xlink="http://www.w3.org/1999/xlink" clip-rule="evenodd" stroke-miterlimit="4.00" viewBox="0 0 370 38"><desc>SVG generated by Keynote</desc><defs></defs><g transform="matrix(1.00, 0.00, -0.00, -1.00, 0.0, 38.0)"><text xml:space="preserve" font-family="SourceSansPro-Regular" font-size="36.0" fill="#A7A7A7" transform="matrix(1.00, 0.00, -0.00, -1.00, -1.0, 10.0)">L</text><text xml:space="preserve" font-family="SourceSansPro-Regular" font-size="36.0" fill="#A7A7A7" transform="matrix(1.00, 0.00, -0.00, -1.00, 16.5, 10.0)">a</text><text xml:space="preserve" font-family="SourceSansPro-Regular" font-size="36.0" fill="#A7A7A7" transform="matrix(1.00, 0.00, -0.00, -1.00, 34.9, 10.0)">s</text><text xml:space="preserve" font-family="SourceSansPro-Regular" font-size="36.0" fill="#A7A7A7" transform="matrix(1.00, 0.00, -0.00, -1.00, 50.0, 10.0)">t</text><text xml:space="preserve" font-family="SourceSansPro-Regular" font-size="36.0" fill="#A7A7A7" transform="matrix(1.00, 0.00, -0.00, -1.00, 61.2, 10.0)">-</text><text xml:space="preserve" font-family="SourceSansPro-Regular" font-size="36.0" fill="#A7A7A7" transform="matrix(1.00, 0.00, -0.00, -1.00, 72.4, 10.0)">m</text><text xml:space="preserve" font-family="SourceSansPro-Regular" font-size="36.0" fill="#A7A7A7" transform="matrix(1.00, 0.00, -0.00, -1.00, 102.3, 10.0)">i</text><text xml:space="preserve" font-family="SourceSansPro-Regular" font-size="36.0" fill="#A7A7A7" transform="matrix(1.00, 0.00, -0.00, -1.00, 111.1, 10.0)">n</text><text xml:space="preserve" font-family="SourceSansPro-Regular" font-size="36.0" fill="#A7A7A7" transform="matrix(1.00, 0.00, -0.00, -1.00, 130.8, 10.0)">u</text><text xml:space="preserve" font-family="SourceSansPro-Regular" font-size="36.0" fill="#A7A7A7" transform="matrix(1.00, 0.00, -0.00, -1.00, 150.4, 10.0)">t</text><text xml:space="preserve" font-family="SourceSansPro-Regular" font-size="36.0" fill="#A7A7A7" transform="matrix(1.00, 0.00, -0.00, -1.00, 162.2, 10.0)">e</text><text xml:space="preserve" font-family="SourceSansPro-Regular" font-size="36.0" fill="#A7A7A7" transform="matrix(1.00, 0.00, -0.00, -1.00, 180.1, 10.0)"> </text><text xml:space="preserve" font-family="SourceSansPro-Regular" font-size="36.0" fill="#A7A7A7" transform="matrix(1.00, 0.00, -0.00, -1.00, 187.4, 10.0)">b</text><text xml:space="preserve" font-family="SourceSansPro-Regular" font-size="36.0" fill="#A7A7A7" transform="matrix(1.00, 0.00, -0.00, -1.00, 206.8, 10.0)">a</text><text xml:space="preserve" font-family="SourceSansPro-Regular" font-size="36.0" fill="#A7A7A7" transform="matrix(1.00, 0.00, -0.00, -1.00, 225.3, 10.0)">b</text><text xml:space="preserve" font-family="SourceSansPro-Regular" font-size="36.0" fill="#A7A7A7" transform="matrix(1.00, 0.00, -0.00, -1.00, 245.1, 10.0)">y</text><text xml:space="preserve" font-family="SourceSansPro-Regular" font-size="36.0" fill="#A7A7A7" transform="matrix(1.00, 0.00, -0.00, -1.00, 261.9, 10.0)">-</text><text xml:space="preserve" font-family="SourceSansPro-Regular" font-size="36.0" fill="#A7A7A7" transform="matrix(1.00, 0.00, -0.00, -1.00, 273.1, 10.0)">s</text><text xml:space="preserve" font-family="SourceSansPro-Regular" font-size="36.0" fill="#A7A7A7" transform="matrix(1.00, 0.00, -0.00, -1.00, 288.2, 10.0)">i</text><text xml:space="preserve" font-family="SourceSansPro-Regular" font-size="36.0" fill="#A7A7A7" transform="matrix(1.00, 0.00, -0.00, -1.00, 297.0, 10.0)">t</text><text xml:space="preserve" font-family="SourceSansPro-Regular" font-size="36.0" fill="#A7A7A7" transform="matrix(1.00, 0.00, -0.00, -1.00, 309.2, 10.0)">t</text><text xml:space="preserve" font-family="SourceSansPro-Regular" font-size="36.0" fill="#A7A7A7" transform="matrix(1.00, 0.00, -0.00, -1.00, 321.4, 10.0)">i</text><text xml:space="preserve" font-family="SourceSansPro-Regular" font-size="36.0" fill="#A7A7A7" transform="matrix(1.00, 0.00, -0.00, -1.00, 330.2, 10.0)">n</text><text xml:space="preserve" font-family="SourceSansPro-Regular" font-size="36.0" fill="#A7A7A7" transform="matrix(1.00, 0.00, -0.00, -1.00, 349.9, 10.0)">g</text></g></svg>