<?xml version="1.0" encoding="UTF-8" standalone="no"?><svg xmlns="http://www.w3.org/2000/svg" xmlns:xlink="http://www.w3.org/1999/xlink" clip-rule="evenodd" stroke-miterlimit="4.00" viewBox="0 0 1920 1080"><desc>SVG generated by Keynote</desc><defs></defs><g transform="matrix(1.00, 0.00, -0.00, -1.00, 0.0, 1080.0)"><path d="M 0.0 1080.0 L 1920.0 1080.0 L 1920.0 0.0 L 0.0 0.0 Z M 0.0 1080.0 " fill="#FFFFFF"></path><text xml:space="preserve" font-family="SourceSansPro-Regular" font-size="45.0" fill="#525252" transform="matrix(1.00, 0.00, -0.00, -1.00, 577.0, 248.0)">W</text><text xml:space="preserve" font-family="SourceSansPro-Regular" font-size="45.0" fill="#525252" transform="matrix(1.00, 0.00, -0.00, -1.00, 612.4, 248.0)">h</text><text xml:space="preserve" font-family="SourceSansPro-Regular" font-size="45.0" fill="#525252" transform="matrix(1.00, 0.00, -0.00, -1.00, 636.9, 248.0)">a</text><text xml:space="preserve" font-family="SourceSansPro-Regular" font-size="45.0" fill="#525252" transform="matrix(1.00, 0.00, -0.00, -1.00, 659.9, 248.0)">t</text><text xml:space="preserve" font-family="SourceSansPro-Regular" font-size="45.0" fill="#525252" transform="matrix(1.00, 0.00, -0.00, -1.00, 675.1, 248.0)"> </text><text xml:space="preserve" font-family="SourceSansPro-Regular" font-size="45.0" fill="#525252" transform="matrix(1.00, 0.00, -0.00, -1.00, 684.2, 248.0)">m</text><text xml:space="preserve" font-family="SourceSansPro-Regular" font-size="45.0" fill="#525252" transform="matrix(1.00, 0.00, -0.00, -1.00, 721.5, 248.0)">y</text><text xml:space="preserve" font-family="SourceSansPro-Regular" font-size="45.0" fill="#525252" transform="matrix(1.00, 0.00, -0.00, -1.00, 742.5, 248.0)"> </text><text xml:space="preserve" font-family="SourceSansPro-Regular" font-size="45.0" fill="#525252" transform="matrix(1.00, 0.00, -0.00, -1.00, 751.6, 248.0)">d</text><text xml:space="preserve" font-family="SourceSansPro-Regular" font-size="45.0" fill="#525252" transform="matrix(1.00, 0.00, -0.00, -1.00, 776.6, 248.0)">e</text><text xml:space="preserve" font-family="SourceSansPro-Regular" font-size="45.0" fill="#525252" transform="matrix(1.00, 0.00, -0.00, -1.00, 798.9, 248.0)">s</text><text xml:space="preserve" font-family="SourceSansPro-Regular" font-size="45.0" fill="#525252" transform="matrix(1.00, 0.00, -0.00, -1.00, 817.8, 248.0)">i</text><text xml:space="preserve" font-family="SourceSansPro-Regular" font-size="45.0" fill="#525252" transform="matrix(1.00, 0.00, -0.00, -1.00, 828.8, 248.0)">g</text><text xml:space="preserve" font-family="SourceSansPro-Regular" font-size="45.0" fill="#525252" transform="matrix(1.00, 0.00, -0.00, -1.00, 851.5, 248.0)">n</text><text xml:space="preserve" font-family="SourceSansPro-Regular" font-size="45.0" fill="#525252" transform="matrix(1.00, 0.00, -0.00, -1.00, 876.1, 248.0)"> </text><text xml:space="preserve" font-family="SourceSansPro-Regular" font-size="45.0" fill="#525252" transform="matrix(1.00, 0.00, -0.00, -1.00, 885.2, 248.0)">c</text><text xml:space="preserve" font-family="SourceSansPro-Regular" font-size="45.0" fill="#525252" transform="matrix(1.00, 0.00, -0.00, -1.00, 904.8, 248.0)">o</text><text xml:space="preserve" font-family="SourceSansPro-Regular" font-size="45.0" fill="#525252" transform="matrix(1.00, 0.00, -0.00, -1.00, 929.2, 248.0)">n</text><text xml:space="preserve" font-family="SourceSansPro-Regular" font-size="45.0" fill="#525252" transform="matrix(1.00, 0.00, -0.00, -1.00, 953.8, 248.0)">v</text><text xml:space="preserve" font-family="SourceSansPro-Regular" font-size="45.0" fill="#525252" transform="matrix(1.00, 0.00, -0.00, -1.00, 974.8, 248.0)">i</text><text xml:space="preserve" font-family="SourceSansPro-Regular" font-size="45.0" fill="#525252" transform="matrix(1.00, 0.00, -0.00, -1.00, 985.9, 248.0)">c</text><text xml:space="preserve" font-family="SourceSansPro-Regular" font-size="45.0" fill="#525252" transform="matrix(1.00, 0.00, -0.00, -1.00, 1006.4, 248.0)">t</text><text xml:space="preserve" font-family="SourceSansPro-Regular" font-size="45.0" fill="#525252" transform="matrix(1.00, 0.00, -0.00, -1.00, 1021.6, 248.0)">i</text><text xml:space="preserve" font-family="SourceSansPro-Regular" font-size="45.0" fill="#525252" transform="matrix(1.00, 0.00, -0.00, -1.00, 1032.7, 248.0)">o</text><text xml:space="preserve" font-family="SourceSansPro-Regular" font-size="45.0" fill="#525252" transform="matrix(1.00, 0.00, -0.00, -1.00, 1057.1, 248.0)">n</text><text xml:space="preserve" font-family="SourceSansPro-Regular" font-size="45.0" fill="#525252" transform="matrix(1.00, 0.00, -0.00, -1.00, 1081.7, 248.0)">s</text><text xml:space="preserve" font-family="SourceSansPro-Regular" font-size="45.0" fill="#525252" transform="matrix(1.00, 0.00, -0.00, -1.00, 1100.5, 248.0)"> </text><text xml:space="preserve" font-family="SourceSansPro-Regular" font-size="45.0" fill="#525252" transform="matrix(1.00, 0.00, -0.00, -1.00, 1109.6, 248.0)">a</text><text xml:space="preserve" font-family="SourceSansPro-Regular" font-size="45.0" fill="#525252" transform="matrix(1.00, 0.00, -0.00, -1.00, 1132.7, 248.0)">r</text><text xml:space="preserve" font-family="SourceSansPro-Regular" font-size="45.0" fill="#525252" transform="matrix(1.00, 0.00, -0.00, -1.00, 1147.8, 248.0)">e</text><text xml:space="preserve" font-family="SourceSansPro-Regular" font-size="45.0" fill="#525252" transform="matrix(1.00, 0.00, -0.00, -1.00, 1170.1, 248.0)"> </text><text xml:space="preserve" font-family="SourceSansPro-Regular" font-size="45.0" fill="#525252" transform="matrix(1.00, 0.00, -0.00, -1.00, 1179.2, 248.0)">m</text><text xml:space="preserve" font-family="SourceSansPro-Regular" font-size="45.0" fill="#525252" transform="matrix(1.00, 0.00, -0.00, -1.00, 1216.5, 248.0)">a</text><text xml:space="preserve" font-family="SourceSansPro-Regular" font-size="45.0" fill="#525252" transform="matrix(1.00, 0.00, -0.00, -1.00, 1239.6, 248.0)">d</text><text xml:space="preserve" font-family="SourceSansPro-Regular" font-size="45.0" fill="#525252" transform="matrix(1.00, 0.00, -0.00, -1.00, 1264.6, 248.0)">e</text><text xml:space="preserve" font-family="SourceSansPro-Regular" font-size="45.0" fill="#525252" transform="matrix(1.00, 0.00, -0.00, -1.00, 1286.9, 248.0)"> </text><text xml:space="preserve" font-family="SourceSansPro-Regular" font-size="45.0" fill="#525252" transform="matrix(1.00, 0.00, -0.00, -1.00, 1296.0, 248.0)">o</text><text xml:space="preserve" font-family="SourceSansPro-Regular" font-size="45.0" fill="#525252" transform="matrix(1.00, 0.00, -0.00, -1.00, 1320.4, 248.0)">f</text><text xml:space="preserve" font-family="SourceSansPro-Regular" font-size="45.0" fill="#525252" transform="matrix(1.00, 0.00, -0.00, -1.00, 1331.2, 248.0)">.</text><g><clipPath id="clip-1008"><path d="M 753.5 330.5 L 1166.5 330.5 L 1166.5 743.5 L 753.5 743.5 Z M 753.5 330.5 "></path></clipPath><g clip-path="url(#clip-1008)"><image xlink:href="../../DDB31479-58A1-4FE5-B4D7-634197F951EF/assets/F5C5DE0F095B4827420C0325135EDF81.png" width="411.00" height="411.00" transform="matrix(1.00, 0.00, -0.00, -1.00, 754.5, 742.5)" opacity="0.35"></image><path d="M 1101.1 681.1 C 1179.0 603.2 1179.0 476.8 1101.1 398.9 C 1023.2 321.0 896.8 321.0 818.9 398.9 C 741.0 476.8 741.0 603.2 818.9 681.1 C 896.8 759.0 1023.2 759.0 1101.1 681.1 Z M 1101.1 681.1 " fill="#00FCFF"></path></g></g><g><clipPath id="clip-1009"><path d="M 835.0 687.0 L 1097.0 687.0 L 1097.0 393.0 L 835.0 393.0 Z M 835.0 687.1 "></path></clipPath><g clip-path="url(#clip-1009)"><g><clipPath id="clip-1010"><path d="M 835.0 392.9 L 1096.5 392.9 L 1096.5 687.1 L 835.0 687.1 Z M 835.0 392.9 "></path></clipPath><g clip-path="url(#clip-1010)"><image xlink:href="../../164957D5-10C1-410C-A949-6AF93A5C8D49/assets/E03591BB1B063673879193AE5C2CE768.png" width="262.00" height="295.00" transform="matrix(1.00, 0.00, -0.00, -1.00, 835.0, 687.0)"></image></g></g></g></g><text xml:space="preserve" font-family="SourceSansPro-Regular" font-size="36.0" fill="#525252" transform="matrix(1.00, 0.00, -0.00, -1.00, 834.0, 17.0)">s</text><text xml:space="preserve" font-family="SourceSansPro-Regular" font-size="36.0" fill="#525252" transform="matrix(1.00, 0.00, -0.00, -1.00, 852.7, 17.0)">o</text><text xml:space="preserve" font-family="SourceSansPro-Regular" font-size="36.0" fill="#525252" transform="matrix(1.00, 0.00, -0.00, -1.00, 875.8, 17.0)">p</text><text xml:space="preserve" font-family="SourceSansPro-Regular" font-size="36.0" fill="#525252" transform="matrix(1.00, 0.00, -0.00, -1.00, 899.4, 17.0)">h</text><text xml:space="preserve" font-family="SourceSansPro-Regular" font-size="36.0" fill="#525252" transform="matrix(1.00, 0.00, -0.00, -1.00, 922.6, 17.0)">i</text><text xml:space="preserve" font-family="SourceSansPro-Regular" font-size="36.0" fill="#525252" transform="matrix(1.00, 0.00, -0.00, -1.00, 935.0, 17.0)">a</text><text xml:space="preserve" font-family="SourceSansPro-Regular" font-size="36.0" fill="#525252" transform="matrix(1.00, 0.00, -0.00, -1.00, 957.0, 17.0)">k</text><text xml:space="preserve" font-family="SourceSansPro-Regular" font-size="36.0" fill="#525252" transform="matrix(1.00, 0.00, -0.00, -1.00, 977.8, 17.0)">c</text><text xml:space="preserve" font-family="SourceSansPro-Regular" font-size="36.0" fill="#525252" transform="matrix(1.00, 0.00, -0.00, -1.00, 997.8, 17.0)">.</text><text xml:space="preserve" font-family="SourceSansPro-Regular" font-size="36.0" fill="#525252" transform="matrix(1.00, 0.00, -0.00, -1.00, 1010.1, 17.0)">c</text><text xml:space="preserve" font-family="SourceSansPro-Regular" font-size="36.0" fill="#525252" transform="matrix(1.00, 0.00, -0.00, -1.00, 1029.4, 17.0)">o</text><text xml:space="preserve" font-family="SourceSansPro-Regular" font-size="36.0" fill="#525252" transform="matrix(1.00, 0.00, -0.00, -1.00, 1052.5, 17.0)">m</text></g></svg>