<?xml version="1.0" encoding="UTF-8" standalone="no"?><svg xmlns="http://www.w3.org/2000/svg" xmlns:xlink="http://www.w3.org/1999/xlink" clip-rule="evenodd" stroke-miterlimit="4.00" viewBox="0 0 1920 1080"><desc>SVG generated by Keynote</desc><defs></defs><g transform="matrix(1.00, 0.00, -0.00, -1.00, 0.0, 1080.0)"><path d="M 0.0 1080.0 L 1920.0 1080.0 L 1920.0 0.0 L 0.0 0.0 Z M 0.0 1080.0 " fill="#FFFFFF"></path><text xml:space="preserve" font-family="SourceSansPro-Light" font-size="85.0" fill="#525252" transform="matrix(1.00, 0.00, -0.00, -1.00, 482.0, 860.0)"> </text><text xml:space="preserve" font-family="SourceSansPro-Light" font-size="85.0" fill="#525252" transform="matrix(1.00, 0.00, -0.00, -1.00, 498.9, 860.0)"> </text><text xml:space="preserve" font-family="SourceSansPro-Light" font-size="85.0" fill="#525252" transform="matrix(1.00, 0.00, -0.00, -1.00, 515.8, 860.0)"> </text><text xml:space="preserve" font-family="SourceSansPro-Light" font-size="85.0" fill="#525252" transform="matrix(1.00, 0.00, -0.00, -1.00, 532.7, 860.0)"> </text><text xml:space="preserve" font-family="SourceSansPro-Light" font-size="85.0" fill="#525252" transform="matrix(1.00, 0.00, -0.00, -1.00, 549.7, 860.0)"> </text><text xml:space="preserve" font-family="SourceSansPro-Light" font-size="85.0" fill="#525252" transform="matrix(1.00, 0.00, -0.00, -1.00, 566.6, 860.0)"> </text><text xml:space="preserve" font-family="SourceSansPro-Light" font-size="85.0" fill="#525252" transform="matrix(1.00, 0.00, -0.00, -1.00, 583.5, 860.0)"> </text><text xml:space="preserve" font-family="SourceSansPro-Light" font-size="85.0" fill="#525252" transform="matrix(1.00, 0.00, -0.00, -1.00, 600.4, 860.0)"> </text><text xml:space="preserve" font-family="SourceSansPro-Light" font-size="85.0" fill="#525252" transform="matrix(1.00, 0.00, -0.00, -1.00, 617.3, 860.0)"> </text><text xml:space="preserve" font-family="SourceSansPro-Light" font-size="85.0" fill="#525252" transform="matrix(1.00, 0.00, -0.00, -1.00, 634.2, 860.0)"> </text><text xml:space="preserve" font-family="SourceSansPro-Light" font-size="85.0" fill="#525252" transform="matrix(1.00, 0.00, -0.00, -1.00, 651.1, 860.0)"> </text><text xml:space="preserve" font-family="SourceSansPro-Light" font-size="85.0" fill="#525252" transform="matrix(1.00, 0.00, -0.00, -1.00, 668.1, 860.0)"> </text><text xml:space="preserve" font-family="SourceSansPro-Light" font-size="85.0" fill="#525252" transform="matrix(1.00, 0.00, -0.00, -1.00, 685.0, 860.0)"> </text><text xml:space="preserve" font-family="SourceSansPro-Light" font-size="85.0" fill="#525252" transform="matrix(1.00, 0.00, -0.00, -1.00, 701.9, 860.0)"> </text><text xml:space="preserve" font-family="SourceSansPro-Light" font-size="85.0" fill="#525252" transform="matrix(1.00, 0.00, -0.00, -1.00, 718.8, 860.0)">,</text><text xml:space="preserve" font-family="SourceSansPro-Light" font-size="85.0" fill="#525252" transform="matrix(1.00, 0.00, -0.00, -1.00, 737.4, 860.0)"> </text><text xml:space="preserve" font-family="SourceSansPro-Light" font-size="85.0" fill="#525252" transform="matrix(1.00, 0.00, -0.00, -1.00, 754.3, 860.0)">i</text><text xml:space="preserve" font-family="SourceSansPro-Light" font-size="85.0" fill="#525252" transform="matrix(1.00, 0.00, -0.00, -1.00, 773.8, 860.0)">n</text><text xml:space="preserve" font-family="SourceSansPro-Light" font-size="85.0" fill="#525252" transform="matrix(1.00, 0.00, -0.00, -1.00, 819.0, 860.0)"> </text><text xml:space="preserve" font-family="SourceSansPro-Light" font-size="85.0" fill="#525252" transform="matrix(1.00, 0.00, -0.00, -1.00, 835.9, 860.0)">r</text><text xml:space="preserve" font-family="SourceSansPro-Light" font-size="85.0" fill="#525252" transform="matrix(1.00, 0.00, -0.00, -1.00, 862.0, 860.0)">e</text><text xml:space="preserve" font-family="SourceSansPro-Light" font-size="85.0" fill="#525252" transform="matrix(1.00, 0.00, -0.00, -1.00, 901.8, 860.0)">a</text><text xml:space="preserve" font-family="SourceSansPro-Light" font-size="85.0" fill="#525252" transform="matrix(1.00, 0.00, -0.00, -1.00, 944.2, 860.0)">l</text><text xml:space="preserve" font-family="SourceSansPro-Light" font-size="85.0" fill="#525252" transform="matrix(1.00, 0.00, -0.00, -1.00, 964.4, 860.0)"> </text><text xml:space="preserve" font-family="SourceSansPro-Light" font-size="85.0" fill="#525252" transform="matrix(1.00, 0.00, -0.00, -1.00, 981.3, 860.0)">t</text><text xml:space="preserve" font-family="SourceSansPro-Light" font-size="85.0" fill="#525252" transform="matrix(1.00, 0.00, -0.00, -1.00, 1007.8, 860.0)">i</text><text xml:space="preserve" font-family="SourceSansPro-Light" font-size="85.0" fill="#525252" transform="matrix(1.00, 0.00, -0.00, -1.00, 1027.3, 860.0)">m</text><text xml:space="preserve" font-family="SourceSansPro-Light" font-size="85.0" fill="#525252" transform="matrix(1.00, 0.00, -0.00, -1.00, 1096.3, 860.0)">e</text><text xml:space="preserve" font-family="SourceSansPro-Light" font-size="85.0" fill="#525252" transform="matrix(1.00, 0.00, -0.00, -1.00, 1137.3, 860.0)"> </text><text xml:space="preserve" font-family="SourceSansPro-Light" font-size="85.0" fill="#525252" transform="matrix(1.00, 0.00, -0.00, -1.00, 1154.3, 860.0)">s</text><text xml:space="preserve" font-family="SourceSansPro-Light" font-size="85.0" fill="#525252" transform="matrix(1.00, 0.00, -0.00, -1.00, 1188.7, 860.0)">p</text><text xml:space="preserve" font-family="SourceSansPro-Light" font-size="85.0" fill="#525252" transform="matrix(1.00, 0.00, -0.00, -1.00, 1234.9, 860.0)">e</text><text xml:space="preserve" font-family="SourceSansPro-Light" font-size="85.0" fill="#525252" transform="matrix(1.00, 0.00, -0.00, -1.00, 1276.0, 860.0)">e</text><text xml:space="preserve" font-family="SourceSansPro-Light" font-size="85.0" fill="#525252" transform="matrix(1.00, 0.00, -0.00, -1.00, 1317.0, 860.0)">c</text><text xml:space="preserve" font-family="SourceSansPro-Light" font-size="85.0" fill="#525252" transform="matrix(1.00, 0.00, -0.00, -1.00, 1355.2, 860.0)">h</text><text xml:space="preserve" font-family="SourceSansPro-Light" font-size="85.0" fill="#525252" transform="matrix(1.00, 0.00, -0.00, -1.00, 1400.1, 860.0)">-</text><text xml:space="preserve" font-family="SourceSansPro-Light" font-size="85.0" fill="#525252" transform="matrix(1.00, 0.00, -0.00, -1.00, 1425.5, 860.0)">t</text><text xml:space="preserve" font-family="SourceSansPro-Light" font-size="85.0" fill="#525252" transform="matrix(1.00, 0.00, -0.00, -1.00, 1451.2, 860.0)">o</text><text xml:space="preserve" font-family="SourceSansPro-Light" font-size="85.0" fill="#525252" transform="matrix(1.00, 0.00, -0.00, -1.00, 1497.4, 860.0)">-</text><text xml:space="preserve" font-family="SourceSansPro-Light" font-size="85.0" fill="#525252" transform="matrix(1.00, 0.00, -0.00, -1.00, 1522.8, 860.0)">t</text><text xml:space="preserve" font-family="SourceSansPro-Light" font-size="85.0" fill="#525252" transform="matrix(1.00, 0.00, -0.00, -1.00, 1548.5, 860.0)">e</text><text xml:space="preserve" font-family="SourceSansPro-Light" font-size="85.0" fill="#525252" transform="matrix(1.00, 0.00, -0.00, -1.00, 1589.5, 860.0)">x</text><text xml:space="preserve" font-family="SourceSansPro-Light" font-size="85.0" fill="#525252" transform="matrix(1.00, 0.00, -0.00, -1.00, 1624.1, 860.0)">t</text><text xml:space="preserve" font-family="SourceSansPro-Light" font-size="85.0" fill="#525252" transform="matrix(1.00, 0.00, -0.00, -1.00, 1650.7, 860.0)"> </text><text xml:space="preserve" font-family="SourceSansPro-Light" font-size="85.0" fill="#525252" transform="matrix(1.00, 0.00, -0.00, -1.00, 1667.6, 860.0)">a</text><text xml:space="preserve" font-family="SourceSansPro-Light" font-size="85.0" fill="#525252" transform="matrix(1.00, 0.00, -0.00, -1.00, 1710.0, 860.0)">p</text><text xml:space="preserve" font-family="SourceSansPro-Light" font-size="85.0" fill="#525252" transform="matrix(1.00, 0.00, -0.00, -1.00, 1756.2, 860.0)">p</text><text xml:space="preserve" font-family="SourceSansPro-Light" font-size="85.0" fill="#525252" transform="matrix(1.00, 0.00, -0.00, -1.00, 1802.5, 860.0)"> </text><text xml:space="preserve" font-family="SourceSansPro-Light" font-size="85.0" fill="#525252" transform="matrix(1.00, 0.00, -0.00, -1.00, 1819.4, 860.0)"> </text><text xml:space="preserve" font-family="SourceSansPro-Light" font-size="85.0" fill="#525252" transform="matrix(1.00, 0.00, -0.00, -1.00, 482.0, 753.0)">D</text><text xml:space="preserve" font-family="SourceSansPro-Light" font-size="85.0" fill="#525252" transform="matrix(1.00, 0.00, -0.00, -1.00, 533.3, 753.0)">e</text><text xml:space="preserve" font-family="SourceSansPro-Light" font-size="85.0" fill="#525252" transform="matrix(1.00, 0.00, -0.00, -1.00, 573.1, 753.0)">a</text><text xml:space="preserve" font-family="SourceSansPro-Light" font-size="85.0" fill="#525252" transform="matrix(1.00, 0.00, -0.00, -1.00, 615.5, 753.0)">f</text><text xml:space="preserve" font-family="SourceSansPro-Light" font-size="85.0" fill="#525252" transform="matrix(1.00, 0.00, -0.00, -1.00, 637.9, 753.0)"> </text><text xml:space="preserve" font-family="SourceSansPro-Light" font-size="85.0" fill="#525252" transform="matrix(1.00, 0.00, -0.00, -1.00, 654.8, 753.0)">a</text><text xml:space="preserve" font-family="SourceSansPro-Light" font-size="85.0" fill="#525252" transform="matrix(1.00, 0.00, -0.00, -1.00, 697.2, 753.0)">n</text><text xml:space="preserve" font-family="SourceSansPro-Light" font-size="85.0" fill="#525252" transform="matrix(1.00, 0.00, -0.00, -1.00, 742.4, 753.0)">d</text><text xml:space="preserve" font-family="SourceSansPro-Light" font-size="85.0" fill="#525252" transform="matrix(1.00, 0.00, -0.00, -1.00, 788.7, 753.0)"> </text><text xml:space="preserve" font-family="SourceSansPro-Light" font-size="85.0" fill="#525252" transform="matrix(1.00, 0.00, -0.00, -1.00, 805.6, 753.0)">h</text><text xml:space="preserve" font-family="SourceSansPro-Light" font-size="85.0" fill="#525252" transform="matrix(1.00, 0.00, -0.00, -1.00, 850.5, 753.0)">a</text><text xml:space="preserve" font-family="SourceSansPro-Light" font-size="85.0" fill="#525252" transform="matrix(1.00, 0.00, -0.00, -1.00, 892.9, 753.0)">r</text><text xml:space="preserve" font-family="SourceSansPro-Light" font-size="85.0" fill="#525252" transform="matrix(1.00, 0.00, -0.00, -1.00, 919.0, 753.0)">d</text><text xml:space="preserve" font-family="SourceSansPro-Light" font-size="85.0" fill="#525252" transform="matrix(1.00, 0.00, -0.00, -1.00, 965.2, 753.0)"> </text><text xml:space="preserve" font-family="SourceSansPro-Light" font-size="85.0" fill="#525252" transform="matrix(1.00, 0.00, -0.00, -1.00, 982.1, 753.0)">o</text><text xml:space="preserve" font-family="SourceSansPro-Light" font-size="85.0" fill="#525252" transform="matrix(1.00, 0.00, -0.00, -1.00, 1027.6, 753.0)">f</text><text xml:space="preserve" font-family="SourceSansPro-Light" font-size="85.0" fill="#525252" transform="matrix(1.00, 0.00, -0.00, -1.00, 1050.0, 753.0)"> </text><text xml:space="preserve" font-family="SourceSansPro-Light" font-size="85.0" fill="#525252" transform="matrix(1.00, 0.00, -0.00, -1.00, 1066.9, 753.0)">h</text><text xml:space="preserve" font-family="SourceSansPro-Light" font-size="85.0" fill="#525252" transform="matrix(1.00, 0.00, -0.00, -1.00, 1111.8, 753.0)">e</text><text xml:space="preserve" font-family="SourceSansPro-Light" font-size="85.0" fill="#525252" transform="matrix(1.00, 0.00, -0.00, -1.00, 1151.5, 753.0)">a</text><text xml:space="preserve" font-family="SourceSansPro-Light" font-size="85.0" fill="#525252" transform="matrix(1.00, 0.00, -0.00, -1.00, 1194.0, 753.0)">r</text><text xml:space="preserve" font-family="SourceSansPro-Light" font-size="85.0" fill="#525252" transform="matrix(1.00, 0.00, -0.00, -1.00, 1220.9, 753.0)">i</text><text xml:space="preserve" font-family="SourceSansPro-Light" font-size="85.0" fill="#525252" transform="matrix(1.00, 0.00, -0.00, -1.00, 1240.4, 753.0)">n</text><text xml:space="preserve" font-family="SourceSansPro-Light" font-size="85.0" fill="#525252" transform="matrix(1.00, 0.00, -0.00, -1.00, 1285.6, 753.0)">g</text><text xml:space="preserve" font-family="SourceSansPro-Light" font-size="85.0" fill="#525252" transform="matrix(1.00, 0.00, -0.00, -1.00, 1327.0, 753.0)"> </text><text xml:space="preserve" font-family="SourceSansPro-Light" font-size="85.0" fill="#525252" transform="matrix(1.00, 0.00, -0.00, -1.00, 1343.9, 753.0)">p</text><text xml:space="preserve" font-family="SourceSansPro-Light" font-size="85.0" fill="#525252" transform="matrix(1.00, 0.00, -0.00, -1.00, 1390.1, 753.0)">e</text><text xml:space="preserve" font-family="SourceSansPro-Light" font-size="85.0" fill="#525252" transform="matrix(1.00, 0.00, -0.00, -1.00, 1431.2, 753.0)">o</text><text xml:space="preserve" font-family="SourceSansPro-Light" font-size="85.0" fill="#525252" transform="matrix(1.00, 0.00, -0.00, -1.00, 1476.7, 753.0)">p</text><text xml:space="preserve" font-family="SourceSansPro-Light" font-size="85.0" fill="#525252" transform="matrix(1.00, 0.00, -0.00, -1.00, 1522.9, 753.0)">l</text><text xml:space="preserve" font-family="SourceSansPro-Light" font-size="85.0" fill="#525252" transform="matrix(1.00, 0.00, -0.00, -1.00, 1543.1, 753.0)">e</text><text xml:space="preserve" font-family="SourceSansPro-Light" font-size="85.0" fill="#525252" transform="matrix(1.00, 0.00, -0.00, -1.00, 1584.1, 753.0)"> </text><text xml:space="preserve" font-family="SourceSansPro-Light" font-size="85.0" fill="#525252" transform="matrix(1.00, 0.00, -0.00, -1.00, 482.0, 646.0)">E</text><text xml:space="preserve" font-family="SourceSansPro-Light" font-size="85.0" fill="#525252" transform="matrix(1.00, 0.00, -0.00, -1.00, 525.8, 646.0)">x</text><text xml:space="preserve" font-family="SourceSansPro-Light" font-size="85.0" fill="#525252" transform="matrix(1.00, 0.00, -0.00, -1.00, 560.4, 646.0)">i</text><text xml:space="preserve" font-family="SourceSansPro-Light" font-size="85.0" fill="#525252" transform="matrix(1.00, 0.00, -0.00, -1.00, 579.8, 646.0)">s</text><text xml:space="preserve" font-family="SourceSansPro-Light" font-size="85.0" fill="#525252" transform="matrix(1.00, 0.00, -0.00, -1.00, 614.3, 646.0)">t</text><text xml:space="preserve" font-family="SourceSansPro-Light" font-size="85.0" fill="#525252" transform="matrix(1.00, 0.00, -0.00, -1.00, 640.8, 646.0)">s</text><text xml:space="preserve" font-family="SourceSansPro-Light" font-size="85.0" fill="#525252" transform="matrix(1.00, 0.00, -0.00, -1.00, 675.2, 646.0)"> </text><text xml:space="preserve" font-family="SourceSansPro-Light" font-size="85.0" fill="#525252" transform="matrix(1.00, 0.00, -0.00, -1.00, 692.1, 646.0)">s</text><text xml:space="preserve" font-family="SourceSansPro-Light" font-size="85.0" fill="#525252" transform="matrix(1.00, 0.00, -0.00, -1.00, 726.5, 646.0)">i</text><text xml:space="preserve" font-family="SourceSansPro-Light" font-size="85.0" fill="#525252" transform="matrix(1.00, 0.00, -0.00, -1.00, 746.0, 646.0)">n</text><text xml:space="preserve" font-family="SourceSansPro-Light" font-size="85.0" fill="#525252" transform="matrix(1.00, 0.00, -0.00, -1.00, 791.2, 646.0)">c</text><text xml:space="preserve" font-family="SourceSansPro-Light" font-size="85.0" fill="#525252" transform="matrix(1.00, 0.00, -0.00, -1.00, 828.0, 646.0)">e</text><text xml:space="preserve" font-family="SourceSansPro-Light" font-size="85.0" fill="#525252" transform="matrix(1.00, 0.00, -0.00, -1.00, 869.0, 646.0)"> </text><text xml:space="preserve" font-family="SourceSansPro-Light" font-size="85.0" fill="#525252" transform="matrix(1.00, 0.00, -0.00, -1.00, 885.9, 646.0)">M</text><text xml:space="preserve" font-family="SourceSansPro-Light" font-size="85.0" fill="#525252" transform="matrix(1.00, 0.00, -0.00, -1.00, 945.9, 646.0)">a</text><text xml:space="preserve" font-family="SourceSansPro-Light" font-size="85.0" fill="#525252" transform="matrix(1.00, 0.00, -0.00, -1.00, 988.3, 646.0)">y</text><text xml:space="preserve" font-family="SourceSansPro-Light" font-size="85.0" fill="#525252" transform="matrix(1.00, 0.00, -0.00, -1.00, 1025.4, 646.0)"> </text><text xml:space="preserve" font-family="SourceSansPro-Light" font-size="85.0" fill="#525252" transform="matrix(1.00, 0.00, -0.00, -1.00, 1042.3, 646.0)">2</text><text xml:space="preserve" font-family="SourceSansPro-Light" font-size="85.0" fill="#525252" transform="matrix(1.00, 0.00, -0.00, -1.00, 1083.0, 646.0)">0</text><text xml:space="preserve" font-family="SourceSansPro-Light" font-size="85.0" fill="#525252" transform="matrix(1.00, 0.00, -0.00, -1.00, 1123.8, 646.0)">1</text><text xml:space="preserve" font-family="SourceSansPro-Light" font-size="85.0" fill="#525252" transform="matrix(1.00, 0.00, -0.00, -1.00, 1164.5, 646.0)">4</text><text xml:space="preserve" font-family="SourceSansPro-Light" font-size="85.0" fill="#525252" transform="matrix(1.00, 0.00, -0.00, -1.00, 1205.2, 646.0)"> </text><text xml:space="preserve" font-family="SourceSansPro-Light" font-size="85.0" fill="#525252" transform="matrix(1.00, 0.00, -0.00, -1.00, 482.0, 539.0)">U</text><text xml:space="preserve" font-family="SourceSansPro-Light" font-size="85.0" fill="#525252" transform="matrix(1.00, 0.00, -0.00, -1.00, 535.0, 539.0)">X</text><text xml:space="preserve" font-family="SourceSansPro-Light" font-size="85.0" fill="#525252" transform="matrix(1.00, 0.00, -0.00, -1.00, 576.0, 539.0)"> </text><text xml:space="preserve" font-family="SourceSansPro-Light" font-size="85.0" fill="#525252" transform="matrix(1.00, 0.00, -0.00, -1.00, 592.9, 539.0)">r</text><text xml:space="preserve" font-family="SourceSansPro-Light" font-size="85.0" fill="#525252" transform="matrix(1.00, 0.00, -0.00, -1.00, 619.0, 539.0)">e</text><text xml:space="preserve" font-family="SourceSansPro-Light" font-size="85.0" fill="#525252" transform="matrix(1.00, 0.00, -0.00, -1.00, 660.1, 539.0)">c</text><text xml:space="preserve" font-family="SourceSansPro-Light" font-size="85.0" fill="#525252" transform="matrix(1.00, 0.00, -0.00, -1.00, 696.8, 539.0)">o</text><text xml:space="preserve" font-family="SourceSansPro-Light" font-size="85.0" fill="#525252" transform="matrix(1.00, 0.00, -0.00, -1.00, 742.3, 539.0)">m</text><text xml:space="preserve" font-family="SourceSansPro-Light" font-size="85.0" fill="#525252" transform="matrix(1.00, 0.00, -0.00, -1.00, 811.3, 539.0)">m</text><text xml:space="preserve" font-family="SourceSansPro-Light" font-size="85.0" fill="#525252" transform="matrix(1.00, 0.00, -0.00, -1.00, 880.3, 539.0)">e</text><text xml:space="preserve" font-family="SourceSansPro-Light" font-size="85.0" fill="#525252" transform="matrix(1.00, 0.00, -0.00, -1.00, 921.4, 539.0)">n</text><text xml:space="preserve" font-family="SourceSansPro-Light" font-size="85.0" fill="#525252" transform="matrix(1.00, 0.00, -0.00, -1.00, 966.6, 539.0)">d</text><text xml:space="preserve" font-family="SourceSansPro-Light" font-size="85.0" fill="#525252" transform="matrix(1.00, 0.00, -0.00, -1.00, 1012.8, 539.0)">a</text><text xml:space="preserve" font-family="SourceSansPro-Light" font-size="85.0" fill="#525252" transform="matrix(1.00, 0.00, -0.00, -1.00, 1055.2, 539.0)">t</text><text xml:space="preserve" font-family="SourceSansPro-Light" font-size="85.0" fill="#525252" transform="matrix(1.00, 0.00, -0.00, -1.00, 1081.8, 539.0)">i</text><text xml:space="preserve" font-family="SourceSansPro-Light" font-size="85.0" fill="#525252" transform="matrix(1.00, 0.00, -0.00, -1.00, 1101.2, 539.0)">o</text><text xml:space="preserve" font-family="SourceSansPro-Light" font-size="85.0" fill="#525252" transform="matrix(1.00, 0.00, -0.00, -1.00, 1146.7, 539.0)">n</text><text xml:space="preserve" font-family="SourceSansPro-Light" font-size="85.0" fill="#525252" transform="matrix(1.00, 0.00, -0.00, -1.00, 1191.9, 539.0)">s</text><text xml:space="preserve" font-family="SourceSansPro-Light" font-size="85.0" fill="#525252" transform="matrix(1.00, 0.00, -0.00, -1.00, 1226.3, 539.0)"> </text><text xml:space="preserve" font-family="SourceSansPro-Light" font-size="85.0" fill="#525252" transform="matrix(1.00, 0.00, -0.00, -1.00, 1243.3, 539.0)">M</text><text xml:space="preserve" font-family="SourceSansPro-Light" font-size="85.0" fill="#525252" transform="matrix(1.00, 0.00, -0.00, -1.00, 1303.3, 539.0)">a</text><text xml:space="preserve" font-family="SourceSansPro-Light" font-size="85.0" fill="#525252" transform="matrix(1.00, 0.00, -0.00, -1.00, 1345.7, 539.0)">y</text><text xml:space="preserve" font-family="SourceSansPro-Light" font-size="85.0" fill="#525252" transform="matrix(1.00, 0.00, -0.00, -1.00, 1382.7, 539.0)"> </text><text xml:space="preserve" font-family="SourceSansPro-Light" font-size="85.0" fill="#525252" transform="matrix(1.00, 0.00, -0.00, -1.00, 1399.7, 539.0)">2</text><text xml:space="preserve" font-family="SourceSansPro-Light" font-size="85.0" fill="#525252" transform="matrix(1.00, 0.00, -0.00, -1.00, 1440.4, 539.0)">0</text><text xml:space="preserve" font-family="SourceSansPro-Light" font-size="85.0" fill="#525252" transform="matrix(1.00, 0.00, -0.00, -1.00, 1481.1, 539.0)">1</text><text xml:space="preserve" font-family="SourceSansPro-Light" font-size="85.0" fill="#525252" transform="matrix(1.00, 0.00, -0.00, -1.00, 1521.8, 539.0)">6</text><text xml:space="preserve" font-family="SourceSansPro-Light" font-size="85.0" fill="#525252" transform="matrix(1.00, 0.00, -0.00, -1.00, 1562.5, 539.0)"> </text><text xml:space="preserve" font-family="SourceSansPro-Light" font-size="85.0" fill="#525252" transform="matrix(1.00, 0.00, -0.00, -1.00, 482.0, 325.0)">U</text><text xml:space="preserve" font-family="SourceSansPro-Light" font-size="85.0" fill="#525252" transform="matrix(1.00, 0.00, -0.00, -1.00, 535.0, 325.0)">X</text><text xml:space="preserve" font-family="SourceSansPro-Light" font-size="85.0" fill="#525252" transform="matrix(1.00, 0.00, -0.00, -1.00, 576.0, 325.0)"> </text><text xml:space="preserve" font-family="SourceSansPro-Light" font-size="85.0" fill="#525252" transform="matrix(1.00, 0.00, -0.00, -1.00, 592.9, 325.0)">r</text><text xml:space="preserve" font-family="SourceSansPro-Light" font-size="85.0" fill="#525252" transform="matrix(1.00, 0.00, -0.00, -1.00, 619.0, 325.0)">o</text><text xml:space="preserve" font-family="SourceSansPro-Light" font-size="85.0" fill="#525252" transform="matrix(1.00, 0.00, -0.00, -1.00, 663.2, 325.0)">a</text><text xml:space="preserve" font-family="SourceSansPro-Light" font-size="85.0" fill="#525252" transform="matrix(1.00, 0.00, -0.00, -1.00, 705.6, 325.0)">d</text><text xml:space="preserve" font-family="SourceSansPro-Light" font-size="85.0" fill="#525252" transform="matrix(1.00, 0.00, -0.00, -1.00, 751.9, 325.0)">b</text><text xml:space="preserve" font-family="SourceSansPro-Light" font-size="85.0" fill="#525252" transform="matrix(1.00, 0.00, -0.00, -1.00, 798.1, 325.0)">l</text><text xml:space="preserve" font-family="SourceSansPro-Light" font-size="85.0" fill="#525252" transform="matrix(1.00, 0.00, -0.00, -1.00, 818.3, 325.0)">o</text><text xml:space="preserve" font-family="SourceSansPro-Light" font-size="85.0" fill="#525252" transform="matrix(1.00, 0.00, -0.00, -1.00, 863.7, 325.0)">c</text><text xml:space="preserve" font-family="SourceSansPro-Light" font-size="85.0" fill="#525252" transform="matrix(1.00, 0.00, -0.00, -1.00, 901.9, 325.0)">k</text><text xml:space="preserve" font-family="SourceSansPro-Light" font-size="85.0" fill="#525252" transform="matrix(1.00, 0.00, -0.00, -1.00, 941.3, 325.0)">s</text><text xml:space="preserve" font-family="SourceSansPro-Light" font-size="85.0" fill="#525252" transform="matrix(1.00, 0.00, -0.00, -1.00, 975.8, 325.0)"> </text><text xml:space="preserve" font-family="SourceSansPro-Light" font-size="85.0" fill="#525252" transform="matrix(1.00, 0.00, -0.00, -1.00, 992.7, 325.0)">i</text><text xml:space="preserve" font-family="SourceSansPro-Light" font-size="85.0" fill="#525252" transform="matrix(1.00, 0.00, -0.00, -1.00, 1012.1, 325.0)">d</text><text xml:space="preserve" font-family="SourceSansPro-Light" font-size="85.0" fill="#525252" transform="matrix(1.00, 0.00, -0.00, -1.00, 1058.4, 325.0)">e</text><text xml:space="preserve" font-family="SourceSansPro-Light" font-size="85.0" fill="#525252" transform="matrix(1.00, 0.00, -0.00, -1.00, 1099.4, 325.0)">n</text><text xml:space="preserve" font-family="SourceSansPro-Light" font-size="85.0" fill="#525252" transform="matrix(1.00, 0.00, -0.00, -1.00, 1144.7, 325.0)">t</text><text xml:space="preserve" font-family="SourceSansPro-Light" font-size="85.0" fill="#525252" transform="matrix(1.00, 0.00, -0.00, -1.00, 1171.2, 325.0)">i</text><text xml:space="preserve" font-family="SourceSansPro-Light" font-size="85.0" fill="#525252" transform="matrix(1.00, 0.00, -0.00, -1.00, 1190.6, 325.0)">f</text><text xml:space="preserve" font-family="SourceSansPro-Light" font-size="85.0" fill="#525252" transform="matrix(1.00, 0.00, -0.00, -1.00, 1213.0, 325.0)">i</text><text xml:space="preserve" font-family="SourceSansPro-Light" font-size="85.0" fill="#525252" transform="matrix(1.00, 0.00, -0.00, -1.00, 1232.5, 325.0)">c</text><text xml:space="preserve" font-family="SourceSansPro-Light" font-size="85.0" fill="#525252" transform="matrix(1.00, 0.00, -0.00, -1.00, 1269.8, 325.0)">a</text><text xml:space="preserve" font-family="SourceSansPro-Light" font-size="85.0" fill="#525252" transform="matrix(1.00, 0.00, -0.00, -1.00, 1312.2, 325.0)">t</text><text xml:space="preserve" font-family="SourceSansPro-Light" font-size="85.0" fill="#525252" transform="matrix(1.00, 0.00, -0.00, -1.00, 1338.7, 325.0)">i</text><text xml:space="preserve" font-family="SourceSansPro-Light" font-size="85.0" fill="#525252" transform="matrix(1.00, 0.00, -0.00, -1.00, 1358.2, 325.0)">o</text><text xml:space="preserve" font-family="SourceSansPro-Light" font-size="85.0" fill="#525252" transform="matrix(1.00, 0.00, -0.00, -1.00, 1403.7, 325.0)">n</text><text xml:space="preserve" font-family="SourceSansPro-Light" font-size="85.0" fill="#525252" transform="matrix(1.00, 0.00, -0.00, -1.00, 1448.9, 325.0)"> </text><text xml:space="preserve" font-family="SourceSansPro-Light" font-size="85.0" fill="#525252" transform="matrix(1.00, 0.00, -0.00, -1.00, 1465.8, 325.0)">f</text><text xml:space="preserve" font-family="SourceSansPro-Light" font-size="85.0" fill="#525252" transform="matrix(1.00, 0.00, -0.00, -1.00, 1487.3, 325.0)">o</text><text xml:space="preserve" font-family="SourceSansPro-Light" font-size="85.0" fill="#525252" transform="matrix(1.00, 0.00, -0.00, -1.00, 1532.8, 325.0)">r</text><text xml:space="preserve" font-family="SourceSansPro-Light" font-size="85.0" fill="#525252" transform="matrix(1.00, 0.00, -0.00, -1.00, 1559.7, 325.0)"> </text><text xml:space="preserve" font-family="SourceSansPro-Light" font-size="85.0" fill="#525252" transform="matrix(1.00, 0.00, -0.00, -1.00, 1576.6, 325.0)">m</text><text xml:space="preserve" font-family="SourceSansPro-Light" font-size="85.0" fill="#525252" transform="matrix(1.00, 0.00, -0.00, -1.00, 1645.6, 325.0)">a</text><text xml:space="preserve" font-family="SourceSansPro-Light" font-size="85.0" fill="#525252" transform="matrix(1.00, 0.00, -0.00, -1.00, 1688.1, 325.0)">i</text><text xml:space="preserve" font-family="SourceSansPro-Light" font-size="85.0" fill="#525252" transform="matrix(1.00, 0.00, -0.00, -1.00, 1707.5, 325.0)">n</text><text xml:space="preserve" font-family="SourceSansPro-Light" font-size="85.0" fill="#525252" transform="matrix(1.00, 0.00, -0.00, -1.00, 1752.7, 325.0)"> </text><text xml:space="preserve" font-family="SourceSansPro-Light" font-size="85.0" fill="#525252" transform="matrix(1.00, 0.00, -0.00, -1.00, 482.0, 218.0)">u</text><text xml:space="preserve" font-family="SourceSansPro-Light" font-size="85.0" fill="#525252" transform="matrix(1.00, 0.00, -0.00, -1.00, 527.0, 218.0)">s</text><text xml:space="preserve" font-family="SourceSansPro-Light" font-size="85.0" fill="#525252" transform="matrix(1.00, 0.00, -0.00, -1.00, 561.4, 218.0)">e</text><text xml:space="preserve" font-family="SourceSansPro-Light" font-size="85.0" fill="#525252" transform="matrix(1.00, 0.00, -0.00, -1.00, 602.4, 218.0)">r</text><text xml:space="preserve" font-family="SourceSansPro-Light" font-size="85.0" fill="#525252" transform="matrix(1.00, 0.00, -0.00, -1.00, 629.4, 218.0)"> </text><text xml:space="preserve" font-family="SourceSansPro-Light" font-size="85.0" fill="#525252" transform="matrix(1.00, 0.00, -0.00, -1.00, 646.3, 218.0)">s</text><text xml:space="preserve" font-family="SourceSansPro-Light" font-size="85.0" fill="#525252" transform="matrix(1.00, 0.00, -0.00, -1.00, 680.7, 218.0)">c</text><text xml:space="preserve" font-family="SourceSansPro-Light" font-size="85.0" fill="#525252" transform="matrix(1.00, 0.00, -0.00, -1.00, 717.5, 218.0)">e</text><text xml:space="preserve" font-family="SourceSansPro-Light" font-size="85.0" fill="#525252" transform="matrix(1.00, 0.00, -0.00, -1.00, 758.5, 218.0)">n</text><text xml:space="preserve" font-family="SourceSansPro-Light" font-size="85.0" fill="#525252" transform="matrix(1.00, 0.00, -0.00, -1.00, 803.7, 218.0)">a</text><text xml:space="preserve" font-family="SourceSansPro-Light" font-size="85.0" fill="#525252" transform="matrix(1.00, 0.00, -0.00, -1.00, 846.1, 218.0)">r</text><text xml:space="preserve" font-family="SourceSansPro-Light" font-size="85.0" fill="#525252" transform="matrix(1.00, 0.00, -0.00, -1.00, 873.1, 218.0)">i</text><text xml:space="preserve" font-family="SourceSansPro-Light" font-size="85.0" fill="#525252" transform="matrix(1.00, 0.00, -0.00, -1.00, 892.6, 218.0)">o</text><text xml:space="preserve" font-family="SourceSansPro-Light" font-size="85.0" fill="#525252" transform="matrix(1.00, 0.00, -0.00, -1.00, 938.0, 218.0)">s</text><path d="M 132.1 943.2 L 357.7 943.2 L 357.7 836.2 L 132.1 836.2 Z M 132.1 943.2 " fill="#DDDDDD"></path><path d="M 132.1 836.2 L 398.4 836.2 L 398.4 729.2 L 132.1 729.2 Z M 132.1 836.2 " fill="#FF40FF"></path><path d="M 132.1 729.2 L 374.9 729.2 L 374.9 622.2 L 132.1 622.2 Z M 132.1 729.2 " fill="#00F900"></path><path d="M 132.1 408.2 L 459.0 408.2 L 459.0 301.2 L 132.1 301.2 Z M 132.1 408.2 " fill="#FF2600"></path><text xml:space="preserve" font-family="SourceSansPro-Semibold" font-weight="bold" font-size="85.0" fill="#525252" transform="matrix(1.00, 0.00, -0.00, -1.00, 132.0, 859.0)">W</text><text xml:space="preserve" font-family="SourceSansPro-Semibold" font-weight="bold" font-size="85.0" fill="#525252" transform="matrix(1.00, 0.00, -0.00, -1.00, 200.0, 859.0)">h</text><text xml:space="preserve" font-family="SourceSansPro-Semibold" font-weight="bold" font-size="85.0" fill="#525252" transform="matrix(1.00, 0.00, -0.00, -1.00, 247.4, 859.0)">a</text><text xml:space="preserve" font-family="SourceSansPro-Semibold" font-weight="bold" font-size="85.0" fill="#525252" transform="matrix(1.00, 0.00, -0.00, -1.00, 291.9, 859.0)">t</text><text xml:space="preserve" font-family="SourceSansPro-Semibold" font-weight="bold" font-size="85.0" fill="#525252" transform="matrix(1.00, 0.00, -0.00, -1.00, 319.9, 859.0)">?</text><text xml:space="preserve" font-family="SourceSansPro-Light" font-size="85.0" fill="#525252" transform="matrix(1.00, 0.00, -0.00, -1.00, 357.7, 859.0)"> </text><text xml:space="preserve" font-family="SourceSansPro-Semibold" font-weight="bold" font-size="85.0" fill="#525252" transform="matrix(1.00, 0.00, -0.00, -1.00, 132.0, 752.0)">T</text><text xml:space="preserve" font-family="SourceSansPro-Semibold" font-weight="bold" font-size="85.0" fill="#525252" transform="matrix(1.00, 0.00, -0.00, -1.00, 172.6, 752.0)">a</text><text xml:space="preserve" font-family="SourceSansPro-Semibold" font-weight="bold" font-size="85.0" fill="#525252" transform="matrix(1.00, 0.00, -0.00, -1.00, 217.1, 752.0)">r</text><text xml:space="preserve" font-family="SourceSansPro-Semibold" font-weight="bold" font-size="85.0" fill="#525252" transform="matrix(1.00, 0.00, -0.00, -1.00, 247.9, 752.0)">g</text><text xml:space="preserve" font-family="SourceSansPro-Semibold" font-weight="bold" font-size="85.0" fill="#525252" transform="matrix(1.00, 0.00, -0.00, -1.00, 290.8, 752.0)">e</text><text xml:space="preserve" font-family="SourceSansPro-Semibold" font-weight="bold" font-size="85.0" fill="#525252" transform="matrix(1.00, 0.00, -0.00, -1.00, 332.5, 752.0)">t</text><text xml:space="preserve" font-family="SourceSansPro-Semibold" font-weight="bold" font-size="85.0" fill="#525252" transform="matrix(1.00, 0.00, -0.00, -1.00, 360.6, 752.0)">?</text><text xml:space="preserve" font-family="SourceSansPro-Light" font-size="85.0" fill="#525252" transform="matrix(1.00, 0.00, -0.00, -1.00, 398.3, 752.0)"> </text><text xml:space="preserve" font-family="SourceSansPro-Semibold" font-weight="bold" font-size="85.0" fill="#525252" transform="matrix(1.00, 0.00, -0.00, -1.00, 132.0, 645.0)">S</text><text xml:space="preserve" font-family="SourceSansPro-Semibold" font-weight="bold" font-size="85.0" fill="#525252" transform="matrix(1.00, 0.00, -0.00, -1.00, 178.3, 645.0)">t</text><text xml:space="preserve" font-family="SourceSansPro-Semibold" font-weight="bold" font-size="85.0" fill="#525252" transform="matrix(1.00, 0.00, -0.00, -1.00, 207.7, 645.0)">a</text><text xml:space="preserve" font-family="SourceSansPro-Semibold" font-weight="bold" font-size="85.0" fill="#525252" transform="matrix(1.00, 0.00, -0.00, -1.00, 252.2, 645.0)">g</text><text xml:space="preserve" font-family="SourceSansPro-Semibold" font-weight="bold" font-size="85.0" fill="#525252" transform="matrix(1.00, 0.00, -0.00, -1.00, 295.0, 645.0)">e</text><text xml:space="preserve" font-family="SourceSansPro-Semibold" font-weight="bold" font-size="85.0" fill="#525252" transform="matrix(1.00, 0.00, -0.00, -1.00, 337.1, 645.0)">?</text><text xml:space="preserve" font-family="SourceSansPro-Semibold" font-weight="bold" font-size="85.0" fill="#525252" transform="matrix(1.00, 0.00, -0.00, -1.00, 374.8, 645.0)"> </text><text xml:space="preserve" font-family="SourceSansPro-Semibold" font-weight="bold" font-size="85.0" fill="#FFFFFF" transform="matrix(1.00, 0.00, -0.00, -1.00, 132.0, 324.0)">A</text><text xml:space="preserve" font-family="SourceSansPro-Semibold" font-weight="bold" font-size="85.0" fill="#FFFFFF" transform="matrix(1.00, 0.00, -0.00, -1.00, 178.1, 324.0)">t</text><text xml:space="preserve" font-family="SourceSansPro-Semibold" font-weight="bold" font-size="85.0" fill="#FFFFFF" transform="matrix(1.00, 0.00, -0.00, -1.00, 208.8, 324.0)"> </text><text xml:space="preserve" font-family="SourceSansPro-Semibold" font-weight="bold" font-size="85.0" fill="#FFFFFF" transform="matrix(1.00, 0.00, -0.00, -1.00, 226.2, 324.0)">s</text><text xml:space="preserve" font-family="SourceSansPro-Semibold" font-weight="bold" font-size="85.0" fill="#FFFFFF" transform="matrix(1.00, 0.00, -0.00, -1.00, 262.8, 324.0)">t</text><text xml:space="preserve" font-family="SourceSansPro-Semibold" font-weight="bold" font-size="85.0" fill="#FFFFFF" transform="matrix(1.00, 0.00, -0.00, -1.00, 292.2, 324.0)">a</text><text xml:space="preserve" font-family="SourceSansPro-Semibold" font-weight="bold" font-size="85.0" fill="#FFFFFF" transform="matrix(1.00, 0.00, -0.00, -1.00, 336.7, 324.0)">k</text><text xml:space="preserve" font-family="SourceSansPro-Semibold" font-weight="bold" font-size="85.0" fill="#FFFFFF" transform="matrix(1.00, 0.00, -0.00, -1.00, 379.1, 324.0)">e</text><text xml:space="preserve" font-family="SourceSansPro-Semibold" font-weight="bold" font-size="85.0" fill="#FFFFFF" transform="matrix(1.00, 0.00, -0.00, -1.00, 421.2, 324.0)">?</text><image xlink:href="D3EAC27E75E0ABF01B7F64B5B0D5C1B9.png" width="251.00" height="110.00" transform="matrix(1.00, 0.00, -0.00, -1.00, 467.0, 940.0)"></image><text xml:space="preserve" font-family="SourceSansPro-Regular" font-size="36.0" fill="#525252" transform="matrix(1.00, 0.00, -0.00, -1.00, 834.0, 17.0)">s</text><text xml:space="preserve" font-family="SourceSansPro-Regular" font-size="36.0" fill="#525252" transform="matrix(1.00, 0.00, -0.00, -1.00, 852.7, 17.0)">o</text><text xml:space="preserve" font-family="SourceSansPro-Regular" font-size="36.0" fill="#525252" transform="matrix(1.00, 0.00, -0.00, -1.00, 875.8, 17.0)">p</text><text xml:space="preserve" font-family="SourceSansPro-Regular" font-size="36.0" fill="#525252" transform="matrix(1.00, 0.00, -0.00, -1.00, 899.4, 17.0)">h</text><text xml:space="preserve" font-family="SourceSansPro-Regular" font-size="36.0" fill="#525252" transform="matrix(1.00, 0.00, -0.00, -1.00, 922.6, 17.0)">i</text><text xml:space="preserve" font-family="SourceSansPro-Regular" font-size="36.0" fill="#525252" transform="matrix(1.00, 0.00, -0.00, -1.00, 935.0, 17.0)">a</text><text xml:space="preserve" font-family="SourceSansPro-Regular" font-size="36.0" fill="#525252" transform="matrix(1.00, 0.00, -0.00, -1.00, 957.0, 17.0)">k</text><text xml:space="preserve" font-family="SourceSansPro-Regular" font-size="36.0" fill="#525252" transform="matrix(1.00, 0.00, -0.00, -1.00, 977.8, 17.0)">c</text><text xml:space="preserve" font-family="SourceSansPro-Regular" font-size="36.0" fill="#525252" transform="matrix(1.00, 0.00, -0.00, -1.00, 997.8, 17.0)">.</text><text xml:space="preserve" font-family="SourceSansPro-Regular" font-size="36.0" fill="#525252" transform="matrix(1.00, 0.00, -0.00, -1.00, 1010.1, 17.0)">c</text><text xml:space="preserve" font-family="SourceSansPro-Regular" font-size="36.0" fill="#525252" transform="matrix(1.00, 0.00, -0.00, -1.00, 1029.4, 17.0)">o</text><text xml:space="preserve" font-family="SourceSansPro-Regular" font-size="36.0" fill="#525252" transform="matrix(1.00, 0.00, -0.00, -1.00, 1052.5, 17.0)">m</text></g></svg>