<?xml version="1.0" encoding="UTF-8" standalone="no"?><svg xmlns="http://www.w3.org/2000/svg" xmlns:xlink="http://www.w3.org/1999/xlink" clip-rule="evenodd" stroke-miterlimit="4.00" viewBox="0 0 1920 1080"><desc>SVG generated by Keynote</desc><defs></defs><g transform="matrix(1.00, 0.00, -0.00, -1.00, 0.0, 1080.0)"><path d="M 0.0 1080.0 L 1920.0 1080.0 L 1920.0 0.0 L 0.0 0.0 Z M 0.0 1080.0 " fill="#FFFFFF"></path><text xml:space="preserve" font-family="SourceSansPro-Regular" font-size="36.0" fill="#525252" transform="matrix(1.00, 0.00, -0.00, -1.00, 834.0, 17.0)">s</text><text xml:space="preserve" font-family="SourceSansPro-Regular" font-size="36.0" fill="#525252" transform="matrix(1.00, 0.00, -0.00, -1.00, 852.7, 17.0)">o</text><text xml:space="preserve" font-family="SourceSansPro-Regular" font-size="36.0" fill="#525252" transform="matrix(1.00, 0.00, -0.00, -1.00, 875.8, 17.0)">p</text><text xml:space="preserve" font-family="SourceSansPro-Regular" font-size="36.0" fill="#525252" transform="matrix(1.00, 0.00, -0.00, -1.00, 899.4, 17.0)">h</text><text xml:space="preserve" font-family="SourceSansPro-Regular" font-size="36.0" fill="#525252" transform="matrix(1.00, 0.00, -0.00, -1.00, 922.6, 17.0)">i</text><text xml:space="preserve" font-family="SourceSansPro-Regular" font-size="36.0" fill="#525252" transform="matrix(1.00, 0.00, -0.00, -1.00, 935.0, 17.0)">a</text><text xml:space="preserve" font-family="SourceSansPro-Regular" font-size="36.0" fill="#525252" transform="matrix(1.00, 0.00, -0.00, -1.00, 957.0, 17.0)">k</text><text xml:space="preserve" font-family="SourceSansPro-Regular" font-size="36.0" fill="#525252" transform="matrix(1.00, 0.00, -0.00, -1.00, 977.8, 17.0)">c</text><text xml:space="preserve" font-family="SourceSansPro-Regular" font-size="36.0" fill="#525252" transform="matrix(1.00, 0.00, -0.00, -1.00, 997.8, 17.0)">.</text><text xml:space="preserve" font-family="SourceSansPro-Regular" font-size="36.0" fill="#525252" transform="matrix(1.00, 0.00, -0.00, -1.00, 1010.1, 17.0)">c</text><text xml:space="preserve" font-family="SourceSansPro-Regular" font-size="36.0" fill="#525252" transform="matrix(1.00, 0.00, -0.00, -1.00, 1029.4, 17.0)">o</text><text xml:space="preserve" font-family="SourceSansPro-Regular" font-size="36.0" fill="#525252" transform="matrix(1.00, 0.00, -0.00, -1.00, 1052.5, 17.0)">m</text><path d="M 131.1 943.2 L 500.7 943.2 L 500.7 836.2 L 131.1 836.2 Z M 131.1 943.2 " fill="#FEFB00"></path><text xml:space="preserve" font-family="SourceSansPro-Semibold" font-weight="bold" font-size="85.0" fill="#525252" transform="matrix(1.00, 0.00, -0.00, -1.00, 131.0, 859.0)">O</text><text xml:space="preserve" font-family="SourceSansPro-Semibold" font-weight="bold" font-size="85.0" fill="#525252" transform="matrix(1.00, 0.00, -0.00, -1.00, 188.3, 859.0)">u</text><text xml:space="preserve" font-family="SourceSansPro-Semibold" font-weight="bold" font-size="85.0" fill="#525252" transform="matrix(1.00, 0.00, -0.00, -1.00, 235.6, 859.0)">t</text><text xml:space="preserve" font-family="SourceSansPro-Semibold" font-weight="bold" font-size="85.0" fill="#525252" transform="matrix(1.00, 0.00, -0.00, -1.00, 265.4, 859.0)">c</text><text xml:space="preserve" font-family="SourceSansPro-Semibold" font-weight="bold" font-size="85.0" fill="#525252" transform="matrix(1.00, 0.00, -0.00, -1.00, 302.6, 859.0)">o</text><text xml:space="preserve" font-family="SourceSansPro-Semibold" font-weight="bold" font-size="85.0" fill="#525252" transform="matrix(1.00, 0.00, -0.00, -1.00, 349.3, 859.0)">m</text><text xml:space="preserve" font-family="SourceSansPro-Semibold" font-weight="bold" font-size="85.0" fill="#525252" transform="matrix(1.00, 0.00, -0.00, -1.00, 420.9, 859.0)">e</text><text xml:space="preserve" font-family="SourceSansPro-Semibold" font-weight="bold" font-size="85.0" fill="#525252" transform="matrix(1.00, 0.00, -0.00, -1.00, 464.0, 859.0)">s</text><g><clipPath id="clip-279"><path d="M 114.7 692.4 L 415.3 692.4 L 415.3 756.0 L 114.7 756.0 Z M 114.7 692.4 "></path></clipPath><g clip-path="url(#clip-279)"><path d="M 130.7 756.0 L 168.8 756.0 L 168.8 691.0 L 130.7 691.0 Z M 130.7 756.0 " fill="#FEFB00"></path></g></g><text xml:space="preserve" font-family="ZapfDingbatsITC" font-size="45.0" fill="#525252" transform="matrix(1.00, 0.00, -0.00, -1.00, 131.0, 707.0)">✔</text><text xml:space="preserve" font-family="ZapfDingbatsITC" font-size="45.0" fill="#525252" transform="matrix(1.00, 0.00, -0.00, -1.00, 169.1, 707.0)"> </text><text xml:space="preserve" font-family="PermanentMarker" font-size="45.0" fill="#525252" transform="matrix(1.00, 0.00, -0.00, -1.00, 181.6, 707.0)">J</text><text xml:space="preserve" font-family="PermanentMarker" font-size="45.0" fill="#525252" transform="matrix(1.00, 0.00, -0.00, -1.00, 211.7, 707.0)">o</text><text xml:space="preserve" font-family="PermanentMarker" font-size="45.0" fill="#525252" transform="matrix(1.00, 0.00, -0.00, -1.00, 239.1, 707.0)">b</text><text xml:space="preserve" font-family="PermanentMarker" font-size="45.0" fill="#525252" transform="matrix(1.00, 0.00, -0.00, -1.00, 264.9, 707.0)"> </text><text xml:space="preserve" font-family="PermanentMarker" font-size="45.0" fill="#525252" transform="matrix(1.00, 0.00, -0.00, -1.00, 281.5, 707.0)">S</text><text xml:space="preserve" font-family="PermanentMarker" font-size="45.0" fill="#525252" transform="matrix(1.00, 0.00, -0.00, -1.00, 307.4, 707.0)">t</text><text xml:space="preserve" font-family="PermanentMarker" font-size="45.0" fill="#525252" transform="matrix(1.00, 0.00, -0.00, -1.00, 327.7, 707.0)">o</text><text xml:space="preserve" font-family="PermanentMarker" font-size="45.0" fill="#525252" transform="matrix(1.00, 0.00, -0.00, -1.00, 356.0, 707.0)">r</text><text xml:space="preserve" font-family="PermanentMarker" font-size="45.0" fill="#525252" transform="matrix(1.00, 0.00, -0.00, -1.00, 379.4, 707.0)">y</text></g></svg>