<?xml version="1.0" encoding="UTF-8" standalone="no"?><svg xmlns="http://www.w3.org/2000/svg" xmlns:xlink="http://www.w3.org/1999/xlink" clip-rule="evenodd" stroke-miterlimit="4.00" viewBox="0 0 1920 1080"><desc>SVG generated by Keynote</desc><defs></defs><g transform="matrix(1.00, 0.00, -0.00, -1.00, 0.0, 1080.0)"><path d="M 0.0 1080.0 L 1920.0 1080.0 L 1920.0 0.0 L 0.0 0.0 Z M 0.0 1080.0 " fill="#FFFFFF"></path><text xml:space="preserve" font-family="SourceSansPro-Bold" font-weight="bold" font-size="100.0" fill="#FFFFFF" transform="matrix(1.00, 0.00, -0.00, -1.00, 607.0, 500.0)">U</text><text xml:space="preserve" font-family="SourceSansPro-Bold" font-weight="bold" font-size="100.0" fill="#FFFFFF" transform="matrix(1.00, 0.00, -0.00, -1.00, 672.7, 500.0)">s</text><text xml:space="preserve" font-family="SourceSansPro-Bold" font-weight="bold" font-size="100.0" fill="#FFFFFF" transform="matrix(1.00, 0.00, -0.00, -1.00, 717.0, 500.0)">e</text><text xml:space="preserve" font-family="SourceSansPro-Bold" font-weight="bold" font-size="100.0" fill="#FFFFFF" transform="matrix(1.00, 0.00, -0.00, -1.00, 768.8, 500.0)">r</text><text xml:space="preserve" font-family="SourceSansPro-Bold" font-weight="bold" font-size="100.0" fill="#FFFFFF" transform="matrix(1.00, 0.00, -0.00, -1.00, 808.6, 500.0)"> </text><text xml:space="preserve" font-family="SourceSansPro-Bold" font-weight="bold" font-size="100.0" fill="#FFFFFF" transform="matrix(1.00, 0.00, -0.00, -1.00, 829.4, 500.0)">e</text><text xml:space="preserve" font-family="SourceSansPro-Bold" font-weight="bold" font-size="100.0" fill="#FFFFFF" transform="matrix(1.00, 0.00, -0.00, -1.00, 879.6, 500.0)">x</text><text xml:space="preserve" font-family="SourceSansPro-Bold" font-weight="bold" font-size="100.0" fill="#FFFFFF" transform="matrix(1.00, 0.00, -0.00, -1.00, 931.0, 500.0)">p</text><text xml:space="preserve" font-family="SourceSansPro-Bold" font-weight="bold" font-size="100.0" fill="#FFFFFF" transform="matrix(1.00, 0.00, -0.00, -1.00, 988.3, 500.0)">e</text><text xml:space="preserve" font-family="SourceSansPro-Bold" font-weight="bold" font-size="100.0" fill="#FFFFFF" transform="matrix(1.00, 0.00, -0.00, -1.00, 1040.1, 500.0)">r</text><text xml:space="preserve" font-family="SourceSansPro-Bold" font-weight="bold" font-size="100.0" fill="#FFFFFF" transform="matrix(1.00, 0.00, -0.00, -1.00, 1079.9, 500.0)">i</text><text xml:space="preserve" font-family="SourceSansPro-Bold" font-weight="bold" font-size="100.0" fill="#FFFFFF" transform="matrix(1.00, 0.00, -0.00, -1.00, 1107.5, 500.0)">e</text><text xml:space="preserve" font-family="SourceSansPro-Bold" font-weight="bold" font-size="100.0" fill="#FFFFFF" transform="matrix(1.00, 0.00, -0.00, -1.00, 1159.3, 500.0)">n</text><text xml:space="preserve" font-family="SourceSansPro-Bold" font-weight="bold" font-size="100.0" fill="#FFFFFF" transform="matrix(1.00, 0.00, -0.00, -1.00, 1216.5, 500.0)">c</text><text xml:space="preserve" font-family="SourceSansPro-Bold" font-weight="bold" font-size="100.0" fill="#FFFFFF" transform="matrix(1.00, 0.00, -0.00, -1.00, 1260.4, 500.0)">e</text><text xml:space="preserve" font-family="SourceSansPro-Bold" font-weight="bold" font-size="100.0" fill="#FFFFFF" transform="matrix(1.00, 0.00, -0.00, -1.00, 1312.2, 500.0)"> </text><text xml:space="preserve" font-family="SourceSansPro-Bold" font-weight="bold" font-size="100.0" fill="#FFFFFF" transform="matrix(1.00, 0.00, -0.00, -1.00, 595.0, 375.0)">P</text><text xml:space="preserve" font-family="SourceSansPro-Bold" font-weight="bold" font-size="100.0" fill="#FFFFFF" transform="matrix(1.00, 0.00, -0.00, -1.00, 655.6, 375.0)">r</text><text xml:space="preserve" font-family="SourceSansPro-Bold" font-weight="bold" font-size="100.0" fill="#FFFFFF" transform="matrix(1.00, 0.00, -0.00, -1.00, 694.4, 375.0)">o</text><text xml:space="preserve" font-family="SourceSansPro-Bold" font-weight="bold" font-size="100.0" fill="#FFFFFF" transform="matrix(1.00, 0.00, -0.00, -1.00, 749.9, 375.0)">b</text><text xml:space="preserve" font-family="SourceSansPro-Bold" font-weight="bold" font-size="100.0" fill="#FFFFFF" transform="matrix(1.00, 0.00, -0.00, -1.00, 807.2, 375.0)">l</text><text xml:space="preserve" font-family="SourceSansPro-Bold" font-weight="bold" font-size="100.0" fill="#FFFFFF" transform="matrix(1.00, 0.00, -0.00, -1.00, 835.8, 375.0)">e</text><text xml:space="preserve" font-family="SourceSansPro-Bold" font-weight="bold" font-size="100.0" fill="#FFFFFF" transform="matrix(1.00, 0.00, -0.00, -1.00, 887.6, 375.0)">m</text><text xml:space="preserve" font-family="SourceSansPro-Bold" font-weight="bold" font-size="100.0" fill="#FFFFFF" transform="matrix(1.00, 0.00, -0.00, -1.00, 973.3, 375.0)">-</text><text xml:space="preserve" font-family="SourceSansPro-Bold" font-weight="bold" font-size="100.0" fill="#FFFFFF" transform="matrix(1.00, 0.00, -0.00, -1.00, 1006.5, 375.0)">s</text><text xml:space="preserve" font-family="SourceSansPro-Bold" font-weight="bold" font-size="100.0" fill="#FFFFFF" transform="matrix(1.00, 0.00, -0.00, -1.00, 1050.8, 375.0)">o</text><text xml:space="preserve" font-family="SourceSansPro-Bold" font-weight="bold" font-size="100.0" fill="#FFFFFF" transform="matrix(1.00, 0.00, -0.00, -1.00, 1106.3, 375.0)">l</text><text xml:space="preserve" font-family="SourceSansPro-Bold" font-weight="bold" font-size="100.0" fill="#FFFFFF" transform="matrix(1.00, 0.00, -0.00, -1.00, 1134.9, 375.0)">v</text><text xml:space="preserve" font-family="SourceSansPro-Bold" font-weight="bold" font-size="100.0" fill="#FFFFFF" transform="matrix(1.00, 0.00, -0.00, -1.00, 1187.2, 375.0)">i</text><text xml:space="preserve" font-family="SourceSansPro-Bold" font-weight="bold" font-size="100.0" fill="#FFFFFF" transform="matrix(1.00, 0.00, -0.00, -1.00, 1214.8, 375.0)">n</text><text xml:space="preserve" font-family="SourceSansPro-Bold" font-weight="bold" font-size="100.0" fill="#FFFFFF" transform="matrix(1.00, 0.00, -0.00, -1.00, 1272.0, 375.0)">g</text><image xlink:href="7B29CDC4B509B3FC2A7ACD719D4942D5.jpeg" width="1365.00" height="767.00" transform="matrix(1.41, 0.00, -0.00, -1.41, -1.0, 1081.0)"></image><g><clipPath id="clip-97"><path d="M 1406.0 724.0 L 1844.0 724.0 L 1844.0 356.0 L 1406.0 356.0 Z M 1405.6 724.2 "></path></clipPath><g clip-path="url(#clip-97)"><g><clipPath id="clip-98"><path d="M 1405.6 355.8 L 1844.1 355.8 L 1844.1 724.2 L 1405.6 724.2 Z M 1405.6 355.8 "></path></clipPath><g clip-path="url(#clip-98)"><image xlink:href="../../C2ACEFD3-9251-47A4-802D-E9024FCE28EA/assets/DDABB608CBB980A073B10670BBF2E07F.png" width="300.00" height="252.00" transform="matrix(1.46, 0.00, -0.00, -1.46, 1406.0, 724.0)"></image></g></g></g></g><g><clipPath id="clip-99"><path d="M 1432.8 390.6 L 1796.4 390.6 L 1796.4 676.3 L 1432.8 676.3 Z M 1432.8 390.6 "></path></clipPath><g clip-path="url(#clip-99)"><text xml:space="preserve" font-family="PermanentMarker" font-size="36.0" fill="#011DA8" transform="matrix(1.00, 0.00, -0.00, -1.00, 1446.0, 624.0)">H</text><text xml:space="preserve" font-family="PermanentMarker" font-size="36.0" fill="#011DA8" transform="matrix(1.00, 0.00, -0.00, -1.00, 1471.0, 624.0)">o</text><text xml:space="preserve" font-family="PermanentMarker" font-size="36.0" fill="#011DA8" transform="matrix(1.00, 0.00, -0.00, -1.00, 1493.7, 624.0)">w</text><text xml:space="preserve" font-family="PermanentMarker" font-size="36.0" fill="#011DA8" transform="matrix(1.00, 0.00, -0.00, -1.00, 1523.4, 624.0)"> </text><text xml:space="preserve" font-family="PermanentMarker" font-size="36.0" fill="#011DA8" transform="matrix(1.00, 0.00, -0.00, -1.00, 1536.7, 624.0)">D</text><text xml:space="preserve" font-family="PermanentMarker" font-size="36.0" fill="#011DA8" transform="matrix(1.00, 0.00, -0.00, -1.00, 1558.0, 624.0)">O</text><text xml:space="preserve" font-family="PermanentMarker" font-size="36.0" fill="#011DA8" transform="matrix(1.00, 0.00, -0.00, -1.00, 1584.8, 624.0)"> </text><text xml:space="preserve" font-family="PermanentMarker" font-size="36.0" fill="#011DA8" transform="matrix(1.00, 0.00, -0.00, -1.00, 1598.1, 624.0)">U</text><text xml:space="preserve" font-family="PermanentMarker" font-size="36.0" fill="#011DA8" transform="matrix(1.00, 0.00, -0.00, -1.00, 1623.1, 624.0)">S</text><text xml:space="preserve" font-family="PermanentMarker" font-size="36.0" fill="#011DA8" transform="matrix(1.00, 0.00, -0.00, -1.00, 1643.9, 624.0)">E</text><text xml:space="preserve" font-family="PermanentMarker" font-size="36.0" fill="#011DA8" transform="matrix(1.00, 0.00, -0.00, -1.00, 1666.1, 624.0)">R</text><text xml:space="preserve" font-family="PermanentMarker" font-size="36.0" fill="#011DA8" transform="matrix(1.00, 0.00, -0.00, -1.00, 1689.4, 624.0)">S</text><text xml:space="preserve" font-family="PermanentMarker" font-size="36.0" fill="#011DA8" transform="matrix(1.00, 0.00, -0.00, -1.00, 1710.1, 624.0)"> </text><text xml:space="preserve" font-family="PermanentMarker" font-size="36.0" fill="#011DA8" transform="matrix(1.00, 0.00, -0.00, -1.00, 1446.0, 572.0)">E</text><text xml:space="preserve" font-family="PermanentMarker" font-size="36.0" fill="#011DA8" transform="matrix(1.00, 0.00, -0.00, -1.00, 1468.6, 572.0)">X</text><text xml:space="preserve" font-family="PermanentMarker" font-size="36.0" fill="#011DA8" transform="matrix(1.00, 0.00, -0.00, -1.00, 1491.0, 572.0)">P</text><text xml:space="preserve" font-family="PermanentMarker" font-size="36.0" fill="#011DA8" transform="matrix(1.00, 0.00, -0.00, -1.00, 1514.0, 572.0)">E</text><text xml:space="preserve" font-family="PermanentMarker" font-size="36.0" fill="#011DA8" transform="matrix(1.00, 0.00, -0.00, -1.00, 1536.2, 572.0)">R</text><text xml:space="preserve" font-family="PermanentMarker" font-size="36.0" fill="#011DA8" transform="matrix(1.00, 0.00, -0.00, -1.00, 1558.4, 572.0)">I</text><text xml:space="preserve" font-family="PermanentMarker" font-size="36.0" fill="#011DA8" transform="matrix(1.00, 0.00, -0.00, -1.00, 1577.0, 572.0)">E</text><text xml:space="preserve" font-family="PermanentMarker" font-size="36.0" fill="#011DA8" transform="matrix(1.00, 0.00, -0.00, -1.00, 1599.5, 572.0)">N</text><text xml:space="preserve" font-family="PermanentMarker" font-size="36.0" fill="#011DA8" transform="matrix(1.00, 0.00, -0.00, -1.00, 1624.2, 572.0)">C</text><text xml:space="preserve" font-family="PermanentMarker" font-size="36.0" fill="#011DA8" transform="matrix(1.00, 0.00, -0.00, -1.00, 1645.8, 572.0)">E</text><text xml:space="preserve" font-family="PermanentMarker" font-size="36.0" fill="#011DA8" transform="matrix(1.00, 0.00, -0.00, -1.00, 1668.4, 572.0)"> </text><text xml:space="preserve" font-family="PermanentMarker" font-size="36.0" fill="#011DA8" transform="matrix(1.00, 0.00, -0.00, -1.00, 1681.7, 572.0)">a</text><text xml:space="preserve" font-family="PermanentMarker" font-size="36.0" fill="#011DA8" transform="matrix(1.00, 0.00, -0.00, -1.00, 1702.7, 572.0)"> </text><text xml:space="preserve" font-family="PermanentMarker" font-size="36.0" fill="#011DA8" transform="matrix(1.00, 0.00, -0.00, -1.00, 1446.0, 520.0)">s</text><text xml:space="preserve" font-family="PermanentMarker" font-size="36.0" fill="#011DA8" transform="matrix(1.00, 0.00, -0.00, -1.00, 1462.0, 520.0)">o</text><text xml:space="preserve" font-family="PermanentMarker" font-size="36.0" fill="#011DA8" transform="matrix(1.00, 0.00, -0.00, -1.00, 1484.6, 520.0)">l</text><text xml:space="preserve" font-family="PermanentMarker" font-size="36.0" fill="#011DA8" transform="matrix(1.00, 0.00, -0.00, -1.00, 1502.4, 520.0)">u</text><text xml:space="preserve" font-family="PermanentMarker" font-size="36.0" fill="#011DA8" transform="matrix(1.00, 0.00, -0.00, -1.00, 1523.4, 520.0)">t</text><text xml:space="preserve" font-family="PermanentMarker" font-size="36.0" fill="#011DA8" transform="matrix(1.00, 0.00, -0.00, -1.00, 1540.7, 520.0)">i</text><text xml:space="preserve" font-family="PermanentMarker" font-size="36.0" fill="#011DA8" transform="matrix(1.00, 0.00, -0.00, -1.00, 1551.6, 520.0)">o</text><text xml:space="preserve" font-family="PermanentMarker" font-size="36.0" fill="#011DA8" transform="matrix(1.00, 0.00, -0.00, -1.00, 1574.2, 520.0)">n</text><text xml:space="preserve" font-family="PermanentMarker" font-size="36.0" fill="#011DA8" transform="matrix(1.00, 0.00, -0.00, -1.00, 1594.5, 520.0)">?</text><text xml:space="preserve" font-family="PermanentMarker" font-size="36.0" fill="#011DA8" transform="matrix(1.00, 0.00, -0.00, -1.00, 1614.6, 520.0)"> </text><text xml:space="preserve" font-family="PermanentMarker" font-size="36.0" fill="#011DA8" transform="matrix(1.00, 0.00, -0.00, -1.00, 1627.9, 520.0)"> </text><text xml:space="preserve" font-family="PermanentMarker" font-size="36.0" fill="#011DA8" transform="matrix(1.00, 0.00, -0.00, -1.00, 1446.0, 468.0)">O</text><text xml:space="preserve" font-family="PermanentMarker" font-size="36.0" fill="#011DA8" transform="matrix(1.00, 0.00, -0.00, -1.00, 1472.1, 468.0)">b</text><text xml:space="preserve" font-family="PermanentMarker" font-size="36.0" fill="#011DA8" transform="matrix(1.00, 0.00, -0.00, -1.00, 1491.6, 468.0)">s</text><text xml:space="preserve" font-family="PermanentMarker" font-size="36.0" fill="#011DA8" transform="matrix(1.00, 0.00, -0.00, -1.00, 1508.3, 468.0)">e</text><text xml:space="preserve" font-family="PermanentMarker" font-size="36.0" fill="#011DA8" transform="matrix(1.00, 0.00, -0.00, -1.00, 1526.8, 468.0)">r</text><text xml:space="preserve" font-family="PermanentMarker" font-size="36.0" fill="#011DA8" transform="matrix(1.00, 0.00, -0.00, -1.00, 1545.1, 468.0)">v</text><text xml:space="preserve" font-family="PermanentMarker" font-size="36.0" fill="#011DA8" transform="matrix(1.00, 0.00, -0.00, -1.00, 1561.5, 468.0)">a</text><text xml:space="preserve" font-family="PermanentMarker" font-size="36.0" fill="#011DA8" transform="matrix(1.00, 0.00, -0.00, -1.00, 1580.7, 468.0)">t</text><text xml:space="preserve" font-family="PermanentMarker" font-size="36.0" fill="#011DA8" transform="matrix(1.00, 0.00, -0.00, -1.00, 1597.9, 468.0)">i</text><text xml:space="preserve" font-family="PermanentMarker" font-size="36.0" fill="#011DA8" transform="matrix(1.00, 0.00, -0.00, -1.00, 1608.8, 468.0)">o</text><text xml:space="preserve" font-family="PermanentMarker" font-size="36.0" fill="#011DA8" transform="matrix(1.00, 0.00, -0.00, -1.00, 1631.4, 468.0)">n</text><text xml:space="preserve" font-family="PermanentMarker" font-size="36.0" fill="#011DA8" transform="matrix(1.00, 0.00, -0.00, -1.00, 1651.7, 468.0)"> </text><text xml:space="preserve" font-family="PermanentMarker" font-size="36.0" fill="#011DA8" transform="matrix(1.00, 0.00, -0.00, -1.00, 1665.1, 468.0)">i</text><text xml:space="preserve" font-family="PermanentMarker" font-size="36.0" fill="#011DA8" transform="matrix(1.00, 0.00, -0.00, -1.00, 1676.6, 468.0)">n</text><text xml:space="preserve" font-family="PermanentMarker" font-size="36.0" fill="#011DA8" transform="matrix(1.00, 0.00, -0.00, -1.00, 1697.0, 468.0)"> </text></g></g><g><clipPath id="clip-100"><path d="M 1432.8 415.9 L 1796.4 415.9 L 1796.4 663.5 L 1432.8 663.5 Z M 1432.8 415.9 "></path></clipPath><g clip-path="url(#clip-100)"><text xml:space="preserve" font-family="PermanentMarker" font-size="36.0" fill="#011DA8" transform="matrix(1.00, 0.00, -0.00, -1.00, 1446.0, 416.0)">a</text><text xml:space="preserve" font-family="PermanentMarker" font-size="36.0" fill="#011DA8" transform="matrix(1.00, 0.00, -0.00, -1.00, 1466.9, 416.0)">c</text><text xml:space="preserve" font-family="PermanentMarker" font-size="36.0" fill="#011DA8" transform="matrix(1.00, 0.00, -0.00, -1.00, 1485.4, 416.0)">t</text><text xml:space="preserve" font-family="PermanentMarker" font-size="36.0" fill="#011DA8" transform="matrix(1.00, 0.00, -0.00, -1.00, 1502.7, 416.0)">i</text><text xml:space="preserve" font-family="PermanentMarker" font-size="36.0" fill="#011DA8" transform="matrix(1.00, 0.00, -0.00, -1.00, 1513.5, 416.0)">o</text><text xml:space="preserve" font-family="PermanentMarker" font-size="36.0" fill="#011DA8" transform="matrix(1.00, 0.00, -0.00, -1.00, 1536.2, 416.0)">n</text></g></g><text xml:space="preserve" font-family="SourceSansPro-Regular" font-size="36.0" fill="#FFFFFF" transform="matrix(1.00, 0.00, -0.00, -1.00, 834.0, 17.0)">s</text><text xml:space="preserve" font-family="SourceSansPro-Regular" font-size="36.0" fill="#FFFFFF" transform="matrix(1.00, 0.00, -0.00, -1.00, 852.7, 17.0)">o</text><text xml:space="preserve" font-family="SourceSansPro-Regular" font-size="36.0" fill="#FFFFFF" transform="matrix(1.00, 0.00, -0.00, -1.00, 875.8, 17.0)">p</text><text xml:space="preserve" font-family="SourceSansPro-Regular" font-size="36.0" fill="#FFFFFF" transform="matrix(1.00, 0.00, -0.00, -1.00, 899.4, 17.0)">h</text><text xml:space="preserve" font-family="SourceSansPro-Regular" font-size="36.0" fill="#FFFFFF" transform="matrix(1.00, 0.00, -0.00, -1.00, 922.6, 17.0)">i</text><text xml:space="preserve" font-family="SourceSansPro-Regular" font-size="36.0" fill="#FFFFFF" transform="matrix(1.00, 0.00, -0.00, -1.00, 935.0, 17.0)">a</text><text xml:space="preserve" font-family="SourceSansPro-Regular" font-size="36.0" fill="#FFFFFF" transform="matrix(1.00, 0.00, -0.00, -1.00, 957.0, 17.0)">k</text><text xml:space="preserve" font-family="SourceSansPro-Regular" font-size="36.0" fill="#FFFFFF" transform="matrix(1.00, 0.00, -0.00, -1.00, 977.8, 17.0)">c</text><text xml:space="preserve" font-family="SourceSansPro-Regular" font-size="36.0" fill="#FFFFFF" transform="matrix(1.00, 0.00, -0.00, -1.00, 997.8, 17.0)">.</text><text xml:space="preserve" font-family="SourceSansPro-Regular" font-size="36.0" fill="#FFFFFF" transform="matrix(1.00, 0.00, -0.00, -1.00, 1010.1, 17.0)">c</text><text xml:space="preserve" font-family="SourceSansPro-Regular" font-size="36.0" fill="#FFFFFF" transform="matrix(1.00, 0.00, -0.00, -1.00, 1029.4, 17.0)">o</text><text xml:space="preserve" font-family="SourceSansPro-Regular" font-size="36.0" fill="#FFFFFF" transform="matrix(1.00, 0.00, -0.00, -1.00, 1052.5, 17.0)">m</text></g></svg>