<?xml version="1.0" encoding="UTF-8" standalone="no"?><svg xmlns="http://www.w3.org/2000/svg" xmlns:xlink="http://www.w3.org/1999/xlink" clip-rule="evenodd" stroke-miterlimit="4.00" viewBox="0 0 1920 1080"><desc>SVG generated by Keynote</desc><defs></defs><g transform="matrix(1.00, 0.00, -0.00, -1.00, 0.0, 1080.0)"><path d="M 0.0 1080.0 L 1920.0 1080.0 L 1920.0 0.0 L 0.0 0.0 Z M 0.0 1080.0 " fill="#FFFFFF"></path><g><clipPath id="clip-1043"><path d="M -3.0 1080.0 L 1923.0 1080.0 L 1923.0 0.0 L -3.0 0.0 Z M -3.0 1080.0 "></path></clipPath><g clip-path="url(#clip-1043)"><image xlink:href="../../1813EB90-4F00-44B4-ABDC-BAD8261F30BD/assets/80739FA2BF949C7397BFAEE844CCE5BB.jpeg" width="1280.00" height="750.00" transform="matrix(1.50, 0.00, -0.00, -1.51, -3.0, 1080.0)"></image></g></g><g><clipPath id="clip-1044"><path d="M 1406.0 724.0 L 1844.0 724.0 L 1844.0 356.0 L 1406.0 356.0 Z M 1405.6 724.2 "></path></clipPath><g clip-path="url(#clip-1044)"><g><clipPath id="clip-1045"><path d="M 1405.6 355.8 L 1844.1 355.8 L 1844.1 724.2 L 1405.6 724.2 Z M 1405.6 355.8 "></path></clipPath><g clip-path="url(#clip-1045)"><image xlink:href="../../27AC2775-A9E1-499C-8156-0679301B1A3D/assets/DDABB608CBB980A073B10670BBF2E07F.png" width="300.00" height="252.00" transform="matrix(1.46, 0.00, -0.00, -1.46, 1406.0, 724.0)"></image></g></g></g></g><g><clipPath id="clip-1046"><path d="M 1432.8 409.0 L 1796.4 409.0 L 1796.4 676.3 L 1432.8 676.3 Z M 1432.8 409.0 "></path></clipPath><g clip-path="url(#clip-1046)"><text xml:space="preserve" font-family="PermanentMarker" font-size="36.0" fill="#011DA8" transform="matrix(1.00, 0.00, -0.00, -1.00, 1446.0, 624.0)">W</text><text xml:space="preserve" font-family="PermanentMarker" font-size="36.0" fill="#011DA8" transform="matrix(1.00, 0.00, -0.00, -1.00, 1481.8, 624.0)">H</text><text xml:space="preserve" font-family="PermanentMarker" font-size="36.0" fill="#011DA8" transform="matrix(1.00, 0.00, -0.00, -1.00, 1506.8, 624.0)">A</text><text xml:space="preserve" font-family="PermanentMarker" font-size="36.0" fill="#011DA8" transform="matrix(1.00, 0.00, -0.00, -1.00, 1530.3, 624.0)">T</text><text xml:space="preserve" font-family="PermanentMarker" font-size="36.0" fill="#011DA8" transform="matrix(1.00, 0.00, -0.00, -1.00, 1552.2, 624.0)"> </text><text xml:space="preserve" font-family="PermanentMarker" font-size="36.0" fill="#011DA8" transform="matrix(1.00, 0.00, -0.00, -1.00, 1565.5, 624.0)">J</text><text xml:space="preserve" font-family="PermanentMarker" font-size="36.0" fill="#011DA8" transform="matrix(1.00, 0.00, -0.00, -1.00, 1589.6, 624.0)">O</text><text xml:space="preserve" font-family="PermanentMarker" font-size="36.0" fill="#011DA8" transform="matrix(1.00, 0.00, -0.00, -1.00, 1615.7, 624.0)">B</text><text xml:space="preserve" font-family="PermanentMarker" font-size="36.0" fill="#011DA8" transform="matrix(1.00, 0.00, -0.00, -1.00, 1640.3, 624.0)"> </text><text xml:space="preserve" font-family="PermanentMarker" font-size="36.0" fill="#011DA8" transform="matrix(1.00, 0.00, -0.00, -1.00, 1653.7, 624.0)"> </text><text xml:space="preserve" font-family="PermanentMarker" font-size="36.0" fill="#011DA8" transform="matrix(1.00, 0.00, -0.00, -1.00, 1446.0, 572.0)">t</text><text xml:space="preserve" font-family="PermanentMarker" font-size="36.0" fill="#011DA8" transform="matrix(1.00, 0.00, -0.00, -1.00, 1463.3, 572.0)">h</text><text xml:space="preserve" font-family="PermanentMarker" font-size="36.0" fill="#011DA8" transform="matrix(1.00, 0.00, -0.00, -1.00, 1484.2, 572.0)">e</text><text xml:space="preserve" font-family="PermanentMarker" font-size="36.0" fill="#011DA8" transform="matrix(1.00, 0.00, -0.00, -1.00, 1503.0, 572.0)"> </text><text xml:space="preserve" font-family="PermanentMarker" font-size="36.0" fill="#011DA8" transform="matrix(1.00, 0.00, -0.00, -1.00, 1516.4, 572.0)">u</text><text xml:space="preserve" font-family="PermanentMarker" font-size="36.0" fill="#011DA8" transform="matrix(1.00, 0.00, -0.00, -1.00, 1537.4, 572.0)">s</text><text xml:space="preserve" font-family="PermanentMarker" font-size="36.0" fill="#011DA8" transform="matrix(1.00, 0.00, -0.00, -1.00, 1554.1, 572.0)">e</text><text xml:space="preserve" font-family="PermanentMarker" font-size="36.0" fill="#011DA8" transform="matrix(1.00, 0.00, -0.00, -1.00, 1572.5, 572.0)">r</text><text xml:space="preserve" font-family="PermanentMarker" font-size="36.0" fill="#011DA8" transform="matrix(1.00, 0.00, -0.00, -1.00, 1592.0, 572.0)">s</text><text xml:space="preserve" font-family="PermanentMarker" font-size="36.0" fill="#011DA8" transform="matrix(1.00, 0.00, -0.00, -1.00, 1608.7, 572.0)"> </text><text xml:space="preserve" font-family="PermanentMarker" font-size="36.0" fill="#011DA8" transform="matrix(1.00, 0.00, -0.00, -1.00, 1622.0, 572.0)">a</text><text xml:space="preserve" font-family="PermanentMarker" font-size="36.0" fill="#011DA8" transform="matrix(1.00, 0.00, -0.00, -1.00, 1643.0, 572.0)">r</text><text xml:space="preserve" font-family="PermanentMarker" font-size="36.0" fill="#011DA8" transform="matrix(1.00, 0.00, -0.00, -1.00, 1662.4, 572.0)">e</text><text xml:space="preserve" font-family="PermanentMarker" font-size="36.0" fill="#011DA8" transform="matrix(1.00, 0.00, -0.00, -1.00, 1681.2, 572.0)"> </text><text xml:space="preserve" font-family="PermanentMarker" font-size="36.0" fill="#011DA8" transform="matrix(1.00, 0.00, -0.00, -1.00, 1446.0, 520.0)">h</text><text xml:space="preserve" font-family="PermanentMarker" font-size="36.0" fill="#011DA8" transform="matrix(1.00, 0.00, -0.00, -1.00, 1467.0, 520.0)">i</text><text xml:space="preserve" font-family="PermanentMarker" font-size="36.0" fill="#011DA8" transform="matrix(1.00, 0.00, -0.00, -1.00, 1478.5, 520.0)">r</text><text xml:space="preserve" font-family="PermanentMarker" font-size="36.0" fill="#011DA8" transform="matrix(1.00, 0.00, -0.00, -1.00, 1498.0, 520.0)">i</text><text xml:space="preserve" font-family="PermanentMarker" font-size="36.0" fill="#011DA8" transform="matrix(1.00, 0.00, -0.00, -1.00, 1509.5, 520.0)">n</text><text xml:space="preserve" font-family="PermanentMarker" font-size="36.0" fill="#011DA8" transform="matrix(1.00, 0.00, -0.00, -1.00, 1529.9, 520.0)">g</text><text xml:space="preserve" font-family="PermanentMarker" font-size="36.0" fill="#011DA8" transform="matrix(1.00, 0.00, -0.00, -1.00, 1553.3, 520.0)"> </text><text xml:space="preserve" font-family="PermanentMarker" font-size="36.0" fill="#011DA8" transform="matrix(1.00, 0.00, -0.00, -1.00, 1566.7, 520.0)">m</text><text xml:space="preserve" font-family="PermanentMarker" font-size="36.0" fill="#011DA8" transform="matrix(1.00, 0.00, -0.00, -1.00, 1596.0, 520.0)">y</text><text xml:space="preserve" font-family="PermanentMarker" font-size="36.0" fill="#011DA8" transform="matrix(1.00, 0.00, -0.00, -1.00, 1610.4, 520.0)"> </text><text xml:space="preserve" font-family="PermanentMarker" font-size="36.0" fill="#011DA8" transform="matrix(1.00, 0.00, -0.00, -1.00, 1623.8, 520.0)">p</text><text xml:space="preserve" font-family="PermanentMarker" font-size="36.0" fill="#011DA8" transform="matrix(1.00, 0.00, -0.00, -1.00, 1642.7, 520.0)">r</text><text xml:space="preserve" font-family="PermanentMarker" font-size="36.0" fill="#011DA8" transform="matrix(1.00, 0.00, -0.00, -1.00, 1662.1, 520.0)">o</text><text xml:space="preserve" font-family="PermanentMarker" font-size="36.0" fill="#011DA8" transform="matrix(1.00, 0.00, -0.00, -1.00, 1684.8, 520.0)">d</text><text xml:space="preserve" font-family="PermanentMarker" font-size="36.0" fill="#011DA8" transform="matrix(1.00, 0.00, -0.00, -1.00, 1702.3, 520.0)">u</text><text xml:space="preserve" font-family="PermanentMarker" font-size="36.0" fill="#011DA8" transform="matrix(1.00, 0.00, -0.00, -1.00, 1723.4, 520.0)">c</text><text xml:space="preserve" font-family="PermanentMarker" font-size="36.0" fill="#011DA8" transform="matrix(1.00, 0.00, -0.00, -1.00, 1741.9, 520.0)">t</text><text xml:space="preserve" font-family="PermanentMarker" font-size="36.0" fill="#011DA8" transform="matrix(1.00, 0.00, -0.00, -1.00, 1759.1, 520.0)"> </text><text xml:space="preserve" font-family="PermanentMarker" font-size="36.0" fill="#011DA8" transform="matrix(1.00, 0.00, -0.00, -1.00, 1446.0, 468.0)">f</text><text xml:space="preserve" font-family="PermanentMarker" font-size="36.0" fill="#011DA8" transform="matrix(1.00, 0.00, -0.00, -1.00, 1462.4, 468.0)">o</text><text xml:space="preserve" font-family="PermanentMarker" font-size="36.0" fill="#011DA8" transform="matrix(1.00, 0.00, -0.00, -1.00, 1485.0, 468.0)">r</text><text xml:space="preserve" font-family="PermanentMarker" font-size="36.0" fill="#011DA8" transform="matrix(1.00, 0.00, -0.00, -1.00, 1504.5, 468.0)">?</text></g></g><text xml:space="preserve" font-family="SourceSansPro-Regular" font-size="36.0" fill="#FFFFFF" transform="matrix(1.00, 0.00, -0.00, -1.00, 834.0, 17.0)">s</text><text xml:space="preserve" font-family="SourceSansPro-Regular" font-size="36.0" fill="#FFFFFF" transform="matrix(1.00, 0.00, -0.00, -1.00, 852.7, 17.0)">o</text><text xml:space="preserve" font-family="SourceSansPro-Regular" font-size="36.0" fill="#FFFFFF" transform="matrix(1.00, 0.00, -0.00, -1.00, 875.8, 17.0)">p</text><text xml:space="preserve" font-family="SourceSansPro-Regular" font-size="36.0" fill="#FFFFFF" transform="matrix(1.00, 0.00, -0.00, -1.00, 899.4, 17.0)">h</text><text xml:space="preserve" font-family="SourceSansPro-Regular" font-size="36.0" fill="#FFFFFF" transform="matrix(1.00, 0.00, -0.00, -1.00, 922.6, 17.0)">i</text><text xml:space="preserve" font-family="SourceSansPro-Regular" font-size="36.0" fill="#FFFFFF" transform="matrix(1.00, 0.00, -0.00, -1.00, 935.0, 17.0)">a</text><text xml:space="preserve" font-family="SourceSansPro-Regular" font-size="36.0" fill="#FFFFFF" transform="matrix(1.00, 0.00, -0.00, -1.00, 957.0, 17.0)">k</text><text xml:space="preserve" font-family="SourceSansPro-Regular" font-size="36.0" fill="#FFFFFF" transform="matrix(1.00, 0.00, -0.00, -1.00, 977.8, 17.0)">c</text><text xml:space="preserve" font-family="SourceSansPro-Regular" font-size="36.0" fill="#FFFFFF" transform="matrix(1.00, 0.00, -0.00, -1.00, 997.8, 17.0)">.</text><text xml:space="preserve" font-family="SourceSansPro-Regular" font-size="36.0" fill="#FFFFFF" transform="matrix(1.00, 0.00, -0.00, -1.00, 1010.1, 17.0)">c</text><text xml:space="preserve" font-family="SourceSansPro-Regular" font-size="36.0" fill="#FFFFFF" transform="matrix(1.00, 0.00, -0.00, -1.00, 1029.4, 17.0)">o</text><text xml:space="preserve" font-family="SourceSansPro-Regular" font-size="36.0" fill="#FFFFFF" transform="matrix(1.00, 0.00, -0.00, -1.00, 1052.5, 17.0)">m</text></g></svg>