<?xml version="1.0" encoding="UTF-8" standalone="no"?><svg xmlns="http://www.w3.org/2000/svg" xmlns:xlink="http://www.w3.org/1999/xlink" clip-rule="evenodd" stroke-miterlimit="4.00" viewBox="0 0 1920 1080"><desc>SVG generated by Keynote</desc><defs></defs><g transform="matrix(1.00, 0.00, -0.00, -1.00, 0.0, 1080.0)"><path d="M 0.0 1080.0 L 1920.0 1080.0 L 1920.0 0.0 L 0.0 0.0 Z M 0.0 1080.0 " fill="#FFFFFF"></path><text xml:space="preserve" font-family="SourceSansPro-Regular" font-size="45.0" fill="#525252" transform="matrix(1.00, 0.00, -0.00, -1.00, 464.0, 253.0)">L</text><text xml:space="preserve" font-family="SourceSansPro-Regular" font-size="45.0" fill="#525252" transform="matrix(1.00, 0.00, -0.00, -1.00, 485.3, 253.0)">e</text><text xml:space="preserve" font-family="SourceSansPro-Regular" font-size="45.0" fill="#525252" transform="matrix(1.00, 0.00, -0.00, -1.00, 507.0, 253.0)">t</text><text xml:space="preserve" font-family="SourceSansPro-Regular" font-size="45.0" fill="#525252" transform="matrix(1.00, 0.00, -0.00, -1.00, 522.2, 253.0)">’</text><text xml:space="preserve" font-family="SourceSansPro-Regular" font-size="45.0" fill="#525252" transform="matrix(1.00, 0.00, -0.00, -1.00, 531.2, 253.0)">s</text><text xml:space="preserve" font-family="SourceSansPro-Regular" font-size="45.0" fill="#525252" transform="matrix(1.00, 0.00, -0.00, -1.00, 550.1, 253.0)"> </text><text xml:space="preserve" font-family="SourceSansPro-Regular" font-size="45.0" fill="#525252" transform="matrix(1.00, 0.00, -0.00, -1.00, 559.2, 253.0)">d</text><text xml:space="preserve" font-family="SourceSansPro-Regular" font-size="45.0" fill="#525252" transform="matrix(1.00, 0.00, -0.00, -1.00, 584.1, 253.0)">i</text><text xml:space="preserve" font-family="SourceSansPro-Regular" font-size="45.0" fill="#525252" transform="matrix(1.00, 0.00, -0.00, -1.00, 595.2, 253.0)">s</text><text xml:space="preserve" font-family="SourceSansPro-Regular" font-size="45.0" fill="#525252" transform="matrix(1.00, 0.00, -0.00, -1.00, 614.1, 253.0)">r</text><text xml:space="preserve" font-family="SourceSansPro-Regular" font-size="45.0" fill="#525252" transform="matrix(1.00, 0.00, -0.00, -1.00, 629.7, 253.0)">u</text><text xml:space="preserve" font-family="SourceSansPro-Regular" font-size="45.0" fill="#525252" transform="matrix(1.00, 0.00, -0.00, -1.00, 654.2, 253.0)">p</text><text xml:space="preserve" font-family="SourceSansPro-Regular" font-size="45.0" fill="#525252" transform="matrix(1.00, 0.00, -0.00, -1.00, 679.1, 253.0)">t</text><text xml:space="preserve" font-family="SourceSansPro-Regular" font-size="45.0" fill="#525252" transform="matrix(1.00, 0.00, -0.00, -1.00, 694.4, 253.0)"> </text><text xml:space="preserve" font-family="SourceSansPro-Regular" font-size="45.0" fill="#525252" transform="matrix(1.00, 0.00, -0.00, -1.00, 703.4, 253.0)">#</text><text xml:space="preserve" font-family="SourceSansPro-Regular" font-size="45.0" fill="#525252" transform="matrix(1.00, 0.00, -0.00, -1.00, 725.8, 253.0)">{</text><text xml:space="preserve" font-family="SourceSansPro-Regular" font-size="45.0" fill="#525252" transform="matrix(1.00, 0.00, -0.00, -1.00, 739.4, 253.0)">w</text><text xml:space="preserve" font-family="SourceSansPro-Regular" font-size="45.0" fill="#525252" transform="matrix(1.00, 0.00, -0.00, -1.00, 771.8, 253.0)">h</text><text xml:space="preserve" font-family="SourceSansPro-Regular" font-size="45.0" fill="#525252" transform="matrix(1.00, 0.00, -0.00, -1.00, 796.2, 253.0)">a</text><text xml:space="preserve" font-family="SourceSansPro-Regular" font-size="45.0" fill="#525252" transform="matrix(1.00, 0.00, -0.00, -1.00, 819.3, 253.0)">t</text><text xml:space="preserve" font-family="SourceSansPro-Regular" font-size="45.0" fill="#525252" transform="matrix(1.00, 0.00, -0.00, -1.00, 834.5, 253.0)"> </text><text xml:space="preserve" font-family="SourceSansPro-Regular" font-size="45.0" fill="#525252" transform="matrix(1.00, 0.00, -0.00, -1.00, 843.6, 253.0)">y</text><text xml:space="preserve" font-family="SourceSansPro-Regular" font-size="45.0" fill="#525252" transform="matrix(1.00, 0.00, -0.00, -1.00, 864.4, 253.0)">o</text><text xml:space="preserve" font-family="SourceSansPro-Regular" font-size="45.0" fill="#525252" transform="matrix(1.00, 0.00, -0.00, -1.00, 888.8, 253.0)">u</text><text xml:space="preserve" font-family="SourceSansPro-Regular" font-size="45.0" fill="#525252" transform="matrix(1.00, 0.00, -0.00, -1.00, 913.3, 253.0)">r</text><text xml:space="preserve" font-family="SourceSansPro-Regular" font-size="45.0" fill="#525252" transform="matrix(1.00, 0.00, -0.00, -1.00, 928.9, 253.0)"> </text><text xml:space="preserve" font-family="SourceSansPro-Regular" font-size="45.0" fill="#525252" transform="matrix(1.00, 0.00, -0.00, -1.00, 938.0, 253.0)">p</text><text xml:space="preserve" font-family="SourceSansPro-Regular" font-size="45.0" fill="#525252" transform="matrix(1.00, 0.00, -0.00, -1.00, 963.0, 253.0)">r</text><text xml:space="preserve" font-family="SourceSansPro-Regular" font-size="45.0" fill="#525252" transform="matrix(1.00, 0.00, -0.00, -1.00, 978.1, 253.0)">o</text><text xml:space="preserve" font-family="SourceSansPro-Regular" font-size="45.0" fill="#525252" transform="matrix(1.00, 0.00, -0.00, -1.00, 1002.5, 253.0)">d</text><text xml:space="preserve" font-family="SourceSansPro-Regular" font-size="45.0" fill="#525252" transform="matrix(1.00, 0.00, -0.00, -1.00, 1027.5, 253.0)">u</text><text xml:space="preserve" font-family="SourceSansPro-Regular" font-size="45.0" fill="#525252" transform="matrix(1.00, 0.00, -0.00, -1.00, 1052.0, 253.0)">c</text><text xml:space="preserve" font-family="SourceSansPro-Regular" font-size="45.0" fill="#525252" transform="matrix(1.00, 0.00, -0.00, -1.00, 1072.5, 253.0)">t</text><text xml:space="preserve" font-family="SourceSansPro-Regular" font-size="45.0" fill="#525252" transform="matrix(1.00, 0.00, -0.00, -1.00, 1087.7, 253.0)"> </text><text xml:space="preserve" font-family="SourceSansPro-Regular" font-size="45.0" fill="#525252" transform="matrix(1.00, 0.00, -0.00, -1.00, 1096.8, 253.0)">i</text><text xml:space="preserve" font-family="SourceSansPro-Regular" font-size="45.0" fill="#525252" transform="matrix(1.00, 0.00, -0.00, -1.00, 1107.9, 253.0)">s</text><text xml:space="preserve" font-family="SourceSansPro-Regular" font-size="45.0" fill="#525252" transform="matrix(1.00, 0.00, -0.00, -1.00, 1126.7, 253.0)"> </text><text xml:space="preserve" font-family="SourceSansPro-Regular" font-size="45.0" fill="#525252" transform="matrix(1.00, 0.00, -0.00, -1.00, 1135.8, 253.0)">d</text><text xml:space="preserve" font-family="SourceSansPro-Regular" font-size="45.0" fill="#525252" transform="matrix(1.00, 0.00, -0.00, -1.00, 1160.8, 253.0)">o</text><text xml:space="preserve" font-family="SourceSansPro-Regular" font-size="45.0" fill="#525252" transform="matrix(1.00, 0.00, -0.00, -1.00, 1185.2, 253.0)">i</text><text xml:space="preserve" font-family="SourceSansPro-Regular" font-size="45.0" fill="#525252" transform="matrix(1.00, 0.00, -0.00, -1.00, 1196.2, 253.0)">n</text><text xml:space="preserve" font-family="SourceSansPro-Regular" font-size="45.0" fill="#525252" transform="matrix(1.00, 0.00, -0.00, -1.00, 1220.9, 253.0)">g</text><text xml:space="preserve" font-family="SourceSansPro-Regular" font-size="45.0" fill="#525252" transform="matrix(1.00, 0.00, -0.00, -1.00, 1244.2, 253.0)">}</text><text xml:space="preserve" font-family="SourceSansPro-Regular" font-size="45.0" fill="#525252" transform="matrix(1.00, 0.00, -0.00, -1.00, 1257.8, 253.0)"> </text><text xml:space="preserve" font-family="SourceSansPro-Regular" font-size="45.0" fill="#525252" transform="matrix(1.00, 0.00, -0.00, -1.00, 1266.9, 253.0)">t</text><text xml:space="preserve" font-family="SourceSansPro-Regular" font-size="45.0" fill="#525252" transform="matrix(1.00, 0.00, -0.00, -1.00, 1281.7, 253.0)">o</text><text xml:space="preserve" font-family="SourceSansPro-Regular" font-size="45.0" fill="#525252" transform="matrix(1.00, 0.00, -0.00, -1.00, 1306.0, 253.0)">g</text><text xml:space="preserve" font-family="SourceSansPro-Regular" font-size="45.0" fill="#525252" transform="matrix(1.00, 0.00, -0.00, -1.00, 1328.1, 253.0)">e</text><text xml:space="preserve" font-family="SourceSansPro-Regular" font-size="45.0" fill="#525252" transform="matrix(1.00, 0.00, -0.00, -1.00, 1349.8, 253.0)">t</text><text xml:space="preserve" font-family="SourceSansPro-Regular" font-size="45.0" fill="#525252" transform="matrix(1.00, 0.00, -0.00, -1.00, 1365.0, 253.0)">h</text><text xml:space="preserve" font-family="SourceSansPro-Regular" font-size="45.0" fill="#525252" transform="matrix(1.00, 0.00, -0.00, -1.00, 1389.5, 253.0)">e</text><text xml:space="preserve" font-family="SourceSansPro-Regular" font-size="45.0" fill="#525252" transform="matrix(1.00, 0.00, -0.00, -1.00, 1411.8, 253.0)">r</text><text xml:space="preserve" font-family="SourceSansPro-Regular" font-size="45.0" fill="#525252" transform="matrix(1.00, 0.00, -0.00, -1.00, 1427.4, 253.0)">?</text><text xml:space="preserve" font-family="SourceSansPro-Regular" font-size="36.0" fill="#525252" transform="matrix(1.00, 0.00, -0.00, -1.00, 834.0, 17.0)">s</text><text xml:space="preserve" font-family="SourceSansPro-Regular" font-size="36.0" fill="#525252" transform="matrix(1.00, 0.00, -0.00, -1.00, 852.7, 17.0)">o</text><text xml:space="preserve" font-family="SourceSansPro-Regular" font-size="36.0" fill="#525252" transform="matrix(1.00, 0.00, -0.00, -1.00, 875.8, 17.0)">p</text><text xml:space="preserve" font-family="SourceSansPro-Regular" font-size="36.0" fill="#525252" transform="matrix(1.00, 0.00, -0.00, -1.00, 899.4, 17.0)">h</text><text xml:space="preserve" font-family="SourceSansPro-Regular" font-size="36.0" fill="#525252" transform="matrix(1.00, 0.00, -0.00, -1.00, 922.6, 17.0)">i</text><text xml:space="preserve" font-family="SourceSansPro-Regular" font-size="36.0" fill="#525252" transform="matrix(1.00, 0.00, -0.00, -1.00, 935.0, 17.0)">a</text><text xml:space="preserve" font-family="SourceSansPro-Regular" font-size="36.0" fill="#525252" transform="matrix(1.00, 0.00, -0.00, -1.00, 957.0, 17.0)">k</text><text xml:space="preserve" font-family="SourceSansPro-Regular" font-size="36.0" fill="#525252" transform="matrix(1.00, 0.00, -0.00, -1.00, 977.8, 17.0)">c</text><text xml:space="preserve" font-family="SourceSansPro-Regular" font-size="36.0" fill="#525252" transform="matrix(1.00, 0.00, -0.00, -1.00, 997.8, 17.0)">.</text><text xml:space="preserve" font-family="SourceSansPro-Regular" font-size="36.0" fill="#525252" transform="matrix(1.00, 0.00, -0.00, -1.00, 1010.1, 17.0)">c</text><text xml:space="preserve" font-family="SourceSansPro-Regular" font-size="36.0" fill="#525252" transform="matrix(1.00, 0.00, -0.00, -1.00, 1029.4, 17.0)">o</text><text xml:space="preserve" font-family="SourceSansPro-Regular" font-size="36.0" fill="#525252" transform="matrix(1.00, 0.00, -0.00, -1.00, 1052.5, 17.0)">m</text><g><clipPath id="clip-1318"><path d="M 748.5 330.5 L 1161.5 330.5 L 1161.5 743.5 L 748.5 743.5 Z M 748.5 330.5 "></path></clipPath><g clip-path="url(#clip-1318)"><image xlink:href="../../DDB31479-58A1-4FE5-B4D7-634197F951EF/assets/F5C5DE0F095B4827420C0325135EDF81.png" width="411.00" height="411.00" transform="matrix(1.00, 0.00, -0.00, -1.00, 749.5, 742.5)" opacity="0.35"></image><path d="M 1096.1 681.1 C 1174.0 603.2 1174.0 476.8 1096.1 398.9 C 1018.2 321.0 891.8 321.0 813.9 398.9 C 736.0 476.8 736.0 603.2 813.9 681.1 C 891.8 759.0 1018.2 759.0 1096.1 681.1 Z M 1096.1 681.1 " fill="#919191"></path></g></g><text xml:space="preserve" font-family="Chalkboard" font-size="120.0" fill="#FFFFFF" transform="matrix(1.00, 0.00, -0.00, -1.00, 928.0, 507.0)">?</text></g></svg>