<?xml version="1.0" encoding="UTF-8" standalone="no"?><svg xmlns="http://www.w3.org/2000/svg" xmlns:xlink="http://www.w3.org/1999/xlink" clip-rule="evenodd" stroke-miterlimit="4.00" viewBox="0 0 1920 1080"><desc>SVG generated by Keynote</desc><defs></defs><g transform="matrix(1.00, 0.00, -0.00, -1.00, 0.0, 1080.0)"><path d="M 0.0 1080.0 L 1920.0 1080.0 L 1920.0 0.0 L 0.0 0.0 Z M 0.0 1080.0 " fill="#FFFFFF"></path><image xlink:href="6DDD775F0502AFC8DED261EA410A4496.png" width="207.00" height="358.00" transform="matrix(1.00, 0.00, -0.00, -1.00, 1381.6, 597.9)" opacity="0.38"></image><image xlink:href="D06D41D263D00A9AE6B37ADA6BD8C905.jpeg" width="195.00" height="347.00" transform="matrix(1.00, 0.00, -0.00, -1.00, 1385.0, 591.0)"></image><image xlink:href="CB26F27201E5BE9EAB8BA37C28F09DF1.png" width="207.00" height="358.00" transform="matrix(1.00, 0.00, -0.00, -1.00, 1641.7, 521.8)" opacity="0.38"></image><image xlink:href="1FE76338AB2286895236480AD1AAF0AA.jpeg" width="195.00" height="347.00" transform="matrix(1.00, 0.00, -0.00, -1.00, 1645.0, 515.0)"></image><image xlink:href="11BF581AF3E91D809708CBE2EA7F7E7B.png" width="207.00" height="358.00" transform="matrix(1.00, 0.00, -0.00, -1.00, 1641.7, 885.6)" opacity="0.38"></image><image xlink:href="E62AD746F46F869D3BB89ED5EF1C1B67.jpeg" width="195.00" height="347.00" transform="matrix(1.00, 0.00, -0.00, -1.00, 1645.0, 879.0)"></image><image xlink:href="2862621DBE045F6170CBF79A9456F0AB.png" width="207.00" height="358.00" transform="matrix(1.00, 0.00, -0.00, -1.00, 1277.4, 954.6)" opacity="0.38"></image><image xlink:href="2EED5C3CAF98F974CC8F0C497DD8A52C.jpeg" width="195.00" height="347.00" transform="matrix(1.00, 0.00, -0.00, -1.00, 1280.0, 948.0)"></image><image xlink:href="364864049E89598F8AEC12DD4AFC6943.png" width="207.00" height="358.00" transform="matrix(1.00, 0.00, -0.00, -1.00, 920.5, 750.0)" opacity="0.38"></image><image xlink:href="40FC20B35D08E67E41C528A1FA3DFEDB.jpeg" width="195.00" height="347.00" transform="matrix(1.00, 0.00, -0.00, -1.00, 924.0, 743.0)"></image><image xlink:href="BCD65B95ADAF5D2DA07F264C6BB331F1.png" width="206.00" height="356.00" transform="matrix(1.00, 0.00, -0.00, -1.00, 1167.2, 559.5)" opacity="0.38"></image><image xlink:href="669AE971E31FB36756F138A3396101EE.jpeg" width="193.00" height="344.00" transform="matrix(1.01, 0.00, -0.00, -1.00, 1170.0, 553.0)"></image><image xlink:href="CCCAB551D01C9745EFEBEF4563AA522A.png" width="207.00" height="358.00" transform="matrix(1.00, 0.00, -0.00, -1.00, 742.3, 470.4)" opacity="0.38"></image><image xlink:href="CA21D555A823D9DC55A37F714BA564F5.jpeg" width="195.00" height="347.00" transform="matrix(1.00, 0.00, -0.00, -1.00, 745.0, 464.0)"></image><image xlink:href="011B2A4735CCBB8BCBD72335CD0EC9E4.png" width="207.00" height="358.00" transform="matrix(1.00, 0.00, -0.00, -1.00, 906.0, 435.0)" opacity="0.38"></image><image xlink:href="B94F19DB91333695F9363C1CA5638C98.jpeg" width="195.00" height="347.00" transform="matrix(1.00, 0.00, -0.00, -1.00, 909.0, 429.0)"></image><image xlink:href="7BDFAEF1796F66E935A99193CA3747C5.png" width="207.00" height="358.00" transform="matrix(1.00, 0.00, -0.00, -1.00, 123.7, 432.0)" opacity="0.38"></image><image xlink:href="F31C8E86ED20672BD5262C7F4313794E.jpeg" width="195.00" height="347.00" transform="matrix(1.00, 0.00, -0.00, -1.00, 127.0, 425.0)"></image><image xlink:href="A86FC9E50B2C43DBDD399971212A30F8.png" width="207.00" height="358.00" transform="matrix(1.00, 0.00, -0.00, -1.00, 742.3, 874.1)" opacity="0.38"></image><image xlink:href="E7B79F123B4AB2902F61394F5DCFA366.jpeg" width="195.00" height="347.00" transform="matrix(1.00, 0.00, -0.00, -1.00, 745.0, 868.0)"></image><image xlink:href="AA627547E435FB37161CA01F8BC77038.png" width="207.00" height="358.00" transform="matrix(1.00, 0.00, -0.00, -1.00, 81.4, 818.0)" opacity="0.38"></image><image xlink:href="BFAF9901DEDC04941F4062E57AA881DF.jpeg" width="195.00" height="347.00" transform="matrix(1.00, 0.00, -0.00, -1.00, 84.0, 811.0)"></image><image xlink:href="E735DBBFE146AF97431286B470F61B6C.png" width="207.00" height="358.00" transform="matrix(1.00, 0.00, -0.00, -1.00, 135.1, 999.3)" opacity="0.38"></image><image xlink:href="8012A09897F75E874AA6BFE3E126C3AC.jpeg" width="195.00" height="347.00" transform="matrix(1.00, 0.00, -0.00, -1.00, 138.0, 993.0)"></image><image xlink:href="3E903CFDE686596EDF0EFA5B5E60A4C9.png" width="207.00" height="358.00" transform="matrix(1.00, 0.00, -0.00, -1.00, 342.5, 811.7)" opacity="0.38"></image><image xlink:href="BE8CB2745F17A50C1CF83C454FEF35A9.jpeg" width="195.00" height="347.00" transform="matrix(1.00, 0.00, -0.00, -1.00, 346.0, 805.0)"></image><image xlink:href="E116827F69E7784DE94DA86391F27E83.png" width="207.00" height="358.00" transform="matrix(1.00, 0.00, -0.00, -1.00, 349.9, 432.0)" opacity="0.38"></image><image xlink:href="A8A62145275161B915A8337F300086FF.jpeg" width="195.00" height="347.00" transform="matrix(1.00, 0.00, -0.00, -1.00, 353.0, 425.0)"></image><image xlink:href="0562BBD78BC1970E54206C0F7430A323.png" width="206.00" height="356.00" transform="matrix(1.00, 0.00, -0.00, -1.00, 848.6, 1054.1)" opacity="0.38"></image><image xlink:href="A0623890E68A859CAE4B0FF018D3211E.jpeg" width="193.00" height="344.00" transform="matrix(1.00, 0.00, -0.00, -1.00, 852.0, 1048.0)"></image><image xlink:href="46AFDDF8D5E50F9A3026909BAB28E036.png" width="207.00" height="358.00" transform="matrix(1.00, 0.00, -0.00, -1.00, 373.5, 1031.3)" opacity="0.38"></image><image xlink:href="2594D0D3F66674B562D6665A8A00A43F.jpeg" width="195.00" height="347.00" transform="matrix(1.00, 0.00, -0.00, -1.00, 377.0, 1025.0)"></image><text xml:space="preserve" font-family="SourceSansPro-Regular" font-size="36.0" fill="#525252" transform="matrix(1.00, 0.00, -0.00, -1.00, 834.0, 17.0)">s</text><text xml:space="preserve" font-family="SourceSansPro-Regular" font-size="36.0" fill="#525252" transform="matrix(1.00, 0.00, -0.00, -1.00, 852.7, 17.0)">o</text><text xml:space="preserve" font-family="SourceSansPro-Regular" font-size="36.0" fill="#525252" transform="matrix(1.00, 0.00, -0.00, -1.00, 875.8, 17.0)">p</text><text xml:space="preserve" font-family="SourceSansPro-Regular" font-size="36.0" fill="#525252" transform="matrix(1.00, 0.00, -0.00, -1.00, 899.4, 17.0)">h</text><text xml:space="preserve" font-family="SourceSansPro-Regular" font-size="36.0" fill="#525252" transform="matrix(1.00, 0.00, -0.00, -1.00, 922.6, 17.0)">i</text><text xml:space="preserve" font-family="SourceSansPro-Regular" font-size="36.0" fill="#525252" transform="matrix(1.00, 0.00, -0.00, -1.00, 935.0, 17.0)">a</text><text xml:space="preserve" font-family="SourceSansPro-Regular" font-size="36.0" fill="#525252" transform="matrix(1.00, 0.00, -0.00, -1.00, 957.0, 17.0)">k</text><text xml:space="preserve" font-family="SourceSansPro-Regular" font-size="36.0" fill="#525252" transform="matrix(1.00, 0.00, -0.00, -1.00, 977.8, 17.0)">c</text><text xml:space="preserve" font-family="SourceSansPro-Regular" font-size="36.0" fill="#525252" transform="matrix(1.00, 0.00, -0.00, -1.00, 997.8, 17.0)">.</text><text xml:space="preserve" font-family="SourceSansPro-Regular" font-size="36.0" fill="#525252" transform="matrix(1.00, 0.00, -0.00, -1.00, 1010.1, 17.0)">c</text><text xml:space="preserve" font-family="SourceSansPro-Regular" font-size="36.0" fill="#525252" transform="matrix(1.00, 0.00, -0.00, -1.00, 1029.4, 17.0)">o</text><text xml:space="preserve" font-family="SourceSansPro-Regular" font-size="36.0" fill="#525252" transform="matrix(1.00, 0.00, -0.00, -1.00, 1052.5, 17.0)">m</text><text xml:space="preserve" font-family="PermanentMarker" font-size="24.0" fill="#0432FF" transform="matrix(1.00, 0.00, -0.00, -1.00, 645.0, 995.0)">V</text><text xml:space="preserve" font-family="PermanentMarker" font-size="24.0" fill="#0432FF" transform="matrix(1.00, 0.00, -0.00, -1.00, 659.0, 995.0)">I</text><text xml:space="preserve" font-family="PermanentMarker" font-size="24.0" fill="#0432FF" transform="matrix(1.00, 0.00, -0.00, -1.00, 671.4, 995.0)">S</text><text xml:space="preserve" font-family="PermanentMarker" font-size="24.0" fill="#0432FF" transform="matrix(1.00, 0.00, -0.00, -1.00, 685.2, 995.0)">U</text><text xml:space="preserve" font-family="PermanentMarker" font-size="24.0" fill="#0432FF" transform="matrix(1.00, 0.00, -0.00, -1.00, 701.2, 995.0)">A</text><text xml:space="preserve" font-family="PermanentMarker" font-size="24.0" fill="#0432FF" transform="matrix(1.00, 0.00, -0.00, -1.00, 718.0, 995.0)">L</text><text xml:space="preserve" font-family="PermanentMarker" font-size="24.0" fill="#0432FF" transform="matrix(1.00, 0.00, -0.00, -1.00, 733.2, 995.0)"> </text><text xml:space="preserve" font-family="PermanentMarker" font-size="24.0" fill="#0432FF" transform="matrix(1.00, 0.00, -0.00, -1.00, 645.0, 959.0)">A</text><text xml:space="preserve" font-family="PermanentMarker" font-size="24.0" fill="#0432FF" transform="matrix(1.00, 0.00, -0.00, -1.00, 661.9, 959.0)">C</text><text xml:space="preserve" font-family="PermanentMarker" font-size="24.0" fill="#0432FF" transform="matrix(1.00, 0.00, -0.00, -1.00, 676.5, 959.0)">T</text><text xml:space="preserve" font-family="PermanentMarker" font-size="24.0" fill="#0432FF" transform="matrix(1.00, 0.00, -0.00, -1.00, 691.1, 959.0)">I</text><text xml:space="preserve" font-family="PermanentMarker" font-size="24.0" fill="#0432FF" transform="matrix(1.00, 0.00, -0.00, -1.00, 703.5, 959.0)">V</text><text xml:space="preserve" font-family="PermanentMarker" font-size="24.0" fill="#0432FF" transform="matrix(1.00, 0.00, -0.00, -1.00, 716.8, 959.0)">A</text><text xml:space="preserve" font-family="PermanentMarker" font-size="24.0" fill="#0432FF" transform="matrix(1.00, 0.00, -0.00, -1.00, 732.4, 959.0)">T</text><text xml:space="preserve" font-family="PermanentMarker" font-size="24.0" fill="#0432FF" transform="matrix(1.00, 0.00, -0.00, -1.00, 747.0, 959.0)">I</text><text xml:space="preserve" font-family="PermanentMarker" font-size="24.0" fill="#0432FF" transform="matrix(1.00, 0.00, -0.00, -1.00, 758.9, 959.0)">O</text><text xml:space="preserve" font-family="PermanentMarker" font-size="24.0" fill="#0432FF" transform="matrix(1.00, 0.00, -0.00, -1.00, 776.8, 959.0)">N</text><text xml:space="preserve" font-family="PermanentMarker" font-size="24.0" fill="#0432FF" transform="matrix(1.00, 0.00, -0.00, -1.00, 59.0, 924.0)">C</text><text xml:space="preserve" font-family="PermanentMarker" font-size="24.0" fill="#0432FF" transform="matrix(1.00, 0.00, -0.00, -1.00, 73.7, 924.0)">T</text><text xml:space="preserve" font-family="PermanentMarker" font-size="24.0" fill="#0432FF" transform="matrix(1.00, 0.00, -0.00, -1.00, 87.1, 924.0)">A</text><text xml:space="preserve" font-family="PermanentMarker" font-size="24.0" fill="#0432FF" transform="matrix(1.00, 0.00, -0.00, -1.00, 1227.0, 1009.0)">O</text><text xml:space="preserve" font-family="PermanentMarker" font-size="24.0" fill="#0432FF" transform="matrix(1.00, 0.00, -0.00, -1.00, 1243.7, 1009.0)">T</text><text xml:space="preserve" font-family="PermanentMarker" font-size="24.0" fill="#0432FF" transform="matrix(1.00, 0.00, -0.00, -1.00, 1258.3, 1009.0)">H</text><text xml:space="preserve" font-family="PermanentMarker" font-size="24.0" fill="#0432FF" transform="matrix(1.00, 0.00, -0.00, -1.00, 1274.9, 1009.0)">E</text><text xml:space="preserve" font-family="PermanentMarker" font-size="24.0" fill="#0432FF" transform="matrix(1.00, 0.00, -0.00, -1.00, 1289.8, 1009.0)">R</text><text xml:space="preserve" font-family="PermanentMarker" font-size="24.0" fill="#0432FF" transform="matrix(1.00, 0.00, -0.00, -1.00, 1305.3, 1009.0)"> </text><text xml:space="preserve" font-family="PermanentMarker" font-size="24.0" fill="#0432FF" transform="matrix(1.00, 0.00, -0.00, -1.00, 1314.2, 1009.0)"> </text><text xml:space="preserve" font-family="PermanentMarker" font-size="24.0" fill="#0432FF" transform="matrix(1.00, 0.00, -0.00, -1.00, 1227.0, 973.0)">C</text><text xml:space="preserve" font-family="PermanentMarker" font-size="24.0" fill="#0432FF" transform="matrix(1.00, 0.00, -0.00, -1.00, 1241.7, 973.0)">O</text><text xml:space="preserve" font-family="PermanentMarker" font-size="24.0" fill="#0432FF" transform="matrix(1.00, 0.00, -0.00, -1.00, 1259.5, 973.0)">M</text><text xml:space="preserve" font-family="PermanentMarker" font-size="24.0" fill="#0432FF" transform="matrix(1.00, 0.00, -0.00, -1.00, 1282.9, 973.0)">P</text><text xml:space="preserve" font-family="PermanentMarker" font-size="24.0" fill="#0432FF" transform="matrix(1.00, 0.00, -0.00, -1.00, 1298.2, 973.0)">O</text><text xml:space="preserve" font-family="PermanentMarker" font-size="24.0" fill="#0432FF" transform="matrix(1.00, 0.00, -0.00, -1.00, 1316.1, 973.0)">N</text><text xml:space="preserve" font-family="PermanentMarker" font-size="24.0" fill="#0432FF" transform="matrix(1.00, 0.00, -0.00, -1.00, 1332.5, 973.0)">E</text><text xml:space="preserve" font-family="PermanentMarker" font-size="24.0" fill="#0432FF" transform="matrix(1.00, 0.00, -0.00, -1.00, 1347.6, 973.0)">N</text><text xml:space="preserve" font-family="PermanentMarker" font-size="24.0" fill="#0432FF" transform="matrix(1.00, 0.00, -0.00, -1.00, 1364.0, 973.0)">T</text><text xml:space="preserve" font-family="PermanentMarker" font-size="24.0" fill="#0432FF" transform="matrix(1.00, 0.00, -0.00, -1.00, 1378.6, 973.0)">S</text><text xml:space="preserve" font-family="PermanentMarker" font-size="24.0" fill="#0432FF" transform="matrix(1.00, 0.00, -0.00, -1.00, 1617.0, 963.0)">A</text><text xml:space="preserve" font-family="PermanentMarker" font-size="24.0" fill="#0432FF" transform="matrix(1.00, 0.00, -0.00, -1.00, 1633.9, 963.0)">C</text><text xml:space="preserve" font-family="PermanentMarker" font-size="24.0" fill="#0432FF" transform="matrix(1.00, 0.00, -0.00, -1.00, 1648.5, 963.0)">T</text><text xml:space="preserve" font-family="PermanentMarker" font-size="24.0" fill="#0432FF" transform="matrix(1.00, 0.00, -0.00, -1.00, 1663.1, 963.0)">I</text><text xml:space="preserve" font-family="PermanentMarker" font-size="24.0" fill="#0432FF" transform="matrix(1.00, 0.00, -0.00, -1.00, 1675.0, 963.0)">O</text><text xml:space="preserve" font-family="PermanentMarker" font-size="24.0" fill="#0432FF" transform="matrix(1.00, 0.00, -0.00, -1.00, 1692.9, 963.0)">N</text><text xml:space="preserve" font-family="PermanentMarker" font-size="24.0" fill="#0432FF" transform="matrix(1.00, 0.00, -0.00, -1.00, 1709.3, 963.0)">S</text><text xml:space="preserve" font-family="PermanentMarker" font-size="24.0" fill="#0432FF" transform="matrix(1.00, 0.00, -0.00, -1.00, 1723.1, 963.0)"> </text><text xml:space="preserve" font-family="PermanentMarker" font-size="24.0" fill="#0432FF" transform="matrix(1.00, 0.00, -0.00, -1.00, 1732.0, 963.0)">W</text><text xml:space="preserve" font-family="PermanentMarker" font-size="24.0" fill="#0432FF" transform="matrix(1.00, 0.00, -0.00, -1.00, 1755.9, 963.0)">R</text><text xml:space="preserve" font-family="PermanentMarker" font-size="24.0" fill="#0432FF" transform="matrix(1.00, 0.00, -0.00, -1.00, 1771.4, 963.0)">A</text><text xml:space="preserve" font-family="PermanentMarker" font-size="24.0" fill="#0432FF" transform="matrix(1.00, 0.00, -0.00, -1.00, 1788.3, 963.0)">P</text><text xml:space="preserve" font-family="PermanentMarker" font-size="24.0" fill="#0432FF" transform="matrix(1.00, 0.00, -0.00, -1.00, 1803.6, 963.0)">P</text><text xml:space="preserve" font-family="PermanentMarker" font-size="24.0" fill="#0432FF" transform="matrix(1.00, 0.00, -0.00, -1.00, 1818.9, 963.0)">E</text><text xml:space="preserve" font-family="PermanentMarker" font-size="24.0" fill="#0432FF" transform="matrix(1.00, 0.00, -0.00, -1.00, 1834.0, 963.0)">D</text><text xml:space="preserve" font-family="PermanentMarker" font-size="24.0" fill="#0432FF" transform="matrix(1.00, 0.00, -0.00, -1.00, 1848.1, 963.0)"> </text><text xml:space="preserve" font-family="PermanentMarker" font-size="24.0" fill="#0432FF" transform="matrix(1.00, 0.00, -0.00, -1.00, 1857.0, 963.0)"> </text><text xml:space="preserve" font-family="PermanentMarker" font-size="24.0" fill="#0432FF" transform="matrix(1.00, 0.00, -0.00, -1.00, 1617.0, 927.0)">I</text><text xml:space="preserve" font-family="PermanentMarker" font-size="24.0" fill="#0432FF" transform="matrix(1.00, 0.00, -0.00, -1.00, 1629.4, 927.0)">N</text><text xml:space="preserve" font-family="PermanentMarker" font-size="24.0" fill="#0432FF" transform="matrix(1.00, 0.00, -0.00, -1.00, 1645.8, 927.0)">T</text><text xml:space="preserve" font-family="PermanentMarker" font-size="24.0" fill="#0432FF" transform="matrix(1.00, 0.00, -0.00, -1.00, 1659.6, 927.0)">O</text><text xml:space="preserve" font-family="PermanentMarker" font-size="24.0" fill="#0432FF" transform="matrix(1.00, 0.00, -0.00, -1.00, 1677.5, 927.0)"> </text><text xml:space="preserve" font-family="PermanentMarker" font-size="24.0" fill="#0432FF" transform="matrix(1.00, 0.00, -0.00, -1.00, 1686.4, 927.0)">F</text><text xml:space="preserve" font-family="PermanentMarker" font-size="24.0" fill="#0432FF" transform="matrix(1.00, 0.00, -0.00, -1.00, 1700.2, 927.0)">L</text><text xml:space="preserve" font-family="PermanentMarker" font-size="24.0" fill="#0432FF" transform="matrix(1.00, 0.00, -0.00, -1.00, 1715.4, 927.0)">O</text><text xml:space="preserve" font-family="PermanentMarker" font-size="24.0" fill="#0432FF" transform="matrix(1.00, 0.00, -0.00, -1.00, 1733.2, 927.0)">A</text><text xml:space="preserve" font-family="PermanentMarker" font-size="24.0" fill="#0432FF" transform="matrix(1.00, 0.00, -0.00, -1.00, 1748.9, 927.0)">T</text><text xml:space="preserve" font-family="PermanentMarker" font-size="24.0" fill="#0432FF" transform="matrix(1.00, 0.00, -0.00, -1.00, 1763.5, 927.0)">E</text><text xml:space="preserve" font-family="PermanentMarker" font-size="24.0" fill="#0432FF" transform="matrix(1.00, 0.00, -0.00, -1.00, 1778.5, 927.0)">D</text><text xml:space="preserve" font-family="PermanentMarker" font-size="24.0" fill="#0432FF" transform="matrix(1.00, 0.00, -0.00, -1.00, 1792.7, 927.0)"> </text><text xml:space="preserve" font-family="PermanentMarker" font-size="24.0" fill="#0432FF" transform="matrix(1.00, 0.00, -0.00, -1.00, 1801.6, 927.0)">C</text><text xml:space="preserve" font-family="PermanentMarker" font-size="24.0" fill="#0432FF" transform="matrix(1.00, 0.00, -0.00, -1.00, 1816.2, 927.0)">T</text><text xml:space="preserve" font-family="PermanentMarker" font-size="24.0" fill="#0432FF" transform="matrix(1.00, 0.00, -0.00, -1.00, 1829.6, 927.0)">A</text></g></svg>