<?xml version="1.0" encoding="UTF-8" standalone="no"?><svg xmlns="http://www.w3.org/2000/svg" xmlns:xlink="http://www.w3.org/1999/xlink" clip-rule="evenodd" stroke-miterlimit="4.00" viewBox="0 0 1920 1080"><desc>SVG generated by Keynote</desc><defs></defs><g transform="matrix(1.00, 0.00, -0.00, -1.00, 0.0, 1080.0)"><path d="M 0.0 1080.0 L 1920.0 1080.0 L 1920.0 0.0 L 0.0 0.0 Z M 0.0 1080.0 " fill="#FFFFFF"></path><g><clipPath id="clip-5"><path d="M 748.5 330.5 L 1161.5 330.5 L 1161.5 743.5 L 748.5 743.5 Z M 748.5 330.5 "></path></clipPath><g clip-path="url(#clip-5)"><image xlink:href="../../DDB31479-58A1-4FE5-B4D7-634197F951EF/assets/F5C5DE0F095B4827420C0325135EDF81.png" width="411.00" height="411.00" transform="matrix(1.00, 0.00, -0.00, -1.00, 749.5, 742.5)" opacity="0.35"></image><path d="M 1096.1 681.1 C 1174.0 603.2 1174.0 476.8 1096.1 398.9 C 1018.2 321.0 891.8 321.0 813.9 398.9 C 736.0 476.8 736.0 603.2 813.9 681.1 C 891.8 759.0 1018.2 759.0 1096.1 681.1 Z M 1096.1 681.1 " fill="#00F900"></path></g></g><g><clipPath id="clip-6"><path d="M 808.5 423.1 L 1101.5 423.1 L 1101.5 706.4 L 808.5 706.4 Z M 808.5 423.1 "></path></clipPath><g clip-path="url(#clip-6)"><image xlink:href="../../DDB31479-58A1-4FE5-B4D7-634197F951EF/assets/74474C527FBBF450FD5960EB3D0F1227.png" width="294.00" height="284.00" transform="matrix(1.00, 0.00, -0.00, -1.00, 808.0, 706.0)"></image></g></g><text xml:space="preserve" font-family="SourceSansPro-Regular" font-size="45.0" fill="#525252" transform="matrix(1.00, 0.00, -0.00, -1.00, 726.0, 253.0)">M</text><text xml:space="preserve" font-family="SourceSansPro-Regular" font-size="45.0" fill="#525252" transform="matrix(1.00, 0.00, -0.00, -1.00, 758.7, 253.0)">y</text><text xml:space="preserve" font-family="SourceSansPro-Regular" font-size="45.0" fill="#525252" transform="matrix(1.00, 0.00, -0.00, -1.00, 779.7, 253.0)"> </text><text xml:space="preserve" font-family="SourceSansPro-Regular" font-size="45.0" fill="#525252" transform="matrix(1.00, 0.00, -0.00, -1.00, 788.8, 253.0)">j</text><text xml:space="preserve" font-family="SourceSansPro-Regular" font-size="45.0" fill="#525252" transform="matrix(1.00, 0.00, -0.00, -1.00, 799.9, 253.0)">o</text><text xml:space="preserve" font-family="SourceSansPro-Regular" font-size="45.0" fill="#525252" transform="matrix(1.00, 0.00, -0.00, -1.00, 824.3, 253.0)">u</text><text xml:space="preserve" font-family="SourceSansPro-Regular" font-size="45.0" fill="#525252" transform="matrix(1.00, 0.00, -0.00, -1.00, 848.8, 253.0)">r</text><text xml:space="preserve" font-family="SourceSansPro-Regular" font-size="45.0" fill="#525252" transform="matrix(1.00, 0.00, -0.00, -1.00, 864.4, 253.0)">n</text><text xml:space="preserve" font-family="SourceSansPro-Regular" font-size="45.0" fill="#525252" transform="matrix(1.00, 0.00, -0.00, -1.00, 889.0, 253.0)">e</text><text xml:space="preserve" font-family="SourceSansPro-Regular" font-size="45.0" fill="#525252" transform="matrix(1.00, 0.00, -0.00, -1.00, 911.6, 253.0)">y</text><text xml:space="preserve" font-family="SourceSansPro-Regular" font-size="45.0" fill="#525252" transform="matrix(1.00, 0.00, -0.00, -1.00, 932.6, 253.0)"> </text><text xml:space="preserve" font-family="SourceSansPro-Regular" font-size="45.0" fill="#525252" transform="matrix(1.00, 0.00, -0.00, -1.00, 941.7, 253.0)">i</text><text xml:space="preserve" font-family="SourceSansPro-Regular" font-size="45.0" fill="#525252" transform="matrix(1.00, 0.00, -0.00, -1.00, 952.8, 253.0)">s</text><text xml:space="preserve" font-family="SourceSansPro-Regular" font-size="45.0" fill="#525252" transform="matrix(1.00, 0.00, -0.00, -1.00, 971.6, 253.0)"> </text><text xml:space="preserve" font-family="SourceSansPro-Regular" font-size="45.0" fill="#525252" transform="matrix(1.00, 0.00, -0.00, -1.00, 980.7, 253.0)">l</text><text xml:space="preserve" font-family="SourceSansPro-Regular" font-size="45.0" fill="#525252" transform="matrix(1.00, 0.00, -0.00, -1.00, 992.2, 253.0)">i</text><text xml:space="preserve" font-family="SourceSansPro-Regular" font-size="45.0" fill="#525252" transform="matrix(1.00, 0.00, -0.00, -1.00, 1003.2, 253.0)">k</text><text xml:space="preserve" font-family="SourceSansPro-Regular" font-size="45.0" fill="#525252" transform="matrix(1.00, 0.00, -0.00, -1.00, 1024.7, 253.0)">e</text><text xml:space="preserve" font-family="SourceSansPro-Regular" font-size="45.0" fill="#525252" transform="matrix(1.00, 0.00, -0.00, -1.00, 1047.0, 253.0)"> </text><text xml:space="preserve" font-family="SourceSansPro-Regular" font-size="45.0" fill="#525252" transform="matrix(1.00, 0.00, -0.00, -1.00, 1056.1, 253.0)">h</text><text xml:space="preserve" font-family="SourceSansPro-Regular" font-size="45.0" fill="#525252" transform="matrix(1.00, 0.00, -0.00, -1.00, 1080.6, 253.0)">i</text><text xml:space="preserve" font-family="SourceSansPro-Regular" font-size="45.0" fill="#525252" transform="matrix(1.00, 0.00, -0.00, -1.00, 1091.7, 253.0)">k</text><text xml:space="preserve" font-family="SourceSansPro-Regular" font-size="45.0" fill="#525252" transform="matrix(1.00, 0.00, -0.00, -1.00, 1113.9, 253.0)">i</text><text xml:space="preserve" font-family="SourceSansPro-Regular" font-size="45.0" fill="#525252" transform="matrix(1.00, 0.00, -0.00, -1.00, 1125.0, 253.0)">n</text><text xml:space="preserve" font-family="SourceSansPro-Regular" font-size="45.0" fill="#525252" transform="matrix(1.00, 0.00, -0.00, -1.00, 1149.6, 253.0)">g</text><text xml:space="preserve" font-family="SourceSansPro-Regular" font-size="45.0" fill="#525252" transform="matrix(1.00, 0.00, -0.00, -1.00, 1172.3, 253.0)">,</text><text xml:space="preserve" font-family="SourceSansPro-Regular" font-size="45.0" fill="#525252" transform="matrix(1.00, 0.00, -0.00, -1.00, 1183.5, 253.0)"> </text><text xml:space="preserve" font-family="SourceSansPro-Regular" font-size="45.0" fill="#525252" transform="matrix(1.00, 0.00, -0.00, -1.00, 1192.6, 253.0)"> </text><text xml:space="preserve" font-family="SourceSansPro-Regular" font-size="45.0" fill="#525252" transform="matrix(1.00, 0.00, -0.00, -1.00, 621.0, 197.0)">t</text><text xml:space="preserve" font-family="SourceSansPro-Regular" font-size="45.0" fill="#525252" transform="matrix(1.00, 0.00, -0.00, -1.00, 635.4, 197.0)">a</text><text xml:space="preserve" font-family="SourceSansPro-Regular" font-size="45.0" fill="#525252" transform="matrix(1.00, 0.00, -0.00, -1.00, 658.4, 197.0)">k</text><text xml:space="preserve" font-family="SourceSansPro-Regular" font-size="45.0" fill="#525252" transform="matrix(1.00, 0.00, -0.00, -1.00, 680.7, 197.0)">i</text><text xml:space="preserve" font-family="SourceSansPro-Regular" font-size="45.0" fill="#525252" transform="matrix(1.00, 0.00, -0.00, -1.00, 691.8, 197.0)">n</text><text xml:space="preserve" font-family="SourceSansPro-Regular" font-size="45.0" fill="#525252" transform="matrix(1.00, 0.00, -0.00, -1.00, 716.4, 197.0)">g</text><text xml:space="preserve" font-family="SourceSansPro-Regular" font-size="45.0" fill="#525252" transform="matrix(1.00, 0.00, -0.00, -1.00, 739.1, 197.0)"> </text><text xml:space="preserve" font-family="SourceSansPro-Regular" font-size="45.0" fill="#525252" transform="matrix(1.00, 0.00, -0.00, -1.00, 748.2, 197.0)">c</text><text xml:space="preserve" font-family="SourceSansPro-Regular" font-size="45.0" fill="#525252" transform="matrix(1.00, 0.00, -0.00, -1.00, 768.7, 197.0)">h</text><text xml:space="preserve" font-family="SourceSansPro-Regular" font-size="45.0" fill="#525252" transform="matrix(1.00, 0.00, -0.00, -1.00, 793.2, 197.0)">a</text><text xml:space="preserve" font-family="SourceSansPro-Regular" font-size="45.0" fill="#525252" transform="matrix(1.00, 0.00, -0.00, -1.00, 816.2, 197.0)">l</text><text xml:space="preserve" font-family="SourceSansPro-Regular" font-size="45.0" fill="#525252" transform="matrix(1.00, 0.00, -0.00, -1.00, 827.7, 197.0)">l</text><text xml:space="preserve" font-family="SourceSansPro-Regular" font-size="45.0" fill="#525252" transform="matrix(1.00, 0.00, -0.00, -1.00, 839.2, 197.0)">e</text><text xml:space="preserve" font-family="SourceSansPro-Regular" font-size="45.0" fill="#525252" transform="matrix(1.00, 0.00, -0.00, -1.00, 861.5, 197.0)">n</text><text xml:space="preserve" font-family="SourceSansPro-Regular" font-size="45.0" fill="#525252" transform="matrix(1.00, 0.00, -0.00, -1.00, 886.1, 197.0)">g</text><text xml:space="preserve" font-family="SourceSansPro-Regular" font-size="45.0" fill="#525252" transform="matrix(1.00, 0.00, -0.00, -1.00, 908.1, 197.0)">e</text><text xml:space="preserve" font-family="SourceSansPro-Regular" font-size="45.0" fill="#525252" transform="matrix(1.00, 0.00, -0.00, -1.00, 930.5, 197.0)">s</text><text xml:space="preserve" font-family="SourceSansPro-Regular" font-size="45.0" fill="#525252" transform="matrix(1.00, 0.00, -0.00, -1.00, 949.3, 197.0)"> </text><text xml:space="preserve" font-family="SourceSansPro-Regular" font-size="45.0" fill="#525252" transform="matrix(1.00, 0.00, -0.00, -1.00, 958.4, 197.0)">a</text><text xml:space="preserve" font-family="SourceSansPro-Regular" font-size="45.0" fill="#525252" transform="matrix(1.00, 0.00, -0.00, -1.00, 981.5, 197.0)">l</text><text xml:space="preserve" font-family="SourceSansPro-Regular" font-size="45.0" fill="#525252" transform="matrix(1.00, 0.00, -0.00, -1.00, 992.9, 197.0)">o</text><text xml:space="preserve" font-family="SourceSansPro-Regular" font-size="45.0" fill="#525252" transform="matrix(1.00, 0.00, -0.00, -1.00, 1017.3, 197.0)">n</text><text xml:space="preserve" font-family="SourceSansPro-Regular" font-size="45.0" fill="#525252" transform="matrix(1.00, 0.00, -0.00, -1.00, 1041.9, 197.0)">g</text><text xml:space="preserve" font-family="SourceSansPro-Regular" font-size="45.0" fill="#525252" transform="matrix(1.00, 0.00, -0.00, -1.00, 1064.6, 197.0)"> </text><text xml:space="preserve" font-family="SourceSansPro-Regular" font-size="45.0" fill="#525252" transform="matrix(1.00, 0.00, -0.00, -1.00, 1073.7, 197.0)">t</text><text xml:space="preserve" font-family="SourceSansPro-Regular" font-size="45.0" fill="#525252" transform="matrix(1.00, 0.00, -0.00, -1.00, 1088.9, 197.0)">h</text><text xml:space="preserve" font-family="SourceSansPro-Regular" font-size="45.0" fill="#525252" transform="matrix(1.00, 0.00, -0.00, -1.00, 1113.4, 197.0)">e</text><text xml:space="preserve" font-family="SourceSansPro-Regular" font-size="45.0" fill="#525252" transform="matrix(1.00, 0.00, -0.00, -1.00, 1135.7, 197.0)"> </text><text xml:space="preserve" font-family="SourceSansPro-Regular" font-size="45.0" fill="#525252" transform="matrix(1.00, 0.00, -0.00, -1.00, 1144.8, 197.0)">w</text><text xml:space="preserve" font-family="SourceSansPro-Regular" font-size="45.0" fill="#525252" transform="matrix(1.00, 0.00, -0.00, -1.00, 1176.7, 197.0)">a</text><text xml:space="preserve" font-family="SourceSansPro-Regular" font-size="45.0" fill="#525252" transform="matrix(1.00, 0.00, -0.00, -1.00, 1199.7, 197.0)">y</text><text xml:space="preserve" font-family="SourceSansPro-Regular" font-size="45.0" fill="#525252" transform="matrix(1.00, 0.00, -0.00, -1.00, 1220.7, 197.0)"> </text><text xml:space="preserve" font-family="SourceSansPro-Regular" font-size="45.0" fill="#525252" transform="matrix(1.00, 0.00, -0.00, -1.00, 1229.8, 197.0)">u</text><text xml:space="preserve" font-family="SourceSansPro-Regular" font-size="45.0" fill="#525252" transform="matrix(1.00, 0.00, -0.00, -1.00, 1254.3, 197.0)">p</text><text xml:space="preserve" font-family="SourceSansPro-Regular" font-size="45.0" fill="#525252" transform="matrix(1.00, 0.00, -0.00, -1.00, 1278.8, 197.0)">.</text><text xml:space="preserve" font-family="SourceSansPro-Regular" font-size="36.0" fill="#525252" transform="matrix(1.00, 0.00, -0.00, -1.00, 834.0, 17.0)">s</text><text xml:space="preserve" font-family="SourceSansPro-Regular" font-size="36.0" fill="#525252" transform="matrix(1.00, 0.00, -0.00, -1.00, 852.7, 17.0)">o</text><text xml:space="preserve" font-family="SourceSansPro-Regular" font-size="36.0" fill="#525252" transform="matrix(1.00, 0.00, -0.00, -1.00, 875.8, 17.0)">p</text><text xml:space="preserve" font-family="SourceSansPro-Regular" font-size="36.0" fill="#525252" transform="matrix(1.00, 0.00, -0.00, -1.00, 899.4, 17.0)">h</text><text xml:space="preserve" font-family="SourceSansPro-Regular" font-size="36.0" fill="#525252" transform="matrix(1.00, 0.00, -0.00, -1.00, 922.6, 17.0)">i</text><text xml:space="preserve" font-family="SourceSansPro-Regular" font-size="36.0" fill="#525252" transform="matrix(1.00, 0.00, -0.00, -1.00, 935.0, 17.0)">a</text><text xml:space="preserve" font-family="SourceSansPro-Regular" font-size="36.0" fill="#525252" transform="matrix(1.00, 0.00, -0.00, -1.00, 957.0, 17.0)">k</text><text xml:space="preserve" font-family="SourceSansPro-Regular" font-size="36.0" fill="#525252" transform="matrix(1.00, 0.00, -0.00, -1.00, 977.8, 17.0)">c</text><text xml:space="preserve" font-family="SourceSansPro-Regular" font-size="36.0" fill="#525252" transform="matrix(1.00, 0.00, -0.00, -1.00, 997.8, 17.0)">.</text><text xml:space="preserve" font-family="SourceSansPro-Regular" font-size="36.0" fill="#525252" transform="matrix(1.00, 0.00, -0.00, -1.00, 1010.1, 17.0)">c</text><text xml:space="preserve" font-family="SourceSansPro-Regular" font-size="36.0" fill="#525252" transform="matrix(1.00, 0.00, -0.00, -1.00, 1029.4, 17.0)">o</text><text xml:space="preserve" font-family="SourceSansPro-Regular" font-size="36.0" fill="#525252" transform="matrix(1.00, 0.00, -0.00, -1.00, 1052.5, 17.0)">m</text></g></svg>