<?xml version="1.0" encoding="UTF-8" standalone="no"?><svg xmlns="http://www.w3.org/2000/svg" xmlns:xlink="http://www.w3.org/1999/xlink" clip-rule="evenodd" stroke-miterlimit="4.00" viewBox="0 0 1920 1080"><desc>SVG generated by Keynote</desc><defs></defs><g transform="matrix(1.00, 0.00, -0.00, -1.00, 0.0, 1080.0)"><path d="M 0.0 1080.0 L 1920.0 1080.0 L 1920.0 0.0 L 0.0 0.0 Z M 0.0 1080.0 " fill="#FFFFFF"></path><text xml:space="preserve" font-family="SourceSansPro-Semibold" font-weight="bold" font-size="72.0" fill="#525252" transform="matrix(1.00, 0.00, -0.00, -1.00, 533.0, 613.0)">L</text><text xml:space="preserve" font-family="SourceSansPro-Semibold" font-weight="bold" font-size="72.0" fill="#525252" transform="matrix(1.00, 0.00, -0.00, -1.00, 568.2, 613.0)">o</text><text xml:space="preserve" font-family="SourceSansPro-Semibold" font-weight="bold" font-size="72.0" fill="#525252" transform="matrix(1.00, 0.00, -0.00, -1.00, 607.7, 613.0)">o</text><text xml:space="preserve" font-family="SourceSansPro-Semibold" font-weight="bold" font-size="72.0" fill="#525252" transform="matrix(1.00, 0.00, -0.00, -1.00, 647.3, 613.0)">k</text><text xml:space="preserve" font-family="SourceSansPro-Semibold" font-weight="bold" font-size="72.0" fill="#525252" transform="matrix(1.00, 0.00, -0.00, -1.00, 684.8, 613.0)">i</text><text xml:space="preserve" font-family="SourceSansPro-Semibold" font-weight="bold" font-size="72.0" fill="#525252" transform="matrix(1.00, 0.00, -0.00, -1.00, 703.7, 613.0)">n</text><text xml:space="preserve" font-family="SourceSansPro-Semibold" font-weight="bold" font-size="72.0" fill="#525252" transform="matrix(1.00, 0.00, -0.00, -1.00, 744.0, 613.0)">g</text><text xml:space="preserve" font-family="SourceSansPro-Semibold" font-weight="bold" font-size="72.0" fill="#525252" transform="matrix(1.00, 0.00, -0.00, -1.00, 781.5, 613.0)"> </text><text xml:space="preserve" font-family="SourceSansPro-Semibold" font-weight="bold" font-size="72.0" fill="#525252" transform="matrix(1.00, 0.00, -0.00, -1.00, 796.2, 613.0)">f</text><text xml:space="preserve" font-family="SourceSansPro-Semibold" font-weight="bold" font-size="72.0" fill="#525252" transform="matrix(1.00, 0.00, -0.00, -1.00, 818.3, 613.0)">o</text><text xml:space="preserve" font-family="SourceSansPro-Semibold" font-weight="bold" font-size="72.0" fill="#525252" transform="matrix(1.00, 0.00, -0.00, -1.00, 857.9, 613.0)">r</text><text xml:space="preserve" font-family="SourceSansPro-Semibold" font-weight="bold" font-size="72.0" fill="#525252" transform="matrix(1.00, 0.00, -0.00, -1.00, 885.3, 613.0)">w</text><text xml:space="preserve" font-family="SourceSansPro-Semibold" font-weight="bold" font-size="72.0" fill="#525252" transform="matrix(1.00, 0.00, -0.00, -1.00, 938.4, 613.0)">a</text><text xml:space="preserve" font-family="SourceSansPro-Semibold" font-weight="bold" font-size="72.0" fill="#525252" transform="matrix(1.00, 0.00, -0.00, -1.00, 976.1, 613.0)">r</text><text xml:space="preserve" font-family="SourceSansPro-Semibold" font-weight="bold" font-size="72.0" fill="#525252" transform="matrix(1.00, 0.00, -0.00, -1.00, 1002.2, 613.0)">d</text><text xml:space="preserve" font-family="SourceSansPro-Semibold" font-weight="bold" font-size="72.0" fill="#525252" transform="matrix(1.00, 0.00, -0.00, -1.00, 1042.8, 613.0)"> </text><text xml:space="preserve" font-family="SourceSansPro-Semibold" font-weight="bold" font-size="72.0" fill="#525252" transform="matrix(1.00, 0.00, -0.00, -1.00, 1057.6, 613.0)">t</text><text xml:space="preserve" font-family="SourceSansPro-Semibold" font-weight="bold" font-size="72.0" fill="#525252" transform="matrix(1.00, 0.00, -0.00, -1.00, 1082.9, 613.0)">o</text><text xml:space="preserve" font-family="SourceSansPro-Semibold" font-weight="bold" font-size="72.0" fill="#525252" transform="matrix(1.00, 0.00, -0.00, -1.00, 1122.4, 613.0)"> </text><text xml:space="preserve" font-family="SourceSansPro-Semibold" font-weight="bold" font-size="72.0" fill="#525252" transform="matrix(1.00, 0.00, -0.00, -1.00, 1137.2, 613.0)">t</text><text xml:space="preserve" font-family="SourceSansPro-Semibold" font-weight="bold" font-size="72.0" fill="#525252" transform="matrix(1.00, 0.00, -0.00, -1.00, 1162.1, 613.0)">a</text><text xml:space="preserve" font-family="SourceSansPro-Semibold" font-weight="bold" font-size="72.0" fill="#525252" transform="matrix(1.00, 0.00, -0.00, -1.00, 1199.7, 613.0)">c</text><text xml:space="preserve" font-family="SourceSansPro-Semibold" font-weight="bold" font-size="72.0" fill="#525252" transform="matrix(1.00, 0.00, -0.00, -1.00, 1233.0, 613.0)">k</text><text xml:space="preserve" font-family="SourceSansPro-Semibold" font-weight="bold" font-size="72.0" fill="#525252" transform="matrix(1.00, 0.00, -0.00, -1.00, 1270.6, 613.0)">l</text><text xml:space="preserve" font-family="SourceSansPro-Semibold" font-weight="bold" font-size="72.0" fill="#525252" transform="matrix(1.00, 0.00, -0.00, -1.00, 1290.1, 613.0)">i</text><text xml:space="preserve" font-family="SourceSansPro-Semibold" font-weight="bold" font-size="72.0" fill="#525252" transform="matrix(1.00, 0.00, -0.00, -1.00, 1308.9, 613.0)">n</text><text xml:space="preserve" font-family="SourceSansPro-Semibold" font-weight="bold" font-size="72.0" fill="#525252" transform="matrix(1.00, 0.00, -0.00, -1.00, 1349.3, 613.0)">g</text><text xml:space="preserve" font-family="SourceSansPro-Semibold" font-weight="bold" font-size="72.0" fill="#525252" transform="matrix(1.00, 0.00, -0.00, -1.00, 1386.7, 613.0)"> </text><text xml:space="preserve" font-family="SourceSansPro-Semibold" font-weight="bold" font-size="72.0" fill="#525252" transform="matrix(1.00, 0.00, -0.00, -1.00, 1401.5, 613.0)"> </text><text xml:space="preserve" font-family="SourceSansPro-Semibold" font-weight="bold" font-size="72.0" fill="#525252" transform="matrix(1.00, 0.00, -0.00, -1.00, 506.0, 522.0)">y</text><text xml:space="preserve" font-family="SourceSansPro-Semibold" font-weight="bold" font-size="72.0" fill="#525252" transform="matrix(1.00, 0.00, -0.00, -1.00, 541.2, 522.0)">o</text><text xml:space="preserve" font-family="SourceSansPro-Semibold" font-weight="bold" font-size="72.0" fill="#525252" transform="matrix(1.00, 0.00, -0.00, -1.00, 580.7, 522.0)">u</text><text xml:space="preserve" font-family="SourceSansPro-Semibold" font-weight="bold" font-size="72.0" fill="#525252" transform="matrix(1.00, 0.00, -0.00, -1.00, 620.8, 522.0)">r</text><text xml:space="preserve" font-family="SourceSansPro-Semibold" font-weight="bold" font-size="72.0" fill="#525252" transform="matrix(1.00, 0.00, -0.00, -1.00, 647.6, 522.0)"> </text><text xml:space="preserve" font-family="SourceSansPro-Semibold" font-weight="bold" font-size="72.0" fill="#525252" transform="matrix(1.00, 0.00, -0.00, -1.00, 662.4, 522.0)">u</text><text xml:space="preserve" font-family="SourceSansPro-Semibold" font-weight="bold" font-size="72.0" fill="#525252" transform="matrix(1.00, 0.00, -0.00, -1.00, 702.4, 522.0)">s</text><text xml:space="preserve" font-family="SourceSansPro-Semibold" font-weight="bold" font-size="72.0" fill="#525252" transform="matrix(1.00, 0.00, -0.00, -1.00, 733.4, 522.0)">e</text><text xml:space="preserve" font-family="SourceSansPro-Semibold" font-weight="bold" font-size="72.0" fill="#525252" transform="matrix(1.00, 0.00, -0.00, -1.00, 770.0, 522.0)">r</text><text xml:space="preserve" font-family="SourceSansPro-Semibold" font-weight="bold" font-size="72.0" fill="#525252" transform="matrix(1.00, 0.00, -0.00, -1.00, 795.9, 522.0)">’</text><text xml:space="preserve" font-family="SourceSansPro-Semibold" font-weight="bold" font-size="72.0" fill="#525252" transform="matrix(1.00, 0.00, -0.00, -1.00, 812.7, 522.0)">s</text><text xml:space="preserve" font-family="SourceSansPro-Semibold" font-weight="bold" font-size="72.0" fill="#525252" transform="matrix(1.00, 0.00, -0.00, -1.00, 843.8, 522.0)"> </text><text xml:space="preserve" font-family="SourceSansPro-Semibold" font-weight="bold" font-size="72.0" fill="#525252" transform="matrix(1.00, 0.00, -0.00, -1.00, 858.5, 522.0)">d</text><text xml:space="preserve" font-family="SourceSansPro-Semibold" font-weight="bold" font-size="72.0" fill="#525252" transform="matrix(1.00, 0.00, -0.00, -1.00, 899.1, 522.0)">i</text><text xml:space="preserve" font-family="SourceSansPro-Semibold" font-weight="bold" font-size="72.0" fill="#525252" transform="matrix(1.00, 0.00, -0.00, -1.00, 918.0, 522.0)">l</text><text xml:space="preserve" font-family="SourceSansPro-Semibold" font-weight="bold" font-size="72.0" fill="#525252" transform="matrix(1.00, 0.00, -0.00, -1.00, 937.5, 522.0)">e</text><text xml:space="preserve" font-family="SourceSansPro-Semibold" font-weight="bold" font-size="72.0" fill="#525252" transform="matrix(1.00, 0.00, -0.00, -1.00, 974.0, 522.0)">m</text><text xml:space="preserve" font-family="SourceSansPro-Semibold" font-weight="bold" font-size="72.0" fill="#525252" transform="matrix(1.00, 0.00, -0.00, -1.00, 1034.7, 522.0)">m</text><text xml:space="preserve" font-family="SourceSansPro-Semibold" font-weight="bold" font-size="72.0" fill="#525252" transform="matrix(1.00, 0.00, -0.00, -1.00, 1095.4, 522.0)">a</text><text xml:space="preserve" font-family="SourceSansPro-Semibold" font-weight="bold" font-size="72.0" fill="#525252" transform="matrix(1.00, 0.00, -0.00, -1.00, 1133.0, 522.0)"> </text><text xml:space="preserve" font-family="SourceSansPro-Semibold" font-weight="bold" font-size="72.0" fill="#525252" transform="matrix(1.00, 0.00, -0.00, -1.00, 1147.8, 522.0)">t</text><text xml:space="preserve" font-family="SourceSansPro-Semibold" font-weight="bold" font-size="72.0" fill="#525252" transform="matrix(1.00, 0.00, -0.00, -1.00, 1173.1, 522.0)">o</text><text xml:space="preserve" font-family="SourceSansPro-Semibold" font-weight="bold" font-size="72.0" fill="#525252" transform="matrix(1.00, 0.00, -0.00, -1.00, 1212.6, 522.0)">g</text><text xml:space="preserve" font-family="SourceSansPro-Semibold" font-weight="bold" font-size="72.0" fill="#525252" transform="matrix(1.00, 0.00, -0.00, -1.00, 1248.9, 522.0)">e</text><text xml:space="preserve" font-family="SourceSansPro-Semibold" font-weight="bold" font-size="72.0" fill="#525252" transform="matrix(1.00, 0.00, -0.00, -1.00, 1284.2, 522.0)">t</text><text xml:space="preserve" font-family="SourceSansPro-Semibold" font-weight="bold" font-size="72.0" fill="#525252" transform="matrix(1.00, 0.00, -0.00, -1.00, 1310.2, 522.0)">h</text><text xml:space="preserve" font-family="SourceSansPro-Semibold" font-weight="bold" font-size="72.0" fill="#525252" transform="matrix(1.00, 0.00, -0.00, -1.00, 1350.4, 522.0)">e</text><text xml:space="preserve" font-family="SourceSansPro-Semibold" font-weight="bold" font-size="72.0" fill="#525252" transform="matrix(1.00, 0.00, -0.00, -1.00, 1386.9, 522.0)">r</text><text xml:space="preserve" font-family="SourceSansPro-Regular" font-size="36.0" fill="#525252" transform="matrix(1.00, 0.00, -0.00, -1.00, 673.0, 196.0)">+</text><text xml:space="preserve" font-family="SourceSansPro-Regular" font-size="36.0" fill="#525252" transform="matrix(1.00, 0.00, -0.00, -1.00, 694.5, 196.0)">1</text><text xml:space="preserve" font-family="SourceSansPro-Regular" font-size="36.0" fill="#525252" transform="matrix(1.00, 0.00, -0.00, -1.00, 716.0, 196.0)"> </text><text xml:space="preserve" font-family="SourceSansPro-Regular" font-size="36.0" fill="#525252" transform="matrix(1.00, 0.00, -0.00, -1.00, 726.9, 196.0)">4</text><text xml:space="preserve" font-family="SourceSansPro-Regular" font-size="36.0" fill="#525252" transform="matrix(1.00, 0.00, -0.00, -1.00, 748.3, 196.0)">1</text><text xml:space="preserve" font-family="SourceSansPro-Regular" font-size="36.0" fill="#525252" transform="matrix(1.00, 0.00, -0.00, -1.00, 769.8, 196.0)">5</text><text xml:space="preserve" font-family="SourceSansPro-Regular" font-size="36.0" fill="#525252" transform="matrix(1.00, 0.00, -0.00, -1.00, 791.3, 196.0)"> </text><text xml:space="preserve" font-family="SourceSansPro-Regular" font-size="36.0" fill="#525252" transform="matrix(1.00, 0.00, -0.00, -1.00, 802.2, 196.0)">9</text><text xml:space="preserve" font-family="SourceSansPro-Regular" font-size="36.0" fill="#525252" transform="matrix(1.00, 0.00, -0.00, -1.00, 823.7, 196.0)">6</text><text xml:space="preserve" font-family="SourceSansPro-Regular" font-size="36.0" fill="#525252" transform="matrix(1.00, 0.00, -0.00, -1.00, 845.2, 196.0)">4</text><text xml:space="preserve" font-family="SourceSansPro-Regular" font-size="36.0" fill="#525252" transform="matrix(1.00, 0.00, -0.00, -1.00, 866.7, 196.0)"> </text><text xml:space="preserve" font-family="SourceSansPro-Regular" font-size="36.0" fill="#525252" transform="matrix(1.00, 0.00, -0.00, -1.00, 877.6, 196.0)">1</text><text xml:space="preserve" font-family="SourceSansPro-Regular" font-size="36.0" fill="#525252" transform="matrix(1.00, 0.00, -0.00, -1.00, 899.0, 196.0)">7</text><text xml:space="preserve" font-family="SourceSansPro-Regular" font-size="36.0" fill="#525252" transform="matrix(1.00, 0.00, -0.00, -1.00, 920.5, 196.0)">8</text><text xml:space="preserve" font-family="SourceSansPro-Regular" font-size="36.0" fill="#525252" transform="matrix(1.00, 0.00, -0.00, -1.00, 942.0, 196.0)">5</text><text xml:space="preserve" font-family="SourceSansPro-Regular" font-size="36.0" fill="#525252" transform="matrix(1.00, 0.00, -0.00, -1.00, 963.5, 196.0)"> </text><text xml:space="preserve" font-family="SourceSansPro-Regular" font-size="36.0" fill="#525252" transform="matrix(1.00, 0.00, -0.00, -1.00, 974.4, 196.0)">|</text><text xml:space="preserve" font-family="SourceSansPro-Regular" font-size="36.0" fill="#525252" transform="matrix(1.00, 0.00, -0.00, -1.00, 986.7, 196.0)"> </text><text xml:space="preserve" font-family="SourceSansPro-Regular" font-size="36.0" fill="#525252" transform="matrix(1.00, 0.00, -0.00, -1.00, 997.5, 196.0)">S</text><text xml:space="preserve" font-family="SourceSansPro-Regular" font-size="36.0" fill="#525252" transform="matrix(1.00, 0.00, -0.00, -1.00, 1020.4, 196.0)">a</text><text xml:space="preserve" font-family="SourceSansPro-Regular" font-size="36.0" fill="#525252" transform="matrix(1.00, 0.00, -0.00, -1.00, 1042.4, 196.0)">n</text><text xml:space="preserve" font-family="SourceSansPro-Regular" font-size="36.0" fill="#525252" transform="matrix(1.00, 0.00, -0.00, -1.00, 1065.7, 196.0)"> </text><text xml:space="preserve" font-family="SourceSansPro-Regular" font-size="36.0" fill="#525252" transform="matrix(1.00, 0.00, -0.00, -1.00, 1076.6, 196.0)">F</text><text xml:space="preserve" font-family="SourceSansPro-Regular" font-size="36.0" fill="#525252" transform="matrix(1.00, 0.00, -0.00, -1.00, 1097.2, 196.0)">r</text><text xml:space="preserve" font-family="SourceSansPro-Regular" font-size="36.0" fill="#525252" transform="matrix(1.00, 0.00, -0.00, -1.00, 1112.4, 196.0)">a</text><text xml:space="preserve" font-family="SourceSansPro-Regular" font-size="36.0" fill="#525252" transform="matrix(1.00, 0.00, -0.00, -1.00, 1134.4, 196.0)">n</text><text xml:space="preserve" font-family="SourceSansPro-Regular" font-size="36.0" fill="#525252" transform="matrix(1.00, 0.00, -0.00, -1.00, 1157.7, 196.0)">c</text><text xml:space="preserve" font-family="SourceSansPro-Regular" font-size="36.0" fill="#525252" transform="matrix(1.00, 0.00, -0.00, -1.00, 1177.8, 196.0)">i</text><text xml:space="preserve" font-family="SourceSansPro-Regular" font-size="36.0" fill="#525252" transform="matrix(1.00, 0.00, -0.00, -1.00, 1190.2, 196.0)">s</text><text xml:space="preserve" font-family="SourceSansPro-Regular" font-size="36.0" fill="#525252" transform="matrix(1.00, 0.00, -0.00, -1.00, 1208.9, 196.0)">c</text><text xml:space="preserve" font-family="SourceSansPro-Regular" font-size="36.0" fill="#525252" transform="matrix(1.00, 0.00, -0.00, -1.00, 1228.2, 196.0)">o</text><text xml:space="preserve" font-family="SourceSansPro-Regular" font-size="36.0" fill="#525252" transform="matrix(1.00, 0.00, -0.00, -1.00, 1251.3, 196.0)"> </text><text xml:space="preserve" font-family="SourceSansPro-Regular" font-size="36.0" fill="#525252" transform="matrix(1.00, 0.00, -0.00, -1.00, 768.0, 106.0)">s</text><text xml:space="preserve" font-family="SourceSansPro-Regular" font-size="36.0" fill="#525252" transform="matrix(1.00, 0.00, -0.00, -1.00, 786.7, 106.0)">o</text><text xml:space="preserve" font-family="SourceSansPro-Regular" font-size="36.0" fill="#525252" transform="matrix(1.00, 0.00, -0.00, -1.00, 809.8, 106.0)">p</text><text xml:space="preserve" font-family="SourceSansPro-Regular" font-size="36.0" fill="#525252" transform="matrix(1.00, 0.00, -0.00, -1.00, 833.4, 106.0)">h</text><text xml:space="preserve" font-family="SourceSansPro-Regular" font-size="36.0" fill="#525252" transform="matrix(1.00, 0.00, -0.00, -1.00, 856.6, 106.0)">i</text><text xml:space="preserve" font-family="SourceSansPro-Regular" font-size="36.0" fill="#525252" transform="matrix(1.00, 0.00, -0.00, -1.00, 869.0, 106.0)">a</text><text xml:space="preserve" font-family="SourceSansPro-Regular" font-size="36.0" fill="#525252" transform="matrix(1.00, 0.00, -0.00, -1.00, 891.0, 106.0)">k</text><text xml:space="preserve" font-family="SourceSansPro-Regular" font-size="36.0" fill="#525252" transform="matrix(1.00, 0.00, -0.00, -1.00, 911.8, 106.0)">c</text><text xml:space="preserve" font-family="SourceSansPro-Regular" font-size="36.0" fill="#525252" transform="matrix(1.00, 0.00, -0.00, -1.00, 931.8, 106.0)">@</text><text xml:space="preserve" font-family="SourceSansPro-Regular" font-size="36.0" fill="#525252" transform="matrix(1.00, 0.00, -0.00, -1.00, 965.9, 106.0)">g</text><text xml:space="preserve" font-family="SourceSansPro-Regular" font-size="36.0" fill="#525252" transform="matrix(1.00, 0.00, -0.00, -1.00, 987.7, 106.0)">m</text><text xml:space="preserve" font-family="SourceSansPro-Regular" font-size="36.0" fill="#525252" transform="matrix(1.00, 0.00, -0.00, -1.00, 1021.1, 106.0)">a</text><text xml:space="preserve" font-family="SourceSansPro-Regular" font-size="36.0" fill="#525252" transform="matrix(1.00, 0.00, -0.00, -1.00, 1043.1, 106.0)">i</text><text xml:space="preserve" font-family="SourceSansPro-Regular" font-size="36.0" fill="#525252" transform="matrix(1.00, 0.00, -0.00, -1.00, 1055.6, 106.0)">l</text><text xml:space="preserve" font-family="SourceSansPro-Regular" font-size="36.0" fill="#525252" transform="matrix(1.00, 0.00, -0.00, -1.00, 1068.4, 106.0)">.</text><text xml:space="preserve" font-family="SourceSansPro-Regular" font-size="36.0" fill="#525252" transform="matrix(1.00, 0.00, -0.00, -1.00, 1080.7, 106.0)">c</text><text xml:space="preserve" font-family="SourceSansPro-Regular" font-size="36.0" fill="#525252" transform="matrix(1.00, 0.00, -0.00, -1.00, 1099.9, 106.0)">o</text><text xml:space="preserve" font-family="SourceSansPro-Regular" font-size="36.0" fill="#525252" transform="matrix(1.00, 0.00, -0.00, -1.00, 1123.0, 106.0)">m</text><text xml:space="preserve" font-family="SourceSansPro-Regular" font-size="36.0" fill="#525252" transform="matrix(1.00, 0.00, -0.00, -1.00, 834.0, 17.0)">s</text><text xml:space="preserve" font-family="SourceSansPro-Regular" font-size="36.0" fill="#525252" transform="matrix(1.00, 0.00, -0.00, -1.00, 852.7, 17.0)">o</text><text xml:space="preserve" font-family="SourceSansPro-Regular" font-size="36.0" fill="#525252" transform="matrix(1.00, 0.00, -0.00, -1.00, 875.8, 17.0)">p</text><text xml:space="preserve" font-family="SourceSansPro-Regular" font-size="36.0" fill="#525252" transform="matrix(1.00, 0.00, -0.00, -1.00, 899.4, 17.0)">h</text><text xml:space="preserve" font-family="SourceSansPro-Regular" font-size="36.0" fill="#525252" transform="matrix(1.00, 0.00, -0.00, -1.00, 922.6, 17.0)">i</text><text xml:space="preserve" font-family="SourceSansPro-Regular" font-size="36.0" fill="#525252" transform="matrix(1.00, 0.00, -0.00, -1.00, 935.0, 17.0)">a</text><text xml:space="preserve" font-family="SourceSansPro-Regular" font-size="36.0" fill="#525252" transform="matrix(1.00, 0.00, -0.00, -1.00, 957.0, 17.0)">k</text><text xml:space="preserve" font-family="SourceSansPro-Regular" font-size="36.0" fill="#525252" transform="matrix(1.00, 0.00, -0.00, -1.00, 977.8, 17.0)">c</text><text xml:space="preserve" font-family="SourceSansPro-Regular" font-size="36.0" fill="#525252" transform="matrix(1.00, 0.00, -0.00, -1.00, 997.8, 17.0)">.</text><text xml:space="preserve" font-family="SourceSansPro-Regular" font-size="36.0" fill="#525252" transform="matrix(1.00, 0.00, -0.00, -1.00, 1010.1, 17.0)">c</text><text xml:space="preserve" font-family="SourceSansPro-Regular" font-size="36.0" fill="#525252" transform="matrix(1.00, 0.00, -0.00, -1.00, 1029.4, 17.0)">o</text><text xml:space="preserve" font-family="SourceSansPro-Regular" font-size="36.0" fill="#525252" transform="matrix(1.00, 0.00, -0.00, -1.00, 1052.5, 17.0)">m</text><image xlink:href="5981BD3FE8ABEA7C3F45DEFD92F332BD.png" width="94.00" height="91.00" transform="matrix(1.00, 0.00, -0.00, -1.00, 1441.0, 585.0)"></image></g></svg>