<?xml version="1.0" encoding="UTF-8" standalone="no"?><svg xmlns="http://www.w3.org/2000/svg" xmlns:xlink="http://www.w3.org/1999/xlink" clip-rule="evenodd" stroke-miterlimit="4.00" viewBox="0 0 1920 1080"><desc>SVG generated by Keynote</desc><defs></defs><g transform="matrix(1.00, 0.00, -0.00, -1.00, 0.0, 1080.0)"><path d="M 0.0 1080.0 L 1920.0 1080.0 L 1920.0 0.0 L 0.0 0.0 Z M 0.0 1080.0 " fill="#FFFFFF"></path><g><clipPath id="clip-284"><path d="M 342.7 538.4 L 683.4 538.4 L 683.4 765.5 L 342.7 765.5 Z M 342.7 538.4 "></path></clipPath><g clip-path="url(#clip-284)"><text xml:space="preserve" font-family="PermanentMarker" font-size="45.0" fill="#525252" transform="matrix(1.00, 0.00, -0.00, -1.00, 359.0, 700.0)">W</text><text xml:space="preserve" font-family="PermanentMarker" font-size="45.0" fill="#525252" transform="matrix(1.00, 0.00, -0.00, -1.00, 403.7, 700.0)">H</text><text xml:space="preserve" font-family="PermanentMarker" font-size="45.0" fill="#525252" transform="matrix(1.00, 0.00, -0.00, -1.00, 435.0, 700.0)">E</text><text xml:space="preserve" font-family="PermanentMarker" font-size="45.0" fill="#525252" transform="matrix(1.00, 0.00, -0.00, -1.00, 463.3, 700.0)">N</text><text xml:space="preserve" font-family="PermanentMarker" font-size="45.0" fill="#525252" transform="matrix(1.00, 0.00, -0.00, -1.00, 494.0, 700.0)"> </text><text xml:space="preserve" font-family="PermanentMarker" font-size="45.0" fill="#525252" transform="matrix(1.00, 0.00, -0.00, -1.00, 510.7, 700.0)">I</text><text xml:space="preserve" font-family="PermanentMarker" font-size="45.0" fill="#525252" transform="matrix(1.00, 0.00, -0.00, -1.00, 533.9, 700.0)"> </text><text xml:space="preserve" font-family="PermanentMarker" font-size="45.0" fill="#525252" transform="matrix(1.00, 0.00, -0.00, -1.00, 550.5, 700.0)"> </text><text xml:space="preserve" font-family="PermanentMarker" font-size="45.0" fill="#525252" transform="matrix(1.00, 0.00, -0.00, -1.00, 359.0, 635.0)">h</text><text xml:space="preserve" font-family="PermanentMarker" font-size="45.0" fill="#525252" transform="matrix(1.00, 0.00, -0.00, -1.00, 385.2, 635.0)">a</text><text xml:space="preserve" font-family="PermanentMarker" font-size="45.0" fill="#525252" transform="matrix(1.00, 0.00, -0.00, -1.00, 409.5, 635.0)">v</text><text xml:space="preserve" font-family="PermanentMarker" font-size="45.0" fill="#525252" transform="matrix(1.00, 0.00, -0.00, -1.00, 431.4, 635.0)">e</text><text xml:space="preserve" font-family="PermanentMarker" font-size="45.0" fill="#525252" transform="matrix(1.00, 0.00, -0.00, -1.00, 454.9, 635.0)"> </text><text xml:space="preserve" font-family="PermanentMarker" font-size="45.0" fill="#525252" transform="matrix(1.00, 0.00, -0.00, -1.00, 471.5, 635.0)">a</text><text xml:space="preserve" font-family="PermanentMarker" font-size="45.0" fill="#525252" transform="matrix(1.00, 0.00, -0.00, -1.00, 497.7, 635.0)"> </text><text xml:space="preserve" font-family="PermanentMarker" font-size="45.0" fill="#525252" transform="matrix(1.00, 0.00, -0.00, -1.00, 359.0, 570.0)">m</text><text xml:space="preserve" font-family="PermanentMarker" font-size="45.0" fill="#525252" transform="matrix(1.00, 0.00, -0.00, -1.00, 395.7, 570.0)">e</text><text xml:space="preserve" font-family="PermanentMarker" font-size="45.0" fill="#525252" transform="matrix(1.00, 0.00, -0.00, -1.00, 419.2, 570.0)">e</text><text xml:space="preserve" font-family="PermanentMarker" font-size="45.0" fill="#525252" transform="matrix(1.00, 0.00, -0.00, -1.00, 442.7, 570.0)">t</text><text xml:space="preserve" font-family="PermanentMarker" font-size="45.0" fill="#525252" transform="matrix(1.00, 0.00, -0.00, -1.00, 464.3, 570.0)">i</text><text xml:space="preserve" font-family="PermanentMarker" font-size="45.0" fill="#525252" transform="matrix(1.00, 0.00, -0.00, -1.00, 478.7, 570.0)">n</text><text xml:space="preserve" font-family="PermanentMarker" font-size="45.0" fill="#525252" transform="matrix(1.00, 0.00, -0.00, -1.00, 504.1, 570.0)">g</text><text xml:space="preserve" font-family="PermanentMarker" font-size="45.0" fill="#525252" transform="matrix(1.00, 0.00, -0.00, -1.00, 533.3, 570.0)">,</text></g></g><g><clipPath id="clip-285"><path d="M 1178.0 538.4 L 1847.9 538.4 L 1847.9 765.5 L 1178.0 765.5 Z M 1178.0 538.4 "></path></clipPath><g clip-path="url(#clip-285)"><text xml:space="preserve" font-family="PermanentMarker" font-size="45.0" fill="#525252" transform="matrix(1.00, 0.00, -0.00, -1.00, 1194.0, 700.0)">S</text><text xml:space="preserve" font-family="PermanentMarker" font-size="45.0" fill="#525252" transform="matrix(1.00, 0.00, -0.00, -1.00, 1219.1, 700.0)">O</text><text xml:space="preserve" font-family="PermanentMarker" font-size="45.0" fill="#525252" transform="matrix(1.00, 0.00, -0.00, -1.00, 1252.6, 700.0)"> </text><text xml:space="preserve" font-family="PermanentMarker" font-size="45.0" fill="#525252" transform="matrix(1.00, 0.00, -0.00, -1.00, 1269.3, 700.0)">I</text><text xml:space="preserve" font-family="PermanentMarker" font-size="45.0" fill="#525252" transform="matrix(1.00, 0.00, -0.00, -1.00, 1292.4, 700.0)"> </text><text xml:space="preserve" font-family="PermanentMarker" font-size="45.0" fill="#525252" transform="matrix(1.00, 0.00, -0.00, -1.00, 1309.1, 700.0)">C</text><text xml:space="preserve" font-family="PermanentMarker" font-size="45.0" fill="#525252" transform="matrix(1.00, 0.00, -0.00, -1.00, 1336.7, 700.0)">A</text><text xml:space="preserve" font-family="PermanentMarker" font-size="45.0" fill="#525252" transform="matrix(1.00, 0.00, -0.00, -1.00, 1368.3, 700.0)">N</text><text xml:space="preserve" font-family="PermanentMarker" font-size="45.0" fill="#525252" transform="matrix(1.00, 0.00, -0.00, -1.00, 1399.1, 700.0)"> </text><text xml:space="preserve" font-family="PermanentMarker" font-size="45.0" fill="#525252" transform="matrix(1.00, 0.00, -0.00, -1.00, 1415.7, 700.0)"> </text><text xml:space="preserve" font-family="PermanentMarker" font-size="45.0" fill="#525252" transform="matrix(1.00, 0.00, -0.00, -1.00, 1194.0, 635.0)">u</text><text xml:space="preserve" font-family="PermanentMarker" font-size="45.0" fill="#525252" transform="matrix(1.00, 0.00, -0.00, -1.00, 1220.3, 635.0)">n</text><text xml:space="preserve" font-family="PermanentMarker" font-size="45.0" fill="#525252" transform="matrix(1.00, 0.00, -0.00, -1.00, 1245.7, 635.0)">d</text><text xml:space="preserve" font-family="PermanentMarker" font-size="45.0" fill="#525252" transform="matrix(1.00, 0.00, -0.00, -1.00, 1267.7, 635.0)">e</text><text xml:space="preserve" font-family="PermanentMarker" font-size="45.0" fill="#525252" transform="matrix(1.00, 0.00, -0.00, -1.00, 1290.7, 635.0)">r</text><text xml:space="preserve" font-family="PermanentMarker" font-size="45.0" fill="#525252" transform="matrix(1.00, 0.00, -0.00, -1.00, 1315.1, 635.0)">s</text><text xml:space="preserve" font-family="PermanentMarker" font-size="45.0" fill="#525252" transform="matrix(1.00, 0.00, -0.00, -1.00, 1335.9, 635.0)">t</text><text xml:space="preserve" font-family="PermanentMarker" font-size="45.0" fill="#525252" transform="matrix(1.00, 0.00, -0.00, -1.00, 1355.3, 635.0)">a</text><text xml:space="preserve" font-family="PermanentMarker" font-size="45.0" fill="#525252" transform="matrix(1.00, 0.00, -0.00, -1.00, 1381.5, 635.0)">n</text><text xml:space="preserve" font-family="PermanentMarker" font-size="45.0" fill="#525252" transform="matrix(1.00, 0.00, -0.00, -1.00, 1406.9, 635.0)">d</text><text xml:space="preserve" font-family="PermanentMarker" font-size="45.0" fill="#525252" transform="matrix(1.00, 0.00, -0.00, -1.00, 1429.2, 635.0)"> </text><text xml:space="preserve" font-family="PermanentMarker" font-size="45.0" fill="#525252" transform="matrix(1.00, 0.00, -0.00, -1.00, 1445.8, 635.0)"> </text><text xml:space="preserve" font-family="PermanentMarker" font-size="45.0" fill="#525252" transform="matrix(1.00, 0.00, -0.00, -1.00, 1194.0, 570.0)">t</text><text xml:space="preserve" font-family="PermanentMarker" font-size="45.0" fill="#525252" transform="matrix(1.00, 0.00, -0.00, -1.00, 1215.6, 570.0)">h</text><text xml:space="preserve" font-family="PermanentMarker" font-size="45.0" fill="#525252" transform="matrix(1.00, 0.00, -0.00, -1.00, 1241.8, 570.0)">e</text><text xml:space="preserve" font-family="PermanentMarker" font-size="45.0" fill="#525252" transform="matrix(1.00, 0.00, -0.00, -1.00, 1265.3, 570.0)"> </text><text xml:space="preserve" font-family="PermanentMarker" font-size="45.0" fill="#525252" transform="matrix(1.00, 0.00, -0.00, -1.00, 1281.9, 570.0)">c</text><text xml:space="preserve" font-family="PermanentMarker" font-size="45.0" fill="#525252" transform="matrix(1.00, 0.00, -0.00, -1.00, 1305.0, 570.0)">o</text><text xml:space="preserve" font-family="PermanentMarker" font-size="45.0" fill="#525252" transform="matrix(1.00, 0.00, -0.00, -1.00, 1333.3, 570.0)">n</text><text xml:space="preserve" font-family="PermanentMarker" font-size="45.0" fill="#525252" transform="matrix(1.00, 0.00, -0.00, -1.00, 1358.8, 570.0)">v</text><text xml:space="preserve" font-family="PermanentMarker" font-size="45.0" fill="#525252" transform="matrix(1.00, 0.00, -0.00, -1.00, 1380.6, 570.0)">e</text><text xml:space="preserve" font-family="PermanentMarker" font-size="45.0" fill="#525252" transform="matrix(1.00, 0.00, -0.00, -1.00, 1403.7, 570.0)">r</text><text xml:space="preserve" font-family="PermanentMarker" font-size="45.0" fill="#525252" transform="matrix(1.00, 0.00, -0.00, -1.00, 1428.0, 570.0)">s</text><text xml:space="preserve" font-family="PermanentMarker" font-size="45.0" fill="#525252" transform="matrix(1.00, 0.00, -0.00, -1.00, 1448.9, 570.0)">a</text><text xml:space="preserve" font-family="PermanentMarker" font-size="45.0" fill="#525252" transform="matrix(1.00, 0.00, -0.00, -1.00, 1472.8, 570.0)">t</text><text xml:space="preserve" font-family="PermanentMarker" font-size="45.0" fill="#525252" transform="matrix(1.00, 0.00, -0.00, -1.00, 1494.4, 570.0)">i</text><text xml:space="preserve" font-family="PermanentMarker" font-size="45.0" fill="#525252" transform="matrix(1.00, 0.00, -0.00, -1.00, 1507.9, 570.0)">o</text><text xml:space="preserve" font-family="PermanentMarker" font-size="45.0" fill="#525252" transform="matrix(1.00, 0.00, -0.00, -1.00, 1536.2, 570.0)">n</text><text xml:space="preserve" font-family="PermanentMarker" font-size="45.0" fill="#525252" transform="matrix(1.00, 0.00, -0.00, -1.00, 1561.5, 570.0)">.</text></g></g><g><clipPath id="clip-286"><path d="M 332.0 323.4 L 1588.0 323.4 L 1588.0 609.4 L 332.0 609.4 Z M 332.0 323.4 "></path></clipPath><g clip-path="url(#clip-286)"><image xlink:href="../../EEF65D9C-B61D-410E-9AEE-87DD7C5FEBA3/assets/7D3CD4B570B4BD64FB60B193D4F0133D.png" width="961.00" height="218.00" transform="matrix(1.31, 0.00, -0.00, -1.31, 332.0, 609.0)"></image></g></g><g><clipPath id="clip-287"><path d="M 722.7 538.4 L 1155.5 538.4 L 1155.5 765.5 L 722.7 765.5 Z M 722.7 538.4 "></path></clipPath><g clip-path="url(#clip-287)"><text xml:space="preserve" font-family="PermanentMarker" font-size="45.0" fill="#525252" transform="matrix(1.00, 0.00, -0.00, -1.00, 739.0, 700.0)">I</text><text xml:space="preserve" font-family="PermanentMarker" font-size="45.0" fill="#525252" transform="matrix(1.00, 0.00, -0.00, -1.00, 762.2, 700.0)"> </text><text xml:space="preserve" font-family="PermanentMarker" font-size="45.0" fill="#525252" transform="matrix(1.00, 0.00, -0.00, -1.00, 778.9, 700.0)">W</text><text xml:space="preserve" font-family="PermanentMarker" font-size="45.0" fill="#525252" transform="matrix(1.00, 0.00, -0.00, -1.00, 823.2, 700.0)">A</text><text xml:space="preserve" font-family="PermanentMarker" font-size="45.0" fill="#525252" transform="matrix(1.00, 0.00, -0.00, -1.00, 854.8, 700.0)">N</text><text xml:space="preserve" font-family="PermanentMarker" font-size="45.0" fill="#525252" transform="matrix(1.00, 0.00, -0.00, -1.00, 885.6, 700.0)">T</text><text xml:space="preserve" font-family="PermanentMarker" font-size="45.0" fill="#525252" transform="matrix(1.00, 0.00, -0.00, -1.00, 913.0, 700.0)"> </text><text xml:space="preserve" font-family="PermanentMarker" font-size="45.0" fill="#525252" transform="matrix(1.00, 0.00, -0.00, -1.00, 929.6, 700.0)">T</text><text xml:space="preserve" font-family="PermanentMarker" font-size="45.0" fill="#525252" transform="matrix(1.00, 0.00, -0.00, -1.00, 955.6, 700.0)">O</text><text xml:space="preserve" font-family="PermanentMarker" font-size="45.0" fill="#525252" transform="matrix(1.00, 0.00, -0.00, -1.00, 989.1, 700.0)"> </text><text xml:space="preserve" font-family="PermanentMarker" font-size="45.0" fill="#525252" transform="matrix(1.00, 0.00, -0.00, -1.00, 1005.8, 700.0)">R</text><text xml:space="preserve" font-family="PermanentMarker" font-size="45.0" fill="#525252" transform="matrix(1.00, 0.00, -0.00, -1.00, 1034.9, 700.0)">e</text><text xml:space="preserve" font-family="PermanentMarker" font-size="45.0" fill="#525252" transform="matrix(1.00, 0.00, -0.00, -1.00, 1058.4, 700.0)">a</text><text xml:space="preserve" font-family="PermanentMarker" font-size="45.0" fill="#525252" transform="matrix(1.00, 0.00, -0.00, -1.00, 1084.6, 700.0)">d</text><text xml:space="preserve" font-family="PermanentMarker" font-size="45.0" fill="#525252" transform="matrix(1.00, 0.00, -0.00, -1.00, 1107.0, 700.0)"> </text><text xml:space="preserve" font-family="PermanentMarker" font-size="45.0" fill="#525252" transform="matrix(1.00, 0.00, -0.00, -1.00, 739.0, 635.0)">w</text><text xml:space="preserve" font-family="PermanentMarker" font-size="45.0" fill="#525252" transform="matrix(1.00, 0.00, -0.00, -1.00, 776.1, 635.0)">h</text><text xml:space="preserve" font-family="PermanentMarker" font-size="45.0" fill="#525252" transform="matrix(1.00, 0.00, -0.00, -1.00, 802.3, 635.0)">a</text><text xml:space="preserve" font-family="PermanentMarker" font-size="45.0" fill="#525252" transform="matrix(1.00, 0.00, -0.00, -1.00, 826.2, 635.0)">t</text><text xml:space="preserve" font-family="PermanentMarker" font-size="45.0" fill="#525252" transform="matrix(1.00, 0.00, -0.00, -1.00, 847.8, 635.0)"> </text><text xml:space="preserve" font-family="PermanentMarker" font-size="45.0" fill="#525252" transform="matrix(1.00, 0.00, -0.00, -1.00, 864.5, 635.0)">p</text><text xml:space="preserve" font-family="PermanentMarker" font-size="45.0" fill="#525252" transform="matrix(1.00, 0.00, -0.00, -1.00, 888.1, 635.0)">e</text><text xml:space="preserve" font-family="PermanentMarker" font-size="45.0" fill="#525252" transform="matrix(1.00, 0.00, -0.00, -1.00, 911.2, 635.0)">o</text><text xml:space="preserve" font-family="PermanentMarker" font-size="45.0" fill="#525252" transform="matrix(1.00, 0.00, -0.00, -1.00, 938.6, 635.0)">p</text><text xml:space="preserve" font-family="PermanentMarker" font-size="45.0" fill="#525252" transform="matrix(1.00, 0.00, -0.00, -1.00, 962.2, 635.0)">l</text><text xml:space="preserve" font-family="PermanentMarker" font-size="45.0" fill="#525252" transform="matrix(1.00, 0.00, -0.00, -1.00, 986.2, 635.0)">e</text><text xml:space="preserve" font-family="PermanentMarker" font-size="45.0" fill="#525252" transform="matrix(1.00, 0.00, -0.00, -1.00, 1009.7, 635.0)"> </text><text xml:space="preserve" font-family="PermanentMarker" font-size="45.0" fill="#525252" transform="matrix(1.00, 0.00, -0.00, -1.00, 1026.2, 635.0)"> </text><text xml:space="preserve" font-family="PermanentMarker" font-size="45.0" fill="#525252" transform="matrix(1.00, 0.00, -0.00, -1.00, 739.0, 570.0)">a</text><text xml:space="preserve" font-family="PermanentMarker" font-size="45.0" fill="#525252" transform="matrix(1.00, 0.00, -0.00, -1.00, 765.2, 570.0)">r</text><text xml:space="preserve" font-family="PermanentMarker" font-size="45.0" fill="#525252" transform="matrix(1.00, 0.00, -0.00, -1.00, 789.5, 570.0)">e</text><text xml:space="preserve" font-family="PermanentMarker" font-size="45.0" fill="#525252" transform="matrix(1.00, 0.00, -0.00, -1.00, 813.0, 570.0)"> </text><text xml:space="preserve" font-family="PermanentMarker" font-size="45.0" fill="#525252" transform="matrix(1.00, 0.00, -0.00, -1.00, 829.6, 570.0)">s</text><text xml:space="preserve" font-family="PermanentMarker" font-size="45.0" fill="#525252" transform="matrix(1.00, 0.00, -0.00, -1.00, 850.5, 570.0)">a</text><text xml:space="preserve" font-family="PermanentMarker" font-size="45.0" fill="#525252" transform="matrix(1.00, 0.00, -0.00, -1.00, 875.3, 570.0)">y</text><text xml:space="preserve" font-family="PermanentMarker" font-size="45.0" fill="#525252" transform="matrix(1.00, 0.00, -0.00, -1.00, 893.3, 570.0)">i</text><text xml:space="preserve" font-family="PermanentMarker" font-size="45.0" fill="#525252" transform="matrix(1.00, 0.00, -0.00, -1.00, 907.8, 570.0)">n</text><text xml:space="preserve" font-family="PermanentMarker" font-size="45.0" fill="#525252" transform="matrix(1.00, 0.00, -0.00, -1.00, 933.2, 570.0)">g</text></g></g><text xml:space="preserve" font-family="SourceSansPro-Regular" font-size="36.0" fill="#525252" transform="matrix(1.00, 0.00, -0.00, -1.00, 834.0, 17.0)">s</text><text xml:space="preserve" font-family="SourceSansPro-Regular" font-size="36.0" fill="#525252" transform="matrix(1.00, 0.00, -0.00, -1.00, 852.7, 17.0)">o</text><text xml:space="preserve" font-family="SourceSansPro-Regular" font-size="36.0" fill="#525252" transform="matrix(1.00, 0.00, -0.00, -1.00, 875.8, 17.0)">p</text><text xml:space="preserve" font-family="SourceSansPro-Regular" font-size="36.0" fill="#525252" transform="matrix(1.00, 0.00, -0.00, -1.00, 899.4, 17.0)">h</text><text xml:space="preserve" font-family="SourceSansPro-Regular" font-size="36.0" fill="#525252" transform="matrix(1.00, 0.00, -0.00, -1.00, 922.6, 17.0)">i</text><text xml:space="preserve" font-family="SourceSansPro-Regular" font-size="36.0" fill="#525252" transform="matrix(1.00, 0.00, -0.00, -1.00, 935.0, 17.0)">a</text><text xml:space="preserve" font-family="SourceSansPro-Regular" font-size="36.0" fill="#525252" transform="matrix(1.00, 0.00, -0.00, -1.00, 957.0, 17.0)">k</text><text xml:space="preserve" font-family="SourceSansPro-Regular" font-size="36.0" fill="#525252" transform="matrix(1.00, 0.00, -0.00, -1.00, 977.8, 17.0)">c</text><text xml:space="preserve" font-family="SourceSansPro-Regular" font-size="36.0" fill="#525252" transform="matrix(1.00, 0.00, -0.00, -1.00, 997.8, 17.0)">.</text><text xml:space="preserve" font-family="SourceSansPro-Regular" font-size="36.0" fill="#525252" transform="matrix(1.00, 0.00, -0.00, -1.00, 1010.1, 17.0)">c</text><text xml:space="preserve" font-family="SourceSansPro-Regular" font-size="36.0" fill="#525252" transform="matrix(1.00, 0.00, -0.00, -1.00, 1029.4, 17.0)">o</text><text xml:space="preserve" font-family="SourceSansPro-Regular" font-size="36.0" fill="#525252" transform="matrix(1.00, 0.00, -0.00, -1.00, 1052.5, 17.0)">m</text></g></svg>