<?xml version="1.0" encoding="UTF-8" standalone="no"?><svg xmlns="http://www.w3.org/2000/svg" xmlns:xlink="http://www.w3.org/1999/xlink" clip-rule="evenodd" stroke-miterlimit="4.00" viewBox="0 0 1920 1080"><desc>SVG generated by Keynote</desc><defs></defs><g transform="matrix(1.00, 0.00, -0.00, -1.00, 0.0, 1080.0)"><path d="M 0.0 1080.0 L 1920.0 1080.0 L 1920.0 0.0 L 0.0 0.0 Z M 0.0 1080.0 " fill="#FFFFFF"></path><text xml:space="preserve" font-family="SourceSansPro-Regular" font-size="36.0" fill="#A7A7A7" transform="matrix(1.00, 0.00, -0.00, -1.00, 783.0, 20.0)">L</text><text xml:space="preserve" font-family="SourceSansPro-Regular" font-size="36.0" fill="#A7A7A7" transform="matrix(1.00, 0.00, -0.00, -1.00, 800.5, 20.0)">a</text><text xml:space="preserve" font-family="SourceSansPro-Regular" font-size="36.0" fill="#A7A7A7" transform="matrix(1.00, 0.00, -0.00, -1.00, 818.9, 20.0)">s</text><text xml:space="preserve" font-family="SourceSansPro-Regular" font-size="36.0" fill="#A7A7A7" transform="matrix(1.00, 0.00, -0.00, -1.00, 834.0, 20.0)">t</text><text xml:space="preserve" font-family="SourceSansPro-Regular" font-size="36.0" fill="#A7A7A7" transform="matrix(1.00, 0.00, -0.00, -1.00, 845.2, 20.0)">-</text><text xml:space="preserve" font-family="SourceSansPro-Regular" font-size="36.0" fill="#A7A7A7" transform="matrix(1.00, 0.00, -0.00, -1.00, 856.4, 20.0)">m</text><text xml:space="preserve" font-family="SourceSansPro-Regular" font-size="36.0" fill="#A7A7A7" transform="matrix(1.00, 0.00, -0.00, -1.00, 886.3, 20.0)">i</text><text xml:space="preserve" font-family="SourceSansPro-Regular" font-size="36.0" fill="#A7A7A7" transform="matrix(1.00, 0.00, -0.00, -1.00, 895.1, 20.0)">n</text><text xml:space="preserve" font-family="SourceSansPro-Regular" font-size="36.0" fill="#A7A7A7" transform="matrix(1.00, 0.00, -0.00, -1.00, 914.8, 20.0)">u</text><text xml:space="preserve" font-family="SourceSansPro-Regular" font-size="36.0" fill="#A7A7A7" transform="matrix(1.00, 0.00, -0.00, -1.00, 934.4, 20.0)">t</text><text xml:space="preserve" font-family="SourceSansPro-Regular" font-size="36.0" fill="#A7A7A7" transform="matrix(1.00, 0.00, -0.00, -1.00, 946.2, 20.0)">e</text><text xml:space="preserve" font-family="SourceSansPro-Regular" font-size="36.0" fill="#A7A7A7" transform="matrix(1.00, 0.00, -0.00, -1.00, 964.1, 20.0)"> </text><text xml:space="preserve" font-family="SourceSansPro-Regular" font-size="36.0" fill="#A7A7A7" transform="matrix(1.00, 0.00, -0.00, -1.00, 971.4, 20.0)">b</text><text xml:space="preserve" font-family="SourceSansPro-Regular" font-size="36.0" fill="#A7A7A7" transform="matrix(1.00, 0.00, -0.00, -1.00, 990.8, 20.0)">a</text><text xml:space="preserve" font-family="SourceSansPro-Regular" font-size="36.0" fill="#A7A7A7" transform="matrix(1.00, 0.00, -0.00, -1.00, 1009.3, 20.0)">b</text><text xml:space="preserve" font-family="SourceSansPro-Regular" font-size="36.0" fill="#A7A7A7" transform="matrix(1.00, 0.00, -0.00, -1.00, 1029.1, 20.0)">y</text><text xml:space="preserve" font-family="SourceSansPro-Regular" font-size="36.0" fill="#A7A7A7" transform="matrix(1.00, 0.00, -0.00, -1.00, 1045.9, 20.0)">-</text><text xml:space="preserve" font-family="SourceSansPro-Regular" font-size="36.0" fill="#A7A7A7" transform="matrix(1.00, 0.00, -0.00, -1.00, 1057.1, 20.0)">s</text><text xml:space="preserve" font-family="SourceSansPro-Regular" font-size="36.0" fill="#A7A7A7" transform="matrix(1.00, 0.00, -0.00, -1.00, 1072.2, 20.0)">i</text><text xml:space="preserve" font-family="SourceSansPro-Regular" font-size="36.0" fill="#A7A7A7" transform="matrix(1.00, 0.00, -0.00, -1.00, 1081.0, 20.0)">t</text><text xml:space="preserve" font-family="SourceSansPro-Regular" font-size="36.0" fill="#A7A7A7" transform="matrix(1.00, 0.00, -0.00, -1.00, 1093.2, 20.0)">t</text><text xml:space="preserve" font-family="SourceSansPro-Regular" font-size="36.0" fill="#A7A7A7" transform="matrix(1.00, 0.00, -0.00, -1.00, 1105.4, 20.0)">i</text><text xml:space="preserve" font-family="SourceSansPro-Regular" font-size="36.0" fill="#A7A7A7" transform="matrix(1.00, 0.00, -0.00, -1.00, 1114.2, 20.0)">n</text><text xml:space="preserve" font-family="SourceSansPro-Regular" font-size="36.0" fill="#A7A7A7" transform="matrix(1.00, 0.00, -0.00, -1.00, 1133.9, 20.0)">g</text><text xml:space="preserve" font-family="SourceSansPro-Semibold" font-weight="bold" font-size="36.0" fill="#A7A7A7" transform="matrix(1.00, 0.00, -0.00, -1.00, 1186.0, 20.0)">B</text><text xml:space="preserve" font-family="SourceSansPro-Semibold" font-weight="bold" font-size="36.0" fill="#A7A7A7" transform="matrix(1.00, 0.00, -0.00, -1.00, 1207.5, 20.0)">u</text><text xml:space="preserve" font-family="SourceSansPro-Semibold" font-weight="bold" font-size="36.0" fill="#A7A7A7" transform="matrix(1.00, 0.00, -0.00, -1.00, 1227.5, 20.0)">i</text><text xml:space="preserve" font-family="SourceSansPro-Semibold" font-weight="bold" font-size="36.0" fill="#A7A7A7" transform="matrix(1.00, 0.00, -0.00, -1.00, 1236.9, 20.0)">l</text><text xml:space="preserve" font-family="SourceSansPro-Semibold" font-weight="bold" font-size="36.0" fill="#A7A7A7" transform="matrix(1.00, 0.00, -0.00, -1.00, 1246.7, 20.0)">d</text><text xml:space="preserve" font-family="SourceSansPro-Semibold" font-weight="bold" font-size="36.0" fill="#A7A7A7" transform="matrix(1.00, 0.00, -0.00, -1.00, 1267.0, 20.0)">i</text><text xml:space="preserve" font-family="SourceSansPro-Semibold" font-weight="bold" font-size="36.0" fill="#A7A7A7" transform="matrix(1.00, 0.00, -0.00, -1.00, 1276.4, 20.0)">n</text><text xml:space="preserve" font-family="SourceSansPro-Semibold" font-weight="bold" font-size="36.0" fill="#A7A7A7" transform="matrix(1.00, 0.00, -0.00, -1.00, 1296.6, 20.0)">g</text><g><clipPath id="clip-157"><path d="M 438.0 882.0 L 1482.0 882.0 L 1482.0 -693.0 L 438.0 -693.0 Z M 437.6 881.5 "></path></clipPath><g clip-path="url(#clip-157)"><image xlink:href="0A4D1989AC09EFAC505A440ED5E02E93.jpeg" width="509.00" height="768.00" transform="matrix(2.05, 0.00, -0.00, -2.05, 438.0, 882.0)"></image></g></g><g><clipPath id="clip-158"><path d="M 1742.0 878.0 L 2789.0 878.0 L 2789.0 -787.0 L 1742.0 -787.0 Z M 1741.9 878.2 "></path></clipPath><g clip-path="url(#clip-158)"><image xlink:href="542A55A19A69E9123DEC48959D3DE05B.jpeg" width="483.00" height="769.00" transform="matrix(2.17, 0.00, -0.00, -2.17, 1742.0, 878.0)"></image></g></g><path d="M 242.0 145.2 L 1682.0 145.2 L 1682.0 -0.0 L 242.0 -0.0 Z M 242.0 145.2 " fill="#FFFFFF"></path><text xml:space="preserve" font-family="SourceSansPro-Regular" font-size="36.0" fill="#525252" transform="matrix(1.00, 0.00, -0.00, -1.00, 834.0, 17.0)">s</text><text xml:space="preserve" font-family="SourceSansPro-Regular" font-size="36.0" fill="#525252" transform="matrix(1.00, 0.00, -0.00, -1.00, 852.7, 17.0)">o</text><text xml:space="preserve" font-family="SourceSansPro-Regular" font-size="36.0" fill="#525252" transform="matrix(1.00, 0.00, -0.00, -1.00, 875.8, 17.0)">p</text><text xml:space="preserve" font-family="SourceSansPro-Regular" font-size="36.0" fill="#525252" transform="matrix(1.00, 0.00, -0.00, -1.00, 899.4, 17.0)">h</text><text xml:space="preserve" font-family="SourceSansPro-Regular" font-size="36.0" fill="#525252" transform="matrix(1.00, 0.00, -0.00, -1.00, 922.6, 17.0)">i</text><text xml:space="preserve" font-family="SourceSansPro-Regular" font-size="36.0" fill="#525252" transform="matrix(1.00, 0.00, -0.00, -1.00, 935.0, 17.0)">a</text><text xml:space="preserve" font-family="SourceSansPro-Regular" font-size="36.0" fill="#525252" transform="matrix(1.00, 0.00, -0.00, -1.00, 957.0, 17.0)">k</text><text xml:space="preserve" font-family="SourceSansPro-Regular" font-size="36.0" fill="#525252" transform="matrix(1.00, 0.00, -0.00, -1.00, 977.8, 17.0)">c</text><text xml:space="preserve" font-family="SourceSansPro-Regular" font-size="36.0" fill="#525252" transform="matrix(1.00, 0.00, -0.00, -1.00, 997.8, 17.0)">.</text><text xml:space="preserve" font-family="SourceSansPro-Regular" font-size="36.0" fill="#525252" transform="matrix(1.00, 0.00, -0.00, -1.00, 1010.1, 17.0)">c</text><text xml:space="preserve" font-family="SourceSansPro-Regular" font-size="36.0" fill="#525252" transform="matrix(1.00, 0.00, -0.00, -1.00, 1029.4, 17.0)">o</text><text xml:space="preserve" font-family="SourceSansPro-Regular" font-size="36.0" fill="#525252" transform="matrix(1.00, 0.00, -0.00, -1.00, 1052.5, 17.0)">m</text><image xlink:href="2605063FBFDF0B7874ECCED8B6850E72.png" width="960.00" height="540.00" transform="matrix(2.00, 0.00, -0.00, -2.00, 0.0, 1082.0)"></image><text xml:space="preserve" font-family="SourceSansPro-Regular" font-size="36.0" fill="#525252" transform="matrix(1.00, 0.00, -0.00, -1.00, 834.0, 17.0)">s</text><text xml:space="preserve" font-family="SourceSansPro-Regular" font-size="36.0" fill="#525252" transform="matrix(1.00, 0.00, -0.00, -1.00, 852.7, 17.0)">o</text><text xml:space="preserve" font-family="SourceSansPro-Regular" font-size="36.0" fill="#525252" transform="matrix(1.00, 0.00, -0.00, -1.00, 875.8, 17.0)">p</text><text xml:space="preserve" font-family="SourceSansPro-Regular" font-size="36.0" fill="#525252" transform="matrix(1.00, 0.00, -0.00, -1.00, 899.4, 17.0)">h</text><text xml:space="preserve" font-family="SourceSansPro-Regular" font-size="36.0" fill="#525252" transform="matrix(1.00, 0.00, -0.00, -1.00, 922.6, 17.0)">i</text><text xml:space="preserve" font-family="SourceSansPro-Regular" font-size="36.0" fill="#525252" transform="matrix(1.00, 0.00, -0.00, -1.00, 935.0, 17.0)">a</text><text xml:space="preserve" font-family="SourceSansPro-Regular" font-size="36.0" fill="#525252" transform="matrix(1.00, 0.00, -0.00, -1.00, 957.0, 17.0)">k</text><text xml:space="preserve" font-family="SourceSansPro-Regular" font-size="36.0" fill="#525252" transform="matrix(1.00, 0.00, -0.00, -1.00, 977.8, 17.0)">c</text><text xml:space="preserve" font-family="SourceSansPro-Regular" font-size="36.0" fill="#525252" transform="matrix(1.00, 0.00, -0.00, -1.00, 997.8, 17.0)">.</text><text xml:space="preserve" font-family="SourceSansPro-Regular" font-size="36.0" fill="#525252" transform="matrix(1.00, 0.00, -0.00, -1.00, 1010.1, 17.0)">c</text><text xml:space="preserve" font-family="SourceSansPro-Regular" font-size="36.0" fill="#525252" transform="matrix(1.00, 0.00, -0.00, -1.00, 1029.4, 17.0)">o</text><text xml:space="preserve" font-family="SourceSansPro-Regular" font-size="36.0" fill="#525252" transform="matrix(1.00, 0.00, -0.00, -1.00, 1052.5, 17.0)">m</text></g></svg>