<?xml version="1.0" encoding="UTF-8" standalone="no"?><svg xmlns="http://www.w3.org/2000/svg" xmlns:xlink="http://www.w3.org/1999/xlink" clip-rule="evenodd" stroke-miterlimit="4.00" viewBox="0 0 1920 1080"><desc>SVG generated by Keynote</desc><defs></defs><g transform="matrix(1.00, 0.00, -0.00, -1.00, 0.0, 1080.0)"><path d="M 0.0 1080.0 L 1920.0 1080.0 L 1920.0 0.0 L 0.0 0.0 Z M 0.0 1080.0 " fill="#FFFFFF"></path><text xml:space="preserve" font-family="SourceSansPro-Regular" font-size="36.0" fill="#525252" transform="matrix(1.00, 0.00, -0.00, -1.00, 834.0, 17.0)">s</text><text xml:space="preserve" font-family="SourceSansPro-Regular" font-size="36.0" fill="#525252" transform="matrix(1.00, 0.00, -0.00, -1.00, 852.7, 17.0)">o</text><text xml:space="preserve" font-family="SourceSansPro-Regular" font-size="36.0" fill="#525252" transform="matrix(1.00, 0.00, -0.00, -1.00, 875.8, 17.0)">p</text><text xml:space="preserve" font-family="SourceSansPro-Regular" font-size="36.0" fill="#525252" transform="matrix(1.00, 0.00, -0.00, -1.00, 899.4, 17.0)">h</text><text xml:space="preserve" font-family="SourceSansPro-Regular" font-size="36.0" fill="#525252" transform="matrix(1.00, 0.00, -0.00, -1.00, 922.6, 17.0)">i</text><text xml:space="preserve" font-family="SourceSansPro-Regular" font-size="36.0" fill="#525252" transform="matrix(1.00, 0.00, -0.00, -1.00, 935.0, 17.0)">a</text><text xml:space="preserve" font-family="SourceSansPro-Regular" font-size="36.0" fill="#525252" transform="matrix(1.00, 0.00, -0.00, -1.00, 957.0, 17.0)">k</text><text xml:space="preserve" font-family="SourceSansPro-Regular" font-size="36.0" fill="#525252" transform="matrix(1.00, 0.00, -0.00, -1.00, 977.8, 17.0)">c</text><text xml:space="preserve" font-family="SourceSansPro-Regular" font-size="36.0" fill="#525252" transform="matrix(1.00, 0.00, -0.00, -1.00, 997.8, 17.0)">.</text><text xml:space="preserve" font-family="SourceSansPro-Regular" font-size="36.0" fill="#525252" transform="matrix(1.00, 0.00, -0.00, -1.00, 1010.1, 17.0)">c</text><text xml:space="preserve" font-family="SourceSansPro-Regular" font-size="36.0" fill="#525252" transform="matrix(1.00, 0.00, -0.00, -1.00, 1029.4, 17.0)">o</text><text xml:space="preserve" font-family="SourceSansPro-Regular" font-size="36.0" fill="#525252" transform="matrix(1.00, 0.00, -0.00, -1.00, 1052.5, 17.0)">m</text><g><clipPath id="clip-1093"><path d="M 342.7 538.4 L 683.4 538.4 L 683.4 765.5 L 342.7 765.5 Z M 342.7 538.4 "></path></clipPath><g clip-path="url(#clip-1093)"><text xml:space="preserve" font-family="PermanentMarker" font-size="45.0" fill="#525252" transform="matrix(1.00, 0.00, -0.00, -1.00, 359.0, 700.0)">W</text><text xml:space="preserve" font-family="PermanentMarker" font-size="45.0" fill="#525252" transform="matrix(1.00, 0.00, -0.00, -1.00, 403.7, 700.0)">H</text><text xml:space="preserve" font-family="PermanentMarker" font-size="45.0" fill="#525252" transform="matrix(1.00, 0.00, -0.00, -1.00, 435.0, 700.0)">E</text><text xml:space="preserve" font-family="PermanentMarker" font-size="45.0" fill="#525252" transform="matrix(1.00, 0.00, -0.00, -1.00, 463.3, 700.0)">N</text><text xml:space="preserve" font-family="PermanentMarker" font-size="45.0" fill="#525252" transform="matrix(1.00, 0.00, -0.00, -1.00, 494.0, 700.0)"> </text><text xml:space="preserve" font-family="PermanentMarker" font-size="45.0" fill="#525252" transform="matrix(1.00, 0.00, -0.00, -1.00, 510.7, 700.0)">I</text><text xml:space="preserve" font-family="PermanentMarker" font-size="45.0" fill="#525252" transform="matrix(1.00, 0.00, -0.00, -1.00, 533.9, 700.0)"> </text><text xml:space="preserve" font-family="PermanentMarker" font-size="45.0" fill="#525252" transform="matrix(1.00, 0.00, -0.00, -1.00, 550.5, 700.0)">n</text><text xml:space="preserve" font-family="PermanentMarker" font-size="45.0" fill="#525252" transform="matrix(1.00, 0.00, -0.00, -1.00, 575.9, 700.0)">e</text><text xml:space="preserve" font-family="PermanentMarker" font-size="45.0" fill="#525252" transform="matrix(1.00, 0.00, -0.00, -1.00, 599.4, 700.0)">e</text><text xml:space="preserve" font-family="PermanentMarker" font-size="45.0" fill="#525252" transform="matrix(1.00, 0.00, -0.00, -1.00, 622.9, 700.0)">d</text><text xml:space="preserve" font-family="PermanentMarker" font-size="45.0" fill="#525252" transform="matrix(1.00, 0.00, -0.00, -1.00, 645.2, 700.0)"> </text><text xml:space="preserve" font-family="PermanentMarker" font-size="45.0" fill="#525252" transform="matrix(1.00, 0.00, -0.00, -1.00, 359.0, 635.0)">a</text><text xml:space="preserve" font-family="PermanentMarker" font-size="45.0" fill="#525252" transform="matrix(1.00, 0.00, -0.00, -1.00, 385.2, 635.0)"> </text><text xml:space="preserve" font-family="PermanentMarker" font-size="45.0" fill="#525252" transform="matrix(1.00, 0.00, -0.00, -1.00, 401.8, 635.0)">b</text><text xml:space="preserve" font-family="PermanentMarker" font-size="45.0" fill="#525252" transform="matrix(1.00, 0.00, -0.00, -1.00, 427.6, 635.0)">a</text><text xml:space="preserve" font-family="PermanentMarker" font-size="45.0" fill="#525252" transform="matrix(1.00, 0.00, -0.00, -1.00, 452.9, 635.0)">b</text><text xml:space="preserve" font-family="PermanentMarker" font-size="45.0" fill="#525252" transform="matrix(1.00, 0.00, -0.00, -1.00, 476.9, 635.0)">y</text><text xml:space="preserve" font-family="PermanentMarker" font-size="45.0" fill="#525252" transform="matrix(1.00, 0.00, -0.00, -1.00, 494.9, 635.0)">-</text><text xml:space="preserve" font-family="PermanentMarker" font-size="45.0" fill="#525252" transform="matrix(1.00, 0.00, -0.00, -1.00, 522.4, 635.0)">s</text><text xml:space="preserve" font-family="PermanentMarker" font-size="45.0" fill="#525252" transform="matrix(1.00, 0.00, -0.00, -1.00, 543.2, 635.0)">i</text><text xml:space="preserve" font-family="PermanentMarker" font-size="45.0" fill="#525252" transform="matrix(1.00, 0.00, -0.00, -1.00, 557.7, 635.0)">t</text><text xml:space="preserve" font-family="PermanentMarker" font-size="45.0" fill="#525252" transform="matrix(1.00, 0.00, -0.00, -1.00, 579.3, 635.0)">t</text><text xml:space="preserve" font-family="PermanentMarker" font-size="45.0" fill="#525252" transform="matrix(1.00, 0.00, -0.00, -1.00, 600.9, 635.0)">e</text><text xml:space="preserve" font-family="PermanentMarker" font-size="45.0" fill="#525252" transform="matrix(1.00, 0.00, -0.00, -1.00, 623.9, 635.0)">r</text><text xml:space="preserve" font-family="PermanentMarker" font-size="45.0" fill="#525252" transform="matrix(1.00, 0.00, -0.00, -1.00, 648.3, 635.0)"> </text><text xml:space="preserve" font-family="PermanentMarker" font-size="45.0" fill="#525252" transform="matrix(1.00, 0.00, -0.00, -1.00, 359.0, 570.0)">l</text><text xml:space="preserve" font-family="PermanentMarker" font-size="45.0" fill="#525252" transform="matrix(1.00, 0.00, -0.00, -1.00, 383.0, 570.0)">a</text><text xml:space="preserve" font-family="PermanentMarker" font-size="45.0" fill="#525252" transform="matrix(1.00, 0.00, -0.00, -1.00, 408.3, 570.0)">s</text><text xml:space="preserve" font-family="PermanentMarker" font-size="45.0" fill="#525252" transform="matrix(1.00, 0.00, -0.00, -1.00, 429.1, 570.0)">t</text><text xml:space="preserve" font-family="PermanentMarker" font-size="45.0" fill="#525252" transform="matrix(1.00, 0.00, -0.00, -1.00, 450.7, 570.0)"> </text><text xml:space="preserve" font-family="PermanentMarker" font-size="45.0" fill="#525252" transform="matrix(1.00, 0.00, -0.00, -1.00, 467.4, 570.0)">m</text><text xml:space="preserve" font-family="PermanentMarker" font-size="45.0" fill="#525252" transform="matrix(1.00, 0.00, -0.00, -1.00, 504.1, 570.0)">i</text><text xml:space="preserve" font-family="PermanentMarker" font-size="45.0" fill="#525252" transform="matrix(1.00, 0.00, -0.00, -1.00, 518.5, 570.0)">n</text><text xml:space="preserve" font-family="PermanentMarker" font-size="45.0" fill="#525252" transform="matrix(1.00, 0.00, -0.00, -1.00, 543.9, 570.0)">u</text><text xml:space="preserve" font-family="PermanentMarker" font-size="45.0" fill="#525252" transform="matrix(1.00, 0.00, -0.00, -1.00, 570.2, 570.0)">t</text><text xml:space="preserve" font-family="PermanentMarker" font-size="45.0" fill="#525252" transform="matrix(1.00, 0.00, -0.00, -1.00, 591.8, 570.0)">e</text><text xml:space="preserve" font-family="PermanentMarker" font-size="45.0" fill="#525252" transform="matrix(1.00, 0.00, -0.00, -1.00, 615.3, 570.0)">,</text></g></g><g><clipPath id="clip-1094"><path d="M 1196.0 538.4 L 1736.4 538.4 L 1736.4 765.5 L 1196.0 765.5 Z M 1196.0 538.4 "></path></clipPath><g clip-path="url(#clip-1094)"><text xml:space="preserve" font-family="PermanentMarker" font-size="45.0" fill="#525252" transform="matrix(1.00, 0.00, -0.00, -1.00, 1212.0, 700.0)">S</text><text xml:space="preserve" font-family="PermanentMarker" font-size="45.0" fill="#525252" transform="matrix(1.00, 0.00, -0.00, -1.00, 1237.1, 700.0)">O</text><text xml:space="preserve" font-family="PermanentMarker" font-size="45.0" fill="#525252" transform="matrix(1.00, 0.00, -0.00, -1.00, 1270.6, 700.0)"> </text><text xml:space="preserve" font-family="PermanentMarker" font-size="45.0" fill="#525252" transform="matrix(1.00, 0.00, -0.00, -1.00, 1287.3, 700.0)">I</text><text xml:space="preserve" font-family="PermanentMarker" font-size="45.0" fill="#525252" transform="matrix(1.00, 0.00, -0.00, -1.00, 1310.4, 700.0)"> </text><text xml:space="preserve" font-family="PermanentMarker" font-size="45.0" fill="#525252" transform="matrix(1.00, 0.00, -0.00, -1.00, 1327.1, 700.0)">C</text><text xml:space="preserve" font-family="PermanentMarker" font-size="45.0" fill="#525252" transform="matrix(1.00, 0.00, -0.00, -1.00, 1354.7, 700.0)">A</text><text xml:space="preserve" font-family="PermanentMarker" font-size="45.0" fill="#525252" transform="matrix(1.00, 0.00, -0.00, -1.00, 1386.3, 700.0)">N</text><text xml:space="preserve" font-family="PermanentMarker" font-size="45.0" fill="#525252" transform="matrix(1.00, 0.00, -0.00, -1.00, 1417.1, 700.0)"> </text><text xml:space="preserve" font-family="PermanentMarker" font-size="45.0" fill="#525252" transform="matrix(1.00, 0.00, -0.00, -1.00, 1433.7, 700.0)"> </text><text xml:space="preserve" font-family="PermanentMarker" font-size="45.0" fill="#525252" transform="matrix(1.00, 0.00, -0.00, -1.00, 1212.0, 635.0)">d</text><text xml:space="preserve" font-family="PermanentMarker" font-size="45.0" fill="#525252" transform="matrix(1.00, 0.00, -0.00, -1.00, 1234.4, 635.0)">o</text><text xml:space="preserve" font-family="PermanentMarker" font-size="45.0" fill="#525252" transform="matrix(1.00, 0.00, -0.00, -1.00, 1262.7, 635.0)"> </text><text xml:space="preserve" font-family="PermanentMarker" font-size="45.0" fill="#525252" transform="matrix(1.00, 0.00, -0.00, -1.00, 1279.3, 635.0)">w</text><text xml:space="preserve" font-family="PermanentMarker" font-size="45.0" fill="#525252" transform="matrix(1.00, 0.00, -0.00, -1.00, 1316.5, 635.0)">h</text><text xml:space="preserve" font-family="PermanentMarker" font-size="45.0" fill="#525252" transform="matrix(1.00, 0.00, -0.00, -1.00, 1342.7, 635.0)">a</text><text xml:space="preserve" font-family="PermanentMarker" font-size="45.0" fill="#525252" transform="matrix(1.00, 0.00, -0.00, -1.00, 1366.6, 635.0)">t</text><text xml:space="preserve" font-family="PermanentMarker" font-size="45.0" fill="#525252" transform="matrix(1.00, 0.00, -0.00, -1.00, 1388.2, 635.0)"> </text><text xml:space="preserve" font-family="PermanentMarker" font-size="45.0" fill="#525252" transform="matrix(1.00, 0.00, -0.00, -1.00, 1404.8, 635.0)"> </text><text xml:space="preserve" font-family="PermanentMarker" font-size="45.0" fill="#525252" transform="matrix(1.00, 0.00, -0.00, -1.00, 1212.0, 570.0)">I</text><text xml:space="preserve" font-family="PermanentMarker" font-size="45.0" fill="#525252" transform="matrix(1.00, 0.00, -0.00, -1.00, 1235.2, 570.0)"> </text><text xml:space="preserve" font-family="PermanentMarker" font-size="45.0" fill="#525252" transform="matrix(1.00, 0.00, -0.00, -1.00, 1251.8, 570.0)">h</text><text xml:space="preserve" font-family="PermanentMarker" font-size="45.0" fill="#525252" transform="matrix(1.00, 0.00, -0.00, -1.00, 1278.0, 570.0)">a</text><text xml:space="preserve" font-family="PermanentMarker" font-size="45.0" fill="#525252" transform="matrix(1.00, 0.00, -0.00, -1.00, 1302.4, 570.0)">v</text><text xml:space="preserve" font-family="PermanentMarker" font-size="45.0" fill="#525252" transform="matrix(1.00, 0.00, -0.00, -1.00, 1324.2, 570.0)">e</text><text xml:space="preserve" font-family="PermanentMarker" font-size="45.0" fill="#525252" transform="matrix(1.00, 0.00, -0.00, -1.00, 1347.7, 570.0)"> </text><text xml:space="preserve" font-family="PermanentMarker" font-size="45.0" fill="#525252" transform="matrix(1.00, 0.00, -0.00, -1.00, 1364.4, 570.0)">t</text><text xml:space="preserve" font-family="PermanentMarker" font-size="45.0" fill="#525252" transform="matrix(1.00, 0.00, -0.00, -1.00, 1384.6, 570.0)">o</text><text xml:space="preserve" font-family="PermanentMarker" font-size="45.0" fill="#525252" transform="matrix(1.00, 0.00, -0.00, -1.00, 1412.9, 570.0)"> </text><text xml:space="preserve" font-family="PermanentMarker" font-size="45.0" fill="#525252" transform="matrix(1.00, 0.00, -0.00, -1.00, 1429.6, 570.0)">d</text><text xml:space="preserve" font-family="PermanentMarker" font-size="45.0" fill="#525252" transform="matrix(1.00, 0.00, -0.00, -1.00, 1452.0, 570.0)">o</text><text xml:space="preserve" font-family="PermanentMarker" font-size="45.0" fill="#525252" transform="matrix(1.00, 0.00, -0.00, -1.00, 1480.3, 570.0)">.</text></g></g><g><clipPath id="clip-1095"><path d="M 332.0 323.4 L 1588.0 323.4 L 1588.0 609.4 L 332.0 609.4 Z M 332.0 323.4 "></path></clipPath><g clip-path="url(#clip-1095)"><image xlink:href="../../EEF65D9C-B61D-410E-9AEE-87DD7C5FEBA3/assets/7D3CD4B570B4BD64FB60B193D4F0133D.png" width="961.00" height="218.00" transform="matrix(1.31, 0.00, -0.00, -1.31, 332.0, 609.0)"></image></g></g><g><clipPath id="clip-1096"><path d="M 722.7 538.4 L 1063.5 538.4 L 1063.5 765.5 L 722.7 765.5 Z M 722.7 538.4 "></path></clipPath><g clip-path="url(#clip-1096)"><text xml:space="preserve" font-family="PermanentMarker" font-size="45.0" fill="#525252" transform="matrix(1.00, 0.00, -0.00, -1.00, 739.0, 700.0)">I</text><text xml:space="preserve" font-family="PermanentMarker" font-size="45.0" fill="#525252" transform="matrix(1.00, 0.00, -0.00, -1.00, 762.2, 700.0)"> </text><text xml:space="preserve" font-family="PermanentMarker" font-size="45.0" fill="#525252" transform="matrix(1.00, 0.00, -0.00, -1.00, 778.9, 700.0)">W</text><text xml:space="preserve" font-family="PermanentMarker" font-size="45.0" fill="#525252" transform="matrix(1.00, 0.00, -0.00, -1.00, 823.2, 700.0)">A</text><text xml:space="preserve" font-family="PermanentMarker" font-size="45.0" fill="#525252" transform="matrix(1.00, 0.00, -0.00, -1.00, 854.8, 700.0)">N</text><text xml:space="preserve" font-family="PermanentMarker" font-size="45.0" fill="#525252" transform="matrix(1.00, 0.00, -0.00, -1.00, 885.6, 700.0)">T</text><text xml:space="preserve" font-family="PermanentMarker" font-size="45.0" fill="#525252" transform="matrix(1.00, 0.00, -0.00, -1.00, 912.9, 700.0)"> </text><text xml:space="preserve" font-family="PermanentMarker" font-size="45.0" fill="#525252" transform="matrix(1.00, 0.00, -0.00, -1.00, 929.6, 700.0)">T</text><text xml:space="preserve" font-family="PermanentMarker" font-size="45.0" fill="#525252" transform="matrix(1.00, 0.00, -0.00, -1.00, 955.5, 700.0)">O</text><text xml:space="preserve" font-family="PermanentMarker" font-size="45.0" fill="#525252" transform="matrix(1.00, 0.00, -0.00, -1.00, 989.0, 700.0)"> </text><text xml:space="preserve" font-family="PermanentMarker" font-size="45.0" fill="#525252" transform="matrix(1.00, 0.00, -0.00, -1.00, 739.0, 635.0)">e</text><text xml:space="preserve" font-family="PermanentMarker" font-size="45.0" fill="#525252" transform="matrix(1.00, 0.00, -0.00, -1.00, 762.5, 635.0)">a</text><text xml:space="preserve" font-family="PermanentMarker" font-size="45.0" fill="#525252" transform="matrix(1.00, 0.00, -0.00, -1.00, 787.8, 635.0)">s</text><text xml:space="preserve" font-family="PermanentMarker" font-size="45.0" fill="#525252" transform="matrix(1.00, 0.00, -0.00, -1.00, 808.6, 635.0)">i</text><text xml:space="preserve" font-family="PermanentMarker" font-size="45.0" fill="#525252" transform="matrix(1.00, 0.00, -0.00, -1.00, 823.0, 635.0)">l</text><text xml:space="preserve" font-family="PermanentMarker" font-size="45.0" fill="#525252" transform="matrix(1.00, 0.00, -0.00, -1.00, 845.7, 635.0)">y</text><text xml:space="preserve" font-family="PermanentMarker" font-size="45.0" fill="#525252" transform="matrix(1.00, 0.00, -0.00, -1.00, 863.7, 635.0)"> </text><text xml:space="preserve" font-family="PermanentMarker" font-size="45.0" fill="#525252" transform="matrix(1.00, 0.00, -0.00, -1.00, 880.4, 635.0)">f</text><text xml:space="preserve" font-family="PermanentMarker" font-size="45.0" fill="#525252" transform="matrix(1.00, 0.00, -0.00, -1.00, 900.9, 635.0)">i</text><text xml:space="preserve" font-family="PermanentMarker" font-size="45.0" fill="#525252" transform="matrix(1.00, 0.00, -0.00, -1.00, 915.3, 635.0)">n</text><text xml:space="preserve" font-family="PermanentMarker" font-size="45.0" fill="#525252" transform="matrix(1.00, 0.00, -0.00, -1.00, 940.7, 635.0)">d</text><text xml:space="preserve" font-family="PermanentMarker" font-size="45.0" fill="#525252" transform="matrix(1.00, 0.00, -0.00, -1.00, 963.1, 635.0)"> </text><text xml:space="preserve" font-family="PermanentMarker" font-size="45.0" fill="#525252" transform="matrix(1.00, 0.00, -0.00, -1.00, 739.0, 570.0)">o</text><text xml:space="preserve" font-family="PermanentMarker" font-size="45.0" fill="#525252" transform="matrix(1.00, 0.00, -0.00, -1.00, 767.3, 570.0)">n</text><text xml:space="preserve" font-family="PermanentMarker" font-size="45.0" fill="#525252" transform="matrix(1.00, 0.00, -0.00, -1.00, 792.7, 570.0)">e</text><text xml:space="preserve" font-family="PermanentMarker" font-size="45.0" fill="#525252" transform="matrix(1.00, 0.00, -0.00, -1.00, 816.2, 570.0)"> </text><text xml:space="preserve" font-family="PermanentMarker" font-size="45.0" fill="#525252" transform="matrix(1.00, 0.00, -0.00, -1.00, 832.9, 570.0)">a</text><text xml:space="preserve" font-family="PermanentMarker" font-size="45.0" fill="#525252" transform="matrix(1.00, 0.00, -0.00, -1.00, 857.2, 570.0)">v</text><text xml:space="preserve" font-family="PermanentMarker" font-size="45.0" fill="#525252" transform="matrix(1.00, 0.00, -0.00, -1.00, 877.7, 570.0)">a</text><text xml:space="preserve" font-family="PermanentMarker" font-size="45.0" fill="#525252" transform="matrix(1.00, 0.00, -0.00, -1.00, 903.9, 570.0)">i</text><text xml:space="preserve" font-family="PermanentMarker" font-size="45.0" fill="#525252" transform="matrix(1.00, 0.00, -0.00, -1.00, 918.3, 570.0)">l</text><text xml:space="preserve" font-family="PermanentMarker" font-size="45.0" fill="#525252" transform="matrix(1.00, 0.00, -0.00, -1.00, 942.3, 570.0)">a</text><text xml:space="preserve" font-family="PermanentMarker" font-size="45.0" fill="#525252" transform="matrix(1.00, 0.00, -0.00, -1.00, 967.6, 570.0)">b</text><text xml:space="preserve" font-family="PermanentMarker" font-size="45.0" fill="#525252" transform="matrix(1.00, 0.00, -0.00, -1.00, 993.3, 570.0)">l</text><text xml:space="preserve" font-family="PermanentMarker" font-size="45.0" fill="#525252" transform="matrix(1.00, 0.00, -0.00, -1.00, 1017.3, 570.0)">e</text></g></g></g></svg>