<?xml version="1.0" encoding="UTF-8" standalone="no"?><svg xmlns="http://www.w3.org/2000/svg" xmlns:xlink="http://www.w3.org/1999/xlink" clip-rule="evenodd" stroke-miterlimit="4.00" viewBox="0 0 1920 1080"><desc>SVG generated by Keynote</desc><defs></defs><g transform="matrix(1.00, 0.00, -0.00, -1.00, 0.0, 1080.0)"><path d="M 0.0 1080.0 L 1920.0 1080.0 L 1920.0 0.0 L 0.0 0.0 Z M 0.0 1080.0 " fill="#FFFFFF"></path><g opacity="0.18"><g><clipPath id="clip-0"><path d="M 0.0 1203.0 L 1920.0 1203.0 L 1920.0 0.0 L 0.0 0.0 Z M 0.0 1203.0 "></path></clipPath><g clip-path="url(#clip-0)"><g><clipPath id="clip-1"><path d="M 0.0 0.0 L 1920.0 0.0 L 1920.0 1080.0 L 0.0 1080.0 Z M 0.0 0.0 "></path></clipPath><g clip-path="url(#clip-1)"><image xlink:href="18FCD2497A61D1D1540F34BA56583B4F.jpeg" width="724.00" height="500.00" transform="matrix(2.65, 0.00, -0.00, -2.65, 0.0, 1085.0)"></image></g></g></g></g></g><g><clipPath id="clip-2"><path d="M 585.0 623.0 L 1388.0 623.0 L 1388.0 457.0 L 585.0 457.0 Z M 584.8 622.6 "></path></clipPath><g clip-path="url(#clip-2)"><image xlink:href="6709056A16090BFDEC5D40B8BFB49E2F.png" width="804.00" height="165.00" transform="matrix(1.00, 0.00, -0.00, -1.01, 585.0, 623.0)"></image></g></g><text xml:space="preserve" font-family="SourceSansPro-Regular" font-size="36.0" fill="#525252" transform="matrix(1.00, 0.00, -0.00, -1.00, 834.0, 17.0)">s</text><text xml:space="preserve" font-family="SourceSansPro-Regular" font-size="36.0" fill="#525252" transform="matrix(1.00, 0.00, -0.00, -1.00, 852.7, 17.0)">o</text><text xml:space="preserve" font-family="SourceSansPro-Regular" font-size="36.0" fill="#525252" transform="matrix(1.00, 0.00, -0.00, -1.00, 875.8, 17.0)">p</text><text xml:space="preserve" font-family="SourceSansPro-Regular" font-size="36.0" fill="#525252" transform="matrix(1.00, 0.00, -0.00, -1.00, 899.4, 17.0)">h</text><text xml:space="preserve" font-family="SourceSansPro-Regular" font-size="36.0" fill="#525252" transform="matrix(1.00, 0.00, -0.00, -1.00, 922.6, 17.0)">i</text><text xml:space="preserve" font-family="SourceSansPro-Regular" font-size="36.0" fill="#525252" transform="matrix(1.00, 0.00, -0.00, -1.00, 935.0, 17.0)">a</text><text xml:space="preserve" font-family="SourceSansPro-Regular" font-size="36.0" fill="#525252" transform="matrix(1.00, 0.00, -0.00, -1.00, 957.0, 17.0)">k</text><text xml:space="preserve" font-family="SourceSansPro-Regular" font-size="36.0" fill="#525252" transform="matrix(1.00, 0.00, -0.00, -1.00, 977.8, 17.0)">c</text><text xml:space="preserve" font-family="SourceSansPro-Regular" font-size="36.0" fill="#525252" transform="matrix(1.00, 0.00, -0.00, -1.00, 997.8, 17.0)">.</text><text xml:space="preserve" font-family="SourceSansPro-Regular" font-size="36.0" fill="#525252" transform="matrix(1.00, 0.00, -0.00, -1.00, 1010.1, 17.0)">c</text><text xml:space="preserve" font-family="SourceSansPro-Regular" font-size="36.0" fill="#525252" transform="matrix(1.00, 0.00, -0.00, -1.00, 1029.4, 17.0)">o</text><text xml:space="preserve" font-family="SourceSansPro-Regular" font-size="36.0" fill="#525252" transform="matrix(1.00, 0.00, -0.00, -1.00, 1052.5, 17.0)">m</text><text xml:space="preserve" font-family="SourceSansPro-Regular" font-size="73.0" fill="#000000" transform="matrix(1.00, 0.00, -0.00, -1.00, 751.0, 310.0)">P</text><text xml:space="preserve" font-family="SourceSansPro-Regular" font-size="73.0" fill="#000000" transform="matrix(1.00, 0.00, -0.00, -1.00, 808.1, 310.0)">o</text><text xml:space="preserve" font-family="SourceSansPro-Regular" font-size="73.0" fill="#000000" transform="matrix(1.00, 0.00, -0.00, -1.00, 864.4, 310.0)">r</text><text xml:space="preserve" font-family="SourceSansPro-Regular" font-size="73.0" fill="#000000" transform="matrix(1.00, 0.00, -0.00, -1.00, 906.6, 310.0)">t</text><text xml:space="preserve" font-family="SourceSansPro-Regular" font-size="73.0" fill="#000000" transform="matrix(1.00, 0.00, -0.00, -1.00, 948.0, 310.0)">f</text><text xml:space="preserve" font-family="SourceSansPro-Regular" font-size="73.0" fill="#000000" transform="matrix(1.00, 0.00, -0.00, -1.00, 985.4, 310.0)">o</text><text xml:space="preserve" font-family="SourceSansPro-Regular" font-size="73.0" fill="#000000" transform="matrix(1.00, 0.00, -0.00, -1.00, 1041.8, 310.0)">l</text><text xml:space="preserve" font-family="SourceSansPro-Regular" font-size="73.0" fill="#000000" transform="matrix(1.00, 0.00, -0.00, -1.00, 1077.2, 310.0)">i</text><text xml:space="preserve" font-family="SourceSansPro-Regular" font-size="73.0" fill="#000000" transform="matrix(1.00, 0.00, -0.00, -1.00, 1111.9, 310.0)">o</text><text xml:space="preserve" font-family="SourceSansPro-Regular" font-size="72.0" fill="#000000" transform="matrix(1.00, 0.00, -0.00, -1.00, 1168.3, 310.0)"> </text><text xml:space="preserve" font-family="SourceSansPro-Regular" font-size="72.0" fill="#000000" transform="matrix(1.00, 0.00, -0.00, -1.00, 1199.4, 310.0)"> </text><text xml:space="preserve" font-family="SourceSansPro-Regular" font-size="37.0" fill="#000000" transform="matrix(1.00, 0.00, -0.00, -1.00, 757.0, 255.0)">S</text><text xml:space="preserve" font-family="SourceSansPro-Regular" font-size="37.0" fill="#000000" transform="matrix(1.00, 0.00, -0.00, -1.00, 785.3, 255.0)">e</text><text xml:space="preserve" font-family="SourceSansPro-Regular" font-size="37.0" fill="#000000" transform="matrix(1.00, 0.00, -0.00, -1.00, 812.1, 255.0)">l</text><text xml:space="preserve" font-family="SourceSansPro-Regular" font-size="37.0" fill="#000000" transform="matrix(1.00, 0.00, -0.00, -1.00, 830.1, 255.0)">e</text><text xml:space="preserve" font-family="SourceSansPro-Regular" font-size="37.0" fill="#000000" transform="matrix(1.00, 0.00, -0.00, -1.00, 856.9, 255.0)">c</text><text xml:space="preserve" font-family="SourceSansPro-Regular" font-size="37.0" fill="#000000" transform="matrix(1.00, 0.00, -0.00, -1.00, 882.3, 255.0)">t</text><text xml:space="preserve" font-family="SourceSansPro-Regular" font-size="37.0" fill="#000000" transform="matrix(1.00, 0.00, -0.00, -1.00, 903.0, 255.0)">e</text><text xml:space="preserve" font-family="SourceSansPro-Regular" font-size="37.0" fill="#000000" transform="matrix(1.00, 0.00, -0.00, -1.00, 929.8, 255.0)">d</text><text xml:space="preserve" font-family="SourceSansPro-Regular" font-size="37.0" fill="#000000" transform="matrix(1.00, 0.00, -0.00, -1.00, 958.9, 255.0)"> </text><text xml:space="preserve" font-family="SourceSansPro-Regular" font-size="37.0" fill="#000000" transform="matrix(1.00, 0.00, -0.00, -1.00, 974.9, 255.0)">s</text><text xml:space="preserve" font-family="SourceSansPro-Regular" font-size="37.0" fill="#000000" transform="matrix(1.00, 0.00, -0.00, -1.00, 998.9, 255.0)">a</text><text xml:space="preserve" font-family="SourceSansPro-Regular" font-size="37.0" fill="#000000" transform="matrix(1.00, 0.00, -0.00, -1.00, 1026.3, 255.0)">m</text><text xml:space="preserve" font-family="SourceSansPro-Regular" font-size="37.0" fill="#000000" transform="matrix(1.00, 0.00, -0.00, -1.00, 1065.5, 255.0)">p</text><text xml:space="preserve" font-family="SourceSansPro-Regular" font-size="37.0" fill="#000000" transform="matrix(1.00, 0.00, -0.00, -1.00, 1094.6, 255.0)">l</text><text xml:space="preserve" font-family="SourceSansPro-Regular" font-size="37.0" fill="#000000" transform="matrix(1.00, 0.00, -0.00, -1.00, 1112.5, 255.0)">e</text><text xml:space="preserve" font-family="SourceSansPro-Regular" font-size="37.0" fill="#000000" transform="matrix(1.00, 0.00, -0.00, -1.00, 1139.4, 255.0)">s</text><text xml:space="preserve" font-family="SourceSansPro-Regular" font-size="37.0" fill="#000000" transform="matrix(1.00, 0.00, -0.00, -1.00, 1163.4, 255.0)"> </text><text xml:space="preserve" font-family="SourceSansPro-Regular" font-size="63.0" fill="#000000" transform="matrix(1.00, 0.00, -0.00, -1.00, 777.0, 183.0)">A</text><text xml:space="preserve" font-family="SourceSansPro-Regular" font-size="63.0" fill="#000000" transform="matrix(1.00, 0.00, -0.00, -1.00, 824.8, 183.0)">U</text><text xml:space="preserve" font-family="SourceSansPro-Regular" font-size="63.0" fill="#000000" transform="matrix(1.00, 0.00, -0.00, -1.00, 879.9, 183.0)">G</text><text xml:space="preserve" font-family="SourceSansPro-Regular" font-size="63.0" fill="#000000" transform="matrix(1.00, 0.00, -0.00, -1.00, 933.3, 183.0)"> </text><text xml:space="preserve" font-family="SourceSansPro-Regular" font-size="63.0" fill="#000000" transform="matrix(1.00, 0.00, -0.00, -1.00, 960.5, 183.0)">2</text><text xml:space="preserve" font-family="SourceSansPro-Regular" font-size="63.0" fill="#000000" transform="matrix(1.00, 0.00, -0.00, -1.00, 1006.3, 183.0)">0</text><text xml:space="preserve" font-family="SourceSansPro-Regular" font-size="63.0" fill="#000000" transform="matrix(1.00, 0.00, -0.00, -1.00, 1052.1, 183.0)">1</text><text xml:space="preserve" font-family="SourceSansPro-Regular" font-size="63.0" fill="#000000" transform="matrix(1.00, 0.00, -0.00, -1.00, 1097.9, 183.0)">6</text><text xml:space="preserve" font-family="SourceSansPro-Regular" font-size="63.0" fill="#000000" transform="matrix(1.00, 0.00, -0.00, -1.00, 1143.7, 183.0)"> </text><text xml:space="preserve" font-family="SourceSansPro-Regular" font-size="36.0" fill="#A7A7A7" transform="matrix(1.00, 0.00, -0.00, -1.00, 1719.0, 17.0)">A</text><text xml:space="preserve" font-family="SourceSansPro-Regular" font-size="36.0" fill="#A7A7A7" transform="matrix(1.00, 0.00, -0.00, -1.00, 1738.6, 17.0)">d</text><text xml:space="preserve" font-family="SourceSansPro-Regular" font-size="36.0" fill="#A7A7A7" transform="matrix(1.00, 0.00, -0.00, -1.00, 1758.6, 17.0)">a</text><text xml:space="preserve" font-family="SourceSansPro-Regular" font-size="36.0" fill="#A7A7A7" transform="matrix(1.00, 0.00, -0.00, -1.00, 1777.0, 17.0)">m</text><text xml:space="preserve" font-family="SourceSansPro-Regular" font-size="36.0" fill="#A7A7A7" transform="matrix(1.00, 0.00, -0.00, -1.00, 1806.8, 17.0)"> </text><text xml:space="preserve" font-family="SourceSansPro-Regular" font-size="36.0" fill="#A7A7A7" transform="matrix(1.00, 0.00, -0.00, -1.00, 1814.1, 17.0)">F</text><text xml:space="preserve" font-family="SourceSansPro-Regular" font-size="36.0" fill="#A7A7A7" transform="matrix(1.00, 0.00, -0.00, -1.00, 1831.4, 17.0)">e</text><text xml:space="preserve" font-family="SourceSansPro-Regular" font-size="36.0" fill="#A7A7A7" transform="matrix(1.00, 0.00, -0.00, -1.00, 1849.2, 17.0)">r</text><text xml:space="preserve" font-family="SourceSansPro-Regular" font-size="36.0" fill="#A7A7A7" transform="matrix(1.00, 0.00, -0.00, -1.00, 1861.7, 17.0)">r</text><text xml:space="preserve" font-family="SourceSansPro-Regular" font-size="36.0" fill="#A7A7A7" transform="matrix(1.00, 0.00, -0.00, -1.00, 1874.2, 17.0)">i</text><text xml:space="preserve" font-family="SourceSansPro-Regular" font-size="36.0" fill="#A7A7A7" transform="matrix(1.00, 0.00, -0.00, -1.00, 1883.1, 17.0)">s</text><text xml:space="preserve" font-family="SourceSansPro-Regular" font-size="36.0" fill="#A7A7A7" transform="matrix(1.00, 0.00, -0.00, -1.00, 1898.2, 17.0)">s</text></g></svg>