<?xml version="1.0" encoding="UTF-8" standalone="no"?><svg xmlns="http://www.w3.org/2000/svg" xmlns:xlink="http://www.w3.org/1999/xlink" clip-rule="evenodd" stroke-miterlimit="4.00" viewBox="0 0 1920 1080"><desc>SVG generated by Keynote</desc><defs></defs><g transform="matrix(1.00, 0.00, -0.00, -1.00, 0.0, 1080.0)"><path d="M 0.0 1080.0 L 1920.0 1080.0 L 1920.0 0.0 L 0.0 0.0 Z M 0.0 1080.0 " fill="#FFFFFF"></path><image xlink:href="../../1FE1E188-0A54-4B9C-9E00-01E6D3AD6E68/assets/54F9E5394105668DBC7A31627B00DBAC.jpeg" width="683.00" height="769.00" transform="matrix(1.41, 0.00, -0.00, -1.41, 1.0, 1082.0)"></image><text xml:space="preserve" font-family="SourceSansPro-Regular" font-size="36.0" fill="#000000" transform="matrix(1.00, 0.00, -0.00, -1.00, 1309.0, 1020.0)">B</text><text xml:space="preserve" font-family="SourceSansPro-Regular" font-size="36.0" fill="#000000" transform="matrix(1.00, 0.00, -0.00, -1.00, 1338.4, 1020.0)">a</text><text xml:space="preserve" font-family="SourceSansPro-Regular" font-size="36.0" fill="#000000" transform="matrix(1.00, 0.00, -0.00, -1.00, 1365.2, 1020.0)">c</text><text xml:space="preserve" font-family="SourceSansPro-Regular" font-size="36.0" fill="#000000" transform="matrix(1.00, 0.00, -0.00, -1.00, 1389.9, 1020.0)">k</text><text xml:space="preserve" font-family="SourceSansPro-Regular" font-size="36.0" fill="#000000" transform="matrix(1.00, 0.00, -0.00, -1.00, 1415.6, 1020.0)">g</text><text xml:space="preserve" font-family="SourceSansPro-Regular" font-size="36.0" fill="#000000" transform="matrix(1.00, 0.00, -0.00, -1.00, 1442.0, 1020.0)">r</text><text xml:space="preserve" font-family="SourceSansPro-Regular" font-size="36.0" fill="#000000" transform="matrix(1.00, 0.00, -0.00, -1.00, 1462.4, 1020.0)">o</text><text xml:space="preserve" font-family="SourceSansPro-Regular" font-size="36.0" fill="#000000" transform="matrix(1.00, 0.00, -0.00, -1.00, 1490.2, 1020.0)">u</text><text xml:space="preserve" font-family="SourceSansPro-Regular" font-size="36.0" fill="#000000" transform="matrix(1.00, 0.00, -0.00, -1.00, 1518.1, 1020.0)">n</text><text xml:space="preserve" font-family="SourceSansPro-Regular" font-size="36.0" fill="#000000" transform="matrix(1.00, 0.00, -0.00, -1.00, 1546.1, 1020.0)">d</text><text xml:space="preserve" font-family="SourceSansPro-Regular" font-size="36.0" fill="#FFFFFF" transform="matrix(1.00, 0.00, -0.00, -1.00, 834.0, 17.0)">s</text><text xml:space="preserve" font-family="SourceSansPro-Regular" font-size="36.0" fill="#FFFFFF" transform="matrix(1.00, 0.00, -0.00, -1.00, 852.7, 17.0)">o</text><text xml:space="preserve" font-family="SourceSansPro-Regular" font-size="36.0" fill="#FFFFFF" transform="matrix(1.00, 0.00, -0.00, -1.00, 875.8, 17.0)">p</text><text xml:space="preserve" font-family="SourceSansPro-Regular" font-size="36.0" fill="#FFFFFF" transform="matrix(1.00, 0.00, -0.00, -1.00, 899.4, 17.0)">h</text><text xml:space="preserve" font-family="SourceSansPro-Regular" font-size="36.0" fill="#FFFFFF" transform="matrix(1.00, 0.00, -0.00, -1.00, 922.6, 17.0)">i</text><text xml:space="preserve" font-family="SourceSansPro-Regular" font-size="36.0" fill="#FFFFFF" transform="matrix(1.00, 0.00, -0.00, -1.00, 935.0, 17.0)">a</text><text xml:space="preserve" font-family="SourceSansPro-Regular" font-size="36.0" fill="#525252" transform="matrix(1.00, 0.00, -0.00, -1.00, 957.0, 17.0)">k</text><text xml:space="preserve" font-family="SourceSansPro-Regular" font-size="36.0" fill="#525252" transform="matrix(1.00, 0.00, -0.00, -1.00, 977.8, 17.0)">c</text><text xml:space="preserve" font-family="SourceSansPro-Regular" font-size="36.0" fill="#525252" transform="matrix(1.00, 0.00, -0.00, -1.00, 997.8, 17.0)">.</text><text xml:space="preserve" font-family="SourceSansPro-Regular" font-size="36.0" fill="#525252" transform="matrix(1.00, 0.00, -0.00, -1.00, 1010.1, 17.0)">c</text><text xml:space="preserve" font-family="SourceSansPro-Regular" font-size="36.0" fill="#525252" transform="matrix(1.00, 0.00, -0.00, -1.00, 1029.4, 17.0)">o</text><text xml:space="preserve" font-family="SourceSansPro-Regular" font-size="36.0" fill="#525252" transform="matrix(1.00, 0.00, -0.00, -1.00, 1052.5, 17.0)">m</text><path d="M 0.0 117.2 L 0.1 115.2 C 0.2 81.5 0.3 47.7 0.4 14.0 L 0.4 12.0 " fill="none" stroke="#525252" stroke-width="4.00" stroke-linejoin="round" transform="matrix(1.00, 0.00, 0.00, -1.00, 1103.3, 428.1)"></path><path d="M 1096.7 421.1 C 1096.7 425.0 1099.9 428.1 1103.7 428.1 C 1107.6 428.1 1110.7 424.9 1110.7 421.1 C 1110.7 417.2 1107.6 414.1 1103.7 414.1 C 1099.8 414.1 1096.7 417.3 1096.7 421.1 Z M 1096.7 421.1 " fill="#525252"></path><path d="M 1110.3 305.9 C 1110.3 302.0 1107.2 298.9 1103.3 298.9 C 1099.4 298.9 1096.3 302.0 1096.3 305.9 C 1096.3 309.8 1099.5 312.9 1103.3 312.9 C 1107.2 312.9 1110.3 309.7 1110.3 305.9 Z M 1110.3 305.9 " fill="#525252"></path><path d="M 55.6 7.1 L 53.9 8.3 C 20.9 34.5 3.0 69.8 0.0 114.2 " fill="none" stroke="#525252" stroke-width="4.00" stroke-linejoin="round" transform="matrix(1.00, 0.00, 0.00, -1.00, 1103.6, 536.9)"></path><path d="M 1159.1 538.5 C 1162.2 540.7 1166.6 540.1 1168.8 536.9 C 1171.1 533.8 1170.4 529.4 1167.3 527.2 C 1164.2 524.9 1159.8 525.6 1157.5 528.7 C 1155.3 531.8 1155.9 536.2 1159.1 538.5 Z M 1159.1 538.5 " fill="#525252"></path><path d="M 0.1 12.0 L 0.1 14.0 C 0.0 52.2 0.0 90.4 0.0 128.6 " fill="none" stroke="#525252" stroke-width="4.00" stroke-linejoin="round" transform="matrix(1.00, 0.00, 0.00, -1.00, 1162.9, 655.3)"></path><path d="M 1156.0 648.3 C 1156.0 652.2 1159.1 655.3 1163.0 655.3 C 1166.8 655.3 1170.0 652.2 1170.0 648.3 C 1170.0 644.4 1166.8 641.3 1163.0 641.3 C 1159.1 641.3 1156.0 644.4 1156.0 648.3 Z M 1156.0 648.3 " fill="#525252"></path><path d="M 32.9 9.0 L 31.6 10.5 C 7.2 41.0 -3.1 77.2 0.8 119.4 " fill="none" stroke="#525252" stroke-width="4.00" stroke-linejoin="round" transform="matrix(1.00, 0.00, 0.00, -1.00, 1162.6, 768.1)"></path><path d="M 1193.5 767.4 C 1196.1 770.3 1200.5 770.6 1203.4 768.1 C 1206.3 765.5 1206.6 761.1 1204.0 758.2 C 1201.5 755.3 1197.1 755.0 1194.2 757.5 C 1191.3 760.1 1191.0 764.5 1193.5 767.4 Z M 1193.5 767.4 " fill="#525252"></path><path d="M 0.0 14.8 L 0.0 16.8 C 0.0 41.6 0.0 66.3 0.1 91.1 " fill="none" stroke="#525252" stroke-width="4.00" stroke-dasharray="4.0, 4.0" transform="matrix(1.00, 0.00, 0.00, -1.00, 1198.2, 853.0)"></path><path d="M 1206.6 836.2 L 1198.2 853.0 L 1189.8 836.2 Z M 1206.6 836.2 " fill="#525252"></path><text xml:space="preserve" font-family="SourceSansPro-Semibold" font-weight="bold" font-size="36.0" fill="#525252" transform="matrix(1.00, 0.00, -0.00, -1.00, 1246.0, 295.0)">2</text><text xml:space="preserve" font-family="SourceSansPro-Semibold" font-weight="bold" font-size="36.0" fill="#525252" transform="matrix(1.00, 0.00, -0.00, -1.00, 1264.5, 295.0)">0</text><text xml:space="preserve" font-family="SourceSansPro-Semibold" font-weight="bold" font-size="36.0" fill="#525252" transform="matrix(1.00, 0.00, -0.00, -1.00, 1282.9, 295.0)">0</text><text xml:space="preserve" font-family="SourceSansPro-Semibold" font-weight="bold" font-size="36.0" fill="#525252" transform="matrix(1.00, 0.00, -0.00, -1.00, 1301.4, 295.0)">9</text><text xml:space="preserve" font-family="SourceSansPro-Regular" font-size="36.0" fill="#525252" transform="matrix(1.00, 0.00, -0.00, -1.00, 1319.9, 295.0)"> </text><text xml:space="preserve" font-family="SourceSansPro-Regular" font-size="30.0" fill="#525252" transform="matrix(1.00, 0.00, -0.00, -1.00, 1327.1, 295.0)">M</text><text xml:space="preserve" font-family="SourceSansPro-Regular" font-size="30.0" fill="#525252" transform="matrix(1.00, 0.00, -0.00, -1.00, 1349.0, 295.0)">a</text><text xml:space="preserve" font-family="SourceSansPro-Regular" font-size="30.0" fill="#525252" transform="matrix(1.00, 0.00, -0.00, -1.00, 1364.3, 295.0)">s</text><text xml:space="preserve" font-family="SourceSansPro-Regular" font-size="30.0" fill="#525252" transform="matrix(1.00, 0.00, -0.00, -1.00, 1376.9, 295.0)">t</text><text xml:space="preserve" font-family="SourceSansPro-Regular" font-size="30.0" fill="#525252" transform="matrix(1.00, 0.00, -0.00, -1.00, 1386.7, 295.0)">e</text><text xml:space="preserve" font-family="SourceSansPro-Regular" font-size="30.0" fill="#525252" transform="matrix(1.00, 0.00, -0.00, -1.00, 1401.6, 295.0)">r</text><text xml:space="preserve" font-family="SourceSansPro-Regular" font-size="30.0" fill="#525252" transform="matrix(1.00, 0.00, -0.00, -1.00, 1411.8, 295.0)">’</text><text xml:space="preserve" font-family="SourceSansPro-Regular" font-size="30.0" fill="#525252" transform="matrix(1.00, 0.00, -0.00, -1.00, 1417.8, 295.0)">s</text><text xml:space="preserve" font-family="SourceSansPro-Regular" font-size="30.0" fill="#525252" transform="matrix(1.00, 0.00, -0.00, -1.00, 1430.4, 295.0)"> </text><text xml:space="preserve" font-family="SourceSansPro-Regular" font-size="30.0" fill="#525252" transform="matrix(1.00, 0.00, -0.00, -1.00, 1436.4, 295.0)">d</text><text xml:space="preserve" font-family="SourceSansPro-Regular" font-size="30.0" fill="#525252" transform="matrix(1.00, 0.00, -0.00, -1.00, 1453.1, 295.0)">e</text><text xml:space="preserve" font-family="SourceSansPro-Regular" font-size="30.0" fill="#525252" transform="matrix(1.00, 0.00, -0.00, -1.00, 1467.7, 295.0)">g</text><text xml:space="preserve" font-family="SourceSansPro-Regular" font-size="30.0" fill="#525252" transform="matrix(1.00, 0.00, -0.00, -1.00, 1482.8, 295.0)">r</text><text xml:space="preserve" font-family="SourceSansPro-Regular" font-size="30.0" fill="#525252" transform="matrix(1.00, 0.00, -0.00, -1.00, 1492.9, 295.0)">e</text><text xml:space="preserve" font-family="SourceSansPro-Regular" font-size="30.0" fill="#525252" transform="matrix(1.00, 0.00, -0.00, -1.00, 1507.8, 295.0)">e</text><text xml:space="preserve" font-family="SourceSansPro-Regular" font-size="30.0" fill="#525252" transform="matrix(1.00, 0.00, -0.00, -1.00, 1522.7, 295.0)"> </text><text xml:space="preserve" font-family="SourceSansPro-Regular" font-size="30.0" fill="#525252" transform="matrix(1.00, 0.00, -0.00, -1.00, 1528.7, 295.0)">i</text><text xml:space="preserve" font-family="SourceSansPro-Regular" font-size="30.0" fill="#525252" transform="matrix(1.00, 0.00, -0.00, -1.00, 1536.1, 295.0)">n</text><text xml:space="preserve" font-family="SourceSansPro-Regular" font-size="30.0" fill="#525252" transform="matrix(1.00, 0.00, -0.00, -1.00, 1552.5, 295.0)"> </text><text xml:space="preserve" font-family="SourceSansPro-Regular" font-size="30.0" fill="#525252" transform="matrix(1.00, 0.00, -0.00, -1.00, 1558.6, 295.0)">B</text><text xml:space="preserve" font-family="SourceSansPro-Regular" font-size="30.0" fill="#525252" transform="matrix(1.00, 0.00, -0.00, -1.00, 1576.2, 295.0)">.</text><text xml:space="preserve" font-family="SourceSansPro-Regular" font-size="30.0" fill="#525252" transform="matrix(1.00, 0.00, -0.00, -1.00, 1583.7, 295.0)">A</text><text xml:space="preserve" font-family="SourceSansPro-Regular" font-size="30.0" fill="#525252" transform="matrix(1.00, 0.00, -0.00, -1.00, 1600.0, 295.0)">.</text><text xml:space="preserve" font-family="SourceSansPro-Semibold" font-weight="bold" font-size="36.0" fill="#525252" transform="matrix(1.00, 0.00, -0.00, -1.00, 1246.0, 409.0)">2</text><text xml:space="preserve" font-family="SourceSansPro-Semibold" font-weight="bold" font-size="36.0" fill="#525252" transform="matrix(1.00, 0.00, -0.00, -1.00, 1264.5, 409.0)">0</text><text xml:space="preserve" font-family="SourceSansPro-Semibold" font-weight="bold" font-size="36.0" fill="#525252" transform="matrix(1.00, 0.00, -0.00, -1.00, 1282.9, 409.0)">1</text><text xml:space="preserve" font-family="SourceSansPro-Semibold" font-weight="bold" font-size="36.0" fill="#525252" transform="matrix(1.00, 0.00, -0.00, -1.00, 1301.4, 409.0)">1</text><text xml:space="preserve" font-family="SourceSansPro-Regular" font-size="36.0" fill="#525252" transform="matrix(1.00, 0.00, -0.00, -1.00, 1319.9, 409.0)"> </text><text xml:space="preserve" font-family="SourceSansPro-Regular" font-size="30.0" fill="#525252" transform="matrix(1.00, 0.00, -0.00, -1.00, 1327.1, 409.0)">B</text><text xml:space="preserve" font-family="SourceSansPro-Regular" font-size="30.0" fill="#525252" transform="matrix(1.00, 0.00, -0.00, -1.00, 1344.8, 409.0)">u</text><text xml:space="preserve" font-family="SourceSansPro-Regular" font-size="30.0" fill="#525252" transform="matrix(1.00, 0.00, -0.00, -1.00, 1361.1, 409.0)">s</text><text xml:space="preserve" font-family="SourceSansPro-Regular" font-size="30.0" fill="#525252" transform="matrix(1.00, 0.00, -0.00, -1.00, 1373.7, 409.0)">i</text><text xml:space="preserve" font-family="SourceSansPro-Regular" font-size="30.0" fill="#525252" transform="matrix(1.00, 0.00, -0.00, -1.00, 1381.1, 409.0)">n</text><text xml:space="preserve" font-family="SourceSansPro-Regular" font-size="30.0" fill="#525252" transform="matrix(1.00, 0.00, -0.00, -1.00, 1397.5, 409.0)">e</text><text xml:space="preserve" font-family="SourceSansPro-Regular" font-size="30.0" fill="#525252" transform="matrix(1.00, 0.00, -0.00, -1.00, 1412.3, 409.0)">s</text><text xml:space="preserve" font-family="SourceSansPro-Regular" font-size="30.0" fill="#525252" transform="matrix(1.00, 0.00, -0.00, -1.00, 1424.9, 409.0)">s</text><text xml:space="preserve" font-family="SourceSansPro-Regular" font-size="30.0" fill="#525252" transform="matrix(1.00, 0.00, -0.00, -1.00, 1437.5, 409.0)"> </text><text xml:space="preserve" font-family="SourceSansPro-Regular" font-size="30.0" fill="#525252" transform="matrix(1.00, 0.00, -0.00, -1.00, 1443.5, 409.0)">A</text><text xml:space="preserve" font-family="SourceSansPro-Regular" font-size="30.0" fill="#525252" transform="matrix(1.00, 0.00, -0.00, -1.00, 1459.9, 409.0)">n</text><text xml:space="preserve" font-family="SourceSansPro-Regular" font-size="30.0" fill="#525252" transform="matrix(1.00, 0.00, -0.00, -1.00, 1476.3, 409.0)">a</text><text xml:space="preserve" font-family="SourceSansPro-Regular" font-size="30.0" fill="#525252" transform="matrix(1.00, 0.00, -0.00, -1.00, 1491.6, 409.0)">l</text><text xml:space="preserve" font-family="SourceSansPro-Regular" font-size="30.0" fill="#525252" transform="matrix(1.00, 0.00, -0.00, -1.00, 1499.3, 409.0)">y</text><text xml:space="preserve" font-family="SourceSansPro-Regular" font-size="30.0" fill="#525252" transform="matrix(1.00, 0.00, -0.00, -1.00, 1513.3, 409.0)">s</text><text xml:space="preserve" font-family="SourceSansPro-Regular" font-size="30.0" fill="#525252" transform="matrix(1.00, 0.00, -0.00, -1.00, 1525.9, 409.0)">t</text><text xml:space="preserve" font-family="SourceSansPro-Regular" font-size="30.0" fill="#525252" transform="matrix(1.00, 0.00, -0.00, -1.00, 1536.4, 409.0)">,</text><text xml:space="preserve" font-family="SourceSansPro-Regular" font-size="30.0" fill="#525252" transform="matrix(1.00, 0.00, -0.00, -1.00, 1543.9, 409.0)"> </text><text xml:space="preserve" font-family="SourceSansPro-Regular" font-size="30.0" fill="#525252" transform="matrix(1.00, 0.00, -0.00, -1.00, 1550.0, 409.0)">M</text><text xml:space="preserve" font-family="SourceSansPro-Regular" font-size="30.0" fill="#525252" transform="matrix(1.00, 0.00, -0.00, -1.00, 1571.8, 409.0)">a</text><text xml:space="preserve" font-family="SourceSansPro-Regular" font-size="30.0" fill="#525252" transform="matrix(1.00, 0.00, -0.00, -1.00, 1587.1, 409.0)">n</text><text xml:space="preserve" font-family="SourceSansPro-Regular" font-size="30.0" fill="#525252" transform="matrix(1.00, 0.00, -0.00, -1.00, 1603.5, 409.0)">u</text><text xml:space="preserve" font-family="SourceSansPro-Regular" font-size="30.0" fill="#525252" transform="matrix(1.00, 0.00, -0.00, -1.00, 1619.9, 409.0)">f</text><text xml:space="preserve" font-family="SourceSansPro-Regular" font-size="30.0" fill="#525252" transform="matrix(1.00, 0.00, -0.00, -1.00, 1628.0, 409.0)">a</text><text xml:space="preserve" font-family="SourceSansPro-Regular" font-size="30.0" fill="#525252" transform="matrix(1.00, 0.00, -0.00, -1.00, 1643.4, 409.0)">c</text><text xml:space="preserve" font-family="SourceSansPro-Regular" font-size="30.0" fill="#525252" transform="matrix(1.00, 0.00, -0.00, -1.00, 1657.1, 409.0)">t</text><text xml:space="preserve" font-family="SourceSansPro-Regular" font-size="30.0" fill="#525252" transform="matrix(1.00, 0.00, -0.00, -1.00, 1667.0, 409.0)">u</text><text xml:space="preserve" font-family="SourceSansPro-Regular" font-size="30.0" fill="#525252" transform="matrix(1.00, 0.00, -0.00, -1.00, 1683.3, 409.0)">r</text><text xml:space="preserve" font-family="SourceSansPro-Regular" font-size="30.0" fill="#525252" transform="matrix(1.00, 0.00, -0.00, -1.00, 1693.7, 409.0)">i</text><text xml:space="preserve" font-family="SourceSansPro-Regular" font-size="30.0" fill="#525252" transform="matrix(1.00, 0.00, -0.00, -1.00, 1701.1, 409.0)">n</text><text xml:space="preserve" font-family="SourceSansPro-Regular" font-size="30.0" fill="#525252" transform="matrix(1.00, 0.00, -0.00, -1.00, 1717.5, 409.0)">g</text><text xml:space="preserve" font-family="SourceSansPro-Regular" font-size="30.0" fill="#525252" transform="matrix(1.00, 0.00, -0.00, -1.00, 1732.7, 409.0)"> </text><text xml:space="preserve" font-family="SourceSansPro-Regular" font-size="30.0" fill="#525252" transform="matrix(1.00, 0.00, -0.00, -1.00, 1738.7, 409.0)">I</text><text xml:space="preserve" font-family="SourceSansPro-Regular" font-size="30.0" fill="#525252" transform="matrix(1.00, 0.00, -0.00, -1.00, 1746.6, 409.0)">n</text><text xml:space="preserve" font-family="SourceSansPro-Regular" font-size="30.0" fill="#525252" transform="matrix(1.00, 0.00, -0.00, -1.00, 1763.0, 409.0)">d</text><text xml:space="preserve" font-family="SourceSansPro-Regular" font-size="30.0" fill="#525252" transform="matrix(1.00, 0.00, -0.00, -1.00, 1779.7, 409.0)">u</text><text xml:space="preserve" font-family="SourceSansPro-Regular" font-size="30.0" fill="#525252" transform="matrix(1.00, 0.00, -0.00, -1.00, 1796.0, 409.0)">s</text><text xml:space="preserve" font-family="SourceSansPro-Regular" font-size="30.0" fill="#525252" transform="matrix(1.00, 0.00, -0.00, -1.00, 1808.6, 409.0)">t</text><text xml:space="preserve" font-family="SourceSansPro-Regular" font-size="30.0" fill="#525252" transform="matrix(1.00, 0.00, -0.00, -1.00, 1818.7, 409.0)">r</text><text xml:space="preserve" font-family="SourceSansPro-Regular" font-size="30.0" fill="#525252" transform="matrix(1.00, 0.00, -0.00, -1.00, 1829.7, 409.0)">y</text><text xml:space="preserve" font-family="SourceSansPro-Semibold" font-weight="bold" font-size="36.0" fill="#525252" transform="matrix(1.00, 0.00, -0.00, -1.00, 1246.0, 524.0)">2</text><text xml:space="preserve" font-family="SourceSansPro-Semibold" font-weight="bold" font-size="36.0" fill="#525252" transform="matrix(1.00, 0.00, -0.00, -1.00, 1264.5, 524.0)">0</text><text xml:space="preserve" font-family="SourceSansPro-Semibold" font-weight="bold" font-size="36.0" fill="#525252" transform="matrix(1.00, 0.00, -0.00, -1.00, 1282.9, 524.0)">1</text><text xml:space="preserve" font-family="SourceSansPro-Semibold" font-weight="bold" font-size="36.0" fill="#525252" transform="matrix(1.00, 0.00, -0.00, -1.00, 1301.4, 524.0)">4</text><text xml:space="preserve" font-family="SourceSansPro-Regular" font-size="36.0" fill="#525252" transform="matrix(1.00, 0.00, -0.00, -1.00, 1319.9, 524.0)"> </text><text xml:space="preserve" font-family="SourceSansPro-Regular" font-size="30.0" fill="#525252" transform="matrix(1.00, 0.00, -0.00, -1.00, 1327.1, 524.0)">F</text><text xml:space="preserve" font-family="SourceSansPro-Regular" font-size="30.0" fill="#525252" transform="matrix(1.00, 0.00, -0.00, -1.00, 1341.5, 524.0)">o</text><text xml:space="preserve" font-family="SourceSansPro-Regular" font-size="30.0" fill="#525252" transform="matrix(1.00, 0.00, -0.00, -1.00, 1357.8, 524.0)">u</text><text xml:space="preserve" font-family="SourceSansPro-Regular" font-size="30.0" fill="#525252" transform="matrix(1.00, 0.00, -0.00, -1.00, 1374.1, 524.0)">n</text><text xml:space="preserve" font-family="SourceSansPro-Regular" font-size="30.0" fill="#525252" transform="matrix(1.00, 0.00, -0.00, -1.00, 1390.5, 524.0)">d</text><text xml:space="preserve" font-family="SourceSansPro-Regular" font-size="30.0" fill="#525252" transform="matrix(1.00, 0.00, -0.00, -1.00, 1407.2, 524.0)">e</text><text xml:space="preserve" font-family="SourceSansPro-Regular" font-size="30.0" fill="#525252" transform="matrix(1.00, 0.00, -0.00, -1.00, 1422.1, 524.0)">r</text><text xml:space="preserve" font-family="SourceSansPro-Regular" font-size="30.0" fill="#525252" transform="matrix(1.00, 0.00, -0.00, -1.00, 1432.5, 524.0)"> </text><text xml:space="preserve" font-family="SourceSansPro-Regular" font-size="30.0" fill="#525252" transform="matrix(1.00, 0.00, -0.00, -1.00, 1438.5, 524.0)">&amp;</text><text xml:space="preserve" font-family="SourceSansPro-Regular" font-size="30.0" fill="#525252" transform="matrix(1.00, 0.00, -0.00, -1.00, 1456.8, 524.0)"> </text><text xml:space="preserve" font-family="SourceSansPro-Regular" font-size="30.0" fill="#525252" transform="matrix(1.00, 0.00, -0.00, -1.00, 1462.9, 524.0)">C</text><text xml:space="preserve" font-family="SourceSansPro-Regular" font-size="30.0" fill="#525252" transform="matrix(1.00, 0.00, -0.00, -1.00, 1480.0, 524.0)">P</text><text xml:space="preserve" font-family="SourceSansPro-Regular" font-size="30.0" fill="#525252" transform="matrix(1.00, 0.00, -0.00, -1.00, 1497.3, 524.0)">O</text><text xml:space="preserve" font-family="SourceSansPro-Regular" font-size="30.0" fill="#525252" transform="matrix(1.00, 0.00, -0.00, -1.00, 1517.2, 524.0)">,</text><text xml:space="preserve" font-family="SourceSansPro-Regular" font-size="30.0" fill="#525252" transform="matrix(1.00, 0.00, -0.00, -1.00, 1524.7, 524.0)"> </text><text xml:space="preserve" font-family="SourceSansPro-Regular" font-size="30.0" fill="#525252" transform="matrix(1.00, 0.00, -0.00, -1.00, 1530.7, 524.0)">F</text><text xml:space="preserve" font-family="SourceSansPro-Regular" font-size="30.0" fill="#525252" transform="matrix(1.00, 0.00, -0.00, -1.00, 1545.5, 524.0)">l</text><text xml:space="preserve" font-family="SourceSansPro-Regular" font-size="30.0" fill="#525252" transform="matrix(1.00, 0.00, -0.00, -1.00, 1553.2, 524.0)">a</text><text xml:space="preserve" font-family="SourceSansPro-Regular" font-size="30.0" fill="#525252" transform="matrix(1.00, 0.00, -0.00, -1.00, 1568.6, 524.0)">s</text><text xml:space="preserve" font-family="SourceSansPro-Regular" font-size="30.0" fill="#525252" transform="matrix(1.00, 0.00, -0.00, -1.00, 1581.1, 524.0)">h</text><text xml:space="preserve" font-family="SourceSansPro-Regular" font-size="30.0" fill="#525252" transform="matrix(1.00, 0.00, -0.00, -1.00, 1597.4, 524.0)">m</text><text xml:space="preserve" font-family="SourceSansPro-Regular" font-size="30.0" fill="#525252" transform="matrix(1.00, 0.00, -0.00, -1.00, 1622.3, 524.0)">a</text><text xml:space="preserve" font-family="SourceSansPro-Regular" font-size="30.0" fill="#525252" transform="matrix(1.00, 0.00, -0.00, -1.00, 1637.7, 524.0)">t</text><text xml:space="preserve" font-family="SourceSansPro-Regular" font-size="30.0" fill="#525252" transform="matrix(1.00, 0.00, -0.00, -1.00, 1647.8, 524.0)">i</text><text xml:space="preserve" font-family="SourceSansPro-Regular" font-size="30.0" fill="#525252" transform="matrix(1.00, 0.00, -0.00, -1.00, 1655.2, 524.0)">c</text><text xml:space="preserve" font-family="SourceSansPro-Regular" font-size="30.0" fill="#525252" transform="matrix(1.00, 0.00, -0.00, -1.00, 1668.9, 524.0)">.</text><text xml:space="preserve" font-family="SourceSansPro-Regular" font-size="30.0" fill="#525252" transform="matrix(1.00, 0.00, -0.00, -1.00, 1676.1, 524.0)">c</text><text xml:space="preserve" font-family="SourceSansPro-Regular" font-size="30.0" fill="#525252" transform="matrix(1.00, 0.00, -0.00, -1.00, 1689.2, 524.0)">o</text><text xml:space="preserve" font-family="SourceSansPro-Semibold" font-weight="bold" font-size="36.0" fill="#525252" transform="matrix(1.00, 0.00, -0.00, -1.00, 1246.0, 638.0)">2</text><text xml:space="preserve" font-family="SourceSansPro-Semibold" font-weight="bold" font-size="36.0" fill="#525252" transform="matrix(1.00, 0.00, -0.00, -1.00, 1264.5, 638.0)">0</text><text xml:space="preserve" font-family="SourceSansPro-Semibold" font-weight="bold" font-size="36.0" fill="#525252" transform="matrix(1.00, 0.00, -0.00, -1.00, 1282.9, 638.0)">1</text><text xml:space="preserve" font-family="SourceSansPro-Semibold" font-weight="bold" font-size="36.0" fill="#525252" transform="matrix(1.00, 0.00, -0.00, -1.00, 1301.4, 638.0)">5</text><text xml:space="preserve" font-family="SourceSansPro-Regular" font-size="36.0" fill="#525252" transform="matrix(1.00, 0.00, -0.00, -1.00, 1319.9, 638.0)"> </text><text xml:space="preserve" font-family="SourceSansPro-Regular" font-size="30.0" fill="#525252" transform="matrix(1.00, 0.00, -0.00, -1.00, 1327.1, 638.0)">P</text><text xml:space="preserve" font-family="SourceSansPro-Regular" font-size="30.0" fill="#525252" transform="matrix(1.00, 0.00, -0.00, -1.00, 1344.4, 638.0)">r</text><text xml:space="preserve" font-family="SourceSansPro-Regular" font-size="30.0" fill="#525252" transform="matrix(1.00, 0.00, -0.00, -1.00, 1354.5, 638.0)">o</text><text xml:space="preserve" font-family="SourceSansPro-Regular" font-size="30.0" fill="#525252" transform="matrix(1.00, 0.00, -0.00, -1.00, 1370.8, 638.0)">d</text><text xml:space="preserve" font-family="SourceSansPro-Regular" font-size="30.0" fill="#525252" transform="matrix(1.00, 0.00, -0.00, -1.00, 1387.4, 638.0)">u</text><text xml:space="preserve" font-family="SourceSansPro-Regular" font-size="30.0" fill="#525252" transform="matrix(1.00, 0.00, -0.00, -1.00, 1403.8, 638.0)">c</text><text xml:space="preserve" font-family="SourceSansPro-Regular" font-size="30.0" fill="#525252" transform="matrix(1.00, 0.00, -0.00, -1.00, 1417.4, 638.0)">t</text><text xml:space="preserve" font-family="SourceSansPro-Regular" font-size="30.0" fill="#525252" transform="matrix(1.00, 0.00, -0.00, -1.00, 1427.6, 638.0)"> </text><text xml:space="preserve" font-family="SourceSansPro-Regular" font-size="30.0" fill="#525252" transform="matrix(1.00, 0.00, -0.00, -1.00, 1433.6, 638.0)">M</text><text xml:space="preserve" font-family="SourceSansPro-Regular" font-size="30.0" fill="#525252" transform="matrix(1.00, 0.00, -0.00, -1.00, 1455.5, 638.0)">a</text><text xml:space="preserve" font-family="SourceSansPro-Regular" font-size="30.0" fill="#525252" transform="matrix(1.00, 0.00, -0.00, -1.00, 1470.8, 638.0)">n</text><text xml:space="preserve" font-family="SourceSansPro-Regular" font-size="30.0" fill="#525252" transform="matrix(1.00, 0.00, -0.00, -1.00, 1487.2, 638.0)">a</text><text xml:space="preserve" font-family="SourceSansPro-Regular" font-size="30.0" fill="#525252" transform="matrix(1.00, 0.00, -0.00, -1.00, 1502.6, 638.0)">g</text><text xml:space="preserve" font-family="SourceSansPro-Regular" font-size="30.0" fill="#525252" transform="matrix(1.00, 0.00, -0.00, -1.00, 1517.3, 638.0)">e</text><text xml:space="preserve" font-family="SourceSansPro-Regular" font-size="30.0" fill="#525252" transform="matrix(1.00, 0.00, -0.00, -1.00, 1532.2, 638.0)">r</text><text xml:space="preserve" font-family="SourceSansPro-Regular" font-size="30.0" fill="#525252" transform="matrix(1.00, 0.00, -0.00, -1.00, 1540.9, 638.0)">,</text><text xml:space="preserve" font-family="SourceSansPro-Regular" font-size="30.0" fill="#525252" transform="matrix(1.00, 0.00, -0.00, -1.00, 1548.3, 638.0)"> </text><text xml:space="preserve" font-family="SourceSansPro-Regular" font-size="30.0" fill="#525252" transform="matrix(1.00, 0.00, -0.00, -1.00, 1554.4, 638.0)">E</text><text xml:space="preserve" font-family="SourceSansPro-Regular" font-size="30.0" fill="#525252" transform="matrix(1.00, 0.00, -0.00, -1.00, 1570.2, 638.0)">a</text><text xml:space="preserve" font-family="SourceSansPro-Regular" font-size="30.0" fill="#525252" transform="matrix(1.00, 0.00, -0.00, -1.00, 1585.6, 638.0)">r</text><text xml:space="preserve" font-family="SourceSansPro-Regular" font-size="30.0" fill="#525252" transform="matrix(1.00, 0.00, -0.00, -1.00, 1596.0, 638.0)">l</text><text xml:space="preserve" font-family="SourceSansPro-Regular" font-size="30.0" fill="#525252" transform="matrix(1.00, 0.00, -0.00, -1.00, 1603.6, 638.0)">y</text><text xml:space="preserve" font-family="SourceSansPro-Regular" font-size="30.0" fill="#525252" transform="matrix(1.00, 0.00, -0.00, -1.00, 1617.6, 638.0)">-</text><text xml:space="preserve" font-family="SourceSansPro-Regular" font-size="30.0" fill="#525252" transform="matrix(1.00, 0.00, -0.00, -1.00, 1627.0, 638.0)">s</text><text xml:space="preserve" font-family="SourceSansPro-Regular" font-size="30.0" fill="#525252" transform="matrix(1.00, 0.00, -0.00, -1.00, 1639.5, 638.0)">t</text><text xml:space="preserve" font-family="SourceSansPro-Regular" font-size="30.0" fill="#525252" transform="matrix(1.00, 0.00, -0.00, -1.00, 1649.1, 638.0)">a</text><text xml:space="preserve" font-family="SourceSansPro-Regular" font-size="30.0" fill="#525252" transform="matrix(1.00, 0.00, -0.00, -1.00, 1664.5, 638.0)">g</text><text xml:space="preserve" font-family="SourceSansPro-Regular" font-size="30.0" fill="#525252" transform="matrix(1.00, 0.00, -0.00, -1.00, 1679.2, 638.0)">e</text><text xml:space="preserve" font-family="SourceSansPro-Regular" font-size="30.0" fill="#525252" transform="matrix(1.00, 0.00, -0.00, -1.00, 1694.1, 638.0)"> </text><text xml:space="preserve" font-family="SourceSansPro-Regular" font-size="30.0" fill="#525252" transform="matrix(1.00, 0.00, -0.00, -1.00, 1700.1, 638.0)">t</text><text xml:space="preserve" font-family="SourceSansPro-Regular" font-size="30.0" fill="#525252" transform="matrix(1.00, 0.00, -0.00, -1.00, 1710.0, 638.0)">e</text><text xml:space="preserve" font-family="SourceSansPro-Regular" font-size="30.0" fill="#525252" transform="matrix(1.00, 0.00, -0.00, -1.00, 1724.9, 638.0)">c</text><text xml:space="preserve" font-family="SourceSansPro-Regular" font-size="30.0" fill="#525252" transform="matrix(1.00, 0.00, -0.00, -1.00, 1738.5, 638.0)">h</text><text xml:space="preserve" font-family="SourceSansPro-Regular" font-size="30.0" fill="#525252" transform="matrix(1.00, 0.00, -0.00, -1.00, 1754.9, 638.0)"> </text><text xml:space="preserve" font-family="SourceSansPro-Regular" font-size="30.0" fill="#525252" transform="matrix(1.00, 0.00, -0.00, -1.00, 1760.9, 638.0)">s</text><text xml:space="preserve" font-family="SourceSansPro-Regular" font-size="30.0" fill="#525252" transform="matrix(1.00, 0.00, -0.00, -1.00, 1773.5, 638.0)">t</text><text xml:space="preserve" font-family="SourceSansPro-Regular" font-size="30.0" fill="#525252" transform="matrix(1.00, 0.00, -0.00, -1.00, 1783.1, 638.0)">a</text><text xml:space="preserve" font-family="SourceSansPro-Regular" font-size="30.0" fill="#525252" transform="matrix(1.00, 0.00, -0.00, -1.00, 1798.4, 638.0)">r</text><text xml:space="preserve" font-family="SourceSansPro-Regular" font-size="30.0" fill="#525252" transform="matrix(1.00, 0.00, -0.00, -1.00, 1808.9, 638.0)">t</text><text xml:space="preserve" font-family="SourceSansPro-Regular" font-size="30.0" fill="#525252" transform="matrix(1.00, 0.00, -0.00, -1.00, 1818.8, 638.0)">u</text><text xml:space="preserve" font-family="SourceSansPro-Regular" font-size="30.0" fill="#525252" transform="matrix(1.00, 0.00, -0.00, -1.00, 1835.1, 638.0)">p</text><text xml:space="preserve" font-family="SourceSansPro-Regular" font-size="30.0" fill="#525252" transform="matrix(1.00, 0.00, -0.00, -1.00, 1851.8, 638.0)">s</text><text xml:space="preserve" font-family="SourceSansPro-Semibold" font-weight="bold" font-size="36.0" fill="#525252" transform="matrix(1.00, 0.00, -0.00, -1.00, 1246.0, 752.0)">2</text><text xml:space="preserve" font-family="SourceSansPro-Semibold" font-weight="bold" font-size="36.0" fill="#525252" transform="matrix(1.00, 0.00, -0.00, -1.00, 1264.5, 752.0)">0</text><text xml:space="preserve" font-family="SourceSansPro-Semibold" font-weight="bold" font-size="36.0" fill="#525252" transform="matrix(1.00, 0.00, -0.00, -1.00, 1282.9, 752.0)">1</text><text xml:space="preserve" font-family="SourceSansPro-Semibold" font-weight="bold" font-size="36.0" fill="#525252" transform="matrix(1.00, 0.00, -0.00, -1.00, 1301.4, 752.0)">6</text><text xml:space="preserve" font-family="SourceSansPro-Regular" font-size="36.0" fill="#525252" transform="matrix(1.00, 0.00, -0.00, -1.00, 1319.9, 752.0)"> </text><text xml:space="preserve" font-family="SourceSansPro-Regular" font-size="30.0" fill="#525252" transform="matrix(1.00, 0.00, -0.00, -1.00, 1327.1, 752.0)">P</text><text xml:space="preserve" font-family="SourceSansPro-Regular" font-size="30.0" fill="#525252" transform="matrix(1.00, 0.00, -0.00, -1.00, 1344.4, 752.0)">r</text><text xml:space="preserve" font-family="SourceSansPro-Regular" font-size="30.0" fill="#525252" transform="matrix(1.00, 0.00, -0.00, -1.00, 1354.5, 752.0)">o</text><text xml:space="preserve" font-family="SourceSansPro-Regular" font-size="30.0" fill="#525252" transform="matrix(1.00, 0.00, -0.00, -1.00, 1370.8, 752.0)">d</text><text xml:space="preserve" font-family="SourceSansPro-Regular" font-size="30.0" fill="#525252" transform="matrix(1.00, 0.00, -0.00, -1.00, 1387.4, 752.0)">u</text><text xml:space="preserve" font-family="SourceSansPro-Regular" font-size="30.0" fill="#525252" transform="matrix(1.00, 0.00, -0.00, -1.00, 1403.8, 752.0)">c</text><text xml:space="preserve" font-family="SourceSansPro-Regular" font-size="30.0" fill="#525252" transform="matrix(1.00, 0.00, -0.00, -1.00, 1417.4, 752.0)">t</text><text xml:space="preserve" font-family="SourceSansPro-Regular" font-size="30.0" fill="#525252" transform="matrix(1.00, 0.00, -0.00, -1.00, 1427.6, 752.0)"> </text><text xml:space="preserve" font-family="SourceSansPro-Regular" font-size="30.0" fill="#525252" transform="matrix(1.00, 0.00, -0.00, -1.00, 1433.6, 752.0)">D</text><text xml:space="preserve" font-family="SourceSansPro-Regular" font-size="30.0" fill="#525252" transform="matrix(1.00, 0.00, -0.00, -1.00, 1452.1, 752.0)">e</text><text xml:space="preserve" font-family="SourceSansPro-Regular" font-size="30.0" fill="#525252" transform="matrix(1.00, 0.00, -0.00, -1.00, 1467.0, 752.0)">s</text><text xml:space="preserve" font-family="SourceSansPro-Regular" font-size="30.0" fill="#525252" transform="matrix(1.00, 0.00, -0.00, -1.00, 1479.5, 752.0)">i</text><text xml:space="preserve" font-family="SourceSansPro-Regular" font-size="30.0" fill="#525252" transform="matrix(1.00, 0.00, -0.00, -1.00, 1486.9, 752.0)">g</text><text xml:space="preserve" font-family="SourceSansPro-Regular" font-size="30.0" fill="#525252" transform="matrix(1.00, 0.00, -0.00, -1.00, 1502.0, 752.0)">n</text><text xml:space="preserve" font-family="SourceSansPro-Regular" font-size="30.0" fill="#525252" transform="matrix(1.00, 0.00, -0.00, -1.00, 1518.5, 752.0)">e</text><text xml:space="preserve" font-family="SourceSansPro-Regular" font-size="30.0" fill="#525252" transform="matrix(1.00, 0.00, -0.00, -1.00, 1533.3, 752.0)">r</text></g></svg>