<?xml version="1.0" encoding="UTF-8" standalone="no"?><svg xmlns="http://www.w3.org/2000/svg" xmlns:xlink="http://www.w3.org/1999/xlink" clip-rule="evenodd" stroke-miterlimit="4.00" viewBox="0 0 1920 1080"><desc>SVG generated by Keynote</desc><defs></defs><g transform="matrix(1.00, 0.00, -0.00, -1.00, 0.0, 1080.0)"><path d="M 0.0 1080.0 L 1920.0 1080.0 L 1920.0 0.0 L 0.0 0.0 Z M 0.0 1080.0 " fill="#FFFFFF"></path><image xlink:href="98620F952499BDE3633121A988667356.png" width="166.00" height="62.00" transform="matrix(1.00, 0.00, -0.00, -1.00, 1270.0, 909.0)"></image><g><g><clipPath id="clip-7"><path d="M 1267.0 842.0 L 1433.3 842.0 L 1433.3 914.0 L 1267.0 914.0 Z M 1267.0 842.0 "></path></clipPath><g clip-path="url(#clip-7)"><path d="M 1273.0 908.0 L 1433.0 908.0 L 1433.0 852.0 L 1273.0 852.0 Z M 1273.0 908.0 " fill="#CBCCCB"></path></g></g><g><clipPath id="clip-8"><path d="M 1273.0 852.0 L 1433.0 852.0 L 1433.0 908.0 L 1273.0 908.0 Z M 1273.0 852.0 "></path></clipPath><g clip-path="url(#clip-8)"><path d="M 271.5 87.9 L 431.5 87.9 L 431.5 143.9 L 271.5 143.9 Z M 271.5 87.9 " fill="none" stroke="#F9F9F9" stroke-width="1.50" stroke-linejoin="round" transform="matrix(1.00, 0.00, 0.00, -1.00, 1001.5, 995.9)"></path></g></g></g><image xlink:href="21DFCDD199771FD4B410194740C84088.png" width="247.00" height="62.00" transform="matrix(1.00, 0.00, -0.00, -1.00, 1029.0, 909.0)"></image><g><g><clipPath id="clip-9"><path d="M 1032.0 842.0 L 1279.0 842.0 L 1279.0 914.0 L 1032.0 914.0 Z M 1032.0 842.0 "></path></clipPath><g clip-path="url(#clip-9)"><path d="M 1032.0 908.0 L 1273.0 908.0 L 1273.0 852.0 L 1032.0 852.0 Z M 1032.0 908.0 " fill="#858584"></path></g></g><g><clipPath id="clip-10"><path d="M 1032.0 852.0 L 1273.0 852.0 L 1273.0 908.0 L 1032.0 908.0 Z M 1032.0 852.0 "></path></clipPath><g clip-path="url(#clip-10)"><path d="M 30.5 87.9 L 271.5 87.9 L 271.5 143.9 L 30.5 143.9 Z M 30.5 87.9 " fill="none" stroke="#F9F9F9" stroke-width="1.50" stroke-linejoin="round" transform="matrix(1.00, 0.00, 0.00, -1.00, 1001.5, 995.9)"></path></g></g></g><image xlink:href="../../1FE1E188-0A54-4B9C-9E00-01E6D3AD6E68/assets/54F9E5394105668DBC7A31627B00DBAC.jpeg" width="683.00" height="769.00" transform="matrix(1.41, 0.00, -0.00, -1.41, 1.0, 1082.0)"></image><text xml:space="preserve" font-family="SourceSansPro-Regular" font-size="36.0" fill="#FFFFFF" transform="matrix(1.00, 0.00, -0.00, -1.00, 834.0, 17.0)">s</text><text xml:space="preserve" font-family="SourceSansPro-Regular" font-size="36.0" fill="#FFFFFF" transform="matrix(1.00, 0.00, -0.00, -1.00, 852.7, 17.0)">o</text><text xml:space="preserve" font-family="SourceSansPro-Regular" font-size="36.0" fill="#FFFFFF" transform="matrix(1.00, 0.00, -0.00, -1.00, 875.8, 17.0)">p</text><text xml:space="preserve" font-family="SourceSansPro-Regular" font-size="36.0" fill="#FFFFFF" transform="matrix(1.00, 0.00, -0.00, -1.00, 899.4, 17.0)">h</text><text xml:space="preserve" font-family="SourceSansPro-Regular" font-size="36.0" fill="#FFFFFF" transform="matrix(1.00, 0.00, -0.00, -1.00, 922.6, 17.0)">i</text><text xml:space="preserve" font-family="SourceSansPro-Regular" font-size="36.0" fill="#FFFFFF" transform="matrix(1.00, 0.00, -0.00, -1.00, 935.0, 17.0)">a</text><text xml:space="preserve" font-family="SourceSansPro-Regular" font-size="36.0" fill="#525252" transform="matrix(1.00, 0.00, -0.00, -1.00, 957.0, 17.0)">k</text><text xml:space="preserve" font-family="SourceSansPro-Regular" font-size="36.0" fill="#525252" transform="matrix(1.00, 0.00, -0.00, -1.00, 977.8, 17.0)">c</text><text xml:space="preserve" font-family="SourceSansPro-Regular" font-size="36.0" fill="#525252" transform="matrix(1.00, 0.00, -0.00, -1.00, 997.8, 17.0)">.</text><text xml:space="preserve" font-family="SourceSansPro-Regular" font-size="36.0" fill="#525252" transform="matrix(1.00, 0.00, -0.00, -1.00, 1010.1, 17.0)">c</text><text xml:space="preserve" font-family="SourceSansPro-Regular" font-size="36.0" fill="#525252" transform="matrix(1.00, 0.00, -0.00, -1.00, 1029.4, 17.0)">o</text><text xml:space="preserve" font-family="SourceSansPro-Regular" font-size="36.0" fill="#525252" transform="matrix(1.00, 0.00, -0.00, -1.00, 1052.5, 17.0)">m</text><g><clipPath id="clip-11"><path d="M 351.0 1023.0 L 454.0 1023.0 L 454.0 932.0 L 351.0 932.0 Z M 350.6 1023.2 "></path></clipPath><g clip-path="url(#clip-11)"><image xlink:href="C0A2EBC5962CB0505E7158C619620CE4.png" width="604.00" height="531.00" transform="matrix(0.17, 0.00, -0.00, -0.17, 1693.0, 851.0)"></image></g></g><g><clipPath id="clip-12"><path d="M 361.0 1013.0 L 965.0 1013.0 L 965.0 482.0 L 361.0 482.0 Z M 360.6 1013.2 "></path></clipPath><g clip-path="url(#clip-12)"><image xlink:href="../../BC45464E-576A-4701-9297-9B07A23FCBB8/assets/C0A2EBC5962CB0505E7158C619620CE4.png" width="604.00" height="531.00" transform="matrix(1.00, 0.00, -0.00, -1.00, 1293.0, 751.0)"></image></g></g><g><clipPath id="clip-13"><path d="M 1004.3 298.7 L 1257.1 298.7 L 1257.1 551.5 L 1004.3 551.5 Z M 1004.3 298.7 "></path></clipPath><g clip-path="url(#clip-13)"><image xlink:href="7762814274C8C3A45BDC7572E6F7F64A.png" width="251.00" height="251.00" transform="matrix(1.00, 0.00, -0.00, -1.00, 1005.3, 550.5)" opacity="0.35"></image><path d="M 1214.8 512.2 C 1261.2 465.8 1261.2 390.5 1214.8 344.0 C 1168.4 297.6 1093.1 297.6 1046.7 344.0 C 1000.2 390.5 1000.2 465.8 1046.7 512.2 C 1093.1 558.6 1168.4 558.6 1214.8 512.2 Z M 1214.8 512.2 " fill="#FFFFFF"></path><path d="M 203.0 34.8 C 249.4 81.3 249.4 156.5 203.0 203.0 C 156.5 249.4 81.3 249.4 34.8 203.0 C -11.6 156.5 -11.6 81.3 34.8 34.8 C 81.3 -11.6 156.5 -11.6 203.0 34.8 Z M 203.0 34.8 " fill="none" stroke="#525252" stroke-width="1.00" transform="matrix(1.00, 0.00, 0.00, -1.00, 1011.8, 547.0)"></path></g></g><g><clipPath id="clip-14"><path d="M 1100.0 452.0 L 1195.0 452.0 L 1195.0 369.0 L 1100.0 369.0 Z M 1100.2 452.2 "></path></clipPath><g clip-path="url(#clip-14)"><g><clipPath id="clip-15"><path d="M 1100.2 368.9 L 1195.0 368.9 L 1195.0 452.2 L 1100.2 452.2 Z M 1100.2 368.9 "></path></clipPath><g clip-path="url(#clip-15)"><image xlink:href="../../BC45464E-576A-4701-9297-9B07A23FCBB8/assets/C0A2EBC5962CB0505E7158C619620CE4.png" width="604.00" height="531.00" transform="matrix(0.16, 0.00, -0.00, -0.16, 1100.0, 452.0)" opacity="0.59"></image></g></g></g></g><g><clipPath id="clip-16"><path d="M 1145.6 518.1 L 1146.1 456.2 L 1103.0 455.9 L 1102.5 517.8 Z M 1145.6 518.1 "></path></clipPath><g clip-path="url(#clip-16)"><g opacity="0.59"><g><clipPath id="clip-17"><path d="M 1103.0 456.0 L 1146.0 456.0 L 1146.0 518.0 L 1103.0 518.0 Z M 1103.0 456.0 "></path></clipPath><g clip-path="url(#clip-17)"><path d="M 1131.7 486.4 L 1142.9 486.5 L 1124.5 459.0 L 1105.7 486.2 L 1117.0 486.3 L 1116.7 514.9 L 1131.4 515.0 Z M 1131.7 486.4 " fill="#FFFFFF"></path><path d="M 28.6 11.2 L 28.6 0.0 L 55.9 18.6 L 28.6 37.1 L 28.6 25.9 L 0.0 25.9 L 0.0 11.2 Z M 28.6 11.2 " fill="none" stroke="#000000" stroke-width="4.00" stroke-linejoin="round" transform="matrix(0.01, -1.00, -1.00, -0.01, 1142.6, 515.1)"></path></g></g></g></g></g><g><clipPath id="clip-18"><path d="M 1315.4 298.4 L 1568.2 298.4 L 1568.2 551.2 L 1315.4 551.2 Z M 1315.4 298.4 "></path></clipPath><g clip-path="url(#clip-18)"><image xlink:href="../../BC45464E-576A-4701-9297-9B07A23FCBB8/assets/7762814274C8C3A45BDC7572E6F7F64A.png" width="251.00" height="251.00" transform="matrix(1.00, 0.00, -0.00, -1.00, 1316.4, 550.2)" opacity="0.35"></image><path d="M 1525.9 511.8 C 1572.3 465.4 1572.3 390.1 1525.9 343.7 C 1479.4 297.3 1404.1 297.3 1357.7 343.7 C 1311.3 390.1 1311.3 465.4 1357.7 511.8 C 1404.1 558.3 1479.4 558.3 1525.9 511.8 Z M 1525.9 511.8 " fill="#FFFFFF"></path><path d="M 203.0 34.8 C 249.4 81.3 249.4 156.5 203.0 203.0 C 156.5 249.4 81.3 249.4 34.8 203.0 C -11.6 156.5 -11.6 81.3 34.8 34.8 C 81.3 -11.6 156.5 -11.6 203.0 34.8 Z M 203.0 34.8 " fill="none" stroke="#525252" stroke-width="1.00" transform="matrix(1.00, 0.00, 0.00, -1.00, 1322.9, 546.7)"></path></g></g><g><clipPath id="clip-19"><path d="M 1361.3 372.4 L 1532.6 372.4 L 1532.6 483.1 L 1361.3 483.1 Z M 1361.3 372.4 "></path></clipPath><g clip-path="url(#clip-19)"><image xlink:href="768E3882B1D4C9D219A5E788B07267A8.png" width="172.00" height="111.00" transform="matrix(1.00, 0.00, -0.00, -1.00, 1361.0, 483.0)" opacity="0.72"></image></g></g><text xml:space="preserve" font-family="PermanentMarker" font-size="21.0" fill="#525252" transform="matrix(1.00, 0.00, -0.00, -1.00, 1014.0, 254.0)">U</text><text xml:space="preserve" font-family="PermanentMarker" font-size="21.0" fill="#525252" transform="matrix(1.00, 0.00, -0.00, -1.00, 1028.6, 254.0)">S</text><text xml:space="preserve" font-family="PermanentMarker" font-size="21.0" fill="#525252" transform="matrix(1.00, 0.00, -0.00, -1.00, 1040.7, 254.0)">E</text><text xml:space="preserve" font-family="PermanentMarker" font-size="21.0" fill="#525252" transform="matrix(1.00, 0.00, -0.00, -1.00, 1053.7, 254.0)">R</text><text xml:space="preserve" font-family="PermanentMarker" font-size="21.0" fill="#525252" transform="matrix(1.00, 0.00, -0.00, -1.00, 1067.3, 254.0)"> </text><text xml:space="preserve" font-family="PermanentMarker" font-size="21.0" fill="#525252" transform="matrix(1.00, 0.00, -0.00, -1.00, 1075.0, 254.0)">U</text><text xml:space="preserve" font-family="PermanentMarker" font-size="21.0" fill="#525252" transform="matrix(1.00, 0.00, -0.00, -1.00, 1089.6, 254.0)">N</text><text xml:space="preserve" font-family="PermanentMarker" font-size="21.0" fill="#525252" transform="matrix(1.00, 0.00, -0.00, -1.00, 1104.0, 254.0)">D</text><text xml:space="preserve" font-family="PermanentMarker" font-size="21.0" fill="#525252" transform="matrix(1.00, 0.00, -0.00, -1.00, 1116.2, 254.0)">E</text><text xml:space="preserve" font-family="PermanentMarker" font-size="21.0" fill="#525252" transform="matrix(1.00, 0.00, -0.00, -1.00, 1129.1, 254.0)">R</text><text xml:space="preserve" font-family="PermanentMarker" font-size="21.0" fill="#525252" transform="matrix(1.00, 0.00, -0.00, -1.00, 1142.7, 254.0)">S</text><text xml:space="preserve" font-family="PermanentMarker" font-size="21.0" fill="#525252" transform="matrix(1.00, 0.00, -0.00, -1.00, 1154.8, 254.0)">T</text><text xml:space="preserve" font-family="PermanentMarker" font-size="21.0" fill="#525252" transform="matrix(1.00, 0.00, -0.00, -1.00, 1166.5, 254.0)">A</text><text xml:space="preserve" font-family="PermanentMarker" font-size="21.0" fill="#525252" transform="matrix(1.00, 0.00, -0.00, -1.00, 1181.3, 254.0)">N</text><text xml:space="preserve" font-family="PermanentMarker" font-size="21.0" fill="#525252" transform="matrix(1.00, 0.00, -0.00, -1.00, 1195.6, 254.0)">D</text><text xml:space="preserve" font-family="PermanentMarker" font-size="21.0" fill="#525252" transform="matrix(1.00, 0.00, -0.00, -1.00, 1206.1, 254.0)">I</text><text xml:space="preserve" font-family="PermanentMarker" font-size="21.0" fill="#525252" transform="matrix(1.00, 0.00, -0.00, -1.00, 1216.9, 254.0)">N</text><text xml:space="preserve" font-family="PermanentMarker" font-size="21.0" fill="#525252" transform="matrix(1.00, 0.00, -0.00, -1.00, 1231.3, 254.0)">G</text><text xml:space="preserve" font-family="PermanentMarker" font-size="21.0" fill="#525252" transform="matrix(1.00, 0.00, -0.00, -1.00, 1247.9, 254.0)"> </text><text xml:space="preserve" font-family="PermanentMarker" font-size="22.0" fill="#525252" transform="matrix(1.00, 0.00, -0.00, -1.00, 1084.0, 223.0)">r</text><text xml:space="preserve" font-family="PermanentMarker" font-size="22.0" fill="#525252" transform="matrix(1.00, 0.00, -0.00, -1.00, 1095.9, 223.0)">e</text><text xml:space="preserve" font-family="PermanentMarker" font-size="22.0" fill="#525252" transform="matrix(1.00, 0.00, -0.00, -1.00, 1107.4, 223.0)">s</text><text xml:space="preserve" font-family="PermanentMarker" font-size="22.0" fill="#525252" transform="matrix(1.00, 0.00, -0.00, -1.00, 1117.6, 223.0)">e</text><text xml:space="preserve" font-family="PermanentMarker" font-size="22.0" fill="#525252" transform="matrix(1.00, 0.00, -0.00, -1.00, 1129.1, 223.0)">a</text><text xml:space="preserve" font-family="PermanentMarker" font-size="22.0" fill="#525252" transform="matrix(1.00, 0.00, -0.00, -1.00, 1141.9, 223.0)">r</text><text xml:space="preserve" font-family="PermanentMarker" font-size="22.0" fill="#525252" transform="matrix(1.00, 0.00, -0.00, -1.00, 1153.8, 223.0)">c</text><text xml:space="preserve" font-family="PermanentMarker" font-size="22.0" fill="#525252" transform="matrix(1.00, 0.00, -0.00, -1.00, 1165.1, 223.0)">h</text><text xml:space="preserve" font-family="PermanentMarker" font-size="22.0" fill="#525252" transform="matrix(1.00, 0.00, -0.00, -1.00, 1177.9, 223.0)"> </text><text xml:space="preserve" font-family="PermanentMarker" font-size="22.0" fill="#525252" transform="matrix(1.00, 0.00, -0.00, -1.00, 1029.0, 191.0)">h</text><text xml:space="preserve" font-family="PermanentMarker" font-size="22.0" fill="#525252" transform="matrix(1.00, 0.00, -0.00, -1.00, 1041.8, 191.0)">o</text><text xml:space="preserve" font-family="PermanentMarker" font-size="22.0" fill="#525252" transform="matrix(1.00, 0.00, -0.00, -1.00, 1055.6, 191.0)">l</text><text xml:space="preserve" font-family="PermanentMarker" font-size="22.0" fill="#525252" transform="matrix(1.00, 0.00, -0.00, -1.00, 1067.4, 191.0)">i</text><text xml:space="preserve" font-family="PermanentMarker" font-size="22.0" fill="#525252" transform="matrix(1.00, 0.00, -0.00, -1.00, 1074.4, 191.0)">s</text><text xml:space="preserve" font-family="PermanentMarker" font-size="22.0" fill="#525252" transform="matrix(1.00, 0.00, -0.00, -1.00, 1084.6, 191.0)">t</text><text xml:space="preserve" font-family="PermanentMarker" font-size="22.0" fill="#525252" transform="matrix(1.00, 0.00, -0.00, -1.00, 1095.2, 191.0)">i</text><text xml:space="preserve" font-family="PermanentMarker" font-size="22.0" fill="#525252" transform="matrix(1.00, 0.00, -0.00, -1.00, 1102.2, 191.0)">c</text><text xml:space="preserve" font-family="PermanentMarker" font-size="22.0" fill="#525252" transform="matrix(1.00, 0.00, -0.00, -1.00, 1113.5, 191.0)"> </text><text xml:space="preserve" font-family="PermanentMarker" font-size="22.0" fill="#525252" transform="matrix(1.00, 0.00, -0.00, -1.00, 1121.7, 191.0)">e</text><text xml:space="preserve" font-family="PermanentMarker" font-size="22.0" fill="#525252" transform="matrix(1.00, 0.00, -0.00, -1.00, 1133.2, 191.0)">x</text><text xml:space="preserve" font-family="PermanentMarker" font-size="22.0" fill="#525252" transform="matrix(1.00, 0.00, -0.00, -1.00, 1144.3, 191.0)">p</text><text xml:space="preserve" font-family="PermanentMarker" font-size="22.0" fill="#525252" transform="matrix(1.00, 0.00, -0.00, -1.00, 1155.9, 191.0)">e</text><text xml:space="preserve" font-family="PermanentMarker" font-size="22.0" fill="#525252" transform="matrix(1.00, 0.00, -0.00, -1.00, 1167.1, 191.0)">r</text><text xml:space="preserve" font-family="PermanentMarker" font-size="22.0" fill="#525252" transform="matrix(1.00, 0.00, -0.00, -1.00, 1179.0, 191.0)">i</text><text xml:space="preserve" font-family="PermanentMarker" font-size="22.0" fill="#525252" transform="matrix(1.00, 0.00, -0.00, -1.00, 1186.1, 191.0)">e</text><text xml:space="preserve" font-family="PermanentMarker" font-size="22.0" fill="#525252" transform="matrix(1.00, 0.00, -0.00, -1.00, 1197.6, 191.0)">n</text><text xml:space="preserve" font-family="PermanentMarker" font-size="22.0" fill="#525252" transform="matrix(1.00, 0.00, -0.00, -1.00, 1210.0, 191.0)">c</text><text xml:space="preserve" font-family="PermanentMarker" font-size="22.0" fill="#525252" transform="matrix(1.00, 0.00, -0.00, -1.00, 1221.1, 191.0)">e</text><text xml:space="preserve" font-family="PermanentMarker" font-size="22.0" fill="#525252" transform="matrix(1.00, 0.00, -0.00, -1.00, 1232.6, 191.0)"> </text><text xml:space="preserve" font-family="PermanentMarker" font-size="22.0" fill="#525252" transform="matrix(1.00, 0.00, -0.00, -1.00, 1051.0, 159.0)">j</text><text xml:space="preserve" font-family="PermanentMarker" font-size="22.0" fill="#525252" transform="matrix(1.00, 0.00, -0.00, -1.00, 1062.8, 159.0)">o</text><text xml:space="preserve" font-family="PermanentMarker" font-size="22.0" fill="#525252" transform="matrix(1.00, 0.00, -0.00, -1.00, 1076.2, 159.0)">b</text><text xml:space="preserve" font-family="PermanentMarker" font-size="22.0" fill="#525252" transform="matrix(1.00, 0.00, -0.00, -1.00, 1088.8, 159.0)"> </text><text xml:space="preserve" font-family="PermanentMarker" font-size="22.0" fill="#525252" transform="matrix(1.00, 0.00, -0.00, -1.00, 1096.9, 159.0)">t</text><text xml:space="preserve" font-family="PermanentMarker" font-size="22.0" fill="#525252" transform="matrix(1.00, 0.00, -0.00, -1.00, 1106.8, 159.0)">o</text><text xml:space="preserve" font-family="PermanentMarker" font-size="22.0" fill="#525252" transform="matrix(1.00, 0.00, -0.00, -1.00, 1120.7, 159.0)"> </text><text xml:space="preserve" font-family="PermanentMarker" font-size="22.0" fill="#525252" transform="matrix(1.00, 0.00, -0.00, -1.00, 1128.8, 159.0)">b</text><text xml:space="preserve" font-family="PermanentMarker" font-size="22.0" fill="#525252" transform="matrix(1.00, 0.00, -0.00, -1.00, 1141.4, 159.0)">e</text><text xml:space="preserve" font-family="PermanentMarker" font-size="22.0" fill="#525252" transform="matrix(1.00, 0.00, -0.00, -1.00, 1152.9, 159.0)"> </text><text xml:space="preserve" font-family="PermanentMarker" font-size="22.0" fill="#525252" transform="matrix(1.00, 0.00, -0.00, -1.00, 1161.0, 159.0)">d</text><text xml:space="preserve" font-family="PermanentMarker" font-size="22.0" fill="#525252" transform="matrix(1.00, 0.00, -0.00, -1.00, 1172.0, 159.0)">o</text><text xml:space="preserve" font-family="PermanentMarker" font-size="22.0" fill="#525252" transform="matrix(1.00, 0.00, -0.00, -1.00, 1185.8, 159.0)">n</text><text xml:space="preserve" font-family="PermanentMarker" font-size="22.0" fill="#525252" transform="matrix(1.00, 0.00, -0.00, -1.00, 1198.2, 159.0)">e</text><text xml:space="preserve" font-family="PermanentMarker" font-size="21.0" fill="#525252" transform="matrix(1.00, 0.00, -0.00, -1.00, 1359.0, 254.0)">R</text><text xml:space="preserve" font-family="PermanentMarker" font-size="21.0" fill="#525252" transform="matrix(1.00, 0.00, -0.00, -1.00, 1372.6, 254.0)">A</text><text xml:space="preserve" font-family="PermanentMarker" font-size="21.0" fill="#525252" transform="matrix(1.00, 0.00, -0.00, -1.00, 1387.3, 254.0)">P</text><text xml:space="preserve" font-family="PermanentMarker" font-size="21.0" fill="#525252" transform="matrix(1.00, 0.00, -0.00, -1.00, 1400.3, 254.0)">I</text><text xml:space="preserve" font-family="PermanentMarker" font-size="21.0" fill="#525252" transform="matrix(1.00, 0.00, -0.00, -1.00, 1411.2, 254.0)">D</text><text xml:space="preserve" font-family="PermanentMarker" font-size="21.0" fill="#525252" transform="matrix(1.00, 0.00, -0.00, -1.00, 1423.5, 254.0)"> </text><text xml:space="preserve" font-family="PermanentMarker" font-size="21.0" fill="#525252" transform="matrix(1.00, 0.00, -0.00, -1.00, 1431.3, 254.0)">T</text><text xml:space="preserve" font-family="PermanentMarker" font-size="21.0" fill="#525252" transform="matrix(1.00, 0.00, -0.00, -1.00, 1444.1, 254.0)">E</text><text xml:space="preserve" font-family="PermanentMarker" font-size="21.0" fill="#525252" transform="matrix(1.00, 0.00, -0.00, -1.00, 1457.2, 254.0)">S</text><text xml:space="preserve" font-family="PermanentMarker" font-size="21.0" fill="#525252" transform="matrix(1.00, 0.00, -0.00, -1.00, 1469.3, 254.0)">T</text><text xml:space="preserve" font-family="PermanentMarker" font-size="21.0" fill="#525252" transform="matrix(1.00, 0.00, -0.00, -1.00, 1482.1, 254.0)">I</text><text xml:space="preserve" font-family="PermanentMarker" font-size="21.0" fill="#525252" transform="matrix(1.00, 0.00, -0.00, -1.00, 1492.9, 254.0)">N</text><text xml:space="preserve" font-family="PermanentMarker" font-size="21.0" fill="#525252" transform="matrix(1.00, 0.00, -0.00, -1.00, 1507.3, 254.0)">G</text><text xml:space="preserve" font-family="PermanentMarker" font-size="21.0" fill="#525252" transform="matrix(1.00, 0.00, -0.00, -1.00, 1523.9, 254.0)"> </text><text xml:space="preserve" font-family="PermanentMarker" font-size="22.0" fill="#525252" transform="matrix(1.00, 0.00, -0.00, -1.00, 1380.0, 223.0)">w</text><text xml:space="preserve" font-family="PermanentMarker" font-size="22.0" fill="#525252" transform="matrix(1.00, 0.00, -0.00, -1.00, 1398.2, 223.0)">i</text><text xml:space="preserve" font-family="PermanentMarker" font-size="22.0" fill="#525252" transform="matrix(1.00, 0.00, -0.00, -1.00, 1405.2, 223.0)">r</text><text xml:space="preserve" font-family="PermanentMarker" font-size="22.0" fill="#525252" transform="matrix(1.00, 0.00, -0.00, -1.00, 1417.1, 223.0)">e</text><text xml:space="preserve" font-family="PermanentMarker" font-size="22.0" fill="#525252" transform="matrix(1.00, 0.00, -0.00, -1.00, 1428.6, 223.0)">f</text><text xml:space="preserve" font-family="PermanentMarker" font-size="22.0" fill="#525252" transform="matrix(1.00, 0.00, -0.00, -1.00, 1438.6, 223.0)">r</text><text xml:space="preserve" font-family="PermanentMarker" font-size="22.0" fill="#525252" transform="matrix(1.00, 0.00, -0.00, -1.00, 1450.5, 223.0)">a</text><text xml:space="preserve" font-family="PermanentMarker" font-size="22.0" fill="#525252" transform="matrix(1.00, 0.00, -0.00, -1.00, 1463.3, 223.0)">m</text><text xml:space="preserve" font-family="PermanentMarker" font-size="22.0" fill="#525252" transform="matrix(1.00, 0.00, -0.00, -1.00, 1481.2, 223.0)">e</text><text xml:space="preserve" font-family="PermanentMarker" font-size="22.0" fill="#525252" transform="matrix(1.00, 0.00, -0.00, -1.00, 1492.7, 223.0)">s</text><text xml:space="preserve" font-family="PermanentMarker" font-size="22.0" fill="#525252" transform="matrix(1.00, 0.00, -0.00, -1.00, 1502.9, 223.0)"> </text><text xml:space="preserve" font-family="PermanentMarker" font-size="22.0" fill="#525252" transform="matrix(1.00, 0.00, -0.00, -1.00, 1511.0, 223.0)"> </text><text xml:space="preserve" font-family="PermanentMarker" font-size="22.0" fill="#525252" transform="matrix(1.00, 0.00, -0.00, -1.00, 1389.0, 191.0)">i</text><text xml:space="preserve" font-family="PermanentMarker" font-size="22.0" fill="#525252" transform="matrix(1.00, 0.00, -0.00, -1.00, 1396.1, 191.0)">t</text><text xml:space="preserve" font-family="PermanentMarker" font-size="22.0" fill="#525252" transform="matrix(1.00, 0.00, -0.00, -1.00, 1406.6, 191.0)">e</text><text xml:space="preserve" font-family="PermanentMarker" font-size="22.0" fill="#525252" transform="matrix(1.00, 0.00, -0.00, -1.00, 1417.9, 191.0)">r</text><text xml:space="preserve" font-family="PermanentMarker" font-size="22.0" fill="#525252" transform="matrix(1.00, 0.00, -0.00, -1.00, 1429.8, 191.0)">a</text><text xml:space="preserve" font-family="PermanentMarker" font-size="22.0" fill="#525252" transform="matrix(1.00, 0.00, -0.00, -1.00, 1441.5, 191.0)">t</text><text xml:space="preserve" font-family="PermanentMarker" font-size="22.0" fill="#525252" transform="matrix(1.00, 0.00, -0.00, -1.00, 1452.0, 191.0)">i</text><text xml:space="preserve" font-family="PermanentMarker" font-size="22.0" fill="#525252" transform="matrix(1.00, 0.00, -0.00, -1.00, 1458.7, 191.0)">o</text><text xml:space="preserve" font-family="PermanentMarker" font-size="22.0" fill="#525252" transform="matrix(1.00, 0.00, -0.00, -1.00, 1472.5, 191.0)">n</text><text xml:space="preserve" font-family="PermanentMarker" font-size="22.0" fill="#525252" transform="matrix(1.00, 0.00, -0.00, -1.00, 1484.9, 191.0)">s</text><text xml:space="preserve" font-family="PermanentMarker" font-size="22.0" fill="#525252" transform="matrix(1.00, 0.00, -0.00, -1.00, 1495.1, 191.0)"> </text><text xml:space="preserve" font-family="PermanentMarker" font-size="22.0" fill="#525252" transform="matrix(1.00, 0.00, -0.00, -1.00, 1410.0, 159.0)">s</text><text xml:space="preserve" font-family="PermanentMarker" font-size="22.0" fill="#525252" transform="matrix(1.00, 0.00, -0.00, -1.00, 1420.0, 159.0)">p</text><text xml:space="preserve" font-family="PermanentMarker" font-size="22.0" fill="#525252" transform="matrix(1.00, 0.00, -0.00, -1.00, 1431.5, 159.0)">r</text><text xml:space="preserve" font-family="PermanentMarker" font-size="22.0" fill="#525252" transform="matrix(1.00, 0.00, -0.00, -1.00, 1443.4, 159.0)">i</text><text xml:space="preserve" font-family="PermanentMarker" font-size="22.0" fill="#525252" transform="matrix(1.00, 0.00, -0.00, -1.00, 1450.5, 159.0)">n</text><text xml:space="preserve" font-family="PermanentMarker" font-size="22.0" fill="#525252" transform="matrix(1.00, 0.00, -0.00, -1.00, 1462.9, 159.0)">t</text><g><clipPath id="clip-20"><path d="M 1626.4 298.7 L 1879.2 298.7 L 1879.2 551.5 L 1626.4 551.5 Z M 1626.4 298.7 "></path></clipPath><g clip-path="url(#clip-20)"><image xlink:href="../../BC45464E-576A-4701-9297-9B07A23FCBB8/assets/7762814274C8C3A45BDC7572E6F7F64A.png" width="251.00" height="251.00" transform="matrix(1.00, 0.00, -0.00, -1.00, 1627.4, 550.5)" opacity="0.35"></image><path d="M 1836.9 512.2 C 1883.3 465.8 1883.3 390.5 1836.9 344.0 C 1790.5 297.6 1715.2 297.6 1668.7 344.0 C 1622.3 390.5 1622.3 465.8 1668.7 512.2 C 1715.2 558.6 1790.5 558.6 1836.9 512.2 Z M 1836.9 512.2 " fill="#FFFFFF"></path><path d="M 203.0 34.8 C 249.4 81.3 249.4 156.5 203.0 203.0 C 156.5 249.4 81.3 249.4 34.8 203.0 C -11.6 156.5 -11.6 81.3 34.8 34.8 C 81.3 -11.6 156.5 -11.6 203.0 34.8 Z M 203.0 34.8 " fill="none" stroke="#525252" stroke-width="1.00" transform="matrix(1.00, 0.00, 0.00, -1.00, 1633.9, 547.0)"></path></g></g><g><clipPath id="clip-21"><path d="M 1688.0 470.0 L 1818.0 470.0 L 1818.0 386.0 L 1688.0 386.0 Z M 1688.0 469.8 "></path></clipPath><g clip-path="url(#clip-21)"><g><clipPath id="clip-22"><path d="M 1688.0 386.5 L 1817.6 386.5 L 1817.6 469.8 L 1688.0 469.8 Z M 1688.0 386.5 "></path></clipPath><g clip-path="url(#clip-22)"><image xlink:href="A004C3644361FBB75BAE4B99DB348224.png" width="130.00" height="83.00" transform="matrix(1.00, 0.00, -0.00, -1.01, 1688.0, 470.0)" opacity="0.53"></image></g></g></g></g><text xml:space="preserve" font-family="PermanentMarker" font-size="21.0" fill="#525252" transform="matrix(1.00, 0.00, -0.00, -1.00, 1617.0, 254.0)">S</text><text xml:space="preserve" font-family="PermanentMarker" font-size="21.0" fill="#525252" transform="matrix(1.00, 0.00, -0.00, -1.00, 1629.1, 254.0)">T</text><text xml:space="preserve" font-family="PermanentMarker" font-size="21.0" fill="#525252" transform="matrix(1.00, 0.00, -0.00, -1.00, 1640.8, 254.0)">A</text><text xml:space="preserve" font-family="PermanentMarker" font-size="21.0" fill="#525252" transform="matrix(1.00, 0.00, -0.00, -1.00, 1655.6, 254.0)">K</text><text xml:space="preserve" font-family="PermanentMarker" font-size="21.0" fill="#525252" transform="matrix(1.00, 0.00, -0.00, -1.00, 1671.9, 254.0)">E</text><text xml:space="preserve" font-family="PermanentMarker" font-size="21.0" fill="#525252" transform="matrix(1.00, 0.00, -0.00, -1.00, 1685.0, 254.0)">H</text><text xml:space="preserve" font-family="PermanentMarker" font-size="21.0" fill="#525252" transform="matrix(1.00, 0.00, -0.00, -1.00, 1699.7, 254.0)">O</text><text xml:space="preserve" font-family="PermanentMarker" font-size="21.0" fill="#525252" transform="matrix(1.00, 0.00, -0.00, -1.00, 1715.3, 254.0)">L</text><text xml:space="preserve" font-family="PermanentMarker" font-size="21.0" fill="#525252" transform="matrix(1.00, 0.00, -0.00, -1.00, 1728.6, 254.0)">D</text><text xml:space="preserve" font-family="PermanentMarker" font-size="21.0" fill="#525252" transform="matrix(1.00, 0.00, -0.00, -1.00, 1740.7, 254.0)">E</text><text xml:space="preserve" font-family="PermanentMarker" font-size="21.0" fill="#525252" transform="matrix(1.00, 0.00, -0.00, -1.00, 1753.7, 254.0)">R</text><text xml:space="preserve" font-family="PermanentMarker" font-size="21.0" fill="#525252" transform="matrix(1.00, 0.00, -0.00, -1.00, 1767.3, 254.0)">S</text><text xml:space="preserve" font-family="PermanentMarker" font-size="21.0" fill="#525252" transform="matrix(1.00, 0.00, -0.00, -1.00, 1779.4, 254.0)"> </text><text xml:space="preserve" font-family="PermanentMarker" font-size="21.0" fill="#525252" transform="matrix(1.00, 0.00, -0.00, -1.00, 1787.2, 254.0)">I</text><text xml:space="preserve" font-family="PermanentMarker" font-size="21.0" fill="#525252" transform="matrix(1.00, 0.00, -0.00, -1.00, 1798.0, 254.0)">N</text><text xml:space="preserve" font-family="PermanentMarker" font-size="21.0" fill="#525252" transform="matrix(1.00, 0.00, -0.00, -1.00, 1812.3, 254.0)">T</text><text xml:space="preserve" font-family="PermanentMarker" font-size="21.0" fill="#525252" transform="matrix(1.00, 0.00, -0.00, -1.00, 1825.1, 254.0)">E</text><text xml:space="preserve" font-family="PermanentMarker" font-size="21.0" fill="#525252" transform="matrix(1.00, 0.00, -0.00, -1.00, 1838.1, 254.0)">R</text><text xml:space="preserve" font-family="PermanentMarker" font-size="21.0" fill="#525252" transform="matrix(1.00, 0.00, -0.00, -1.00, 1851.7, 254.0)">E</text><text xml:space="preserve" font-family="PermanentMarker" font-size="21.0" fill="#525252" transform="matrix(1.00, 0.00, -0.00, -1.00, 1864.8, 254.0)">S</text><text xml:space="preserve" font-family="PermanentMarker" font-size="21.0" fill="#525252" transform="matrix(1.00, 0.00, -0.00, -1.00, 1876.9, 254.0)">T</text><text xml:space="preserve" font-family="PermanentMarker" font-size="21.0" fill="#525252" transform="matrix(1.00, 0.00, -0.00, -1.00, 1889.7, 254.0)"> </text><text xml:space="preserve" font-family="PermanentMarker" font-size="22.0" fill="#525252" transform="matrix(1.00, 0.00, -0.00, -1.00, 1698.0, 223.0)">h</text><text xml:space="preserve" font-family="PermanentMarker" font-size="22.0" fill="#525252" transform="matrix(1.00, 0.00, -0.00, -1.00, 1710.8, 223.0)">t</text><text xml:space="preserve" font-family="PermanentMarker" font-size="22.0" fill="#525252" transform="matrix(1.00, 0.00, -0.00, -1.00, 1721.4, 223.0)">m</text><text xml:space="preserve" font-family="PermanentMarker" font-size="22.0" fill="#525252" transform="matrix(1.00, 0.00, -0.00, -1.00, 1739.3, 223.0)">l</text><text xml:space="preserve" font-family="PermanentMarker" font-size="22.0" fill="#525252" transform="matrix(1.00, 0.00, -0.00, -1.00, 1751.0, 223.0)"> </text><text xml:space="preserve" font-family="PermanentMarker" font-size="22.0" fill="#525252" transform="matrix(1.00, 0.00, -0.00, -1.00, 1759.2, 223.0)">/</text><text xml:space="preserve" font-family="PermanentMarker" font-size="22.0" fill="#525252" transform="matrix(1.00, 0.00, -0.00, -1.00, 1768.0, 223.0)"> </text><text xml:space="preserve" font-family="PermanentMarker" font-size="22.0" fill="#525252" transform="matrix(1.00, 0.00, -0.00, -1.00, 1776.2, 223.0)">c</text><text xml:space="preserve" font-family="PermanentMarker" font-size="22.0" fill="#525252" transform="matrix(1.00, 0.00, -0.00, -1.00, 1787.2, 223.0)">s</text><text xml:space="preserve" font-family="PermanentMarker" font-size="22.0" fill="#525252" transform="matrix(1.00, 0.00, -0.00, -1.00, 1797.4, 223.0)">s</text><text xml:space="preserve" font-family="PermanentMarker" font-size="22.0" fill="#525252" transform="matrix(1.00, 0.00, -0.00, -1.00, 1807.6, 223.0)"> </text><text xml:space="preserve" font-family="PermanentMarker" font-size="22.0" fill="#525252" transform="matrix(1.00, 0.00, -0.00, -1.00, 1675.0, 191.0)">D</text><text xml:space="preserve" font-family="PermanentMarker" font-size="22.0" fill="#525252" transform="matrix(1.00, 0.00, -0.00, -1.00, 1688.0, 191.0)">a</text><text xml:space="preserve" font-family="PermanentMarker" font-size="22.0" fill="#525252" transform="matrix(1.00, 0.00, -0.00, -1.00, 1699.6, 191.0)">t</text><text xml:space="preserve" font-family="PermanentMarker" font-size="22.0" fill="#525252" transform="matrix(1.00, 0.00, -0.00, -1.00, 1709.1, 191.0)">a</text><text xml:space="preserve" font-family="PermanentMarker" font-size="22.0" fill="#525252" transform="matrix(1.00, 0.00, -0.00, -1.00, 1721.9, 191.0)">-</text><text xml:space="preserve" font-family="PermanentMarker" font-size="22.0" fill="#525252" transform="matrix(1.00, 0.00, -0.00, -1.00, 1735.3, 191.0)">i</text><text xml:space="preserve" font-family="PermanentMarker" font-size="22.0" fill="#525252" transform="matrix(1.00, 0.00, -0.00, -1.00, 1742.4, 191.0)">n</text><text xml:space="preserve" font-family="PermanentMarker" font-size="22.0" fill="#525252" transform="matrix(1.00, 0.00, -0.00, -1.00, 1754.8, 191.0)">f</text><text xml:space="preserve" font-family="PermanentMarker" font-size="22.0" fill="#525252" transform="matrix(1.00, 0.00, -0.00, -1.00, 1764.8, 191.0)">o</text><text xml:space="preserve" font-family="PermanentMarker" font-size="22.0" fill="#525252" transform="matrix(1.00, 0.00, -0.00, -1.00, 1778.6, 191.0)">r</text><text xml:space="preserve" font-family="PermanentMarker" font-size="22.0" fill="#525252" transform="matrix(1.00, 0.00, -0.00, -1.00, 1790.5, 191.0)">m</text><text xml:space="preserve" font-family="PermanentMarker" font-size="22.0" fill="#525252" transform="matrix(1.00, 0.00, -0.00, -1.00, 1808.5, 191.0)">e</text><text xml:space="preserve" font-family="PermanentMarker" font-size="22.0" fill="#525252" transform="matrix(1.00, 0.00, -0.00, -1.00, 1820.0, 191.0)">d</text><text xml:space="preserve" font-family="PermanentMarker" font-size="22.0" fill="#525252" transform="matrix(1.00, 0.00, -0.00, -1.00, 1830.9, 191.0)"> </text><text xml:space="preserve" font-family="PermanentMarker" font-size="22.0" fill="#525252" transform="matrix(1.00, 0.00, -0.00, -1.00, 1676.0, 159.0)">f</text><text xml:space="preserve" font-family="PermanentMarker" font-size="22.0" fill="#525252" transform="matrix(1.00, 0.00, -0.00, -1.00, 1686.0, 159.0)">e</text><text xml:space="preserve" font-family="PermanentMarker" font-size="22.0" fill="#525252" transform="matrix(1.00, 0.00, -0.00, -1.00, 1697.5, 159.0)">e</text><text xml:space="preserve" font-family="PermanentMarker" font-size="22.0" fill="#525252" transform="matrix(1.00, 0.00, -0.00, -1.00, 1709.0, 159.0)">d</text><text xml:space="preserve" font-family="PermanentMarker" font-size="22.0" fill="#525252" transform="matrix(1.00, 0.00, -0.00, -1.00, 1719.5, 159.0)">b</text><text xml:space="preserve" font-family="PermanentMarker" font-size="22.0" fill="#525252" transform="matrix(1.00, 0.00, -0.00, -1.00, 1732.1, 159.0)">a</text><text xml:space="preserve" font-family="PermanentMarker" font-size="22.0" fill="#525252" transform="matrix(1.00, 0.00, -0.00, -1.00, 1744.9, 159.0)">c</text><text xml:space="preserve" font-family="PermanentMarker" font-size="22.0" fill="#525252" transform="matrix(1.00, 0.00, -0.00, -1.00, 1756.2, 159.0)">k</text><text xml:space="preserve" font-family="PermanentMarker" font-size="22.0" fill="#525252" transform="matrix(1.00, 0.00, -0.00, -1.00, 1770.3, 159.0)"> </text><text xml:space="preserve" font-family="PermanentMarker" font-size="22.0" fill="#525252" transform="matrix(1.00, 0.00, -0.00, -1.00, 1778.5, 159.0)">l</text><text xml:space="preserve" font-family="PermanentMarker" font-size="22.0" fill="#525252" transform="matrix(1.00, 0.00, -0.00, -1.00, 1790.2, 159.0)">o</text><text xml:space="preserve" font-family="PermanentMarker" font-size="22.0" fill="#525252" transform="matrix(1.00, 0.00, -0.00, -1.00, 1804.1, 159.0)">o</text><text xml:space="preserve" font-family="PermanentMarker" font-size="22.0" fill="#525252" transform="matrix(1.00, 0.00, -0.00, -1.00, 1817.5, 159.0)">p</text><text xml:space="preserve" font-family="SourceSansPro-Regular" font-size="36.0" fill="#000000" transform="matrix(1.00, 0.00, -0.00, -1.00, 1335.0, 1020.0)">E</text><text xml:space="preserve" font-family="SourceSansPro-Regular" font-size="36.0" fill="#000000" transform="matrix(1.00, 0.00, -0.00, -1.00, 1362.3, 1020.0)">x</text><text xml:space="preserve" font-family="SourceSansPro-Regular" font-size="36.0" fill="#000000" transform="matrix(1.00, 0.00, -0.00, -1.00, 1386.6, 1020.0)">p</text><text xml:space="preserve" font-family="SourceSansPro-Regular" font-size="36.0" fill="#000000" transform="matrix(1.00, 0.00, -0.00, -1.00, 1414.8, 1020.0)">e</text><text xml:space="preserve" font-family="SourceSansPro-Regular" font-size="36.0" fill="#000000" transform="matrix(1.00, 0.00, -0.00, -1.00, 1441.0, 1020.0)">r</text><text xml:space="preserve" font-family="SourceSansPro-Regular" font-size="36.0" fill="#000000" transform="matrix(1.00, 0.00, -0.00, -1.00, 1461.8, 1020.0)">t</text><text xml:space="preserve" font-family="SourceSansPro-Regular" font-size="36.0" fill="#000000" transform="matrix(1.00, 0.00, -0.00, -1.00, 1482.2, 1020.0)">i</text><text xml:space="preserve" font-family="SourceSansPro-Regular" font-size="36.0" fill="#000000" transform="matrix(1.00, 0.00, -0.00, -1.00, 1499.3, 1020.0)">s</text><text xml:space="preserve" font-family="SourceSansPro-Regular" font-size="36.0" fill="#000000" transform="matrix(1.00, 0.00, -0.00, -1.00, 1522.7, 1020.0)">e</text><text xml:space="preserve" font-family="PermanentMarker" font-size="37.0" fill="#525252" transform="matrix(1.00, 0.00, -0.00, -1.00, 1444.0, 865.0)">U</text><text xml:space="preserve" font-family="PermanentMarker" font-size="37.0" fill="#525252" transform="matrix(1.00, 0.00, -0.00, -1.00, 1469.7, 865.0)">X</text><text xml:space="preserve" font-family="PermanentMarker" font-size="37.0" fill="#525252" transform="matrix(1.00, 0.00, -0.00, -1.00, 1492.8, 865.0)"> </text><text xml:space="preserve" font-family="PermanentMarker" font-size="37.0" fill="#525252" transform="matrix(1.00, 0.00, -0.00, -1.00, 1506.5, 865.0)">D</text><text xml:space="preserve" font-family="PermanentMarker" font-size="37.0" fill="#525252" transform="matrix(1.00, 0.00, -0.00, -1.00, 1527.9, 865.0)">E</text><text xml:space="preserve" font-family="PermanentMarker" font-size="37.0" fill="#525252" transform="matrix(1.00, 0.00, -0.00, -1.00, 1551.1, 865.0)">S</text><text xml:space="preserve" font-family="PermanentMarker" font-size="37.0" fill="#525252" transform="matrix(1.00, 0.00, -0.00, -1.00, 1572.4, 865.0)">I</text><text xml:space="preserve" font-family="PermanentMarker" font-size="37.0" fill="#525252" transform="matrix(1.00, 0.00, -0.00, -1.00, 1591.5, 865.0)">G</text><text xml:space="preserve" font-family="PermanentMarker" font-size="37.0" fill="#525252" transform="matrix(1.00, 0.00, -0.00, -1.00, 1620.7, 865.0)">N</text><text xml:space="preserve" font-family="PermanentMarker" font-size="37.0" fill="#525252" transform="matrix(1.00, 0.00, -0.00, -1.00, 1444.0, 663.0)">F</text><text xml:space="preserve" font-family="PermanentMarker" font-size="37.0" fill="#525252" transform="matrix(1.00, 0.00, -0.00, -1.00, 1465.3, 663.0)">R</text><text xml:space="preserve" font-family="PermanentMarker" font-size="37.0" fill="#525252" transform="matrix(1.00, 0.00, -0.00, -1.00, 1489.2, 663.0)">O</text><text xml:space="preserve" font-family="PermanentMarker" font-size="37.0" fill="#525252" transform="matrix(1.00, 0.00, -0.00, -1.00, 1516.8, 663.0)">N</text><text xml:space="preserve" font-family="PermanentMarker" font-size="37.0" fill="#525252" transform="matrix(1.00, 0.00, -0.00, -1.00, 1542.1, 663.0)">T</text><text xml:space="preserve" font-family="PermanentMarker" font-size="37.0" fill="#525252" transform="matrix(1.00, 0.00, -0.00, -1.00, 1564.6, 663.0)">-</text><text xml:space="preserve" font-family="PermanentMarker" font-size="37.0" fill="#525252" transform="matrix(1.00, 0.00, -0.00, -1.00, 1587.1, 663.0)">E</text><text xml:space="preserve" font-family="PermanentMarker" font-size="37.0" fill="#525252" transform="matrix(1.00, 0.00, -0.00, -1.00, 1610.3, 663.0)">N</text><text xml:space="preserve" font-family="PermanentMarker" font-size="37.0" fill="#525252" transform="matrix(1.00, 0.00, -0.00, -1.00, 1635.6, 663.0)">D</text><text xml:space="preserve" font-family="PermanentMarker" font-size="37.0" fill="#525252" transform="matrix(1.00, 0.00, -0.00, -1.00, 1657.4, 663.0)"> </text><text xml:space="preserve" font-family="PermanentMarker" font-size="37.0" fill="#525252" transform="matrix(1.00, 0.00, -0.00, -1.00, 1671.1, 663.0)">D</text><text xml:space="preserve" font-family="PermanentMarker" font-size="37.0" fill="#525252" transform="matrix(1.00, 0.00, -0.00, -1.00, 1692.5, 663.0)">E</text><text xml:space="preserve" font-family="PermanentMarker" font-size="37.0" fill="#525252" transform="matrix(1.00, 0.00, -0.00, -1.00, 1715.7, 663.0)">V</text><image xlink:href="8F748331F460DBF78BA5DD8B26A88FA0.png" width="347.00" height="63.00" transform="matrix(1.00, 0.00, -0.00, -1.00, 1089.0, 707.0)"></image><g><g><clipPath id="clip-23"><path d="M 1086.0 639.0 L 1433.3 639.0 L 1433.3 712.0 L 1086.0 712.0 Z M 1086.0 639.0 "></path></clipPath><g clip-path="url(#clip-23)"><path d="M 1092.0 706.0 L 1433.0 706.0 L 1433.0 649.0 L 1092.0 649.0 Z M 1092.0 706.0 " fill="#CBCCCB"></path></g></g><g><clipPath id="clip-24"><path d="M 1092.0 649.0 L 1433.0 649.0 L 1433.0 706.0 L 1092.0 706.0 Z M 1092.0 649.0 "></path></clipPath><g clip-path="url(#clip-24)"><path d="M 90.5 87.5 L 431.5 87.5 L 431.5 144.5 L 90.5 144.5 Z M 90.5 87.5 " fill="none" stroke="#F9F9F9" stroke-width="1.50" stroke-linejoin="round" transform="matrix(1.00, 0.00, 0.00, -1.00, 1001.5, 793.5)"></path></g></g></g><image xlink:href="D0ADAC6C4389A0E488154A294277A60B.png" width="66.00" height="63.00" transform="matrix(1.00, 0.00, -0.00, -1.00, 1029.0, 707.0)"></image><g><g><clipPath id="clip-25"><path d="M 1032.0 639.0 L 1098.0 639.0 L 1098.0 712.0 L 1032.0 712.0 Z M 1032.0 639.0 "></path></clipPath><g clip-path="url(#clip-25)"><path d="M 1032.0 706.0 L 1092.0 706.0 L 1092.0 649.0 L 1032.0 649.0 Z M 1032.0 706.0 " fill="#858584"></path></g></g><g><clipPath id="clip-26"><path d="M 1032.0 649.0 L 1092.0 649.0 L 1092.0 706.0 L 1032.0 706.0 Z M 1032.0 649.0 "></path></clipPath><g clip-path="url(#clip-26)"><path d="M 30.5 87.5 L 90.5 87.5 L 90.5 144.5 L 30.5 144.5 Z M 30.5 87.5 " fill="none" stroke="#F9F9F9" stroke-width="1.50" stroke-linejoin="round" transform="matrix(1.00, 0.00, 0.00, -1.00, 1001.5, 793.5)"></path></g></g></g><image xlink:href="0BB76025C2BC9A362E644E80C5EF2405.png" width="307.00" height="63.00" transform="matrix(1.00, 0.00, -0.00, -1.00, 1129.0, 810.0)"></image><g><g><clipPath id="clip-27"><path d="M 1126.0 742.0 L 1433.3 742.0 L 1433.3 815.0 L 1126.0 815.0 Z M 1126.0 742.0 "></path></clipPath><g clip-path="url(#clip-27)"><path d="M 1132.0 809.0 L 1433.0 809.0 L 1433.0 752.0 L 1132.0 752.0 Z M 1132.0 809.0 " fill="#CBCCCB"></path></g></g><g><clipPath id="clip-28"><path d="M 1132.0 752.0 L 1433.0 752.0 L 1433.0 809.0 L 1132.0 809.0 Z M 1132.0 752.0 "></path></clipPath><g clip-path="url(#clip-28)"><path d="M 130.5 87.5 L 431.5 87.5 L 431.5 144.5 L 130.5 144.5 Z M 130.5 87.5 " fill="none" stroke="#F9F9F9" stroke-width="1.50" stroke-linejoin="round" transform="matrix(1.00, 0.00, 0.00, -1.00, 1001.5, 896.5)"></path></g></g></g><image xlink:href="6FE312A351837D0C557B46346D7BAAB3.png" width="106.00" height="63.00" transform="matrix(1.00, 0.00, -0.00, -1.00, 1029.0, 810.0)"></image><g><g><clipPath id="clip-29"><path d="M 1032.0 742.0 L 1138.0 742.0 L 1138.0 815.0 L 1032.0 815.0 Z M 1032.0 742.0 "></path></clipPath><g clip-path="url(#clip-29)"><path d="M 1032.0 809.0 L 1132.0 809.0 L 1132.0 752.0 L 1032.0 752.0 Z M 1032.0 809.0 " fill="#858584"></path></g></g><g><clipPath id="clip-30"><path d="M 1032.0 752.0 L 1132.0 752.0 L 1132.0 809.0 L 1032.0 809.0 Z M 1032.0 752.0 "></path></clipPath><g clip-path="url(#clip-30)"><path d="M 30.5 87.5 L 130.5 87.5 L 130.5 144.5 L 30.5 144.5 Z M 30.5 87.5 " fill="none" stroke="#F9F9F9" stroke-width="1.50" stroke-linejoin="round" transform="matrix(1.00, 0.00, 0.00, -1.00, 1001.5, 896.5)"></path></g></g></g><text xml:space="preserve" font-family="PermanentMarker" font-size="37.0" fill="#525252" transform="matrix(1.00, 0.00, -0.00, -1.00, 1444.0, 766.0)">M</text><text xml:space="preserve" font-family="PermanentMarker" font-size="37.0" fill="#525252" transform="matrix(1.00, 0.00, -0.00, -1.00, 1480.0, 766.0)">O</text><text xml:space="preserve" font-family="PermanentMarker" font-size="37.0" fill="#525252" transform="matrix(1.00, 0.00, -0.00, -1.00, 1506.8, 766.0)">B</text><text xml:space="preserve" font-family="PermanentMarker" font-size="37.0" fill="#525252" transform="matrix(1.00, 0.00, -0.00, -1.00, 1530.4, 766.0)">I</text><text xml:space="preserve" font-family="PermanentMarker" font-size="37.0" fill="#525252" transform="matrix(1.00, 0.00, -0.00, -1.00, 1549.4, 766.0)">L</text><text xml:space="preserve" font-family="PermanentMarker" font-size="37.0" fill="#525252" transform="matrix(1.00, 0.00, -0.00, -1.00, 1572.8, 766.0)">E</text><text xml:space="preserve" font-family="PermanentMarker" font-size="37.0" fill="#525252" transform="matrix(1.00, 0.00, -0.00, -1.00, 1596.0, 766.0)"> </text><text xml:space="preserve" font-family="PermanentMarker" font-size="37.0" fill="#525252" transform="matrix(1.00, 0.00, -0.00, -1.00, 1609.7, 766.0)">P</text><text xml:space="preserve" font-family="PermanentMarker" font-size="37.0" fill="#525252" transform="matrix(1.00, 0.00, -0.00, -1.00, 1633.4, 766.0)">R</text><text xml:space="preserve" font-family="PermanentMarker" font-size="37.0" fill="#525252" transform="matrix(1.00, 0.00, -0.00, -1.00, 1657.3, 766.0)">O</text><text xml:space="preserve" font-family="PermanentMarker" font-size="37.0" fill="#525252" transform="matrix(1.00, 0.00, -0.00, -1.00, 1683.0, 766.0)">T</text><text xml:space="preserve" font-family="PermanentMarker" font-size="37.0" fill="#525252" transform="matrix(1.00, 0.00, -0.00, -1.00, 1704.4, 766.0)">O</text><text xml:space="preserve" font-family="PermanentMarker" font-size="37.0" fill="#525252" transform="matrix(1.00, 0.00, -0.00, -1.00, 1730.1, 766.0)">T</text><text xml:space="preserve" font-family="PermanentMarker" font-size="37.0" fill="#525252" transform="matrix(1.00, 0.00, -0.00, -1.00, 1752.6, 766.0)">Y</text><text xml:space="preserve" font-family="PermanentMarker" font-size="37.0" fill="#525252" transform="matrix(1.00, 0.00, -0.00, -1.00, 1770.8, 766.0)">P</text><text xml:space="preserve" font-family="PermanentMarker" font-size="37.0" fill="#525252" transform="matrix(1.00, 0.00, -0.00, -1.00, 1793.8, 766.0)">I</text><text xml:space="preserve" font-family="PermanentMarker" font-size="37.0" fill="#525252" transform="matrix(1.00, 0.00, -0.00, -1.00, 1812.8, 766.0)">N</text><text xml:space="preserve" font-family="PermanentMarker" font-size="37.0" fill="#525252" transform="matrix(1.00, 0.00, -0.00, -1.00, 1838.1, 766.0)">G</text></g></svg>