<?xml version="1.0" encoding="UTF-8" standalone="no"?><svg xmlns="http://www.w3.org/2000/svg" xmlns:xlink="http://www.w3.org/1999/xlink" clip-rule="evenodd" stroke-miterlimit="4.00" viewBox="0 0 249 37"><desc>SVG generated by Keynote</desc><defs></defs><g transform="matrix(1.00, 0.00, -0.00, -1.00, 0.0, 37.0)"><text xml:space="preserve" font-family="SourceSansPro-Regular" font-size="36.0" fill="#525252" transform="matrix(1.00, 0.00, -0.00, -1.00, 1.0, 9.0)">s</text><text xml:space="preserve" font-family="SourceSansPro-Regular" font-size="36.0" fill="#525252" transform="matrix(1.00, 0.00, -0.00, -1.00, 19.7, 9.0)">o</text><text xml:space="preserve" font-family="SourceSansPro-Regular" font-size="36.0" fill="#525252" transform="matrix(1.00, 0.00, -0.00, -1.00, 42.8, 9.0)">p</text><text xml:space="preserve" font-family="SourceSansPro-Regular" font-size="36.0" fill="#525252" transform="matrix(1.00, 0.00, -0.00, -1.00, 66.4, 9.0)">h</text><text xml:space="preserve" font-family="SourceSansPro-Regular" font-size="36.0" fill="#525252" transform="matrix(1.00, 0.00, -0.00, -1.00, 89.6, 9.0)">i</text><text xml:space="preserve" font-family="SourceSansPro-Regular" font-size="36.0" fill="#525252" transform="matrix(1.00, 0.00, -0.00, -1.00, 102.0, 9.0)">a</text><text xml:space="preserve" font-family="SourceSansPro-Regular" font-size="36.0" fill="#525252" transform="matrix(1.00, 0.00, -0.00, -1.00, 124.0, 9.0)">k</text><text xml:space="preserve" font-family="SourceSansPro-Regular" font-size="36.0" fill="#525252" transform="matrix(1.00, 0.00, -0.00, -1.00, 144.8, 9.0)">c</text><text xml:space="preserve" font-family="SourceSansPro-Regular" font-size="36.0" fill="#525252" transform="matrix(1.00, 0.00, -0.00, -1.00, 164.8, 9.0)">.</text><text xml:space="preserve" font-family="SourceSansPro-Regular" font-size="36.0" fill="#525252" transform="matrix(1.00, 0.00, -0.00, -1.00, 177.1, 9.0)">c</text><text xml:space="preserve" font-family="SourceSansPro-Regular" font-size="36.0" fill="#525252" transform="matrix(1.00, 0.00, -0.00, -1.00, 196.4, 9.0)">o</text><text xml:space="preserve" font-family="SourceSansPro-Regular" font-size="36.0" fill="#525252" transform="matrix(1.00, 0.00, -0.00, -1.00, 219.5, 9.0)">m</text></g></svg>