<?xml version="1.0" encoding="UTF-8" standalone="no"?><svg xmlns="http://www.w3.org/2000/svg" xmlns:xlink="http://www.w3.org/1999/xlink" clip-rule="evenodd" stroke-miterlimit="4.00" viewBox="0 0 1920 1080"><desc>SVG generated by Keynote</desc><defs></defs><g transform="matrix(1.00, 0.00, -0.00, -1.00, 0.0, 1080.0)"><path d="M 0.0 1080.0 L 1920.0 1080.0 L 1920.0 0.0 L 0.0 0.0 Z M 0.0 1080.0 " fill="#FFFFFF"></path><text xml:space="preserve" font-family="SourceSansPro-Light" font-size="85.0" fill="#525252" transform="matrix(1.00, 0.00, -0.00, -1.00, 482.0, 860.0)">P</text><text xml:space="preserve" font-family="SourceSansPro-Light" font-size="85.0" fill="#525252" transform="matrix(1.00, 0.00, -0.00, -1.00, 529.5, 860.0)">r</text><text xml:space="preserve" font-family="SourceSansPro-Light" font-size="85.0" fill="#525252" transform="matrix(1.00, 0.00, -0.00, -1.00, 555.6, 860.0)">o</text><text xml:space="preserve" font-family="SourceSansPro-Light" font-size="85.0" fill="#525252" transform="matrix(1.00, 0.00, -0.00, -1.00, 601.1, 860.0)">d</text><text xml:space="preserve" font-family="SourceSansPro-Light" font-size="85.0" fill="#525252" transform="matrix(1.00, 0.00, -0.00, -1.00, 647.3, 860.0)">u</text><text xml:space="preserve" font-family="SourceSansPro-Light" font-size="85.0" fill="#525252" transform="matrix(1.00, 0.00, -0.00, -1.00, 692.3, 860.0)">c</text><text xml:space="preserve" font-family="SourceSansPro-Light" font-size="85.0" fill="#525252" transform="matrix(1.00, 0.00, -0.00, -1.00, 730.5, 860.0)">t</text><text xml:space="preserve" font-family="SourceSansPro-Light" font-size="85.0" fill="#525252" transform="matrix(1.00, 0.00, -0.00, -1.00, 757.0, 860.0)"> </text><text xml:space="preserve" font-family="SourceSansPro-Light" font-size="85.0" fill="#525252" transform="matrix(1.00, 0.00, -0.00, -1.00, 773.9, 860.0)">D</text><text xml:space="preserve" font-family="SourceSansPro-Light" font-size="85.0" fill="#525252" transform="matrix(1.00, 0.00, -0.00, -1.00, 825.2, 860.0)">e</text><text xml:space="preserve" font-family="SourceSansPro-Light" font-size="85.0" fill="#525252" transform="matrix(1.00, 0.00, -0.00, -1.00, 866.3, 860.0)">s</text><text xml:space="preserve" font-family="SourceSansPro-Light" font-size="85.0" fill="#525252" transform="matrix(1.00, 0.00, -0.00, -1.00, 900.7, 860.0)">i</text><text xml:space="preserve" font-family="SourceSansPro-Light" font-size="85.0" fill="#525252" transform="matrix(1.00, 0.00, -0.00, -1.00, 920.2, 860.0)">g</text><text xml:space="preserve" font-family="SourceSansPro-Light" font-size="85.0" fill="#525252" transform="matrix(1.00, 0.00, -0.00, -1.00, 961.6, 860.0)">n</text><text xml:space="preserve" font-family="SourceSansPro-Light" font-size="85.0" fill="#525252" transform="matrix(1.00, 0.00, -0.00, -1.00, 1006.8, 860.0)"> </text><text xml:space="preserve" font-family="SourceSansPro-Light" font-size="85.0" fill="#525252" transform="matrix(1.00, 0.00, -0.00, -1.00, 1023.7, 860.0)">w</text><text xml:space="preserve" font-family="SourceSansPro-Light" font-size="85.0" fill="#525252" transform="matrix(1.00, 0.00, -0.00, -1.00, 1081.9, 860.0)">o</text><text xml:space="preserve" font-family="SourceSansPro-Light" font-size="85.0" fill="#525252" transform="matrix(1.00, 0.00, -0.00, -1.00, 1127.4, 860.0)">r</text><text xml:space="preserve" font-family="SourceSansPro-Light" font-size="85.0" fill="#525252" transform="matrix(1.00, 0.00, -0.00, -1.00, 1154.3, 860.0)">k</text><text xml:space="preserve" font-family="SourceSansPro-Light" font-size="85.0" fill="#525252" transform="matrix(1.00, 0.00, -0.00, -1.00, 1193.8, 860.0)">s</text><text xml:space="preserve" font-family="SourceSansPro-Light" font-size="85.0" fill="#525252" transform="matrix(1.00, 0.00, -0.00, -1.00, 1228.2, 860.0)">h</text><text xml:space="preserve" font-family="SourceSansPro-Light" font-size="85.0" fill="#525252" transform="matrix(1.00, 0.00, -0.00, -1.00, 1273.1, 860.0)">o</text><text xml:space="preserve" font-family="SourceSansPro-Light" font-size="85.0" fill="#525252" transform="matrix(1.00, 0.00, -0.00, -1.00, 1318.6, 860.0)">p</text><text xml:space="preserve" font-family="SourceSansPro-Light" font-size="85.0" fill="#525252" transform="matrix(1.00, 0.00, -0.00, -1.00, 1364.8, 860.0)"> </text><text xml:space="preserve" font-family="SourceSansPro-Light" font-size="85.0" fill="#525252" transform="matrix(1.00, 0.00, -0.00, -1.00, 482.0, 753.0)">H</text><text xml:space="preserve" font-family="SourceSansPro-Light" font-size="85.0" fill="#525252" transform="matrix(1.00, 0.00, -0.00, -1.00, 536.3, 753.0)">a</text><text xml:space="preserve" font-family="SourceSansPro-Light" font-size="85.0" fill="#525252" transform="matrix(1.00, 0.00, -0.00, -1.00, 578.7, 753.0)">c</text><text xml:space="preserve" font-family="SourceSansPro-Light" font-size="85.0" fill="#525252" transform="matrix(1.00, 0.00, -0.00, -1.00, 616.9, 753.0)">k</text><text xml:space="preserve" font-family="SourceSansPro-Light" font-size="85.0" fill="#525252" transform="matrix(1.00, 0.00, -0.00, -1.00, 655.3, 753.0)">e</text><text xml:space="preserve" font-family="SourceSansPro-Light" font-size="85.0" fill="#525252" transform="matrix(1.00, 0.00, -0.00, -1.00, 696.4, 753.0)">r</text><text xml:space="preserve" font-family="SourceSansPro-Light" font-size="85.0" fill="#525252" transform="matrix(1.00, 0.00, -0.00, -1.00, 722.5, 753.0)">s</text><text xml:space="preserve" font-family="SourceSansPro-Light" font-size="85.0" fill="#525252" transform="matrix(1.00, 0.00, -0.00, -1.00, 756.9, 753.0)"> </text><text xml:space="preserve" font-family="SourceSansPro-Light" font-size="85.0" fill="#525252" transform="matrix(1.00, 0.00, -0.00, -1.00, 773.8, 753.0)">w</text><text xml:space="preserve" font-family="SourceSansPro-Light" font-size="85.0" fill="#525252" transform="matrix(1.00, 0.00, -0.00, -1.00, 832.0, 753.0)">i</text><text xml:space="preserve" font-family="SourceSansPro-Light" font-size="85.0" fill="#525252" transform="matrix(1.00, 0.00, -0.00, -1.00, 851.5, 753.0)">l</text><text xml:space="preserve" font-family="SourceSansPro-Light" font-size="85.0" fill="#525252" transform="matrix(1.00, 0.00, -0.00, -1.00, 871.6, 753.0)">l</text><text xml:space="preserve" font-family="SourceSansPro-Light" font-size="85.0" fill="#525252" transform="matrix(1.00, 0.00, -0.00, -1.00, 891.8, 753.0)">i</text><text xml:space="preserve" font-family="SourceSansPro-Light" font-size="85.0" fill="#525252" transform="matrix(1.00, 0.00, -0.00, -1.00, 911.2, 753.0)">n</text><text xml:space="preserve" font-family="SourceSansPro-Light" font-size="85.0" fill="#525252" transform="matrix(1.00, 0.00, -0.00, -1.00, 956.5, 753.0)">g</text><text xml:space="preserve" font-family="SourceSansPro-Light" font-size="85.0" fill="#525252" transform="matrix(1.00, 0.00, -0.00, -1.00, 997.9, 753.0)"> </text><text xml:space="preserve" font-family="SourceSansPro-Light" font-size="85.0" fill="#525252" transform="matrix(1.00, 0.00, -0.00, -1.00, 1014.8, 753.0)">t</text><text xml:space="preserve" font-family="SourceSansPro-Light" font-size="85.0" fill="#525252" transform="matrix(1.00, 0.00, -0.00, -1.00, 1040.4, 753.0)">o</text><text xml:space="preserve" font-family="SourceSansPro-Light" font-size="85.0" fill="#525252" transform="matrix(1.00, 0.00, -0.00, -1.00, 1085.9, 753.0)"> </text><text xml:space="preserve" font-family="SourceSansPro-Light" font-size="85.0" fill="#525252" transform="matrix(1.00, 0.00, -0.00, -1.00, 1102.8, 753.0)">l</text><text xml:space="preserve" font-family="SourceSansPro-Light" font-size="85.0" fill="#525252" transform="matrix(1.00, 0.00, -0.00, -1.00, 1123.0, 753.0)">e</text><text xml:space="preserve" font-family="SourceSansPro-Light" font-size="85.0" fill="#525252" transform="matrix(1.00, 0.00, -0.00, -1.00, 1162.8, 753.0)">a</text><text xml:space="preserve" font-family="SourceSansPro-Light" font-size="85.0" fill="#525252" transform="matrix(1.00, 0.00, -0.00, -1.00, 1205.2, 753.0)">r</text><text xml:space="preserve" font-family="SourceSansPro-Light" font-size="85.0" fill="#525252" transform="matrix(1.00, 0.00, -0.00, -1.00, 1232.1, 753.0)">n</text><text xml:space="preserve" font-family="SourceSansPro-Light" font-size="85.0" fill="#525252" transform="matrix(1.00, 0.00, -0.00, -1.00, 1277.3, 753.0)"> </text><text xml:space="preserve" font-family="SourceSansPro-Light" font-size="85.0" fill="#525252" transform="matrix(1.00, 0.00, -0.00, -1.00, 1294.3, 753.0)">a</text><text xml:space="preserve" font-family="SourceSansPro-Light" font-size="85.0" fill="#525252" transform="matrix(1.00, 0.00, -0.00, -1.00, 1336.7, 753.0)">b</text><text xml:space="preserve" font-family="SourceSansPro-Light" font-size="85.0" fill="#525252" transform="matrix(1.00, 0.00, -0.00, -1.00, 1382.9, 753.0)">o</text><text xml:space="preserve" font-family="SourceSansPro-Light" font-size="85.0" fill="#525252" transform="matrix(1.00, 0.00, -0.00, -1.00, 1428.4, 753.0)">u</text><text xml:space="preserve" font-family="SourceSansPro-Light" font-size="85.0" fill="#525252" transform="matrix(1.00, 0.00, -0.00, -1.00, 1473.4, 753.0)">t</text><text xml:space="preserve" font-family="SourceSansPro-Light" font-size="85.0" fill="#525252" transform="matrix(1.00, 0.00, -0.00, -1.00, 1499.9, 753.0)"> </text><text xml:space="preserve" font-family="SourceSansPro-Light" font-size="85.0" fill="#525252" transform="matrix(1.00, 0.00, -0.00, -1.00, 1516.8, 753.0)">d</text><text xml:space="preserve" font-family="SourceSansPro-Light" font-size="85.0" fill="#525252" transform="matrix(1.00, 0.00, -0.00, -1.00, 1563.0, 753.0)">e</text><text xml:space="preserve" font-family="SourceSansPro-Light" font-size="85.0" fill="#525252" transform="matrix(1.00, 0.00, -0.00, -1.00, 1604.1, 753.0)">s</text><text xml:space="preserve" font-family="SourceSansPro-Light" font-size="85.0" fill="#525252" transform="matrix(1.00, 0.00, -0.00, -1.00, 1638.5, 753.0)">i</text><text xml:space="preserve" font-family="SourceSansPro-Light" font-size="85.0" fill="#525252" transform="matrix(1.00, 0.00, -0.00, -1.00, 1658.0, 753.0)">g</text><text xml:space="preserve" font-family="SourceSansPro-Light" font-size="85.0" fill="#525252" transform="matrix(1.00, 0.00, -0.00, -1.00, 1699.4, 753.0)">n</text><text xml:space="preserve" font-family="SourceSansPro-Light" font-size="85.0" fill="#525252" transform="matrix(1.00, 0.00, -0.00, -1.00, 1744.6, 753.0)"> </text><text xml:space="preserve" font-family="SourceSansPro-Light" font-size="85.0" fill="#525252" transform="matrix(1.00, 0.00, -0.00, -1.00, 482.0, 646.0)">B</text><text xml:space="preserve" font-family="SourceSansPro-Light" font-size="85.0" fill="#525252" transform="matrix(1.00, 0.00, -0.00, -1.00, 531.1, 646.0)">u</text><text xml:space="preserve" font-family="SourceSansPro-Light" font-size="85.0" fill="#525252" transform="matrix(1.00, 0.00, -0.00, -1.00, 576.1, 646.0)">i</text><text xml:space="preserve" font-family="SourceSansPro-Light" font-size="85.0" fill="#525252" transform="matrix(1.00, 0.00, -0.00, -1.00, 595.6, 646.0)">l</text><text xml:space="preserve" font-family="SourceSansPro-Light" font-size="85.0" fill="#525252" transform="matrix(1.00, 0.00, -0.00, -1.00, 615.7, 646.0)">t</text><text xml:space="preserve" font-family="SourceSansPro-Light" font-size="85.0" fill="#525252" transform="matrix(1.00, 0.00, -0.00, -1.00, 642.2, 646.0)"> </text><text xml:space="preserve" font-family="SourceSansPro-Light" font-size="85.0" fill="#525252" transform="matrix(1.00, 0.00, -0.00, -1.00, 659.1, 646.0)">f</text><text xml:space="preserve" font-family="SourceSansPro-Light" font-size="85.0" fill="#525252" transform="matrix(1.00, 0.00, -0.00, -1.00, 681.5, 646.0)">r</text><text xml:space="preserve" font-family="SourceSansPro-Light" font-size="85.0" fill="#525252" transform="matrix(1.00, 0.00, -0.00, -1.00, 707.6, 646.0)">o</text><text xml:space="preserve" font-family="SourceSansPro-Light" font-size="85.0" fill="#525252" transform="matrix(1.00, 0.00, -0.00, -1.00, 753.1, 646.0)">m</text><text xml:space="preserve" font-family="SourceSansPro-Light" font-size="85.0" fill="#525252" transform="matrix(1.00, 0.00, -0.00, -1.00, 822.1, 646.0)"> </text><text xml:space="preserve" font-family="SourceSansPro-Light" font-size="85.0" fill="#525252" transform="matrix(1.00, 0.00, -0.00, -1.00, 839.0, 646.0)">s</text><text xml:space="preserve" font-family="SourceSansPro-Light" font-size="85.0" fill="#525252" transform="matrix(1.00, 0.00, -0.00, -1.00, 873.4, 646.0)">c</text><text xml:space="preserve" font-family="SourceSansPro-Light" font-size="85.0" fill="#525252" transform="matrix(1.00, 0.00, -0.00, -1.00, 911.6, 646.0)">r</text><text xml:space="preserve" font-family="SourceSansPro-Light" font-size="85.0" fill="#525252" transform="matrix(1.00, 0.00, -0.00, -1.00, 936.6, 646.0)">a</text><text xml:space="preserve" font-family="SourceSansPro-Light" font-size="85.0" fill="#525252" transform="matrix(1.00, 0.00, -0.00, -1.00, 979.0, 646.0)">t</text><text xml:space="preserve" font-family="SourceSansPro-Light" font-size="85.0" fill="#525252" transform="matrix(1.00, 0.00, -0.00, -1.00, 1004.7, 646.0)">c</text><text xml:space="preserve" font-family="SourceSansPro-Light" font-size="85.0" fill="#525252" transform="matrix(1.00, 0.00, -0.00, -1.00, 1042.8, 646.0)">h</text><text xml:space="preserve" font-family="SourceSansPro-Light" font-size="85.0" fill="#525252" transform="matrix(1.00, 0.00, -0.00, -1.00, 1087.7, 646.0)">,</text><text xml:space="preserve" font-family="SourceSansPro-Light" font-size="85.0" fill="#525252" transform="matrix(1.00, 0.00, -0.00, -1.00, 1106.3, 646.0)"> </text><text xml:space="preserve" font-family="SourceSansPro-Light" font-size="85.0" fill="#525252" transform="matrix(1.00, 0.00, -0.00, -1.00, 1123.2, 646.0)">h</text><text xml:space="preserve" font-family="SourceSansPro-Light" font-size="85.0" fill="#525252" transform="matrix(1.00, 0.00, -0.00, -1.00, 1168.1, 646.0)">e</text><text xml:space="preserve" font-family="SourceSansPro-Light" font-size="85.0" fill="#525252" transform="matrix(1.00, 0.00, -0.00, -1.00, 1209.2, 646.0)">l</text><text xml:space="preserve" font-family="SourceSansPro-Light" font-size="85.0" fill="#525252" transform="matrix(1.00, 0.00, -0.00, -1.00, 1229.3, 646.0)">d</text><text xml:space="preserve" font-family="SourceSansPro-Light" font-size="85.0" fill="#525252" transform="matrix(1.00, 0.00, -0.00, -1.00, 1275.6, 646.0)"> </text><text xml:space="preserve" font-family="SourceSansPro-Light" font-size="85.0" fill="#525252" transform="matrix(1.00, 0.00, -0.00, -1.00, 1292.5, 646.0)">a</text><text xml:space="preserve" font-family="SourceSansPro-Light" font-size="85.0" fill="#525252" transform="matrix(1.00, 0.00, -0.00, -1.00, 1334.9, 646.0)">t</text><text xml:space="preserve" font-family="SourceSansPro-Light" font-size="85.0" fill="#525252" transform="matrix(1.00, 0.00, -0.00, -1.00, 1361.4, 646.0)"> </text><text xml:space="preserve" font-family="SourceSansPro-Light" font-size="85.0" fill="#525252" transform="matrix(1.00, 0.00, -0.00, -1.00, 1378.3, 646.0)">N</text><text xml:space="preserve" font-family="SourceSansPro-Light" font-size="85.0" fill="#525252" transform="matrix(1.00, 0.00, -0.00, -1.00, 1432.4, 646.0)">o</text><text xml:space="preserve" font-family="SourceSansPro-Light" font-size="85.0" fill="#525252" transform="matrix(1.00, 0.00, -0.00, -1.00, 1477.9, 646.0)">i</text><text xml:space="preserve" font-family="SourceSansPro-Light" font-size="85.0" fill="#525252" transform="matrix(1.00, 0.00, -0.00, -1.00, 1497.3, 646.0)">s</text><text xml:space="preserve" font-family="SourceSansPro-Light" font-size="85.0" fill="#525252" transform="matrix(1.00, 0.00, -0.00, -1.00, 1531.7, 646.0)">e</text><text xml:space="preserve" font-family="SourceSansPro-Light" font-size="85.0" fill="#525252" transform="matrix(1.00, 0.00, -0.00, -1.00, 1572.8, 646.0)">b</text><text xml:space="preserve" font-family="SourceSansPro-Light" font-size="85.0" fill="#525252" transform="matrix(1.00, 0.00, -0.00, -1.00, 1619.0, 646.0)">r</text><text xml:space="preserve" font-family="SourceSansPro-Light" font-size="85.0" fill="#525252" transform="matrix(1.00, 0.00, -0.00, -1.00, 1646.0, 646.0)">i</text><text xml:space="preserve" font-family="SourceSansPro-Light" font-size="85.0" fill="#525252" transform="matrix(1.00, 0.00, -0.00, -1.00, 1665.5, 646.0)">d</text><text xml:space="preserve" font-family="SourceSansPro-Light" font-size="85.0" fill="#525252" transform="matrix(1.00, 0.00, -0.00, -1.00, 1711.7, 646.0)">g</text><text xml:space="preserve" font-family="SourceSansPro-Light" font-size="85.0" fill="#525252" transform="matrix(1.00, 0.00, -0.00, -1.00, 1752.2, 646.0)">e</text><text xml:space="preserve" font-family="SourceSansPro-Light" font-size="85.0" fill="#525252" transform="matrix(1.00, 0.00, -0.00, -1.00, 1793.2, 646.0)"> </text><text xml:space="preserve" font-family="SourceSansPro-Light" font-size="85.0" fill="#525252" transform="matrix(1.00, 0.00, -0.00, -1.00, 482.0, 539.0)">o</text><text xml:space="preserve" font-family="SourceSansPro-Light" font-size="85.0" fill="#525252" transform="matrix(1.00, 0.00, -0.00, -1.00, 527.5, 539.0)">n</text><text xml:space="preserve" font-family="SourceSansPro-Light" font-size="85.0" fill="#525252" transform="matrix(1.00, 0.00, -0.00, -1.00, 572.7, 539.0)"> </text><text xml:space="preserve" font-family="SourceSansPro-Light" font-size="85.0" fill="#525252" transform="matrix(1.00, 0.00, -0.00, -1.00, 589.6, 539.0)">J</text><text xml:space="preserve" font-family="SourceSansPro-Light" font-size="85.0" fill="#525252" transform="matrix(1.00, 0.00, -0.00, -1.00, 628.9, 539.0)">u</text><text xml:space="preserve" font-family="SourceSansPro-Light" font-size="85.0" fill="#525252" transform="matrix(1.00, 0.00, -0.00, -1.00, 673.8, 539.0)">l</text><text xml:space="preserve" font-family="SourceSansPro-Light" font-size="85.0" fill="#525252" transform="matrix(1.00, 0.00, -0.00, -1.00, 694.0, 539.0)">y</text><text xml:space="preserve" font-family="SourceSansPro-Light" font-size="85.0" fill="#525252" transform="matrix(1.00, 0.00, -0.00, -1.00, 731.1, 539.0)"> </text><text xml:space="preserve" font-family="SourceSansPro-Light" font-size="85.0" fill="#525252" transform="matrix(1.00, 0.00, -0.00, -1.00, 748.0, 539.0)">2</text><text xml:space="preserve" font-family="SourceSansPro-Light" font-size="85.0" fill="#525252" transform="matrix(1.00, 0.00, -0.00, -1.00, 788.7, 539.0)">0</text><text xml:space="preserve" font-family="SourceSansPro-Light" font-size="85.0" fill="#525252" transform="matrix(1.00, 0.00, -0.00, -1.00, 829.4, 539.0)">t</text><text xml:space="preserve" font-family="SourceSansPro-Light" font-size="85.0" fill="#525252" transform="matrix(1.00, 0.00, -0.00, -1.00, 855.9, 539.0)">h</text><text xml:space="preserve" font-family="SourceSansPro-Light" font-size="85.0" fill="#525252" transform="matrix(1.00, 0.00, -0.00, -1.00, 900.8, 539.0)"> </text><text xml:space="preserve" font-family="SourceSansPro-Light" font-size="85.0" fill="#525252" transform="matrix(1.00, 0.00, -0.00, -1.00, 917.7, 539.0)">2</text><text xml:space="preserve" font-family="SourceSansPro-Light" font-size="85.0" fill="#525252" transform="matrix(1.00, 0.00, -0.00, -1.00, 958.4, 539.0)">0</text><text xml:space="preserve" font-family="SourceSansPro-Light" font-size="85.0" fill="#525252" transform="matrix(1.00, 0.00, -0.00, -1.00, 999.1, 539.0)">1</text><text xml:space="preserve" font-family="SourceSansPro-Light" font-size="85.0" fill="#525252" transform="matrix(1.00, 0.00, -0.00, -1.00, 1039.9, 539.0)">6</text><text xml:space="preserve" font-family="SourceSansPro-Light" font-size="85.0" fill="#525252" transform="matrix(1.00, 0.00, -0.00, -1.00, 1080.6, 539.0)"> </text><text xml:space="preserve" font-family="SourceSansPro-Light" font-size="85.0" fill="#525252" transform="matrix(1.00, 0.00, -0.00, -1.00, 482.0, 325.0)">L</text><text xml:space="preserve" font-family="SourceSansPro-Light" font-size="85.0" fill="#525252" transform="matrix(1.00, 0.00, -0.00, -1.00, 520.8, 325.0)">e</text><text xml:space="preserve" font-family="SourceSansPro-Light" font-size="85.0" fill="#525252" transform="matrix(1.00, 0.00, -0.00, -1.00, 560.5, 325.0)">a</text><text xml:space="preserve" font-family="SourceSansPro-Light" font-size="85.0" fill="#525252" transform="matrix(1.00, 0.00, -0.00, -1.00, 603.0, 325.0)">r</text><text xml:space="preserve" font-family="SourceSansPro-Light" font-size="85.0" fill="#525252" transform="matrix(1.00, 0.00, -0.00, -1.00, 629.9, 325.0)">n</text><text xml:space="preserve" font-family="SourceSansPro-Light" font-size="85.0" fill="#525252" transform="matrix(1.00, 0.00, -0.00, -1.00, 675.1, 325.0)">i</text><text xml:space="preserve" font-family="SourceSansPro-Light" font-size="85.0" fill="#525252" transform="matrix(1.00, 0.00, -0.00, -1.00, 694.6, 325.0)">n</text><text xml:space="preserve" font-family="SourceSansPro-Light" font-size="85.0" fill="#525252" transform="matrix(1.00, 0.00, -0.00, -1.00, 739.8, 325.0)">g</text><text xml:space="preserve" font-family="SourceSansPro-Light" font-size="85.0" fill="#525252" transform="matrix(1.00, 0.00, -0.00, -1.00, 781.2, 325.0)"> </text><text xml:space="preserve" font-family="SourceSansPro-Light" font-size="85.0" fill="#525252" transform="matrix(1.00, 0.00, -0.00, -1.00, 798.1, 325.0)">b</text><text xml:space="preserve" font-family="SourceSansPro-Light" font-size="85.0" fill="#525252" transform="matrix(1.00, 0.00, -0.00, -1.00, 844.4, 325.0)">y</text><text xml:space="preserve" font-family="SourceSansPro-Light" font-size="85.0" fill="#525252" transform="matrix(1.00, 0.00, -0.00, -1.00, 881.4, 325.0)"> </text><text xml:space="preserve" font-family="SourceSansPro-Light" font-size="85.0" fill="#525252" transform="matrix(1.00, 0.00, -0.00, -1.00, 898.3, 325.0)">d</text><text xml:space="preserve" font-family="SourceSansPro-Light" font-size="85.0" fill="#525252" transform="matrix(1.00, 0.00, -0.00, -1.00, 944.6, 325.0)">o</text><text xml:space="preserve" font-family="SourceSansPro-Light" font-size="85.0" fill="#525252" transform="matrix(1.00, 0.00, -0.00, -1.00, 990.0, 325.0)">i</text><text xml:space="preserve" font-family="SourceSansPro-Light" font-size="85.0" fill="#525252" transform="matrix(1.00, 0.00, -0.00, -1.00, 1009.5, 325.0)">n</text><text xml:space="preserve" font-family="SourceSansPro-Light" font-size="85.0" fill="#525252" transform="matrix(1.00, 0.00, -0.00, -1.00, 1054.7, 325.0)">g</text><text xml:space="preserve" font-family="SourceSansPro-Light" font-size="85.0" fill="#525252" transform="matrix(1.00, 0.00, -0.00, -1.00, 1096.1, 325.0)">,</text><text xml:space="preserve" font-family="SourceSansPro-Light" font-size="85.0" fill="#525252" transform="matrix(1.00, 0.00, -0.00, -1.00, 1114.7, 325.0)"> </text><text xml:space="preserve" font-family="SourceSansPro-Light" font-size="85.0" fill="#525252" transform="matrix(1.00, 0.00, -0.00, -1.00, 1131.7, 325.0)">f</text><text xml:space="preserve" font-family="SourceSansPro-Light" font-size="85.0" fill="#525252" transform="matrix(1.00, 0.00, -0.00, -1.00, 1154.0, 325.0)">r</text><text xml:space="preserve" font-family="SourceSansPro-Light" font-size="85.0" fill="#525252" transform="matrix(1.00, 0.00, -0.00, -1.00, 1180.1, 325.0)">o</text><text xml:space="preserve" font-family="SourceSansPro-Light" font-size="85.0" fill="#525252" transform="matrix(1.00, 0.00, -0.00, -1.00, 1225.6, 325.0)">m</text><text xml:space="preserve" font-family="SourceSansPro-Light" font-size="85.0" fill="#525252" transform="matrix(1.00, 0.00, -0.00, -1.00, 1294.6, 325.0)"> </text><text xml:space="preserve" font-family="SourceSansPro-Light" font-size="85.0" fill="#525252" transform="matrix(1.00, 0.00, -0.00, -1.00, 1311.5, 325.0)">p</text><text xml:space="preserve" font-family="SourceSansPro-Light" font-size="85.0" fill="#525252" transform="matrix(1.00, 0.00, -0.00, -1.00, 1357.8, 325.0)">r</text><text xml:space="preserve" font-family="SourceSansPro-Light" font-size="85.0" fill="#525252" transform="matrix(1.00, 0.00, -0.00, -1.00, 1383.9, 325.0)">o</text><text xml:space="preserve" font-family="SourceSansPro-Light" font-size="85.0" fill="#525252" transform="matrix(1.00, 0.00, -0.00, -1.00, 1429.3, 325.0)">b</text><text xml:space="preserve" font-family="SourceSansPro-Light" font-size="85.0" fill="#525252" transform="matrix(1.00, 0.00, -0.00, -1.00, 1475.6, 325.0)">l</text><text xml:space="preserve" font-family="SourceSansPro-Light" font-size="85.0" fill="#525252" transform="matrix(1.00, 0.00, -0.00, -1.00, 1495.7, 325.0)">e</text><text xml:space="preserve" font-family="SourceSansPro-Light" font-size="85.0" fill="#525252" transform="matrix(1.00, 0.00, -0.00, -1.00, 1536.8, 325.0)">m</text><text xml:space="preserve" font-family="SourceSansPro-Light" font-size="85.0" fill="#525252" transform="matrix(1.00, 0.00, -0.00, -1.00, 1605.8, 325.0)"> </text><text xml:space="preserve" font-family="SourceSansPro-Light" font-size="85.0" fill="#525252" transform="matrix(1.00, 0.00, -0.00, -1.00, 482.0, 218.0)">u</text><text xml:space="preserve" font-family="SourceSansPro-Light" font-size="85.0" fill="#525252" transform="matrix(1.00, 0.00, -0.00, -1.00, 527.0, 218.0)">n</text><text xml:space="preserve" font-family="SourceSansPro-Light" font-size="85.0" fill="#525252" transform="matrix(1.00, 0.00, -0.00, -1.00, 572.2, 218.0)">d</text><text xml:space="preserve" font-family="SourceSansPro-Light" font-size="85.0" fill="#525252" transform="matrix(1.00, 0.00, -0.00, -1.00, 618.4, 218.0)">e</text><text xml:space="preserve" font-family="SourceSansPro-Light" font-size="85.0" fill="#525252" transform="matrix(1.00, 0.00, -0.00, -1.00, 659.5, 218.0)">r</text><text xml:space="preserve" font-family="SourceSansPro-Light" font-size="85.0" fill="#525252" transform="matrix(1.00, 0.00, -0.00, -1.00, 685.6, 218.0)">s</text><text xml:space="preserve" font-family="SourceSansPro-Light" font-size="85.0" fill="#525252" transform="matrix(1.00, 0.00, -0.00, -1.00, 720.0, 218.0)">t</text><text xml:space="preserve" font-family="SourceSansPro-Light" font-size="85.0" fill="#525252" transform="matrix(1.00, 0.00, -0.00, -1.00, 744.7, 218.0)">a</text><text xml:space="preserve" font-family="SourceSansPro-Light" font-size="85.0" fill="#525252" transform="matrix(1.00, 0.00, -0.00, -1.00, 787.2, 218.0)">n</text><text xml:space="preserve" font-family="SourceSansPro-Light" font-size="85.0" fill="#525252" transform="matrix(1.00, 0.00, -0.00, -1.00, 832.4, 218.0)">d</text><text xml:space="preserve" font-family="SourceSansPro-Light" font-size="85.0" fill="#525252" transform="matrix(1.00, 0.00, -0.00, -1.00, 878.6, 218.0)">i</text><text xml:space="preserve" font-family="SourceSansPro-Light" font-size="85.0" fill="#525252" transform="matrix(1.00, 0.00, -0.00, -1.00, 898.1, 218.0)">n</text><text xml:space="preserve" font-family="SourceSansPro-Light" font-size="85.0" fill="#525252" transform="matrix(1.00, 0.00, -0.00, -1.00, 943.3, 218.0)">g</text><text xml:space="preserve" font-family="SourceSansPro-Light" font-size="85.0" fill="#525252" transform="matrix(1.00, 0.00, -0.00, -1.00, 984.7, 218.0)"> </text><text xml:space="preserve" font-family="SourceSansPro-Light" font-size="85.0" fill="#525252" transform="matrix(1.00, 0.00, -0.00, -1.00, 1001.6, 218.0)">t</text><text xml:space="preserve" font-family="SourceSansPro-Light" font-size="85.0" fill="#525252" transform="matrix(1.00, 0.00, -0.00, -1.00, 1027.3, 218.0)">o</text><text xml:space="preserve" font-family="SourceSansPro-Light" font-size="85.0" fill="#525252" transform="matrix(1.00, 0.00, -0.00, -1.00, 1072.8, 218.0)"> </text><text xml:space="preserve" font-family="SourceSansPro-Light" font-size="85.0" fill="#525252" transform="matrix(1.00, 0.00, -0.00, -1.00, 1089.7, 218.0)">l</text><text xml:space="preserve" font-family="SourceSansPro-Light" font-size="85.0" fill="#525252" transform="matrix(1.00, 0.00, -0.00, -1.00, 1109.8, 218.0)">o</text><text xml:space="preserve" font-family="SourceSansPro-Light" font-size="85.0" fill="#525252" transform="matrix(1.00, 0.00, -0.00, -1.00, 1155.3, 218.0)">w</text><text xml:space="preserve" font-family="SourceSansPro-Light" font-size="85.0" fill="#525252" transform="matrix(1.00, 0.00, -0.00, -1.00, 1213.5, 218.0)">-</text><text xml:space="preserve" font-family="SourceSansPro-Light" font-size="85.0" fill="#525252" transform="matrix(1.00, 0.00, -0.00, -1.00, 1238.9, 218.0)">f</text><text xml:space="preserve" font-family="SourceSansPro-Light" font-size="85.0" fill="#525252" transform="matrix(1.00, 0.00, -0.00, -1.00, 1261.3, 218.0)">i</text><text xml:space="preserve" font-family="SourceSansPro-Light" font-size="85.0" fill="#525252" transform="matrix(1.00, 0.00, -0.00, -1.00, 1280.7, 218.0)">d</text><text xml:space="preserve" font-family="SourceSansPro-Light" font-size="85.0" fill="#525252" transform="matrix(1.00, 0.00, -0.00, -1.00, 1327.0, 218.0)">e</text><text xml:space="preserve" font-family="SourceSansPro-Light" font-size="85.0" fill="#525252" transform="matrix(1.00, 0.00, -0.00, -1.00, 1368.0, 218.0)">l</text><text xml:space="preserve" font-family="SourceSansPro-Light" font-size="85.0" fill="#525252" transform="matrix(1.00, 0.00, -0.00, -1.00, 1388.2, 218.0)">i</text><text xml:space="preserve" font-family="SourceSansPro-Light" font-size="85.0" fill="#525252" transform="matrix(1.00, 0.00, -0.00, -1.00, 1407.7, 218.0)">t</text><text xml:space="preserve" font-family="SourceSansPro-Light" font-size="85.0" fill="#525252" transform="matrix(1.00, 0.00, -0.00, -1.00, 1434.2, 218.0)">y</text><text xml:space="preserve" font-family="SourceSansPro-Light" font-size="85.0" fill="#525252" transform="matrix(1.00, 0.00, -0.00, -1.00, 1471.2, 218.0)"> </text><text xml:space="preserve" font-family="SourceSansPro-Light" font-size="85.0" fill="#525252" transform="matrix(1.00, 0.00, -0.00, -1.00, 482.0, 111.0)">p</text><text xml:space="preserve" font-family="SourceSansPro-Light" font-size="85.0" fill="#525252" transform="matrix(1.00, 0.00, -0.00, -1.00, 528.2, 111.0)">r</text><text xml:space="preserve" font-family="SourceSansPro-Light" font-size="85.0" fill="#525252" transform="matrix(1.00, 0.00, -0.00, -1.00, 554.3, 111.0)">o</text><text xml:space="preserve" font-family="SourceSansPro-Light" font-size="85.0" fill="#525252" transform="matrix(1.00, 0.00, -0.00, -1.00, 599.8, 111.0)">t</text><text xml:space="preserve" font-family="SourceSansPro-Light" font-size="85.0" fill="#525252" transform="matrix(1.00, 0.00, -0.00, -1.00, 625.5, 111.0)">o</text><text xml:space="preserve" font-family="SourceSansPro-Light" font-size="85.0" fill="#525252" transform="matrix(1.00, 0.00, -0.00, -1.00, 671.0, 111.0)">t</text><text xml:space="preserve" font-family="SourceSansPro-Light" font-size="85.0" fill="#525252" transform="matrix(1.00, 0.00, -0.00, -1.00, 697.5, 111.0)">y</text><text xml:space="preserve" font-family="SourceSansPro-Light" font-size="85.0" fill="#525252" transform="matrix(1.00, 0.00, -0.00, -1.00, 734.5, 111.0)">p</text><text xml:space="preserve" font-family="SourceSansPro-Light" font-size="85.0" fill="#525252" transform="matrix(1.00, 0.00, -0.00, -1.00, 780.8, 111.0)">i</text><text xml:space="preserve" font-family="SourceSansPro-Light" font-size="85.0" fill="#525252" transform="matrix(1.00, 0.00, -0.00, -1.00, 800.2, 111.0)">n</text><text xml:space="preserve" font-family="SourceSansPro-Light" font-size="85.0" fill="#525252" transform="matrix(1.00, 0.00, -0.00, -1.00, 845.5, 111.0)">g</text><text xml:space="preserve" font-family="SourceSansPro-Light" font-size="85.0" fill="#525252" transform="matrix(1.00, 0.00, -0.00, -1.00, 886.9, 111.0)"> </text><path d="M 132.1 943.2 L 357.7 943.2 L 357.7 836.2 L 132.1 836.2 Z M 132.1 943.2 " fill="#DDDDDD"></path><path d="M 132.1 836.2 L 398.4 836.2 L 398.4 729.2 L 132.1 729.2 Z M 132.1 836.2 " fill="#FF40FF"></path><path d="M 132.1 729.2 L 374.9 729.2 L 374.9 622.2 L 132.1 622.2 Z M 132.1 729.2 " fill="#00F900"></path><path d="M 132.1 408.2 L 459.0 408.2 L 459.0 301.2 L 132.1 301.2 Z M 132.1 408.2 " fill="#FF2600"></path><text xml:space="preserve" font-family="SourceSansPro-Semibold" font-weight="bold" font-size="85.0" fill="#525252" transform="matrix(1.00, 0.00, -0.00, -1.00, 132.0, 859.0)">W</text><text xml:space="preserve" font-family="SourceSansPro-Semibold" font-weight="bold" font-size="85.0" fill="#525252" transform="matrix(1.00, 0.00, -0.00, -1.00, 200.0, 859.0)">h</text><text xml:space="preserve" font-family="SourceSansPro-Semibold" font-weight="bold" font-size="85.0" fill="#525252" transform="matrix(1.00, 0.00, -0.00, -1.00, 247.4, 859.0)">a</text><text xml:space="preserve" font-family="SourceSansPro-Semibold" font-weight="bold" font-size="85.0" fill="#525252" transform="matrix(1.00, 0.00, -0.00, -1.00, 291.9, 859.0)">t</text><text xml:space="preserve" font-family="SourceSansPro-Semibold" font-weight="bold" font-size="85.0" fill="#525252" transform="matrix(1.00, 0.00, -0.00, -1.00, 319.9, 859.0)">?</text><text xml:space="preserve" font-family="SourceSansPro-Light" font-size="85.0" fill="#525252" transform="matrix(1.00, 0.00, -0.00, -1.00, 357.7, 859.0)"> </text><text xml:space="preserve" font-family="SourceSansPro-Semibold" font-weight="bold" font-size="85.0" fill="#525252" transform="matrix(1.00, 0.00, -0.00, -1.00, 132.0, 752.0)">T</text><text xml:space="preserve" font-family="SourceSansPro-Semibold" font-weight="bold" font-size="85.0" fill="#525252" transform="matrix(1.00, 0.00, -0.00, -1.00, 172.6, 752.0)">a</text><text xml:space="preserve" font-family="SourceSansPro-Semibold" font-weight="bold" font-size="85.0" fill="#525252" transform="matrix(1.00, 0.00, -0.00, -1.00, 217.1, 752.0)">r</text><text xml:space="preserve" font-family="SourceSansPro-Semibold" font-weight="bold" font-size="85.0" fill="#525252" transform="matrix(1.00, 0.00, -0.00, -1.00, 247.9, 752.0)">g</text><text xml:space="preserve" font-family="SourceSansPro-Semibold" font-weight="bold" font-size="85.0" fill="#525252" transform="matrix(1.00, 0.00, -0.00, -1.00, 290.8, 752.0)">e</text><text xml:space="preserve" font-family="SourceSansPro-Semibold" font-weight="bold" font-size="85.0" fill="#525252" transform="matrix(1.00, 0.00, -0.00, -1.00, 332.5, 752.0)">t</text><text xml:space="preserve" font-family="SourceSansPro-Semibold" font-weight="bold" font-size="85.0" fill="#525252" transform="matrix(1.00, 0.00, -0.00, -1.00, 360.6, 752.0)">?</text><text xml:space="preserve" font-family="SourceSansPro-Light" font-size="85.0" fill="#525252" transform="matrix(1.00, 0.00, -0.00, -1.00, 398.3, 752.0)"> </text><text xml:space="preserve" font-family="SourceSansPro-Semibold" font-weight="bold" font-size="85.0" fill="#525252" transform="matrix(1.00, 0.00, -0.00, -1.00, 132.0, 645.0)">S</text><text xml:space="preserve" font-family="SourceSansPro-Semibold" font-weight="bold" font-size="85.0" fill="#525252" transform="matrix(1.00, 0.00, -0.00, -1.00, 178.3, 645.0)">t</text><text xml:space="preserve" font-family="SourceSansPro-Semibold" font-weight="bold" font-size="85.0" fill="#525252" transform="matrix(1.00, 0.00, -0.00, -1.00, 207.7, 645.0)">a</text><text xml:space="preserve" font-family="SourceSansPro-Semibold" font-weight="bold" font-size="85.0" fill="#525252" transform="matrix(1.00, 0.00, -0.00, -1.00, 252.2, 645.0)">g</text><text xml:space="preserve" font-family="SourceSansPro-Semibold" font-weight="bold" font-size="85.0" fill="#525252" transform="matrix(1.00, 0.00, -0.00, -1.00, 295.0, 645.0)">e</text><text xml:space="preserve" font-family="SourceSansPro-Semibold" font-weight="bold" font-size="85.0" fill="#525252" transform="matrix(1.00, 0.00, -0.00, -1.00, 337.1, 645.0)">?</text><text xml:space="preserve" font-family="SourceSansPro-Semibold" font-weight="bold" font-size="85.0" fill="#525252" transform="matrix(1.00, 0.00, -0.00, -1.00, 374.8, 645.0)"> </text><text xml:space="preserve" font-family="SourceSansPro-Semibold" font-weight="bold" font-size="85.0" fill="#FFFFFF" transform="matrix(1.00, 0.00, -0.00, -1.00, 132.0, 324.0)">A</text><text xml:space="preserve" font-family="SourceSansPro-Semibold" font-weight="bold" font-size="85.0" fill="#FFFFFF" transform="matrix(1.00, 0.00, -0.00, -1.00, 178.1, 324.0)">t</text><text xml:space="preserve" font-family="SourceSansPro-Semibold" font-weight="bold" font-size="85.0" fill="#FFFFFF" transform="matrix(1.00, 0.00, -0.00, -1.00, 208.8, 324.0)"> </text><text xml:space="preserve" font-family="SourceSansPro-Semibold" font-weight="bold" font-size="85.0" fill="#FFFFFF" transform="matrix(1.00, 0.00, -0.00, -1.00, 226.2, 324.0)">s</text><text xml:space="preserve" font-family="SourceSansPro-Semibold" font-weight="bold" font-size="85.0" fill="#FFFFFF" transform="matrix(1.00, 0.00, -0.00, -1.00, 262.8, 324.0)">t</text><text xml:space="preserve" font-family="SourceSansPro-Semibold" font-weight="bold" font-size="85.0" fill="#FFFFFF" transform="matrix(1.00, 0.00, -0.00, -1.00, 292.2, 324.0)">a</text><text xml:space="preserve" font-family="SourceSansPro-Semibold" font-weight="bold" font-size="85.0" fill="#FFFFFF" transform="matrix(1.00, 0.00, -0.00, -1.00, 336.7, 324.0)">k</text><text xml:space="preserve" font-family="SourceSansPro-Semibold" font-weight="bold" font-size="85.0" fill="#FFFFFF" transform="matrix(1.00, 0.00, -0.00, -1.00, 379.1, 324.0)">e</text><text xml:space="preserve" font-family="SourceSansPro-Semibold" font-weight="bold" font-size="85.0" fill="#FFFFFF" transform="matrix(1.00, 0.00, -0.00, -1.00, 421.2, 324.0)">?</text><text xml:space="preserve" font-family="SourceSansPro-Regular" font-size="36.0" fill="#525252" transform="matrix(1.00, 0.00, -0.00, -1.00, 834.0, 17.0)">s</text><text xml:space="preserve" font-family="SourceSansPro-Regular" font-size="36.0" fill="#525252" transform="matrix(1.00, 0.00, -0.00, -1.00, 852.7, 17.0)">o</text><text xml:space="preserve" font-family="SourceSansPro-Regular" font-size="36.0" fill="#525252" transform="matrix(1.00, 0.00, -0.00, -1.00, 875.8, 17.0)">p</text><text xml:space="preserve" font-family="SourceSansPro-Regular" font-size="36.0" fill="#525252" transform="matrix(1.00, 0.00, -0.00, -1.00, 899.4, 17.0)">h</text><text xml:space="preserve" font-family="SourceSansPro-Regular" font-size="36.0" fill="#525252" transform="matrix(1.00, 0.00, -0.00, -1.00, 922.6, 17.0)">i</text><text xml:space="preserve" font-family="SourceSansPro-Regular" font-size="36.0" fill="#525252" transform="matrix(1.00, 0.00, -0.00, -1.00, 935.0, 17.0)">a</text><text xml:space="preserve" font-family="SourceSansPro-Regular" font-size="36.0" fill="#525252" transform="matrix(1.00, 0.00, -0.00, -1.00, 957.0, 17.0)">k</text><text xml:space="preserve" font-family="SourceSansPro-Regular" font-size="36.0" fill="#525252" transform="matrix(1.00, 0.00, -0.00, -1.00, 977.8, 17.0)">c</text><text xml:space="preserve" font-family="SourceSansPro-Regular" font-size="36.0" fill="#525252" transform="matrix(1.00, 0.00, -0.00, -1.00, 997.8, 17.0)">.</text><text xml:space="preserve" font-family="SourceSansPro-Regular" font-size="36.0" fill="#525252" transform="matrix(1.00, 0.00, -0.00, -1.00, 1010.1, 17.0)">c</text><text xml:space="preserve" font-family="SourceSansPro-Regular" font-size="36.0" fill="#525252" transform="matrix(1.00, 0.00, -0.00, -1.00, 1029.4, 17.0)">o</text><text xml:space="preserve" font-family="SourceSansPro-Regular" font-size="36.0" fill="#525252" transform="matrix(1.00, 0.00, -0.00, -1.00, 1052.5, 17.0)">m</text></g></svg>