<?xml version="1.0" encoding="UTF-8" standalone="no"?><svg xmlns="http://www.w3.org/2000/svg" xmlns:xlink="http://www.w3.org/1999/xlink" clip-rule="evenodd" stroke-miterlimit="4.00" viewBox="0 0 1920 1080"><desc>SVG generated by Keynote</desc><defs></defs><g transform="matrix(1.00, 0.00, -0.00, -1.00, 0.0, 1080.0)"><path d="M 0.0 1080.0 L 1920.0 1080.0 L 1920.0 0.0 L 0.0 0.0 Z M 0.0 1080.0 " fill="#FFFFFF"></path><g opacity="0.45"><g><clipPath id="clip-1019"><path d="M 0.0 1080.0 L 1920.0 1080.0 L 1920.0 0.0 L 0.0 0.0 Z M 0.3 1080.0 "></path></clipPath><g clip-path="url(#clip-1019)"><g><clipPath id="clip-1020"><path d="M 0.0 0.0 L 1920.0 0.0 L 1920.0 1080.0 L 0.0 1080.0 Z M 0.0 0.0 "></path></clipPath><g clip-path="url(#clip-1020)"><image xlink:href="D2999128CC3A00B5455EC61E8E00F9A6.jpeg" width="1345.00" height="768.00" transform="matrix(1.43, 0.00, -0.00, -1.43, 0.0, 1097.0)"></image></g></g></g></g></g><g><clipPath id="clip-1021"><path d="M 1408.0 646.0 L 1846.0 646.0 L 1846.0 278.0 L 1408.0 278.0 Z M 1407.6 646.2 "></path></clipPath><g clip-path="url(#clip-1021)"><g><clipPath id="clip-1022"><path d="M 1407.6 277.8 L 1846.1 277.8 L 1846.1 646.2 L 1407.6 646.2 Z M 1407.6 277.8 "></path></clipPath><g clip-path="url(#clip-1022)"><image xlink:href="../../27AC2775-A9E1-499C-8156-0679301B1A3D/assets/DDABB608CBB980A073B10670BBF2E07F.png" width="300.00" height="252.00" transform="matrix(1.46, 0.00, -0.00, -1.46, 1408.0, 646.0)"></image></g></g></g></g><g><clipPath id="clip-1023"><path d="M 1434.8 312.6 L 1785.0 312.6 L 1785.0 598.3 L 1434.8 598.3 Z M 1434.8 312.6 "></path></clipPath><g clip-path="url(#clip-1023)"><text xml:space="preserve" font-family="PermanentMarker" font-size="36.0" fill="#011DA8" transform="matrix(1.00, 0.00, -0.00, -1.00, 1448.0, 546.0)">T</text><text xml:space="preserve" font-family="PermanentMarker" font-size="36.0" fill="#011DA8" transform="matrix(1.00, 0.00, -0.00, -1.00, 1469.9, 546.0)">E</text><text xml:space="preserve" font-family="PermanentMarker" font-size="36.0" fill="#011DA8" transform="matrix(1.00, 0.00, -0.00, -1.00, 1492.5, 546.0)">A</text><text xml:space="preserve" font-family="PermanentMarker" font-size="36.0" fill="#011DA8" transform="matrix(1.00, 0.00, -0.00, -1.00, 1517.7, 546.0)">M</text><text xml:space="preserve" font-family="PermanentMarker" font-size="36.0" fill="#011DA8" transform="matrix(1.00, 0.00, -0.00, -1.00, 1552.8, 546.0)">W</text><text xml:space="preserve" font-family="PermanentMarker" font-size="36.0" fill="#011DA8" transform="matrix(1.00, 0.00, -0.00, -1.00, 1588.6, 546.0)">O</text><text xml:space="preserve" font-family="PermanentMarker" font-size="36.0" fill="#011DA8" transform="matrix(1.00, 0.00, -0.00, -1.00, 1615.4, 546.0)">R</text><text xml:space="preserve" font-family="PermanentMarker" font-size="36.0" fill="#011DA8" transform="matrix(1.00, 0.00, -0.00, -1.00, 1638.6, 546.0)">K</text><text xml:space="preserve" font-family="PermanentMarker" font-size="36.0" fill="#011DA8" transform="matrix(1.00, 0.00, -0.00, -1.00, 1666.6, 546.0)">!</text><text xml:space="preserve" font-family="PermanentMarker" font-size="36.0" fill="#011DA8" transform="matrix(1.00, 0.00, -0.00, -1.00, 1676.0, 546.0)"> </text><text xml:space="preserve" font-family="PermanentMarker" font-size="36.0" fill="#011DA8" transform="matrix(1.00, 0.00, -0.00, -1.00, 1448.0, 494.0)">i</text><text xml:space="preserve" font-family="PermanentMarker" font-size="36.0" fill="#011DA8" transform="matrix(1.00, 0.00, -0.00, -1.00, 1459.5, 494.0)">d</text><text xml:space="preserve" font-family="PermanentMarker" font-size="36.0" fill="#011DA8" transform="matrix(1.00, 0.00, -0.00, -1.00, 1477.1, 494.0)">e</text><text xml:space="preserve" font-family="PermanentMarker" font-size="36.0" fill="#011DA8" transform="matrix(1.00, 0.00, -0.00, -1.00, 1495.9, 494.0)">a</text><text xml:space="preserve" font-family="PermanentMarker" font-size="36.0" fill="#011DA8" transform="matrix(1.00, 0.00, -0.00, -1.00, 1515.0, 494.0)">t</text><text xml:space="preserve" font-family="PermanentMarker" font-size="36.0" fill="#011DA8" transform="matrix(1.00, 0.00, -0.00, -1.00, 1532.3, 494.0)">e</text><text xml:space="preserve" font-family="PermanentMarker" font-size="36.0" fill="#011DA8" transform="matrix(1.00, 0.00, -0.00, -1.00, 1551.1, 494.0)">,</text><text xml:space="preserve" font-family="PermanentMarker" font-size="36.0" fill="#011DA8" transform="matrix(1.00, 0.00, -0.00, -1.00, 1558.4, 494.0)"> </text><text xml:space="preserve" font-family="PermanentMarker" font-size="36.0" fill="#011DA8" transform="matrix(1.00, 0.00, -0.00, -1.00, 1448.0, 442.0)">b</text><text xml:space="preserve" font-family="PermanentMarker" font-size="36.0" fill="#011DA8" transform="matrix(1.00, 0.00, -0.00, -1.00, 1468.6, 442.0)">r</text><text xml:space="preserve" font-family="PermanentMarker" font-size="36.0" fill="#011DA8" transform="matrix(1.00, 0.00, -0.00, -1.00, 1488.1, 442.0)">a</text><text xml:space="preserve" font-family="PermanentMarker" font-size="36.0" fill="#011DA8" transform="matrix(1.00, 0.00, -0.00, -1.00, 1509.0, 442.0)">i</text><text xml:space="preserve" font-family="PermanentMarker" font-size="36.0" fill="#011DA8" transform="matrix(1.00, 0.00, -0.00, -1.00, 1520.6, 442.0)">n</text><text xml:space="preserve" font-family="PermanentMarker" font-size="36.0" fill="#011DA8" transform="matrix(1.00, 0.00, -0.00, -1.00, 1540.9, 442.0)">s</text><text xml:space="preserve" font-family="PermanentMarker" font-size="36.0" fill="#011DA8" transform="matrix(1.00, 0.00, -0.00, -1.00, 1557.6, 442.0)">t</text><text xml:space="preserve" font-family="PermanentMarker" font-size="36.0" fill="#011DA8" transform="matrix(1.00, 0.00, -0.00, -1.00, 1573.8, 442.0)">o</text><text xml:space="preserve" font-family="PermanentMarker" font-size="36.0" fill="#011DA8" transform="matrix(1.00, 0.00, -0.00, -1.00, 1596.4, 442.0)">r</text><text xml:space="preserve" font-family="PermanentMarker" font-size="36.0" fill="#011DA8" transform="matrix(1.00, 0.00, -0.00, -1.00, 1615.9, 442.0)">m</text><text xml:space="preserve" font-family="PermanentMarker" font-size="36.0" fill="#011DA8" transform="matrix(1.00, 0.00, -0.00, -1.00, 1645.3, 442.0)">,</text><text xml:space="preserve" font-family="PermanentMarker" font-size="36.0" fill="#011DA8" transform="matrix(1.00, 0.00, -0.00, -1.00, 1652.6, 442.0)"> </text><text xml:space="preserve" font-family="PermanentMarker" font-size="36.0" fill="#011DA8" transform="matrix(1.00, 0.00, -0.00, -1.00, 1448.0, 390.0)">N</text><text xml:space="preserve" font-family="PermanentMarker" font-size="36.0" fill="#011DA8" transform="matrix(1.00, 0.00, -0.00, -1.00, 1472.6, 390.0)">O</text><text xml:space="preserve" font-family="PermanentMarker" font-size="36.0" fill="#011DA8" transform="matrix(1.00, 0.00, -0.00, -1.00, 1498.7, 390.0)">U</text><text xml:space="preserve" font-family="PermanentMarker" font-size="36.0" fill="#011DA8" transform="matrix(1.00, 0.00, -0.00, -1.00, 1523.8, 390.0)">R</text><text xml:space="preserve" font-family="PermanentMarker" font-size="36.0" fill="#011DA8" transform="matrix(1.00, 0.00, -0.00, -1.00, 1547.1, 390.0)">R</text><text xml:space="preserve" font-family="PermanentMarker" font-size="36.0" fill="#011DA8" transform="matrix(1.00, 0.00, -0.00, -1.00, 1569.3, 390.0)">I</text><text xml:space="preserve" font-family="PermanentMarker" font-size="36.0" fill="#011DA8" transform="matrix(1.00, 0.00, -0.00, -1.00, 1587.8, 390.0)">S</text><text xml:space="preserve" font-family="PermanentMarker" font-size="36.0" fill="#011DA8" transform="matrix(1.00, 0.00, -0.00, -1.00, 1608.6, 390.0)">H</text><text xml:space="preserve" font-family="PermanentMarker" font-size="36.0" fill="#011DA8" transform="matrix(1.00, 0.00, -0.00, -1.00, 1633.6, 390.0)">,</text><text xml:space="preserve" font-family="PermanentMarker" font-size="36.0" fill="#011DA8" transform="matrix(1.00, 0.00, -0.00, -1.00, 1641.0, 390.0)"> </text><text xml:space="preserve" font-family="PermanentMarker" font-size="36.0" fill="#011DA8" transform="matrix(1.00, 0.00, -0.00, -1.00, 1448.0, 338.0)">c</text><text xml:space="preserve" font-family="PermanentMarker" font-size="36.0" fill="#011DA8" transform="matrix(1.00, 0.00, -0.00, -1.00, 1466.5, 338.0)">o</text><text xml:space="preserve" font-family="PermanentMarker" font-size="36.0" fill="#011DA8" transform="matrix(1.00, 0.00, -0.00, -1.00, 1489.1, 338.0)">n</text><text xml:space="preserve" font-family="PermanentMarker" font-size="36.0" fill="#011DA8" transform="matrix(1.00, 0.00, -0.00, -1.00, 1509.5, 338.0)">f</text><text xml:space="preserve" font-family="PermanentMarker" font-size="36.0" fill="#011DA8" transform="matrix(1.00, 0.00, -0.00, -1.00, 1525.8, 338.0)">r</text><text xml:space="preserve" font-family="PermanentMarker" font-size="36.0" fill="#011DA8" transform="matrix(1.00, 0.00, -0.00, -1.00, 1545.3, 338.0)">o</text><text xml:space="preserve" font-family="PermanentMarker" font-size="36.0" fill="#011DA8" transform="matrix(1.00, 0.00, -0.00, -1.00, 1568.0, 338.0)">n</text><text xml:space="preserve" font-family="PermanentMarker" font-size="36.0" fill="#011DA8" transform="matrix(1.00, 0.00, -0.00, -1.00, 1588.3, 338.0)">t</text><text xml:space="preserve" font-family="PermanentMarker" font-size="36.0" fill="#011DA8" transform="matrix(1.00, 0.00, -0.00, -1.00, 1605.6, 338.0)">!</text></g></g><text xml:space="preserve" font-family="SourceSansPro-Regular" font-size="36.0" fill="#FFFFFF" transform="matrix(1.00, 0.00, -0.00, -1.00, 834.0, 17.0)">s</text><text xml:space="preserve" font-family="SourceSansPro-Regular" font-size="36.0" fill="#FFFFFF" transform="matrix(1.00, 0.00, -0.00, -1.00, 852.7, 17.0)">o</text><text xml:space="preserve" font-family="SourceSansPro-Regular" font-size="36.0" fill="#FFFFFF" transform="matrix(1.00, 0.00, -0.00, -1.00, 875.8, 17.0)">p</text><text xml:space="preserve" font-family="SourceSansPro-Regular" font-size="36.0" fill="#FFFFFF" transform="matrix(1.00, 0.00, -0.00, -1.00, 899.4, 17.0)">h</text><text xml:space="preserve" font-family="SourceSansPro-Regular" font-size="36.0" fill="#FFFFFF" transform="matrix(1.00, 0.00, -0.00, -1.00, 922.6, 17.0)">i</text><text xml:space="preserve" font-family="SourceSansPro-Regular" font-size="36.0" fill="#FFFFFF" transform="matrix(1.00, 0.00, -0.00, -1.00, 935.0, 17.0)">a</text><text xml:space="preserve" font-family="SourceSansPro-Regular" font-size="36.0" fill="#FFFFFF" transform="matrix(1.00, 0.00, -0.00, -1.00, 957.0, 17.0)">k</text><text xml:space="preserve" font-family="SourceSansPro-Regular" font-size="36.0" fill="#FFFFFF" transform="matrix(1.00, 0.00, -0.00, -1.00, 977.8, 17.0)">c</text><text xml:space="preserve" font-family="SourceSansPro-Regular" font-size="36.0" fill="#FFFFFF" transform="matrix(1.00, 0.00, -0.00, -1.00, 997.8, 17.0)">.</text><text xml:space="preserve" font-family="SourceSansPro-Regular" font-size="36.0" fill="#FFFFFF" transform="matrix(1.00, 0.00, -0.00, -1.00, 1010.1, 17.0)">c</text><text xml:space="preserve" font-family="SourceSansPro-Regular" font-size="36.0" fill="#FFFFFF" transform="matrix(1.00, 0.00, -0.00, -1.00, 1029.4, 17.0)">o</text><text xml:space="preserve" font-family="SourceSansPro-Regular" font-size="36.0" fill="#FFFFFF" transform="matrix(1.00, 0.00, -0.00, -1.00, 1052.5, 17.0)">m</text></g></svg>