<?xml version="1.0" encoding="UTF-8" standalone="no"?><svg xmlns="http://www.w3.org/2000/svg" xmlns:xlink="http://www.w3.org/1999/xlink" clip-rule="evenodd" stroke-miterlimit="4.00" viewBox="0 0 1920 1080"><desc>SVG generated by Keynote</desc><defs></defs><g transform="matrix(1.00, 0.00, -0.00, -1.00, 0.0, 1080.0)"><path d="M 0.0 1080.0 L 1920.0 1080.0 L 1920.0 0.0 L 0.0 0.0 Z M 0.0 1080.0 " fill="#FFFFFF"></path><g><clipPath id="clip-108"><path d="M 753.5 330.5 L 1166.5 330.5 L 1166.5 743.5 L 753.5 743.5 Z M 753.5 330.5 "></path></clipPath><g clip-path="url(#clip-108)"><image xlink:href="../../DDB31479-58A1-4FE5-B4D7-634197F951EF/assets/F5C5DE0F095B4827420C0325135EDF81.png" width="411.00" height="411.00" transform="matrix(1.00, 0.00, -0.00, -1.00, 754.5, 742.5)" opacity="0.35"></image><path d="M 1101.1 681.1 C 1179.0 603.2 1179.0 476.8 1101.1 398.9 C 1023.2 321.0 896.8 321.0 818.9 398.9 C 741.0 476.8 741.0 603.2 818.9 681.1 C 896.8 759.0 1023.2 759.0 1101.1 681.1 Z M 1101.1 681.1 " fill="#FF40FF"></path></g></g><g><clipPath id="clip-109"><path d="M 826.0 677.0 L 1067.0 677.0 L 1067.0 403.0 L 826.0 403.0 Z M 826.0 677.4 "></path></clipPath><g clip-path="url(#clip-109)"><g><clipPath id="clip-110"><path d="M 826.0 402.6 L 1066.5 402.6 L 1066.5 677.4 L 826.0 677.4 Z M 826.0 402.6 "></path></clipPath><g clip-path="url(#clip-110)"><image xlink:href="../../1A86C1D0-B945-433E-BF48-5F7693B1E5B3/assets/8FA55DAAA507DF706A06F91BBA2113C7.png" width="240.00" height="275.00" transform="matrix(1.00, 0.00, -0.00, -1.00, 826.0, 677.0)"></image></g></g></g></g><text xml:space="preserve" font-family="SourceSansPro-Regular" font-size="45.0" fill="#525252" transform="matrix(1.00, 0.00, -0.00, -1.00, 700.0, 253.0)">M</text><text xml:space="preserve" font-family="SourceSansPro-Regular" font-size="45.0" fill="#525252" transform="matrix(1.00, 0.00, -0.00, -1.00, 732.7, 253.0)">a</text><text xml:space="preserve" font-family="SourceSansPro-Regular" font-size="45.0" fill="#525252" transform="matrix(1.00, 0.00, -0.00, -1.00, 755.8, 253.0)">r</text><text xml:space="preserve" font-family="SourceSansPro-Regular" font-size="45.0" fill="#525252" transform="matrix(1.00, 0.00, -0.00, -1.00, 771.4, 253.0)">k</text><text xml:space="preserve" font-family="SourceSansPro-Regular" font-size="45.0" fill="#525252" transform="matrix(1.00, 0.00, -0.00, -1.00, 792.8, 253.0)">e</text><text xml:space="preserve" font-family="SourceSansPro-Regular" font-size="45.0" fill="#525252" transform="matrix(1.00, 0.00, -0.00, -1.00, 814.5, 253.0)">t</text><text xml:space="preserve" font-family="SourceSansPro-Regular" font-size="45.0" fill="#525252" transform="matrix(1.00, 0.00, -0.00, -1.00, 829.7, 253.0)"> </text><text xml:space="preserve" font-family="SourceSansPro-Regular" font-size="45.0" fill="#525252" transform="matrix(1.00, 0.00, -0.00, -1.00, 838.8, 253.0)">p</text><text xml:space="preserve" font-family="SourceSansPro-Regular" font-size="45.0" fill="#525252" transform="matrix(1.00, 0.00, -0.00, -1.00, 863.8, 253.0)">l</text><text xml:space="preserve" font-family="SourceSansPro-Regular" font-size="45.0" fill="#525252" transform="matrix(1.00, 0.00, -0.00, -1.00, 875.3, 253.0)">a</text><text xml:space="preserve" font-family="SourceSansPro-Regular" font-size="45.0" fill="#525252" transform="matrix(1.00, 0.00, -0.00, -1.00, 898.3, 253.0)">c</text><text xml:space="preserve" font-family="SourceSansPro-Regular" font-size="45.0" fill="#525252" transform="matrix(1.00, 0.00, -0.00, -1.00, 917.9, 253.0)">e</text><text xml:space="preserve" font-family="SourceSansPro-Regular" font-size="45.0" fill="#525252" transform="matrix(1.00, 0.00, -0.00, -1.00, 940.2, 253.0)"> </text><text xml:space="preserve" font-family="SourceSansPro-Regular" font-size="45.0" fill="#525252" transform="matrix(1.00, 0.00, -0.00, -1.00, 949.3, 253.0)">f</text><text xml:space="preserve" font-family="SourceSansPro-Regular" font-size="45.0" fill="#525252" transform="matrix(1.00, 0.00, -0.00, -1.00, 962.0, 253.0)">o</text><text xml:space="preserve" font-family="SourceSansPro-Regular" font-size="45.0" fill="#525252" transform="matrix(1.00, 0.00, -0.00, -1.00, 986.4, 253.0)">r</text><text xml:space="preserve" font-family="SourceSansPro-Regular" font-size="45.0" fill="#525252" transform="matrix(1.00, 0.00, -0.00, -1.00, 1002.0, 253.0)"> </text><text xml:space="preserve" font-family="SourceSansPro-Regular" font-size="45.0" fill="#525252" transform="matrix(1.00, 0.00, -0.00, -1.00, 1011.1, 253.0)">b</text><text xml:space="preserve" font-family="SourceSansPro-Regular" font-size="45.0" fill="#525252" transform="matrix(1.00, 0.00, -0.00, -1.00, 1035.4, 253.0)">a</text><text xml:space="preserve" font-family="SourceSansPro-Regular" font-size="45.0" fill="#525252" transform="matrix(1.00, 0.00, -0.00, -1.00, 1058.5, 253.0)">b</text><text xml:space="preserve" font-family="SourceSansPro-Regular" font-size="45.0" fill="#525252" transform="matrix(1.00, 0.00, -0.00, -1.00, 1083.3, 253.0)">y</text><text xml:space="preserve" font-family="SourceSansPro-Regular" font-size="45.0" fill="#525252" transform="matrix(1.00, 0.00, -0.00, -1.00, 1104.3, 253.0)">s</text><text xml:space="preserve" font-family="SourceSansPro-Regular" font-size="45.0" fill="#525252" transform="matrix(1.00, 0.00, -0.00, -1.00, 1123.1, 253.0)">i</text><text xml:space="preserve" font-family="SourceSansPro-Regular" font-size="45.0" fill="#525252" transform="matrix(1.00, 0.00, -0.00, -1.00, 1134.2, 253.0)">t</text><text xml:space="preserve" font-family="SourceSansPro-Regular" font-size="45.0" fill="#525252" transform="matrix(1.00, 0.00, -0.00, -1.00, 1149.4, 253.0)">t</text><text xml:space="preserve" font-family="SourceSansPro-Regular" font-size="45.0" fill="#525252" transform="matrix(1.00, 0.00, -0.00, -1.00, 1164.2, 253.0)">e</text><text xml:space="preserve" font-family="SourceSansPro-Regular" font-size="45.0" fill="#525252" transform="matrix(1.00, 0.00, -0.00, -1.00, 1186.5, 253.0)">r</text><text xml:space="preserve" font-family="SourceSansPro-Regular" font-size="45.0" fill="#525252" transform="matrix(1.00, 0.00, -0.00, -1.00, 1201.7, 253.0)">s</text><text xml:space="preserve" font-family="SourceSansPro-Regular" font-size="45.0" fill="#525252" transform="matrix(1.00, 0.00, -0.00, -1.00, 1220.5, 253.0)"> </text><text xml:space="preserve" font-family="SourceSansPro-It" font-style="italic" font-size="45.0" fill="#525252" transform="matrix(1.00, 0.00, -0.00, -1.00, 789.0, 197.0)">s</text><text xml:space="preserve" font-family="SourceSansPro-It" font-style="italic" font-size="45.0" fill="#525252" transform="matrix(1.00, 0.00, -0.00, -1.00, 807.1, 197.0)">e</text><text xml:space="preserve" font-family="SourceSansPro-It" font-style="italic" font-size="45.0" fill="#525252" transform="matrix(1.00, 0.00, -0.00, -1.00, 828.7, 197.0)">l</text><text xml:space="preserve" font-family="SourceSansPro-It" font-style="italic" font-size="45.0" fill="#525252" transform="matrix(1.00, 0.00, -0.00, -1.00, 839.9, 197.0)">e</text><text xml:space="preserve" font-family="SourceSansPro-It" font-style="italic" font-size="45.0" fill="#525252" transform="matrix(1.00, 0.00, -0.00, -1.00, 861.5, 197.0)">c</text><text xml:space="preserve" font-family="SourceSansPro-It" font-style="italic" font-size="45.0" fill="#525252" transform="matrix(1.00, 0.00, -0.00, -1.00, 881.1, 197.0)">t</text><text xml:space="preserve" font-family="SourceSansPro-It" font-style="italic" font-size="45.0" fill="#525252" transform="matrix(1.00, 0.00, -0.00, -1.00, 895.2, 197.0)">e</text><text xml:space="preserve" font-family="SourceSansPro-It" font-style="italic" font-size="45.0" fill="#525252" transform="matrix(1.00, 0.00, -0.00, -1.00, 916.9, 197.0)">d</text><text xml:space="preserve" font-family="SourceSansPro-It" font-style="italic" font-size="45.0" fill="#525252" transform="matrix(1.00, 0.00, -0.00, -1.00, 941.0, 197.0)"> </text><text xml:space="preserve" font-family="SourceSansPro-It" font-style="italic" font-size="45.0" fill="#525252" transform="matrix(1.00, 0.00, -0.00, -1.00, 949.6, 197.0)">p</text><text xml:space="preserve" font-family="SourceSansPro-It" font-style="italic" font-size="45.0" fill="#525252" transform="matrix(1.00, 0.00, -0.00, -1.00, 973.7, 197.0)">r</text><text xml:space="preserve" font-family="SourceSansPro-It" font-style="italic" font-size="45.0" fill="#525252" transform="matrix(1.00, 0.00, -0.00, -1.00, 988.6, 197.0)">o</text><text xml:space="preserve" font-family="SourceSansPro-It" font-style="italic" font-size="45.0" fill="#525252" transform="matrix(1.00, 0.00, -0.00, -1.00, 1011.8, 197.0)">j</text><text xml:space="preserve" font-family="SourceSansPro-It" font-style="italic" font-size="45.0" fill="#525252" transform="matrix(1.00, 0.00, -0.00, -1.00, 1022.5, 197.0)">e</text><text xml:space="preserve" font-family="SourceSansPro-It" font-style="italic" font-size="45.0" fill="#525252" transform="matrix(1.00, 0.00, -0.00, -1.00, 1044.2, 197.0)">c</text><text xml:space="preserve" font-family="SourceSansPro-It" font-style="italic" font-size="45.0" fill="#525252" transform="matrix(1.00, 0.00, -0.00, -1.00, 1063.7, 197.0)">t</text><text xml:space="preserve" font-family="SourceSansPro-It" font-style="italic" font-size="45.0" fill="#525252" transform="matrix(1.00, 0.00, -0.00, -1.00, 1078.3, 197.0)"> </text><text xml:space="preserve" font-family="SourceSansPro-It" font-style="italic" font-size="45.0" fill="#525252" transform="matrix(1.00, 0.00, -0.00, -1.00, 1087.0, 197.0)">#</text><text xml:space="preserve" font-family="SourceSansPro-It" font-style="italic" font-size="45.0" fill="#525252" transform="matrix(1.00, 0.00, -0.00, -1.00, 1108.5, 197.0)">1</text><text xml:space="preserve" font-family="SourceSansPro-Regular" font-size="36.0" fill="#525252" transform="matrix(1.00, 0.00, -0.00, -1.00, 834.0, 17.0)">s</text><text xml:space="preserve" font-family="SourceSansPro-Regular" font-size="36.0" fill="#525252" transform="matrix(1.00, 0.00, -0.00, -1.00, 852.7, 17.0)">o</text><text xml:space="preserve" font-family="SourceSansPro-Regular" font-size="36.0" fill="#525252" transform="matrix(1.00, 0.00, -0.00, -1.00, 875.8, 17.0)">p</text><text xml:space="preserve" font-family="SourceSansPro-Regular" font-size="36.0" fill="#525252" transform="matrix(1.00, 0.00, -0.00, -1.00, 899.4, 17.0)">h</text><text xml:space="preserve" font-family="SourceSansPro-Regular" font-size="36.0" fill="#525252" transform="matrix(1.00, 0.00, -0.00, -1.00, 922.6, 17.0)">i</text><text xml:space="preserve" font-family="SourceSansPro-Regular" font-size="36.0" fill="#525252" transform="matrix(1.00, 0.00, -0.00, -1.00, 935.0, 17.0)">a</text><text xml:space="preserve" font-family="SourceSansPro-Regular" font-size="36.0" fill="#525252" transform="matrix(1.00, 0.00, -0.00, -1.00, 957.0, 17.0)">k</text><text xml:space="preserve" font-family="SourceSansPro-Regular" font-size="36.0" fill="#525252" transform="matrix(1.00, 0.00, -0.00, -1.00, 977.8, 17.0)">c</text><text xml:space="preserve" font-family="SourceSansPro-Regular" font-size="36.0" fill="#525252" transform="matrix(1.00, 0.00, -0.00, -1.00, 997.8, 17.0)">.</text><text xml:space="preserve" font-family="SourceSansPro-Regular" font-size="36.0" fill="#525252" transform="matrix(1.00, 0.00, -0.00, -1.00, 1010.1, 17.0)">c</text><text xml:space="preserve" font-family="SourceSansPro-Regular" font-size="36.0" fill="#525252" transform="matrix(1.00, 0.00, -0.00, -1.00, 1029.4, 17.0)">o</text><text xml:space="preserve" font-family="SourceSansPro-Regular" font-size="36.0" fill="#525252" transform="matrix(1.00, 0.00, -0.00, -1.00, 1052.5, 17.0)">m</text></g></svg>