<?xml version="1.0" encoding="UTF-8" standalone="no"?><svg xmlns="http://www.w3.org/2000/svg" xmlns:xlink="http://www.w3.org/1999/xlink" clip-rule="evenodd" stroke-miterlimit="4.00" viewBox="0 0 1920 1080"><desc>SVG generated by Keynote</desc><defs></defs><g transform="matrix(1.00, 0.00, -0.00, -1.00, 0.0, 1080.0)"><path d="M 0.0 1080.0 L 1920.0 1080.0 L 1920.0 0.0 L 0.0 0.0 Z M 0.0 1080.0 " fill="#FFFFFF"></path><g><clipPath id="clip-1029"><path d="M 0.0 1080.0 L 1920.0 1080.0 L 1920.0 0.0 L 0.0 0.0 Z M -0.3 1080.0 "></path></clipPath><g clip-path="url(#clip-1029)"><image xlink:href="B879496B569A94D91359F7E0DBFFDC22.jpeg" width="1153.00" height="768.00" transform="matrix(1.67, 0.00, -0.00, -1.67, 0.0, 1080.0)"></image></g></g><g><clipPath id="clip-1030"><path d="M 688.0 818.0 L 1232.0 818.0 L 1232.0 262.0 L 688.0 262.0 Z M 688.2 817.7 "></path></clipPath><g clip-path="url(#clip-1030)"><image xlink:href="9EA4CF20ED3517ECFCB83874AFD8DF6D.png" width="368.00" height="376.00" transform="matrix(1.48, 0.00, -0.00, -1.48, 688.0, 818.0)"></image></g></g><g><clipPath id="clip-1031"><path d="M 1406.0 724.0 L 1844.0 724.0 L 1844.0 356.0 L 1406.0 356.0 Z M 1405.6 724.2 "></path></clipPath><g clip-path="url(#clip-1031)"><g><clipPath id="clip-1032"><path d="M 1405.6 355.8 L 1844.1 355.8 L 1844.1 724.2 L 1405.6 724.2 Z M 1405.6 355.8 "></path></clipPath><g clip-path="url(#clip-1032)"><image xlink:href="../../27AC2775-A9E1-499C-8156-0679301B1A3D/assets/DDABB608CBB980A073B10670BBF2E07F.png" width="300.00" height="252.00" transform="matrix(1.46, 0.00, -0.00, -1.46, 1406.0, 724.0)"></image></g></g></g></g><g><clipPath id="clip-1033"><path d="M 1425.8 494.6 L 1789.0 494.6 L 1789.0 676.3 L 1425.8 676.3 Z M 1425.8 494.6 "></path></clipPath><g clip-path="url(#clip-1033)"><text xml:space="preserve" font-family="PermanentMarker" font-size="36.0" fill="#011DA8" transform="matrix(1.00, 0.00, -0.00, -1.00, 1439.0, 624.0)">W</text><text xml:space="preserve" font-family="PermanentMarker" font-size="36.0" fill="#011DA8" transform="matrix(1.00, 0.00, -0.00, -1.00, 1474.8, 624.0)">H</text><text xml:space="preserve" font-family="PermanentMarker" font-size="36.0" fill="#011DA8" transform="matrix(1.00, 0.00, -0.00, -1.00, 1499.8, 624.0)">Y</text><text xml:space="preserve" font-family="PermanentMarker" font-size="36.0" fill="#011DA8" transform="matrix(1.00, 0.00, -0.00, -1.00, 1517.6, 624.0)"> </text><text xml:space="preserve" font-family="PermanentMarker" font-size="36.0" fill="#011DA8" transform="matrix(1.00, 0.00, -0.00, -1.00, 1530.9, 624.0)">d</text><text xml:space="preserve" font-family="PermanentMarker" font-size="36.0" fill="#011DA8" transform="matrix(1.00, 0.00, -0.00, -1.00, 1548.8, 624.0)">o</text><text xml:space="preserve" font-family="PermanentMarker" font-size="36.0" fill="#011DA8" transform="matrix(1.00, 0.00, -0.00, -1.00, 1571.5, 624.0)"> </text><text xml:space="preserve" font-family="PermanentMarker" font-size="36.0" fill="#011DA8" transform="matrix(1.00, 0.00, -0.00, -1.00, 1584.8, 624.0)">I</text><text xml:space="preserve" font-family="PermanentMarker" font-size="36.0" fill="#011DA8" transform="matrix(1.00, 0.00, -0.00, -1.00, 1603.3, 624.0)"> </text><text xml:space="preserve" font-family="PermanentMarker" font-size="36.0" fill="#011DA8" transform="matrix(1.00, 0.00, -0.00, -1.00, 1616.7, 624.0)">w</text><text xml:space="preserve" font-family="PermanentMarker" font-size="36.0" fill="#011DA8" transform="matrix(1.00, 0.00, -0.00, -1.00, 1646.0, 624.0)">a</text><text xml:space="preserve" font-family="PermanentMarker" font-size="36.0" fill="#011DA8" transform="matrix(1.00, 0.00, -0.00, -1.00, 1666.9, 624.0)">k</text><text xml:space="preserve" font-family="PermanentMarker" font-size="36.0" fill="#011DA8" transform="matrix(1.00, 0.00, -0.00, -1.00, 1690.2, 624.0)">e</text><text xml:space="preserve" font-family="PermanentMarker" font-size="36.0" fill="#011DA8" transform="matrix(1.00, 0.00, -0.00, -1.00, 1709.0, 624.0)"> </text><text xml:space="preserve" font-family="PermanentMarker" font-size="36.0" fill="#011DA8" transform="matrix(1.00, 0.00, -0.00, -1.00, 1722.3, 624.0)">u</text><text xml:space="preserve" font-family="PermanentMarker" font-size="36.0" fill="#011DA8" transform="matrix(1.00, 0.00, -0.00, -1.00, 1743.3, 624.0)">p</text><text xml:space="preserve" font-family="PermanentMarker" font-size="36.0" fill="#011DA8" transform="matrix(1.00, 0.00, -0.00, -1.00, 1762.2, 624.0)"> </text><text xml:space="preserve" font-family="PermanentMarker" font-size="36.0" fill="#011DA8" transform="matrix(1.00, 0.00, -0.00, -1.00, 1439.0, 572.0)">e</text><text xml:space="preserve" font-family="PermanentMarker" font-size="36.0" fill="#011DA8" transform="matrix(1.00, 0.00, -0.00, -1.00, 1457.8, 572.0)">v</text><text xml:space="preserve" font-family="PermanentMarker" font-size="36.0" fill="#011DA8" transform="matrix(1.00, 0.00, -0.00, -1.00, 1475.3, 572.0)">e</text><text xml:space="preserve" font-family="PermanentMarker" font-size="36.0" fill="#011DA8" transform="matrix(1.00, 0.00, -0.00, -1.00, 1493.7, 572.0)">r</text><text xml:space="preserve" font-family="PermanentMarker" font-size="36.0" fill="#011DA8" transform="matrix(1.00, 0.00, -0.00, -1.00, 1512.5, 572.0)">y</text><text xml:space="preserve" font-family="PermanentMarker" font-size="36.0" fill="#011DA8" transform="matrix(1.00, 0.00, -0.00, -1.00, 1526.9, 572.0)"> </text><text xml:space="preserve" font-family="PermanentMarker" font-size="36.0" fill="#011DA8" transform="matrix(1.00, 0.00, -0.00, -1.00, 1540.2, 572.0)">m</text><text xml:space="preserve" font-family="PermanentMarker" font-size="36.0" fill="#011DA8" transform="matrix(1.00, 0.00, -0.00, -1.00, 1569.6, 572.0)">o</text><text xml:space="preserve" font-family="PermanentMarker" font-size="36.0" fill="#011DA8" transform="matrix(1.00, 0.00, -0.00, -1.00, 1592.2, 572.0)">r</text><text xml:space="preserve" font-family="PermanentMarker" font-size="36.0" fill="#011DA8" transform="matrix(1.00, 0.00, -0.00, -1.00, 1611.7, 572.0)">n</text><text xml:space="preserve" font-family="PermanentMarker" font-size="36.0" fill="#011DA8" transform="matrix(1.00, 0.00, -0.00, -1.00, 1632.0, 572.0)">i</text><text xml:space="preserve" font-family="PermanentMarker" font-size="36.0" fill="#011DA8" transform="matrix(1.00, 0.00, -0.00, -1.00, 1643.6, 572.0)">n</text><text xml:space="preserve" font-family="PermanentMarker" font-size="36.0" fill="#011DA8" transform="matrix(1.00, 0.00, -0.00, -1.00, 1663.9, 572.0)">g</text><text xml:space="preserve" font-family="PermanentMarker" font-size="36.0" fill="#011DA8" transform="matrix(1.00, 0.00, -0.00, -1.00, 1687.4, 572.0)">?</text><text xml:space="preserve" font-family="PermanentMarker" font-size="36.0" fill="#011DA8" transform="matrix(1.00, 0.00, -0.00, -1.00, 1707.4, 572.0)"> </text><text xml:space="preserve" font-family="PermanentMarker" font-size="36.0" fill="#011DA8" transform="matrix(1.00, 0.00, -0.00, -1.00, 1439.0, 520.0)">I</text><text xml:space="preserve" font-family="PermanentMarker" font-size="36.0" fill="#011DA8" transform="matrix(1.00, 0.00, -0.00, -1.00, 1457.5, 520.0)">n</text><text xml:space="preserve" font-family="PermanentMarker" font-size="36.0" fill="#011DA8" transform="matrix(1.00, 0.00, -0.00, -1.00, 1477.9, 520.0)">t</text><text xml:space="preserve" font-family="PermanentMarker" font-size="36.0" fill="#011DA8" transform="matrix(1.00, 0.00, -0.00, -1.00, 1495.2, 520.0)">e</text><text xml:space="preserve" font-family="PermanentMarker" font-size="36.0" fill="#011DA8" transform="matrix(1.00, 0.00, -0.00, -1.00, 1514.0, 520.0)">n</text><text xml:space="preserve" font-family="PermanentMarker" font-size="36.0" fill="#011DA8" transform="matrix(1.00, 0.00, -0.00, -1.00, 1534.3, 520.0)">t</text><text xml:space="preserve" font-family="PermanentMarker" font-size="36.0" fill="#011DA8" transform="matrix(1.00, 0.00, -0.00, -1.00, 1551.6, 520.0)">i</text><text xml:space="preserve" font-family="PermanentMarker" font-size="36.0" fill="#011DA8" transform="matrix(1.00, 0.00, -0.00, -1.00, 1562.4, 520.0)">o</text><text xml:space="preserve" font-family="PermanentMarker" font-size="36.0" fill="#011DA8" transform="matrix(1.00, 0.00, -0.00, -1.00, 1585.1, 520.0)">n</text><text xml:space="preserve" font-family="PermanentMarker" font-size="36.0" fill="#011DA8" transform="matrix(1.00, 0.00, -0.00, -1.00, 1605.4, 520.0)"> </text><text xml:space="preserve" font-family="PermanentMarker" font-size="36.0" fill="#011DA8" transform="matrix(1.00, 0.00, -0.00, -1.00, 1618.7, 520.0)">m</text><text xml:space="preserve" font-family="PermanentMarker" font-size="36.0" fill="#011DA8" transform="matrix(1.00, 0.00, -0.00, -1.00, 1648.1, 520.0)">a</text><text xml:space="preserve" font-family="PermanentMarker" font-size="36.0" fill="#011DA8" transform="matrix(1.00, 0.00, -0.00, -1.00, 1667.2, 520.0)">t</text><text xml:space="preserve" font-family="PermanentMarker" font-size="36.0" fill="#011DA8" transform="matrix(1.00, 0.00, -0.00, -1.00, 1684.5, 520.0)">t</text><text xml:space="preserve" font-family="PermanentMarker" font-size="36.0" fill="#011DA8" transform="matrix(1.00, 0.00, -0.00, -1.00, 1701.7, 520.0)">e</text><text xml:space="preserve" font-family="PermanentMarker" font-size="36.0" fill="#011DA8" transform="matrix(1.00, 0.00, -0.00, -1.00, 1720.2, 520.0)">r</text><text xml:space="preserve" font-family="PermanentMarker" font-size="36.0" fill="#011DA8" transform="matrix(1.00, 0.00, -0.00, -1.00, 1739.7, 520.0)">s</text><text xml:space="preserve" font-family="PermanentMarker" font-size="36.0" fill="#011DA8" transform="matrix(1.00, 0.00, -0.00, -1.00, 1756.4, 520.0)">!</text></g></g><text xml:space="preserve" font-family="SourceSansPro-Regular" font-size="36.0" fill="#FFFFFF" transform="matrix(1.00, 0.00, -0.00, -1.00, 834.0, 17.0)">s</text><text xml:space="preserve" font-family="SourceSansPro-Regular" font-size="36.0" fill="#FFFFFF" transform="matrix(1.00, 0.00, -0.00, -1.00, 852.7, 17.0)">o</text><text xml:space="preserve" font-family="SourceSansPro-Regular" font-size="36.0" fill="#FFFFFF" transform="matrix(1.00, 0.00, -0.00, -1.00, 875.8, 17.0)">p</text><text xml:space="preserve" font-family="SourceSansPro-Regular" font-size="36.0" fill="#FFFFFF" transform="matrix(1.00, 0.00, -0.00, -1.00, 899.4, 17.0)">h</text><text xml:space="preserve" font-family="SourceSansPro-Regular" font-size="36.0" fill="#FFFFFF" transform="matrix(1.00, 0.00, -0.00, -1.00, 922.6, 17.0)">i</text><text xml:space="preserve" font-family="SourceSansPro-Regular" font-size="36.0" fill="#FFFFFF" transform="matrix(1.00, 0.00, -0.00, -1.00, 935.0, 17.0)">a</text><text xml:space="preserve" font-family="SourceSansPro-Regular" font-size="36.0" fill="#FFFFFF" transform="matrix(1.00, 0.00, -0.00, -1.00, 957.0, 17.0)">k</text><text xml:space="preserve" font-family="SourceSansPro-Regular" font-size="36.0" fill="#FFFFFF" transform="matrix(1.00, 0.00, -0.00, -1.00, 977.8, 17.0)">c</text><text xml:space="preserve" font-family="SourceSansPro-Regular" font-size="36.0" fill="#FFFFFF" transform="matrix(1.00, 0.00, -0.00, -1.00, 997.8, 17.0)">.</text><text xml:space="preserve" font-family="SourceSansPro-Regular" font-size="36.0" fill="#FFFFFF" transform="matrix(1.00, 0.00, -0.00, -1.00, 1010.1, 17.0)">c</text><text xml:space="preserve" font-family="SourceSansPro-Regular" font-size="36.0" fill="#FFFFFF" transform="matrix(1.00, 0.00, -0.00, -1.00, 1029.4, 17.0)">o</text><text xml:space="preserve" font-family="SourceSansPro-Regular" font-size="36.0" fill="#FFFFFF" transform="matrix(1.00, 0.00, -0.00, -1.00, 1052.5, 17.0)">m</text></g></svg>