<?xml version="1.0" encoding="UTF-8" standalone="no"?><svg xmlns="http://www.w3.org/2000/svg" xmlns:xlink="http://www.w3.org/1999/xlink" clip-rule="evenodd" stroke-miterlimit="4.00" viewBox="0 0 1920 1080"><desc>SVG generated by Keynote</desc><defs></defs><g transform="matrix(1.00, 0.00, -0.00, -1.00, 0.0, 1080.0)"><path d="M 0.0 1080.0 L 1920.0 1080.0 L 1920.0 0.0 L 0.0 0.0 Z M 0.0 1080.0 " fill="#FFFFFF"></path><g><clipPath id="clip-124"><path d="M 235.7 225.5 L 602.6 225.5 L 602.6 912.8 L 235.7 912.8 Z M 235.7 225.5 "></path></clipPath><g clip-path="url(#clip-124)"><image xlink:href="../../B8A04549-A3C1-4C62-BE02-9951FECDBC05/assets/110D16D068C8875928E65F42F46A33D8.png" width="367.00" height="687.00" transform="matrix(1.00, 0.00, -0.00, -1.00, 235.7, 912.8)" opacity="0.35"></image><image xlink:href="../../B8A04549-A3C1-4C62-BE02-9951FECDBC05/assets/79D085E86F9DD48E658F93E7D520D4D7.jpeg" width="355.00" height="676.00" transform="matrix(1.00, 0.00, -0.00, -1.00, 242.0, 910.0)"></image></g></g><g><clipPath id="clip-125"><path d="M 357.4 271.4 L 871.8 271.4 L 871.8 980.9 L 357.4 980.9 Z M 357.4 271.4 "></path></clipPath><g clip-path="url(#clip-125)"><image xlink:href="../../B8A04549-A3C1-4C62-BE02-9951FECDBC05/assets/00C600C7F5AD97D0A84E5C08A60592D3.png" width="514.00" height="710.00" transform="matrix(1.00, 0.00, -0.00, -1.00, 357.4, 980.9)" opacity="0.35"></image><image xlink:href="../../B8A04549-A3C1-4C62-BE02-9951FECDBC05/assets/CA4EB8A3422691DF76BA347C6CD45DC4.jpeg" width="502.00" height="698.00" transform="matrix(1.00, 0.00, -0.00, -1.00, 363.0, 978.0)"></image></g></g><g><clipPath id="clip-126"><path d="M 263.2 78.3 L 731.3 78.3 L 731.3 755.1 L 263.2 755.1 Z M 263.2 78.3 "></path></clipPath><g clip-path="url(#clip-126)"><image xlink:href="../../B8A04549-A3C1-4C62-BE02-9951FECDBC05/assets/C9ACE87A5725391DE7B69806DFDE56C0.png" width="468.00" height="677.00" transform="matrix(1.00, 0.00, -0.00, -1.00, 263.2, 755.1)" opacity="0.35"></image><image xlink:href="../../B8A04549-A3C1-4C62-BE02-9951FECDBC05/assets/73C58FC337A86A516AA48ED0EBCE3EAC.jpeg" width="456.00" height="665.00" transform="matrix(1.00, 0.00, -0.00, -1.00, 269.0, 752.0)"></image></g></g><text xml:space="preserve" font-family="SourceSansPro-Regular" font-size="36.0" fill="#525252" transform="matrix(1.00, 0.00, -0.00, -1.00, 834.0, 17.0)">s</text><text xml:space="preserve" font-family="SourceSansPro-Regular" font-size="36.0" fill="#525252" transform="matrix(1.00, 0.00, -0.00, -1.00, 852.7, 17.0)">o</text><text xml:space="preserve" font-family="SourceSansPro-Regular" font-size="36.0" fill="#525252" transform="matrix(1.00, 0.00, -0.00, -1.00, 875.8, 17.0)">p</text><text xml:space="preserve" font-family="SourceSansPro-Regular" font-size="36.0" fill="#525252" transform="matrix(1.00, 0.00, -0.00, -1.00, 899.4, 17.0)">h</text><text xml:space="preserve" font-family="SourceSansPro-Regular" font-size="36.0" fill="#525252" transform="matrix(1.00, 0.00, -0.00, -1.00, 922.6, 17.0)">i</text><text xml:space="preserve" font-family="SourceSansPro-Regular" font-size="36.0" fill="#525252" transform="matrix(1.00, 0.00, -0.00, -1.00, 935.0, 17.0)">a</text><text xml:space="preserve" font-family="SourceSansPro-Regular" font-size="36.0" fill="#525252" transform="matrix(1.00, 0.00, -0.00, -1.00, 957.0, 17.0)">k</text><text xml:space="preserve" font-family="SourceSansPro-Regular" font-size="36.0" fill="#525252" transform="matrix(1.00, 0.00, -0.00, -1.00, 977.8, 17.0)">c</text><text xml:space="preserve" font-family="SourceSansPro-Regular" font-size="36.0" fill="#525252" transform="matrix(1.00, 0.00, -0.00, -1.00, 997.8, 17.0)">.</text><text xml:space="preserve" font-family="SourceSansPro-Regular" font-size="36.0" fill="#525252" transform="matrix(1.00, 0.00, -0.00, -1.00, 1010.1, 17.0)">c</text><text xml:space="preserve" font-family="SourceSansPro-Regular" font-size="36.0" fill="#525252" transform="matrix(1.00, 0.00, -0.00, -1.00, 1029.4, 17.0)">o</text><text xml:space="preserve" font-family="SourceSansPro-Regular" font-size="36.0" fill="#525252" transform="matrix(1.00, 0.00, -0.00, -1.00, 1052.5, 17.0)">m</text><image xlink:href="../../B8A04549-A3C1-4C62-BE02-9951FECDBC05/assets/06EC95EA1B6AA1F25C25AE905CD99CCC.png" width="517.00" height="227.00" transform="matrix(1.00, 0.00, -0.00, -1.00, 979.8, 985.5)" opacity="0.35"></image><image xlink:href="../../B8A04549-A3C1-4C62-BE02-9951FECDBC05/assets/F6FC9E700E3EFB6F0B3DC128DCCA2409.png" width="505.00" height="215.00" transform="matrix(1.00, 0.00, -0.00, -1.00, 986.0, 982.0)"></image><text xml:space="preserve" font-family="PermanentMarker" font-size="24.0" fill="#0432FF" transform="matrix(1.00, 0.00, -0.00, -1.00, 182.0, 943.0)">B</text><text xml:space="preserve" font-family="PermanentMarker" font-size="24.0" fill="#0432FF" transform="matrix(1.00, 0.00, -0.00, -1.00, 198.5, 943.0)">a</text><text xml:space="preserve" font-family="PermanentMarker" font-size="24.0" fill="#0432FF" transform="matrix(1.00, 0.00, -0.00, -1.00, 211.9, 943.0)">b</text><text xml:space="preserve" font-family="PermanentMarker" font-size="24.0" fill="#0432FF" transform="matrix(1.00, 0.00, -0.00, -1.00, 224.7, 943.0)">y</text><text xml:space="preserve" font-family="PermanentMarker" font-size="24.0" fill="#0432FF" transform="matrix(1.00, 0.00, -0.00, -1.00, 234.4, 943.0)">-</text><text xml:space="preserve" font-family="PermanentMarker" font-size="24.0" fill="#0432FF" transform="matrix(1.00, 0.00, -0.00, -1.00, 249.0, 943.0)">s</text><text xml:space="preserve" font-family="PermanentMarker" font-size="24.0" fill="#0432FF" transform="matrix(1.00, 0.00, -0.00, -1.00, 260.1, 943.0)">i</text><text xml:space="preserve" font-family="PermanentMarker" font-size="24.0" fill="#0432FF" transform="matrix(1.00, 0.00, -0.00, -1.00, 267.8, 943.0)">t</text><text xml:space="preserve" font-family="PermanentMarker" font-size="24.0" fill="#0432FF" transform="matrix(1.00, 0.00, -0.00, -1.00, 279.3, 943.0)">t</text><text xml:space="preserve" font-family="PermanentMarker" font-size="24.0" fill="#0432FF" transform="matrix(1.00, 0.00, -0.00, -1.00, 290.9, 943.0)">e</text><text xml:space="preserve" font-family="PermanentMarker" font-size="24.0" fill="#0432FF" transform="matrix(1.00, 0.00, -0.00, -1.00, 303.2, 943.0)">r</text><text xml:space="preserve" font-family="PermanentMarker" font-size="24.0" fill="#0432FF" transform="matrix(1.00, 0.00, -0.00, -1.00, 316.1, 943.0)">s</text><text xml:space="preserve" font-family="PermanentMarker" font-size="24.0" fill="#0432FF" transform="matrix(1.00, 0.00, -0.00, -1.00, 1165.0, 999.0)">P</text><text xml:space="preserve" font-family="PermanentMarker" font-size="24.0" fill="#0432FF" transform="matrix(1.00, 0.00, -0.00, -1.00, 1179.9, 999.0)">a</text><text xml:space="preserve" font-family="PermanentMarker" font-size="24.0" fill="#0432FF" transform="matrix(1.00, 0.00, -0.00, -1.00, 1193.8, 999.0)">r</text><text xml:space="preserve" font-family="PermanentMarker" font-size="24.0" fill="#0432FF" transform="matrix(1.00, 0.00, -0.00, -1.00, 1206.8, 999.0)">e</text><text xml:space="preserve" font-family="PermanentMarker" font-size="24.0" fill="#0432FF" transform="matrix(1.00, 0.00, -0.00, -1.00, 1219.3, 999.0)">n</text><text xml:space="preserve" font-family="PermanentMarker" font-size="24.0" fill="#0432FF" transform="matrix(1.00, 0.00, -0.00, -1.00, 1232.9, 999.0)">t</text><text xml:space="preserve" font-family="PermanentMarker" font-size="24.0" fill="#0432FF" transform="matrix(1.00, 0.00, -0.00, -1.00, 1244.4, 999.0)">s</text><image xlink:href="../../B8A04549-A3C1-4C62-BE02-9951FECDBC05/assets/231F7CB549771029D96B4DF5512ECC91.png" width="507.00" height="628.00" transform="matrix(1.00, 0.00, -0.00, -1.00, 957.5, 746.3)" opacity="0.35"></image><image xlink:href="../../B8A04549-A3C1-4C62-BE02-9951FECDBC05/assets/ADD7AEBDB45016D2C994C4C5DB17F714.png" width="495.00" height="616.00" transform="matrix(1.00, 0.00, -0.00, -1.00, 963.0, 743.0)"></image><image xlink:href="../../B8A04549-A3C1-4C62-BE02-9951FECDBC05/assets/7F9A0F7B9869E362A84262AE8F12374F.png" width="511.00" height="407.00" transform="matrix(1.00, 0.00, -0.00, -1.00, 1358.6, 845.1)" opacity="0.35"></image><image xlink:href="../../B8A04549-A3C1-4C62-BE02-9951FECDBC05/assets/9B59384BBF75FF5B411445717E395070.png" width="499.00" height="395.00" transform="matrix(1.00, 0.00, -0.00, -1.00, 1365.0, 842.0)"></image></g></svg>