<?xml version="1.0" encoding="UTF-8" standalone="no"?><svg xmlns="http://www.w3.org/2000/svg" xmlns:xlink="http://www.w3.org/1999/xlink" clip-rule="evenodd" stroke-miterlimit="4.00" viewBox="0 0 1920 1080"><desc>SVG generated by Keynote</desc><defs></defs><g transform="matrix(1.00, 0.00, -0.00, -1.00, 0.0, 1080.0)"><path d="M 0.0 1080.0 L 1920.0 1080.0 L 1920.0 0.0 L 0.0 0.0 Z M 0.0 1080.0 " fill="#FFFFFF"></path><text xml:space="preserve" font-family="SourceSansPro-Regular" font-size="36.0" fill="#525252" transform="matrix(1.00, 0.00, -0.00, -1.00, 834.0, 17.0)">s</text><text xml:space="preserve" font-family="SourceSansPro-Regular" font-size="36.0" fill="#525252" transform="matrix(1.00, 0.00, -0.00, -1.00, 852.7, 17.0)">o</text><text xml:space="preserve" font-family="SourceSansPro-Regular" font-size="36.0" fill="#525252" transform="matrix(1.00, 0.00, -0.00, -1.00, 875.8, 17.0)">p</text><text xml:space="preserve" font-family="SourceSansPro-Regular" font-size="36.0" fill="#525252" transform="matrix(1.00, 0.00, -0.00, -1.00, 899.4, 17.0)">h</text><text xml:space="preserve" font-family="SourceSansPro-Regular" font-size="36.0" fill="#525252" transform="matrix(1.00, 0.00, -0.00, -1.00, 922.6, 17.0)">i</text><text xml:space="preserve" font-family="SourceSansPro-Regular" font-size="36.0" fill="#525252" transform="matrix(1.00, 0.00, -0.00, -1.00, 935.0, 17.0)">a</text><text xml:space="preserve" font-family="SourceSansPro-Regular" font-size="36.0" fill="#525252" transform="matrix(1.00, 0.00, -0.00, -1.00, 957.0, 17.0)">k</text><text xml:space="preserve" font-family="SourceSansPro-Regular" font-size="36.0" fill="#525252" transform="matrix(1.00, 0.00, -0.00, -1.00, 977.8, 17.0)">c</text><text xml:space="preserve" font-family="SourceSansPro-Regular" font-size="36.0" fill="#525252" transform="matrix(1.00, 0.00, -0.00, -1.00, 997.8, 17.0)">.</text><text xml:space="preserve" font-family="SourceSansPro-Regular" font-size="36.0" fill="#525252" transform="matrix(1.00, 0.00, -0.00, -1.00, 1010.1, 17.0)">c</text><text xml:space="preserve" font-family="SourceSansPro-Regular" font-size="36.0" fill="#525252" transform="matrix(1.00, 0.00, -0.00, -1.00, 1029.4, 17.0)">o</text><text xml:space="preserve" font-family="SourceSansPro-Regular" font-size="36.0" fill="#525252" transform="matrix(1.00, 0.00, -0.00, -1.00, 1052.5, 17.0)">m</text><path d="M 131.1 943.2 L 500.7 943.2 L 500.7 836.2 L 131.1 836.2 Z M 131.1 943.2 " fill="#FEFB00"></path><text xml:space="preserve" font-family="SourceSansPro-Semibold" font-weight="bold" font-size="85.0" fill="#525252" transform="matrix(1.00, 0.00, -0.00, -1.00, 131.0, 859.0)">O</text><text xml:space="preserve" font-family="SourceSansPro-Semibold" font-weight="bold" font-size="85.0" fill="#525252" transform="matrix(1.00, 0.00, -0.00, -1.00, 188.3, 859.0)">u</text><text xml:space="preserve" font-family="SourceSansPro-Semibold" font-weight="bold" font-size="85.0" fill="#525252" transform="matrix(1.00, 0.00, -0.00, -1.00, 235.6, 859.0)">t</text><text xml:space="preserve" font-family="SourceSansPro-Semibold" font-weight="bold" font-size="85.0" fill="#525252" transform="matrix(1.00, 0.00, -0.00, -1.00, 265.4, 859.0)">c</text><text xml:space="preserve" font-family="SourceSansPro-Semibold" font-weight="bold" font-size="85.0" fill="#525252" transform="matrix(1.00, 0.00, -0.00, -1.00, 302.6, 859.0)">o</text><text xml:space="preserve" font-family="SourceSansPro-Semibold" font-weight="bold" font-size="85.0" fill="#525252" transform="matrix(1.00, 0.00, -0.00, -1.00, 349.3, 859.0)">m</text><text xml:space="preserve" font-family="SourceSansPro-Semibold" font-weight="bold" font-size="85.0" fill="#525252" transform="matrix(1.00, 0.00, -0.00, -1.00, 420.9, 859.0)">e</text><text xml:space="preserve" font-family="SourceSansPro-Semibold" font-weight="bold" font-size="85.0" fill="#525252" transform="matrix(1.00, 0.00, -0.00, -1.00, 464.0, 859.0)">s</text><g><clipPath id="clip-1252"><path d="M 114.7 604.1 L 1628.3 604.1 L 1628.3 667.7 L 114.7 667.7 Z M 114.7 604.1 "></path></clipPath><g clip-path="url(#clip-1252)"><path d="M 130.7 667.7 L 168.8 667.7 L 168.8 602.7 L 130.7 602.7 Z M 130.7 667.7 " fill="#FEFB00"></path></g></g><text xml:space="preserve" font-family="ZapfDingbatsITC" font-size="45.0" fill="#525252" transform="matrix(1.00, 0.00, -0.00, -1.00, 131.0, 618.0)">✔</text><text xml:space="preserve" font-family="ZapfDingbatsITC" font-size="45.0" fill="#525252" transform="matrix(1.00, 0.00, -0.00, -1.00, 169.1, 618.0)"> </text><text xml:space="preserve" font-family="PermanentMarker" font-size="45.0" fill="#525252" transform="matrix(1.00, 0.00, -0.00, -1.00, 181.6, 618.0)">U</text><text xml:space="preserve" font-family="PermanentMarker" font-size="45.0" fill="#525252" transform="matrix(1.00, 0.00, -0.00, -1.00, 212.9, 618.0)">s</text><text xml:space="preserve" font-family="PermanentMarker" font-size="45.0" fill="#525252" transform="matrix(1.00, 0.00, -0.00, -1.00, 233.8, 618.0)">e</text><text xml:space="preserve" font-family="PermanentMarker" font-size="45.0" fill="#525252" transform="matrix(1.00, 0.00, -0.00, -1.00, 256.8, 618.0)">r</text><text xml:space="preserve" font-family="PermanentMarker" font-size="45.0" fill="#525252" transform="matrix(1.00, 0.00, -0.00, -1.00, 281.1, 618.0)"> </text><text xml:space="preserve" font-family="PermanentMarker" font-size="45.0" fill="#525252" transform="matrix(1.00, 0.00, -0.00, -1.00, 297.8, 618.0)">s</text><text xml:space="preserve" font-family="PermanentMarker" font-size="45.0" fill="#525252" transform="matrix(1.00, 0.00, -0.00, -1.00, 318.7, 618.0)">c</text><text xml:space="preserve" font-family="PermanentMarker" font-size="45.0" fill="#525252" transform="matrix(1.00, 0.00, -0.00, -1.00, 341.3, 618.0)">e</text><text xml:space="preserve" font-family="PermanentMarker" font-size="45.0" fill="#525252" transform="matrix(1.00, 0.00, -0.00, -1.00, 364.8, 618.0)">n</text><text xml:space="preserve" font-family="PermanentMarker" font-size="45.0" fill="#525252" transform="matrix(1.00, 0.00, -0.00, -1.00, 390.2, 618.0)">a</text><text xml:space="preserve" font-family="PermanentMarker" font-size="45.0" fill="#525252" transform="matrix(1.00, 0.00, -0.00, -1.00, 416.4, 618.0)">r</text><text xml:space="preserve" font-family="PermanentMarker" font-size="45.0" fill="#525252" transform="matrix(1.00, 0.00, -0.00, -1.00, 440.7, 618.0)">i</text><text xml:space="preserve" font-family="PermanentMarker" font-size="45.0" fill="#525252" transform="matrix(1.00, 0.00, -0.00, -1.00, 454.3, 618.0)">o</text><text xml:space="preserve" font-family="PermanentMarker" font-size="45.0" fill="#525252" transform="matrix(1.00, 0.00, -0.00, -1.00, 481.7, 618.0)">s</text><text xml:space="preserve" font-family="PermanentMarker" font-size="45.0" fill="#525252" transform="matrix(1.00, 0.00, -0.00, -1.00, 502.6, 618.0)"> </text><text xml:space="preserve" font-family="PermanentMarker" font-size="45.0" fill="#525252" transform="matrix(1.00, 0.00, -0.00, -1.00, 519.2, 618.0)">p</text><text xml:space="preserve" font-family="PermanentMarker" font-size="45.0" fill="#525252" transform="matrix(1.00, 0.00, -0.00, -1.00, 542.9, 618.0)">r</text><text xml:space="preserve" font-family="PermanentMarker" font-size="45.0" fill="#525252" transform="matrix(1.00, 0.00, -0.00, -1.00, 567.2, 618.0)">i</text><text xml:space="preserve" font-family="PermanentMarker" font-size="45.0" fill="#525252" transform="matrix(1.00, 0.00, -0.00, -1.00, 580.8, 618.0)">o</text><text xml:space="preserve" font-family="PermanentMarker" font-size="45.0" fill="#525252" transform="matrix(1.00, 0.00, -0.00, -1.00, 609.1, 618.0)">r</text><text xml:space="preserve" font-family="PermanentMarker" font-size="45.0" fill="#525252" transform="matrix(1.00, 0.00, -0.00, -1.00, 633.4, 618.0)">i</text><text xml:space="preserve" font-family="PermanentMarker" font-size="45.0" fill="#525252" transform="matrix(1.00, 0.00, -0.00, -1.00, 647.8, 618.0)">t</text><text xml:space="preserve" font-family="PermanentMarker" font-size="45.0" fill="#525252" transform="matrix(1.00, 0.00, -0.00, -1.00, 669.4, 618.0)">y</text><text xml:space="preserve" font-family="PermanentMarker" font-size="45.0" fill="#525252" transform="matrix(1.00, 0.00, -0.00, -1.00, 687.3, 618.0)">:</text><text xml:space="preserve" font-family="PermanentMarker" font-size="45.0" fill="#525252" transform="matrix(1.00, 0.00, -0.00, -1.00, 698.2, 618.0)"> </text><text xml:space="preserve" font-family="PermanentMarker" font-size="45.0" fill="#525252" transform="matrix(1.00, 0.00, -0.00, -1.00, 714.8, 618.0)">#</text><text xml:space="preserve" font-family="PermanentMarker" font-size="45.0" fill="#525252" transform="matrix(1.00, 0.00, -0.00, -1.00, 746.5, 618.0)">1</text><text xml:space="preserve" font-family="PermanentMarker" font-size="45.0" fill="#525252" transform="matrix(1.00, 0.00, -0.00, -1.00, 761.0, 618.0)"> </text><text xml:space="preserve" font-family="PermanentMarker" font-size="45.0" fill="#525252" transform="matrix(1.00, 0.00, -0.00, -1.00, 777.6, 618.0)">s</text><text xml:space="preserve" font-family="PermanentMarker" font-size="45.0" fill="#525252" transform="matrix(1.00, 0.00, -0.00, -1.00, 797.6, 618.0)">o</text><text xml:space="preserve" font-family="PermanentMarker" font-size="45.0" fill="#525252" transform="matrix(1.00, 0.00, -0.00, -1.00, 825.9, 618.0)">l</text><text xml:space="preserve" font-family="PermanentMarker" font-size="45.0" fill="#525252" transform="matrix(1.00, 0.00, -0.00, -1.00, 849.9, 618.0)">o</text><text xml:space="preserve" font-family="PermanentMarker" font-size="45.0" fill="#525252" transform="matrix(1.00, 0.00, -0.00, -1.00, 878.2, 618.0)"> </text><text xml:space="preserve" font-family="PermanentMarker" font-size="45.0" fill="#525252" transform="matrix(1.00, 0.00, -0.00, -1.00, 894.9, 618.0)">u</text><text xml:space="preserve" font-family="PermanentMarker" font-size="45.0" fill="#525252" transform="matrix(1.00, 0.00, -0.00, -1.00, 921.2, 618.0)">s</text><text xml:space="preserve" font-family="PermanentMarker" font-size="45.0" fill="#525252" transform="matrix(1.00, 0.00, -0.00, -1.00, 942.1, 618.0)">e</text><text xml:space="preserve" font-family="PermanentMarker" font-size="45.0" fill="#525252" transform="matrix(1.00, 0.00, -0.00, -1.00, 965.6, 618.0)">,</text><text xml:space="preserve" font-family="PermanentMarker" font-size="45.0" fill="#525252" transform="matrix(1.00, 0.00, -0.00, -1.00, 974.8, 618.0)"> </text><text xml:space="preserve" font-family="PermanentMarker" font-size="45.0" fill="#525252" transform="matrix(1.00, 0.00, -0.00, -1.00, 991.4, 618.0)">#</text><text xml:space="preserve" font-family="PermanentMarker" font-size="45.0" fill="#525252" transform="matrix(1.00, 0.00, -0.00, -1.00, 1023.1, 618.0)">2</text><text xml:space="preserve" font-family="PermanentMarker" font-size="45.0" fill="#525252" transform="matrix(1.00, 0.00, -0.00, -1.00, 1052.4, 618.0)"> </text><text xml:space="preserve" font-family="PermanentMarker" font-size="45.0" fill="#525252" transform="matrix(1.00, 0.00, -0.00, -1.00, 1069.0, 618.0)">d</text><text xml:space="preserve" font-family="PermanentMarker" font-size="45.0" fill="#525252" transform="matrix(1.00, 0.00, -0.00, -1.00, 1090.9, 618.0)">u</text><text xml:space="preserve" font-family="PermanentMarker" font-size="45.0" fill="#525252" transform="matrix(1.00, 0.00, -0.00, -1.00, 1117.3, 618.0)">o</text><text xml:space="preserve" font-family="PermanentMarker" font-size="45.0" fill="#525252" transform="matrix(1.00, 0.00, -0.00, -1.00, 1145.6, 618.0)"> </text><text xml:space="preserve" font-family="PermanentMarker" font-size="45.0" fill="#525252" transform="matrix(1.00, 0.00, -0.00, -1.00, 1162.2, 618.0)">u</text><text xml:space="preserve" font-family="PermanentMarker" font-size="45.0" fill="#525252" transform="matrix(1.00, 0.00, -0.00, -1.00, 1188.5, 618.0)">s</text><text xml:space="preserve" font-family="PermanentMarker" font-size="45.0" fill="#525252" transform="matrix(1.00, 0.00, -0.00, -1.00, 1209.4, 618.0)">e</text><text xml:space="preserve" font-family="PermanentMarker" font-size="45.0" fill="#525252" transform="matrix(1.00, 0.00, -0.00, -1.00, 1232.9, 618.0)"> </text><text xml:space="preserve" font-family="PermanentMarker" font-size="45.0" fill="#525252" transform="matrix(1.00, 0.00, -0.00, -1.00, 1249.6, 618.0)">w</text><text xml:space="preserve" font-family="PermanentMarker" font-size="45.0" fill="#525252" transform="matrix(1.00, 0.00, -0.00, -1.00, 1286.7, 618.0)">i</text><text xml:space="preserve" font-family="PermanentMarker" font-size="45.0" fill="#525252" transform="matrix(1.00, 0.00, -0.00, -1.00, 1301.1, 618.0)">t</text><text xml:space="preserve" font-family="PermanentMarker" font-size="45.0" fill="#525252" transform="matrix(1.00, 0.00, -0.00, -1.00, 1322.7, 618.0)">h</text><text xml:space="preserve" font-family="PermanentMarker" font-size="45.0" fill="#525252" transform="matrix(1.00, 0.00, -0.00, -1.00, 1348.9, 618.0)"> </text><text xml:space="preserve" font-family="PermanentMarker" font-size="45.0" fill="#525252" transform="matrix(1.00, 0.00, -0.00, -1.00, 1365.6, 618.0)">s</text><text xml:space="preserve" font-family="PermanentMarker" font-size="45.0" fill="#525252" transform="matrix(1.00, 0.00, -0.00, -1.00, 1385.6, 618.0)">o</text><text xml:space="preserve" font-family="PermanentMarker" font-size="45.0" fill="#525252" transform="matrix(1.00, 0.00, -0.00, -1.00, 1413.9, 618.0)">l</text><text xml:space="preserve" font-family="PermanentMarker" font-size="45.0" fill="#525252" transform="matrix(1.00, 0.00, -0.00, -1.00, 1437.9, 618.0)">o</text><text xml:space="preserve" font-family="PermanentMarker" font-size="45.0" fill="#525252" transform="matrix(1.00, 0.00, -0.00, -1.00, 1466.2, 618.0)"> </text><text xml:space="preserve" font-family="PermanentMarker" font-size="45.0" fill="#525252" transform="matrix(1.00, 0.00, -0.00, -1.00, 1482.8, 618.0)">d</text><text xml:space="preserve" font-family="PermanentMarker" font-size="45.0" fill="#525252" transform="matrix(1.00, 0.00, -0.00, -1.00, 1504.8, 618.0)">e</text><text xml:space="preserve" font-family="PermanentMarker" font-size="45.0" fill="#525252" transform="matrix(1.00, 0.00, -0.00, -1.00, 1528.2, 618.0)">v</text><text xml:space="preserve" font-family="PermanentMarker" font-size="45.0" fill="#525252" transform="matrix(1.00, 0.00, -0.00, -1.00, 1550.1, 618.0)">i</text><text xml:space="preserve" font-family="PermanentMarker" font-size="45.0" fill="#525252" transform="matrix(1.00, 0.00, -0.00, -1.00, 1564.5, 618.0)">c</text><text xml:space="preserve" font-family="PermanentMarker" font-size="45.0" fill="#525252" transform="matrix(1.00, 0.00, -0.00, -1.00, 1587.2, 618.0)">e</text><g><clipPath id="clip-1253"><path d="M 114.7 692.4 L 415.3 692.4 L 415.3 756.0 L 114.7 756.0 Z M 114.7 692.4 "></path></clipPath><g clip-path="url(#clip-1253)"><path d="M 130.7 756.0 L 168.8 756.0 L 168.8 691.0 L 130.7 691.0 Z M 130.7 756.0 " fill="#FEFB00"></path></g></g><text xml:space="preserve" font-family="ZapfDingbatsITC" font-size="45.0" fill="#525252" transform="matrix(1.00, 0.00, -0.00, -1.00, 131.0, 707.0)">✔</text><text xml:space="preserve" font-family="ZapfDingbatsITC" font-size="45.0" fill="#525252" transform="matrix(1.00, 0.00, -0.00, -1.00, 169.1, 707.0)"> </text><text xml:space="preserve" font-family="PermanentMarker" font-size="45.0" fill="#525252" transform="matrix(1.00, 0.00, -0.00, -1.00, 181.6, 707.0)">J</text><text xml:space="preserve" font-family="PermanentMarker" font-size="45.0" fill="#525252" transform="matrix(1.00, 0.00, -0.00, -1.00, 211.7, 707.0)">o</text><text xml:space="preserve" font-family="PermanentMarker" font-size="45.0" fill="#525252" transform="matrix(1.00, 0.00, -0.00, -1.00, 239.1, 707.0)">b</text><text xml:space="preserve" font-family="PermanentMarker" font-size="45.0" fill="#525252" transform="matrix(1.00, 0.00, -0.00, -1.00, 264.9, 707.0)"> </text><text xml:space="preserve" font-family="PermanentMarker" font-size="45.0" fill="#525252" transform="matrix(1.00, 0.00, -0.00, -1.00, 281.5, 707.0)">S</text><text xml:space="preserve" font-family="PermanentMarker" font-size="45.0" fill="#525252" transform="matrix(1.00, 0.00, -0.00, -1.00, 307.4, 707.0)">t</text><text xml:space="preserve" font-family="PermanentMarker" font-size="45.0" fill="#525252" transform="matrix(1.00, 0.00, -0.00, -1.00, 327.7, 707.0)">o</text><text xml:space="preserve" font-family="PermanentMarker" font-size="45.0" fill="#525252" transform="matrix(1.00, 0.00, -0.00, -1.00, 356.0, 707.0)">r</text><text xml:space="preserve" font-family="PermanentMarker" font-size="45.0" fill="#525252" transform="matrix(1.00, 0.00, -0.00, -1.00, 379.4, 707.0)">y</text><g><clipPath id="clip-1254"><path d="M 114.7 515.8 L 487.2 515.8 L 487.2 579.4 L 114.7 579.4 Z M 114.7 515.8 "></path></clipPath><g clip-path="url(#clip-1254)"><path d="M 130.7 579.4 L 168.8 579.4 L 168.8 514.4 L 130.7 514.4 Z M 130.7 579.4 " fill="#FEFB00"></path></g></g><text xml:space="preserve" font-family="ZapfDingbatsITC" font-size="45.0" fill="#525252" transform="matrix(1.00, 0.00, -0.00, -1.00, 131.0, 530.0)">✔</text><text xml:space="preserve" font-family="ZapfDingbatsITC" font-size="45.0" fill="#525252" transform="matrix(1.00, 0.00, -0.00, -1.00, 169.1, 530.0)"> </text><text xml:space="preserve" font-family="PermanentMarker" font-size="45.0" fill="#525252" transform="matrix(1.00, 0.00, -0.00, -1.00, 181.6, 530.0)">S</text><text xml:space="preserve" font-family="PermanentMarker" font-size="45.0" fill="#525252" transform="matrix(1.00, 0.00, -0.00, -1.00, 207.5, 530.0)">k</text><text xml:space="preserve" font-family="PermanentMarker" font-size="45.0" fill="#525252" transform="matrix(1.00, 0.00, -0.00, -1.00, 236.5, 530.0)">e</text><text xml:space="preserve" font-family="PermanentMarker" font-size="45.0" fill="#525252" transform="matrix(1.00, 0.00, -0.00, -1.00, 260.0, 530.0)">t</text><text xml:space="preserve" font-family="PermanentMarker" font-size="45.0" fill="#525252" transform="matrix(1.00, 0.00, -0.00, -1.00, 281.6, 530.0)">c</text><text xml:space="preserve" font-family="PermanentMarker" font-size="45.0" fill="#525252" transform="matrix(1.00, 0.00, -0.00, -1.00, 304.7, 530.0)">h</text><text xml:space="preserve" font-family="PermanentMarker" font-size="45.0" fill="#525252" transform="matrix(1.00, 0.00, -0.00, -1.00, 330.9, 530.0)">e</text><text xml:space="preserve" font-family="PermanentMarker" font-size="45.0" fill="#525252" transform="matrix(1.00, 0.00, -0.00, -1.00, 354.4, 530.0)">s</text><text xml:space="preserve" font-family="PermanentMarker" font-size="45.0" fill="#525252" transform="matrix(1.00, 0.00, -0.00, -1.00, 375.3, 530.0)"> </text><text xml:space="preserve" font-family="PermanentMarker" font-size="45.0" fill="#525252" transform="matrix(1.00, 0.00, -0.00, -1.00, 391.9, 530.0)">v</text><text xml:space="preserve" font-family="PermanentMarker" font-size="45.0" fill="#525252" transform="matrix(1.00, 0.00, -0.00, -1.00, 413.8, 530.0)">0</text><text xml:space="preserve" font-family="PermanentMarker" font-size="45.0" fill="#525252" transform="matrix(1.00, 0.00, -0.00, -1.00, 444.7, 530.0)">.</text><text xml:space="preserve" font-family="PermanentMarker" font-size="45.0" fill="#525252" transform="matrix(1.00, 0.00, -0.00, -1.00, 454.9, 530.0)">1</text><g><clipPath id="clip-1255"><path d="M 114.7 427.4 L 552.5 427.4 L 552.5 491.1 L 114.7 491.1 Z M 114.7 427.4 "></path></clipPath><g clip-path="url(#clip-1255)"><path d="M 130.7 491.1 L 168.8 491.1 L 168.8 426.1 L 130.7 426.1 Z M 130.7 491.1 " fill="#FEFB00"></path></g></g><text xml:space="preserve" font-family="ZapfDingbatsITC" font-size="45.0" fill="#525252" transform="matrix(1.00, 0.00, -0.00, -1.00, 131.0, 442.0)">✔</text><text xml:space="preserve" font-family="ZapfDingbatsITC" font-size="45.0" fill="#525252" transform="matrix(1.00, 0.00, -0.00, -1.00, 169.1, 442.0)"> </text><text xml:space="preserve" font-family="PermanentMarker" font-size="45.0" fill="#525252" transform="matrix(1.00, 0.00, -0.00, -1.00, 181.6, 442.0)">W</text><text xml:space="preserve" font-family="PermanentMarker" font-size="45.0" fill="#525252" transform="matrix(1.00, 0.00, -0.00, -1.00, 226.3, 442.0)">i</text><text xml:space="preserve" font-family="PermanentMarker" font-size="45.0" fill="#525252" transform="matrix(1.00, 0.00, -0.00, -1.00, 240.7, 442.0)">r</text><text xml:space="preserve" font-family="PermanentMarker" font-size="45.0" fill="#525252" transform="matrix(1.00, 0.00, -0.00, -1.00, 265.1, 442.0)">e</text><text xml:space="preserve" font-family="PermanentMarker" font-size="45.0" fill="#525252" transform="matrix(1.00, 0.00, -0.00, -1.00, 288.6, 442.0)">f</text><text xml:space="preserve" font-family="PermanentMarker" font-size="45.0" fill="#525252" transform="matrix(1.00, 0.00, -0.00, -1.00, 309.1, 442.0)">r</text><text xml:space="preserve" font-family="PermanentMarker" font-size="45.0" fill="#525252" transform="matrix(1.00, 0.00, -0.00, -1.00, 333.4, 442.0)">a</text><text xml:space="preserve" font-family="PermanentMarker" font-size="45.0" fill="#525252" transform="matrix(1.00, 0.00, -0.00, -1.00, 359.6, 442.0)">m</text><text xml:space="preserve" font-family="PermanentMarker" font-size="45.0" fill="#525252" transform="matrix(1.00, 0.00, -0.00, -1.00, 396.2, 442.0)">e</text><text xml:space="preserve" font-family="PermanentMarker" font-size="45.0" fill="#525252" transform="matrix(1.00, 0.00, -0.00, -1.00, 419.7, 442.0)">s</text><text xml:space="preserve" font-family="PermanentMarker" font-size="45.0" fill="#525252" transform="matrix(1.00, 0.00, -0.00, -1.00, 440.6, 442.0)"> </text><text xml:space="preserve" font-family="PermanentMarker" font-size="45.0" fill="#525252" transform="matrix(1.00, 0.00, -0.00, -1.00, 457.3, 442.0)">v</text><text xml:space="preserve" font-family="PermanentMarker" font-size="45.0" fill="#525252" transform="matrix(1.00, 0.00, -0.00, -1.00, 479.1, 442.0)">0</text><text xml:space="preserve" font-family="PermanentMarker" font-size="45.0" fill="#525252" transform="matrix(1.00, 0.00, -0.00, -1.00, 510.0, 442.0)">.</text><text xml:space="preserve" font-family="PermanentMarker" font-size="45.0" fill="#525252" transform="matrix(1.00, 0.00, -0.00, -1.00, 520.2, 442.0)">1</text></g></svg>